<?xml version="1.0" encoding="utf-8"?>
<!-- Generator: Adobe Illustrator 26.5.0, SVG Export Plug-In . SVG Version: 6.00 Build 0)  -->
<svg version="1.1" xmlns="http://www.w3.org/2000/svg" xmlns:xlink="http://www.w3.org/1999/xlink" x="0px" y="0px"
	 viewBox="0 0 1000 1000" style="enable-background:new 0 0 1000 1000;" xml:space="preserve">
<style type="text/css">
	.st0{fill:#DCDC4A;stroke:#B7C334;stroke-width:8.6335;stroke-linecap:round;stroke-linejoin:round;stroke-miterlimit:10;}
	.st1{fill:#FFFFFF;stroke:#D9D9D9;stroke-width:8.6335;stroke-linecap:round;stroke-linejoin:round;stroke-miterlimit:10;}
	.st2{fill:#DCDC4A;}
	.st3{fill:#FF788D;stroke:#582D17;stroke-width:12.9503;stroke-linecap:round;stroke-linejoin:round;stroke-miterlimit:10;}
	.st4{fill:none;stroke:#B7C334;stroke-width:8.6335;stroke-linecap:round;stroke-linejoin:round;stroke-miterlimit:10;}
	.st5{fill:#582D17;}
</style>
<g id="Layer_1">
	<g>
		<g>
			<path class="st0" d="M649.66,602.84c0,0,89.87,171.36-13.67,198.87c-103.55,27.51-84.28-122.66-91.17-173.08
				c-4.75-34.75,13.38-70.86,57.67-65.2C634.44,567.51,649.66,602.84,649.66,602.84z"/>
			<circle class="st0" cx="384.29" cy="765.82" r="39.49"/>
			<g>
				<g>
					<path class="st1" d="M622.56,742.81c0,0-8.13,112.67-11.61,135.11c-3.48,22.44,18.39,79.45-40.92,84.96
						c-45.59,4.23-86.05,0.72-87.17-62.52c-1.12-63.24-2.79-135.56-2.79-135.56L622.56,742.81z"/>
				</g>
			</g>
			<g>
				<g>
					<path class="st1" d="M526.78,747.11c0,0-8.13,112.67-11.61,135.11c-3.48,22.44,18.39,79.45-40.92,84.96
						c-45.59,4.23-86.05,0.72-87.17-62.52s-2.79-135.56-2.79-135.56L526.78,747.11z"/>
				</g>
			</g>
			<path class="st1" d="M341.49,692.31c-6.33,124.8,92.6,143.87,181.6,143.87c93.79,0,150.6-37.5,139.9-133.63
				c-11.01-98.94-50.92-180.25-139.9-180.25S347.73,569.38,341.49,692.31z"/>
			<path class="st2" d="M493.48,714.22c1.57,46.94,30.96,86.55,85.52,81.64c47.49-4.27,64.43-35.48,62.72-86.61
				c-1.57-46.94-36.03-83.88-76.96-82.51C523.81,628.11,491.9,667.27,493.48,714.22z"/>
		</g>
	</g>
</g>
<g id="얼굴">
	<g>
		<g>
			<circle class="st0" cx="731.59" cy="144.96" r="36.86"/>
		</g>
		<path class="st1" d="M171.59,364.03C160.63,534.4,308.73,614.96,521.56,614.96c236.96,0,320.22-82.53,305.86-223.39
			C810.7,227.52,737.74,68.41,505.08,68.41S182.69,191.29,171.59,364.03z"/>
		<path class="st3" d="M544.05,454.13c0,0,2.11,47.55,20.39,46.12c18.28-1.44,16.66-46.12,16.66-46.12H544.05z"/>
		<path class="st0" d="M256.5,168.39c13.93,14.85,28.66,7.35,43.51-6.58c14.85-13.93,24.18-29.01,10.25-43.86
			s-37.25-15.59-52.1-1.66C243.32,130.22,242.58,153.55,256.5,168.39z"/>
		<g>
			<circle class="st2" cx="579.79" cy="437.76" r="35.17"/>
			<circle class="st2" cx="540.12" cy="437.76" r="35.17"/>
			<path class="st0" d="M575.29,437.76c0,0,0.67,18.36-15.33,29.03"/>
			<path class="st4" d="M540.12,402.59c7.36,0,14.19,2.27,19.84,6.14c5.65-3.87,12.48-6.14,19.84-6.14
				c19.42,0,35.17,15.75,35.17,35.17c0,19.42-15.75,35.17-35.17,35.17c-7.36,0-14.19-2.27-19.84-6.14
				c-5.65,3.87-12.48,6.14-19.84,6.14c-19.42,0-35.17-15.75-35.17-35.17C504.95,418.34,520.69,402.59,540.12,402.59z"/>
			<path class="st5" d="M542.46,399.17c0,8.99,13.67,20.4,25.16,20.4s16.47-11.41,16.47-20.4s-9.32-11.95-20.81-11.95
				C551.78,387.21,542.46,390.18,542.46,399.17z"/>
			<g>
				<ellipse class="st5" cx="428.66" cy="395.52" rx="17.79" ry="31.48"/>
				<ellipse class="st5" cx="660.12" cy="395.52" rx="17.79" ry="31.48"/>
			</g>
			<g>
				
					<ellipse transform="matrix(0.0877 -0.9961 0.9961 0.0877 281.2026 957.584)" class="st2" cx="663.39" cy="325.27" rx="11.13" ry="19.74"/>
				
					<ellipse transform="matrix(0.9961 -0.0877 0.0877 0.9961 -26.8834 38.5545)" class="st2" cx="425.4" cy="325.27" rx="19.74" ry="11.13"/>
			</g>
		</g>
	</g>
</g>
<g id="팔">
	<g>
		<path class="st0" d="M361.82,638.92c5.14-45.21,51.52-85.57,57.28-108.02c10.53-41.04-1.68-65.46,25.6-67.61
			c16.78-1.33,22.12,33.16,22.12,33.16s38.28-5.18,44.48,36.84c6.2,42.02-22.26,51.47-22.26,51.47s6.1,111.29-65.25,112.66
			C378.13,698.29,358.25,670.35,361.82,638.92z"/>
		<path class="st0" d="M446.45,500.28c5.85-2.67,16.61-4.97,27.07-3.95"/>
	</g>
</g>
</svg>
