<?xml version="1.0" encoding="UTF-8"?><svg id="_레이어_2" xmlns="http://www.w3.org/2000/svg" viewBox="0 0 114.71 145.59"><g id="_디자인"><path d="m83.39,116.34c.29,11.39-15.98,13.97-19.57,3.15-2.62-7.91-7.09-24.66.77-27.92,10.36-4.29,17.88,12.88,18.77,24.07.02.23.03.46.04.69Z" style="fill:#ffdb00;"/><path d="m73.41,127.37c-4.17,0-8.77-2.21-10.54-7.56-3.11-9.39-7.08-25.67,1.33-29.16,2.92-1.21,5.8-.97,8.56.72,6.37,3.9,10.89,15.37,11.59,24.2.02.25.03.5.04.74h0c.17,6.41-4.4,10.08-9,10.89-.64.11-1.3.17-1.97.17Zm-5.6-35.46c-.94,0-1.89.2-2.85.59-7.37,3.06-2.02,21.19-.2,26.68,1.7,5.12,6.38,6.73,10.27,6.05,3.75-.66,7.48-3.65,7.35-8.87h0c0-.21-.02-.42-.03-.64-.64-8.15-4.9-19.13-10.64-22.65-1.27-.78-2.58-1.17-3.9-1.17Z" style="fill:#f5a911;"/><path d="m39.38,112.8c-2.45-.2-5.27.43-7.64,3.24,0,0-1.65,1.28-3.89.69-.43-.11-.85.18-.85.62-.05,2.87.92,12.08,9.84,12.25,6.87.13,9.94-3.71,10.42-7.75.56-4.67-3.19-8.66-7.88-9.05Z" style="fill:#fff;"/><path d="m37.18,130.6c-.12,0-.24,0-.36,0-8.71-.17-10.9-8.42-10.82-13.26,0-.51.25-.98.66-1.29.42-.31.95-.42,1.46-.28,1.49.4,2.66-.28,2.95-.47,2.21-2.56,5.11-3.76,8.4-3.49,2.67.22,5.16,1.52,6.83,3.56,1.54,1.89,2.24,4.23,1.96,6.6-.5,4.2-3.68,8.63-11.07,8.63Zm-9.18-12.81c.05,2.21.76,10.66,8.85,10.81,5.37.08,8.89-2.46,9.41-6.87.22-1.83-.32-3.64-1.52-5.1-1.32-1.62-3.31-2.65-5.45-2.83h0c-2.7-.23-4.99.75-6.79,2.89-.04.05-.1.1-.15.14-.08.06-1.88,1.43-4.35.96Z" style="fill:#f5a911;"/><path d="m75.22,120.9s-.62,10.38-.99,12.96c-.37,2.58,1.15,9.3-5.46,9.99-6.61.69-12.59.77-13.14-6.41-.56-7.19-1.25-15.4-1.25-15.4l20.85-1.14Z" style="fill:#ffdb00;"/><path d="m64.37,136.89c4.64-.28,7.73-1,9.79-1.77-.04,3.04.33,8.15-5.39,8.74-6.61.69-12.59.77-13.15-6.41-.02-.3-.05-.6-.07-.91,2.73.36,5.72.53,8.81.35Z" style="fill:#fff;"/><path d="m64.16,145.16c-2.7,0-5.18-.43-6.95-1.91-1.51-1.26-2.38-3.19-2.58-5.73-.56-7.18-1.25-15.39-1.25-15.39-.02-.27.06-.54.24-.74s.43-.33.7-.34l20.85-1.14c.29-.02.56.09.76.29.2.2.31.48.29.76-.03.43-.63,10.46-1,13.05-.06.42-.06,1.01-.06,1.7-.01,2.97-.03,8.49-6.28,9.14-1.59.17-3.19.31-4.72.31Zm-8.7-22.17c.2,2.42.73,8.72,1.17,14.38.16,2.01.77,3.43,1.86,4.35,2.18,1.82,6.23,1.56,10.18,1.15,4.13-.43,4.47-3.37,4.49-7.16,0-.76,0-1.42.08-1.98.29-2.01.74-9.01.92-11.76l-18.7,1.03Z" style="fill:#f5a911;"/><path d="m62.35,122.04s-1.29,10.32-1.83,12.87c-.54,2.55.54,9.36-6.09,9.62-6.64.26-12.61-.04-12.7-7.25-.09-7.21-.26-15.45-.26-15.45l20.88.21Z" style="fill:#ffdb00;"/><path d="m50.49,137.29c4.65.02,7.78-.5,9.88-1.13-.23,3.03-.2,8.15-5.94,8.38-6.64.26-12.61-.04-12.7-7.25,0-.3,0-.6-.01-.91,2.7.53,5.67.9,8.77.92Z" style="fill:#fff;"/><path d="m51.84,145.59c-3.5,0-6.81-.42-8.91-2.42-1.43-1.35-2.17-3.33-2.2-5.88-.09-7.2-.26-15.44-.26-15.44,0-.27.1-.53.29-.72.19-.19.44-.28.72-.3l20.88.21c.29,0,.56.13.74.34.19.21.27.5.24.78-.05.42-1.3,10.39-1.84,12.95-.09.42-.13,1.01-.17,1.7-.2,2.96-.58,8.47-6.86,8.72-.88.04-1.76.06-2.63.06Zm-9.35-22.75c.05,2.43.16,8.75.24,14.43.03,2.02.54,3.47,1.58,4.46,2.06,1.95,6.11,1.96,10.09,1.81,4.15-.16,4.68-3.07,4.94-6.86.05-.76.1-1.42.21-1.97.42-1.99,1.32-8.95,1.67-11.68l-18.73-.19Z" style="fill:#f5a911;"/><path d="m33.23,112.55c0,14.88,6.5,19.98,25.45,19.98,12.08,0,21.91-4.75,20.47-19.98-1.4-14.81-8.31-26.1-20.96-26.95-19.75-1.33-24.95,12.07-24.95,26.95Z" style="fill:#ffdb00;"/><path d="m58.68,133.53c-19.53,0-26.45-5.49-26.45-20.98,0-10.37,2.52-17.99,7.48-22.63,4.35-4.07,10.59-5.86,18.54-5.32,12.13.82,20.31,11.23,21.89,27.85.61,6.45-.72,11.53-3.95,15.08-3.62,3.98-9.51,5.99-17.51,5.99Zm-3.1-47.02c-6.17,0-11.04,1.63-14.5,4.88-4.54,4.25-6.84,11.37-6.84,21.17,0,14.37,5.94,18.98,24.45,18.98,7.41,0,12.81-1.8,16.03-5.34,2.84-3.12,4-7.68,3.44-13.55-1.5-15.8-8.8-25.29-20.03-26.05-.87-.06-1.72-.09-2.54-.09Z" style="fill:#f5a911;"/><path d="m51.98,115.95c.22,9.15,5.12,11.16,11.73,10.99,6.61-.16,12.42-2.43,12.2-11.58s-5.76-16.44-12.37-16.27c-6.61.16-11.78,7.71-11.56,16.86Z" style="fill:#fff;"/><path d="m30.26,118.57c1.73,11.26,18.21,10.91,19.82-.37,1.17-8.25,2.6-25.53-5.71-27.34-10.96-2.39-15.31,15.85-14.19,27.02.02.23.05.46.09.69Z" style="fill:#ffdb00;"/><path d="m40,127.83c-4.65,0-9.76-2.81-10.73-9.12h0c-.04-.24-.07-.49-.09-.74-.88-8.82,1.53-20.91,7.11-25.87,2.41-2.15,5.2-2.9,8.29-2.23,8.89,1.94,7.88,18.66,6.49,28.46-.92,6.49-6.35,9.47-11,9.5h-.07Zm-8.75-9.42c.79,5.13,4.96,7.42,8.75,7.42h.05c3.95-.02,8.27-2.44,9.03-7.78.81-5.72,2.86-24.52-4.94-26.22-2.43-.53-4.63.07-6.54,1.77-5.03,4.48-7.26,16.04-6.45,24.18.02.21.05.43.08.63h0Z" style="fill:#f5a911;"/><path d="m107.4,25.08c-4.13,6.12-11.81,6.98-18.5,2.82-6.67-4.15-10.09-12.26-6.67-17.75,2.4-3.85,9.67-8.88,17.91-5.34,8.1,3.48,11.43,14.12,7.27,20.28Z" style="fill:#ffdb00;"/><path d="m97.31,31.48c-2.91,0-5.99-.89-8.95-2.73-3.41-2.12-6.15-5.35-7.52-8.86-1.46-3.73-1.27-7.38.53-10.27,2.85-4.57,10.67-9.37,19.15-5.73,4.26,1.83,7.63,5.74,9.01,10.46,1.22,4.15.74,8.27-1.31,11.3h0c-2.59,3.84-6.57,5.84-10.92,5.84Zm-2.92-26.89c-5.57,0-9.83,3.69-11.32,6.09-1.46,2.34-1.59,5.36-.36,8.49,1.22,3.11,3.66,5.99,6.72,7.88,6.4,3.98,13.45,2.94,17.15-2.53h0c1.71-2.54,2.1-6.04,1.05-9.62-1.22-4.15-4.17-7.58-7.88-9.18-1.87-.8-3.67-1.14-5.34-1.14Zm13.01,20.5h.01-.01Z" style="fill:#f5a911;"/><path d="m1.04,58.51c.97,26.92,28.18,36.1,59.37,36.1,25.07,0,57.97-7.12,52.76-35.17-1.72-9.27-1.48-19.4-5.53-28.79C100.16,13.37,80.72,1,56.91,1c-37.69,0-56.91,28.46-55.87,57.51Z" style="fill:#ffdb00;"/><path d="m60.41,95.61C22.34,95.61.9,82.45.04,58.55c-.58-16.1,5.02-31.49,15.37-42.22C25.72,5.65,40.07,0,56.91,0c23.43,0,43.7,11.88,51.64,30.25,2.82,6.52,3.6,13.35,4.35,19.96.36,3.14.7,6.11,1.24,9.05,1.54,8.29-.07,15.37-4.78,21.04-11.49,13.82-38.06,15.31-48.96,15.31ZM56.91,2c-16.28,0-30.13,5.44-40.06,15.72C6.88,28.06,1.48,42.92,2.04,58.48c1.1,30.57,37.04,35.13,58.37,35.13,10.61,0,36.47-1.42,47.42-14.59,4.32-5.19,5.78-11.72,4.35-19.4-.56-3-.92-6.14-1.26-9.18-.74-6.46-1.5-13.14-4.2-19.4C99.09,13.4,79.54,2,56.91,2Z" style="fill:#f5a911;"/><path d="m28.66,10.84c-2.4-3.85-9.67-8.88-17.91-5.34C2.65,8.98-.68,19.62,3.48,25.77c1.3,1.93,5.06,4.5,6.93,5.39" style="fill:#ffdb00;"/><path d="m10.41,32.16c-.14,0-.29-.03-.43-.1-1.83-.87-5.84-3.54-7.33-5.73C.6,23.3.13,19.18,1.34,15.03c1.38-4.72,4.75-8.62,9.01-10.45,8.48-3.64,16.31,1.16,19.15,5.73.29.47.15,1.09-.32,1.38-.47.29-1.09.15-1.38-.32-1.94-3.12-8.57-8.43-16.66-4.95-3.72,1.6-6.67,5.03-7.88,9.18-1.05,3.57-.67,7.08,1.05,9.62,1.16,1.71,4.7,4.17,6.53,5.05.5.24.71.83.47,1.33-.17.36-.53.57-.9.57Z" style="fill:#f5a911;"/><ellipse cx="40.18" cy="58.31" rx="3.54" ry="6.26" style="fill:#582d17;"/><ellipse cx="86.22" cy="58.31" rx="3.24" ry="6.26" style="fill:#582d17;"/><path d="m53.19,61.02c4.4-4.07,11.86-2.73,14.52.74,2.66-3.46,7.7-3.81,11.1-.49s2.52,7.79.24,10.64c-3.64,4.55-9.28,6.01-11.48,6.78-.49.17-1.01.2-1.51.09-2.42-.55-9.9-1.75-13.73-6.59-2.26-2.86-2.78-7.8.86-11.17Z" style="fill:#fff;"/><path d="m66.67,79.85c-.28,0-.55-.03-.82-.09-.2-.05-.45-.1-.72-.16-2.95-.62-9.85-2.08-13.58-6.79-2.58-3.25-3.11-8.74.96-12.52h0c2.2-2.04,5.24-3.02,8.55-2.73,2.6.22,5.03,1.23,6.63,2.71,1.37-1.35,3.14-2.15,5.08-2.29,2.46-.17,4.86.74,6.74,2.57,4.1,4.01,2.74,8.96.32,11.98-3.44,4.3-8.45,5.95-11.14,6.84-.3.1-.56.18-.79.26-.4.14-.82.21-1.24.21Zm-12.8-18.09c-3.2,2.96-2.77,7.27-.76,9.81,3.28,4.14,9.69,5.5,12.42,6.07.28.06.53.11.74.16.32.07.65.05.96-.06.24-.08.52-.17.83-.28,2.49-.82,7.13-2.35,10.2-6.19,1.99-2.48,2.99-6.22-.16-9.3-1.46-1.43-3.31-2.14-5.2-2.01-1.76.12-3.32.98-4.41,2.39-.38.49-1.21.49-1.59,0-1.17-1.52-3.48-2.6-6.02-2.82-1.59-.14-4.62-.03-7.02,2.21h0Z" style="fill:#f5a911;"/><ellipse cx="72.32" cy="68.05" rx="1.79" ry="2.87" style="fill:#f5a911;"/><ellipse cx="62.02" cy="68.38" rx="1.79" ry="2.87" style="fill:#f5a911;"/><path d="m28.88,30.34c.79-1.82,2.63-2.49,3.16-2.64.97-.28,2.28-.27,3-.16,1.98.33,2.23,1.6,2.06,2.07-.26.74-1.1.64-1.94.57-1.37-.11-3.31.54-4.37,1.77-.65.75-1.3.65-1.62.46-.65-.4-.63-1.31-.3-2.08Z" style="fill:#f5a911;"/><path d="m63.77,14.52c-4.38.64-6.21-6.79-6.8-13.52,3.39,0,6.69.26,9.88.75.42,8.85-.07,12.33-3.08,12.77Z" style="fill:#f5a911;"/><path d="m50.17,14.54c-3.38,1.24-6.72-1.14-8.82-11.74,2.88-.7,5.91-1.21,9.09-1.51,1.71,11.02,1.77,12.5-.27,13.24Z" style="fill:#f5a911;"/><path d="m74.7,13.97c-1.8-.26-3.28-1.47-3.35-11.38,3.06.69,6,1.6,8.8,2.71-.91,8.72-2.8,9.05-5.45,8.67Z" style="fill:#f5a911;"/><path d="m94.04,30.34c-.79-1.82-2.63-2.49-3.16-2.64-.97-.28-2.28-.27-3-.16-1.98.33-2.23,1.6-2.06,2.07.26.74,1.1.64,1.94.57,1.37-.11,3.31.54,4.37,1.77.65.75,1.3.65,1.62.46.65-.4.63-1.31.3-2.08Z" style="fill:#f5a911;"/></g></svg>