<svg width="270" height="92" viewBox="0 0 270 92" fill="none" xmlns="http://www.w3.org/2000/svg">
<g clip-path="url(#clip0_394_818)">
<mask id="mask0_394_818" style="mask-type:luminance" maskUnits="userSpaceOnUse" x="0" y="0" width="270" height="92">
<path d="M0 0H270V92H0V0Z" fill="white"/>
</mask>
<g mask="url(#mask0_394_818)">
<path d="M42.8906 84.169C33.5515 84.1246 24.6096 80.3848 18.0197 73.767C11.4298 67.1492 7.72768 58.1917 7.72266 48.8524C7.71764 39.5131 11.4101 30.5516 17.9929 23.9268C24.5757 17.3019 33.5135 13.5525 42.8526 13.498H227.153C236.492 13.5477 245.431 17.2924 252.017 23.9137C258.604 30.535 262.301 39.4944 262.301 48.8335C262.301 58.1726 258.604 67.132 252.017 73.7533C245.431 80.3746 236.492 84.1193 227.153 84.169H42.8906Z" fill="#235187"/>
<path d="M226.936 16.235C235.507 16.2826 243.71 19.7206 249.753 25.7977C255.797 31.8748 259.189 40.0969 259.189 48.6675C259.189 57.2381 255.797 65.4602 249.753 71.5373C243.71 77.6144 235.507 81.0524 226.936 81.1H42.6811C34.1106 81.0524 25.9074 77.6144 19.864 71.5373C13.8205 65.4602 10.4282 57.2381 10.4282 48.6675C10.4282 40.0969 13.8205 31.8748 19.864 25.7977C25.9074 19.7206 34.1106 16.2826 42.6811 16.235H226.936ZM226.936 10.429H42.6811C32.5654 10.4078 22.8535 14.3955 15.6715 21.5192C8.48956 28.6428 4.42278 38.3219 4.36154 48.4374C4.3003 58.5529 8.24959 68.2805 15.3448 75.4906C22.4399 82.7007 32.1029 86.8057 42.2181 86.907C42.3731 86.907 42.5271 86.907 42.6811 86.907H226.936C237.01 86.804 246.636 82.7298 253.723 75.5698C260.811 68.4098 264.786 58.7424 264.786 48.668C264.786 38.5936 260.811 28.9262 253.723 21.7662C246.636 14.6061 237.01 10.532 226.936 10.429Z" fill="#4872A9"/>
<path d="M226.937 10.427C237.011 10.53 246.637 14.6041 253.724 21.7642C260.811 28.9242 264.787 38.5916 264.787 48.666C264.787 58.7404 260.811 68.4078 253.724 75.5678C246.637 82.7279 237.011 86.802 226.937 86.905H42.6808C32.5652 86.9262 22.8532 82.9385 15.6713 75.8148C8.48934 68.6912 4.42256 59.0121 4.36132 48.8966C4.30009 38.7811 8.24937 29.0535 15.3446 21.8434C22.4397 14.6333 32.1027 10.5283 42.2178 10.427C42.3728 10.427 42.5268 10.427 42.6808 10.427H226.937ZM226.937 5.782H42.6808C31.343 5.83675 20.4883 10.3791 12.4905 18.4155C4.49278 26.452 0.00292969 37.3286 0.00292969 48.6665C0.00292969 60.0044 4.49278 70.881 12.4905 78.9175C20.4883 86.9539 31.343 91.4962 42.6808 91.551H226.937C238.275 91.4962 249.129 86.9539 257.127 78.9175C265.125 70.881 269.615 60.0044 269.615 48.6665C269.615 37.3286 265.125 26.452 257.127 18.4155C249.129 10.3791 238.275 5.83675 226.937 5.782Z" fill="#213D67"/>
</g>
<path d="M115.152 44.69H117.808V48.402H115.152V44.69ZM127.344 31.154H130V50.546H127.344V31.154ZM128.88 39.89H134.224V42.098H128.88V39.89ZM107.76 49.714L107.408 47.538C112.592 47.538 119.632 47.538 125.616 46.674L125.84 48.562C119.664 49.65 112.816 49.682 107.76 49.714ZM110.992 51.986H130V60.05H127.344V54.098H110.992V51.986ZM108.144 33.746H124.752V35.73H108.144V33.746ZM116.464 36.85C120.528 36.85 123.184 38.482 123.184 41.138C123.184 43.794 120.528 45.426 116.464 45.426C112.368 45.426 109.712 43.794 109.712 41.138C109.712 38.482 112.368 36.85 116.464 36.85ZM116.464 38.674C113.872 38.674 112.208 39.602 112.208 41.138C112.208 42.61 113.872 43.57 116.464 43.57C119.024 43.57 120.688 42.61 120.688 41.138C120.688 39.602 119.024 38.674 116.464 38.674ZM115.152 30.898H117.808V34.706H115.152V30.898ZM158.062 31.154H160.75V52.274H158.062V31.154ZM142.158 57.234H161.614V59.41H142.158V57.234ZM142.158 50.098H144.782V57.97H142.158V50.098ZM145.23 33.138C149.55 33.138 152.75 36.082 152.75 40.274C152.75 44.434 149.55 47.41 145.23 47.41C140.91 47.41 137.678 44.434 137.678 40.274C137.678 36.082 140.91 33.138 145.23 33.138ZM145.23 35.442C142.414 35.442 140.27 37.426 140.27 40.274C140.27 43.09 142.414 45.074 145.23 45.074C148.046 45.074 150.19 43.09 150.19 40.274C150.19 37.426 148.046 35.442 145.23 35.442Z" fill="#213D67"/>
<path d="M115.152 44.69V41.69H112.152V44.69H115.152ZM117.808 44.69H120.808V41.69H117.808V44.69ZM117.808 48.402V51.402H120.808V48.402H117.808ZM115.152 48.402H112.152V51.402H115.152V48.402ZM127.344 31.154V28.154H124.344V31.154H127.344ZM130 31.154H133V28.154H130V31.154ZM130 50.546V53.546H133V50.546H130ZM127.344 50.546H124.344V53.546H127.344V50.546ZM128.88 39.89V36.89H125.88V39.89H128.88ZM134.224 39.89H137.224V36.89H134.224V39.89ZM134.224 42.098V45.098H137.224V42.098H134.224ZM128.88 42.098H125.88V45.098H128.88V42.098ZM107.76 49.714L104.798 50.1931L105.209 52.7302L107.779 52.7139L107.76 49.714ZM107.408 47.538V44.538H103.884L104.446 48.0171L107.408 47.538ZM125.616 46.674L128.595 46.3205L128.233 43.2651L125.187 43.7048L125.616 46.674ZM125.84 48.562L126.36 51.5165L129.153 51.0245L128.819 48.2085L125.84 48.562ZM110.992 51.986V48.986H107.992V51.986H110.992ZM130 51.986H133V48.986H130V51.986ZM130 60.05V63.05H133V60.05H130ZM127.344 60.05H124.344V63.05H127.344V60.05ZM127.344 54.098H130.344V51.098H127.344V54.098ZM110.992 54.098H107.992V57.098H110.992V54.098ZM108.144 33.746V30.746H105.144V33.746H108.144ZM124.752 33.746H127.752V30.746H124.752V33.746ZM124.752 35.73V38.73H127.752V35.73H124.752ZM108.144 35.73H105.144V38.73H108.144V35.73ZM115.152 30.898V27.898H112.152V30.898H115.152ZM117.808 30.898H120.808V27.898H117.808V30.898ZM117.808 34.706V37.706H120.808V34.706H117.808ZM115.152 34.706H112.152V37.706H115.152V34.706ZM115.152 47.69H117.808V41.69H115.152V47.69ZM114.808 44.69V48.402H120.808V44.69H114.808ZM117.808 45.402H115.152V51.402H117.808V45.402ZM118.152 48.402V44.69H112.152V48.402H118.152ZM127.344 34.154H130V28.154H127.344V34.154ZM127 31.154V50.546H133V31.154H127ZM130 47.546H127.344V53.546H130V47.546ZM130.344 50.546V31.154H124.344V50.546H130.344ZM128.88 42.89H134.224V36.89H128.88V42.89ZM131.224 39.89V42.098H137.224V39.89H131.224ZM134.224 39.098H128.88V45.098H134.224V39.098ZM131.88 42.098V39.89H125.88V42.098H131.88ZM110.722 49.2349L110.37 47.0589L104.446 48.0171L104.798 50.1931L110.722 49.2349ZM107.408 50.538C112.546 50.538 119.809 50.5436 126.045 49.6432L125.187 43.7048C119.455 44.5324 112.638 44.538 107.408 44.538V50.538ZM122.637 47.0275L122.861 48.9155L128.819 48.2085L128.595 46.3205L122.637 47.0275ZM125.32 45.6075C119.435 46.6441 112.845 46.6818 107.741 46.7141L107.779 52.7139C112.787 52.6822 119.893 52.6559 126.36 51.5165L125.32 45.6075ZM110.992 54.986H130V48.986H110.992V54.986ZM127 51.986V60.05H133V51.986H127ZM130 57.05H127.344V63.05H130V57.05ZM130.344 60.05V54.098H124.344V60.05H130.344ZM127.344 51.098H110.992V57.098H127.344V51.098ZM113.992 54.098V51.986H107.992V54.098H113.992ZM108.144 36.746H124.752V30.746H108.144V36.746ZM121.752 33.746V35.73H127.752V33.746H121.752ZM124.752 32.73H108.144V38.73H124.752V32.73ZM111.144 35.73V33.746H105.144V35.73H111.144ZM116.464 39.85C118.15 39.85 119.211 40.1967 119.746 40.5347C120.174 40.805 120.184 40.9807 120.184 41.138H126.184C126.184 38.6393 124.866 36.671 122.95 35.4613C121.141 34.3193 118.842 33.85 116.464 33.85V39.85ZM120.184 41.138C120.184 41.2953 120.174 41.471 119.746 41.7413C119.211 42.0793 118.15 42.426 116.464 42.426V48.426C118.842 48.426 121.141 47.9567 122.95 46.8147C124.866 45.605 126.184 43.6367 126.184 41.138H120.184ZM116.464 42.426C114.759 42.426 113.688 42.0778 113.15 41.7389C112.72 41.4685 112.712 41.2938 112.712 41.138H106.712C106.712 43.6382 108.032 45.6075 109.954 46.8171C111.768 47.9582 114.073 48.426 116.464 48.426V42.426ZM112.712 41.138C112.712 40.9822 112.72 40.8075 113.15 40.5371C113.688 40.1982 114.759 39.85 116.464 39.85V33.85C114.073 33.85 111.768 34.3178 109.954 35.4589C108.032 36.6685 106.712 38.6378 106.712 41.138H112.712ZM116.464 35.674C114.871 35.674 113.229 35.9496 111.873 36.727C110.409 37.5656 109.208 39.0732 109.208 41.138H115.208C115.208 41.3235 115.15 41.5461 115.026 41.7373C114.914 41.9096 114.815 41.9562 114.855 41.933C114.9 41.9076 115.044 41.8382 115.331 41.777C115.613 41.7169 115.99 41.674 116.464 41.674V35.674ZM109.208 41.138C109.208 43.2091 110.449 44.6935 111.873 45.509C113.219 46.2802 114.853 46.57 116.464 46.57V40.57C115.997 40.57 115.623 40.5263 115.342 40.4653C115.056 40.4033 114.907 40.3323 114.855 40.303C114.806 40.2746 114.899 40.3154 115.01 40.4837C115.135 40.6722 115.208 40.9109 115.208 41.138H109.208ZM116.464 46.57C118.064 46.57 119.692 46.2783 121.034 45.5055C122.45 44.6895 123.688 43.2064 123.688 41.138H117.688C117.688 40.9111 117.761 40.6737 117.884 40.4866C117.994 40.3196 118.087 40.2787 118.038 40.3065C117.989 40.3351 117.842 40.4051 117.562 40.4664C117.287 40.5268 116.921 40.57 116.464 40.57V46.57ZM123.688 41.138C123.688 39.0759 122.49 37.5695 121.034 36.7305C119.681 35.9514 118.046 35.674 116.464 35.674V41.674C116.928 41.674 117.297 41.7165 117.573 41.7759C117.854 41.8363 117.996 41.9048 118.038 41.9295C118.078 41.9521 117.98 41.9053 117.869 41.7344C117.746 41.5447 117.688 41.3234 117.688 41.138H123.688ZM115.152 33.898H117.808V27.898H115.152V33.898ZM114.808 30.898V34.706H120.808V30.898H114.808ZM117.808 31.706H115.152V37.706H117.808V31.706ZM118.152 34.706V30.898H112.152V34.706H118.152ZM158.062 31.154V28.154H155.062V31.154H158.062ZM160.75 31.154H163.75V28.154H160.75V31.154ZM160.75 52.274V55.274H163.75V52.274H160.75ZM158.062 52.274H155.062V55.274H158.062V52.274ZM142.158 57.234V54.234H139.158V57.234H142.158ZM161.614 57.234H164.614V54.234H161.614V57.234ZM161.614 59.41V62.41H164.614V59.41H161.614ZM142.158 59.41H139.158V62.41H142.158V59.41ZM142.158 50.098V47.098H139.158V50.098H142.158ZM144.782 50.098H147.782V47.098H144.782V50.098ZM144.782 57.97V60.97H147.782V57.97H144.782ZM142.158 57.97H139.158V60.97H142.158V57.97ZM158.062 34.154H160.75V28.154H158.062V34.154ZM157.75 31.154V52.274H163.75V31.154H157.75ZM160.75 49.274H158.062V55.274H160.75V49.274ZM161.062 52.274V31.154H155.062V52.274H161.062ZM142.158 60.234H161.614V54.234H142.158V60.234ZM158.614 57.234V59.41H164.614V57.234H158.614ZM161.614 56.41H142.158V62.41H161.614V56.41ZM145.158 59.41V57.234H139.158V59.41H145.158ZM142.158 53.098H144.782V47.098H142.158V53.098ZM141.782 50.098V57.97H147.782V50.098H141.782ZM144.782 54.97H142.158V60.97H144.782V54.97ZM145.158 57.97V50.098H139.158V57.97H145.158ZM145.23 36.138C148.069 36.138 149.75 37.9102 149.75 40.274H155.75C155.75 34.2538 151.03 30.138 145.23 30.138V36.138ZM149.75 40.274C149.75 42.6145 148.06 44.41 145.23 44.41V50.41C151.039 50.41 155.75 46.2535 155.75 40.274H149.75ZM145.23 44.41C142.382 44.41 140.678 42.5982 140.678 40.274H134.678C134.678 46.2698 139.437 50.41 145.23 50.41V44.41ZM140.678 40.274C140.678 37.9264 142.372 36.138 145.23 36.138V30.138C139.447 30.138 134.678 34.2376 134.678 40.274H140.678ZM145.23 32.442C140.875 32.442 137.27 35.6533 137.27 40.274H143.27C143.27 39.1987 143.952 38.442 145.23 38.442V32.442ZM137.27 40.274C137.27 44.8757 140.888 48.074 145.23 48.074V42.074C143.939 42.074 143.27 41.3043 143.27 40.274H137.27ZM145.23 48.074C149.571 48.074 153.19 44.8757 153.19 40.274H147.19C147.19 41.3043 146.52 42.074 145.23 42.074V48.074ZM153.19 40.274C153.19 35.6533 149.584 32.442 145.23 32.442V38.442C146.507 38.442 147.19 39.1987 147.19 40.274H153.19Z" fill="#233F65"/>
<path d="M115.152 44.69H117.808V48.402H115.152V44.69ZM127.344 31.154H130V50.546H127.344V31.154ZM128.88 39.89H134.224V42.098H128.88V39.89ZM107.76 49.714L107.408 47.538C112.592 47.538 119.632 47.538 125.616 46.674L125.84 48.562C119.664 49.65 112.816 49.682 107.76 49.714ZM110.992 51.986H130V60.05H127.344V54.098H110.992V51.986ZM108.144 33.746H124.752V35.73H108.144V33.746ZM116.464 36.85C120.528 36.85 123.184 38.482 123.184 41.138C123.184 43.794 120.528 45.426 116.464 45.426C112.368 45.426 109.712 43.794 109.712 41.138C109.712 38.482 112.368 36.85 116.464 36.85ZM116.464 38.674C113.872 38.674 112.208 39.602 112.208 41.138C112.208 42.61 113.872 43.57 116.464 43.57C119.024 43.57 120.688 42.61 120.688 41.138C120.688 39.602 119.024 38.674 116.464 38.674ZM115.152 30.898H117.808V34.706H115.152V30.898ZM158.062 31.154H160.75V52.274H158.062V31.154ZM142.158 57.234H161.614V59.41H142.158V57.234ZM142.158 50.098H144.782V57.97H142.158V50.098ZM145.23 33.138C149.55 33.138 152.75 36.082 152.75 40.274C152.75 44.434 149.55 47.41 145.23 47.41C140.91 47.41 137.678 44.434 137.678 40.274C137.678 36.082 140.91 33.138 145.23 33.138ZM145.23 35.442C142.414 35.442 140.27 37.426 140.27 40.274C140.27 43.09 142.414 45.074 145.23 45.074C148.046 45.074 150.19 43.09 150.19 40.274C150.19 37.426 148.046 35.442 145.23 35.442Z" fill="#4771AC"/>
</g>
<defs>
<clipPath id="clip0_394_818">
<rect width="270" height="92" fill="white"/>
</clipPath>
</defs>
</svg>
