<svg width="270" height="92" viewBox="0 0 270 92" fill="none" xmlns="http://www.w3.org/2000/svg">
<g clip-path="url(#clip0_394_805)">
<mask id="mask0_394_805" style="mask-type:luminance" maskUnits="userSpaceOnUse" x="0" y="0" width="270" height="92">
<path d="M270 0H0V92H270V0Z" fill="white"/>
</mask>
<g mask="url(#mask0_394_805)">
<path d="M42.1881 0.283005H227.813C239.028 0.310025 249.774 4.79098 257.685 12.7402C265.597 20.6894 270.026 31.4558 270 42.671V49.735C270.027 60.9506 265.597 71.7175 257.686 79.6671C249.774 87.6168 239.029 92.098 227.813 92.125H42.1881C36.6346 92.1119 31.1381 91.005 26.0123 88.8676C20.8866 86.7302 16.2321 83.6041 12.3145 79.6678C8.39699 75.7315 5.29315 71.062 3.18023 65.9262C1.06732 60.7903 -0.0132875 55.2885 0.000123309 49.735V42.671C-0.0130244 37.1177 1.06777 31.6161 3.18081 26.4805C5.29384 21.3448 8.39772 16.6756 12.3152 12.7395C16.2328 8.80346 20.8872 5.67752 26.0128 3.54022C31.1384 1.40293 36.6348 0.296121 42.1881 0.283005Z" fill="#213D67"/>
<path d="M42.8911 78.103C33.5519 78.0586 24.6101 74.3188 18.0202 67.701C11.4303 61.0832 7.72817 52.1257 7.72315 42.7864C7.71813 33.4471 11.4106 24.4856 17.9934 17.8608C24.5762 11.2359 33.514 7.48646 42.8531 7.43201H227.153C236.492 7.48169 245.432 11.2264 252.018 17.8477C258.604 24.469 262.301 33.4284 262.301 42.7675C262.301 52.1066 258.604 61.066 252.018 67.6873C245.432 74.3086 236.492 78.0533 227.153 78.103H42.8911Z" fill="#175194"/>
<path d="M226.936 10.169C235.507 10.2166 243.71 13.6546 249.753 19.7317C255.797 25.8088 259.189 34.0309 259.189 42.6015C259.189 51.1721 255.797 59.3942 249.753 65.4713C243.71 71.5484 235.507 74.9864 226.936 75.034H42.6811C34.1106 74.9864 25.9074 71.5484 19.864 65.4713C13.8205 59.3942 10.4282 51.1721 10.4282 42.6015C10.4282 34.0309 13.8205 25.8088 19.864 19.7317C25.9074 13.6546 34.1106 10.2166 42.6811 10.169H226.936ZM226.936 4.363H42.6811C32.5654 4.34178 22.8535 8.32952 15.6715 15.4532C8.48956 22.5768 4.42278 32.2559 4.36154 42.3714C4.3003 52.4869 8.24959 62.2146 15.3448 69.4246C22.4399 76.6347 32.1029 80.7397 42.2181 80.841C42.3731 80.841 42.5271 80.841 42.6811 80.841H226.936C237.01 80.738 246.636 76.6639 253.723 69.5038C260.811 62.3438 264.786 52.6764 264.786 42.602C264.786 32.5276 260.811 22.8602 253.723 15.7002C246.636 8.54015 237.01 4.46603 226.936 4.363Z" fill="#3A79CC"/>
<path d="M226.937 4.361C237.011 4.46404 246.637 8.53815 253.725 15.6982C260.812 22.8582 264.787 32.5256 264.787 42.6C264.787 52.6744 260.812 62.3418 253.725 69.5018C246.637 76.6619 237.011 80.736 226.937 80.839H42.6813C32.5657 80.8602 22.8537 76.8725 15.6718 69.7488C8.48983 62.6252 4.42305 52.9461 4.36181 42.8306C4.30057 32.7151 8.24986 22.9875 15.345 15.7774C22.4402 8.5673 32.1032 4.46226 42.2183 4.361C42.3733 4.361 42.5273 4.361 42.6813 4.361H226.937ZM226.937 -0.283997H42.6813C31.3435 -0.229247 20.4888 4.31307 12.491 12.3495C4.49327 20.386 0.00341797 31.2626 0.00341797 42.6005C0.00341797 53.9384 4.49327 64.815 12.491 72.8515C20.4888 80.8879 31.3435 85.4303 42.6813 85.485H226.937C238.275 85.4303 249.13 80.8879 257.128 72.8515C265.125 64.815 269.615 53.9384 269.615 42.6005C269.615 31.2626 265.125 20.386 257.128 12.3495C249.13 4.31307 238.275 -0.229247 226.937 -0.283997Z" fill="#213D67"/>
</g>
<path d="M115.152 38.582H117.808V42.294H115.152V38.582ZM127.344 25.046H130V44.438H127.344V25.046ZM128.88 33.782H134.224V35.99H128.88V33.782ZM107.76 43.606L107.408 41.43C112.592 41.43 119.632 41.43 125.616 40.566L125.84 42.454C119.664 43.542 112.816 43.574 107.76 43.606ZM110.992 45.878H130V53.942H127.344V47.99H110.992V45.878ZM108.144 27.638H124.752V29.622H108.144V27.638ZM116.464 30.742C120.528 30.742 123.184 32.374 123.184 35.03C123.184 37.686 120.528 39.318 116.464 39.318C112.368 39.318 109.712 37.686 109.712 35.03C109.712 32.374 112.368 30.742 116.464 30.742ZM116.464 32.566C113.872 32.566 112.208 33.494 112.208 35.03C112.208 36.502 113.872 37.462 116.464 37.462C119.024 37.462 120.688 36.502 120.688 35.03C120.688 33.494 119.024 32.566 116.464 32.566ZM115.152 24.79H117.808V28.598H115.152V24.79ZM158.062 25.046H160.75V46.166H158.062V25.046ZM142.158 51.126H161.614V53.302H142.158V51.126ZM142.158 43.99H144.782V51.862H142.158V43.99ZM145.23 27.03C149.55 27.03 152.75 29.974 152.75 34.166C152.75 38.326 149.55 41.302 145.23 41.302C140.91 41.302 137.678 38.326 137.678 34.166C137.678 29.974 140.91 27.03 145.23 27.03ZM145.23 29.334C142.414 29.334 140.27 31.318 140.27 34.166C140.27 36.982 142.414 38.966 145.23 38.966C148.046 38.966 150.19 36.982 150.19 34.166C150.19 31.318 148.046 29.334 145.23 29.334Z" fill="#213D67"/>
<path d="M115.152 38.582V35.582H112.152V38.582H115.152ZM117.808 38.582H120.808V35.582H117.808V38.582ZM117.808 42.294V45.294H120.808V42.294H117.808ZM115.152 42.294H112.152V45.294H115.152V42.294ZM127.344 25.046V22.046H124.344V25.046H127.344ZM130 25.046H133V22.046H130V25.046ZM130 44.438V47.438H133V44.438H130ZM127.344 44.438H124.344V47.438H127.344V44.438ZM128.88 33.782V30.782H125.88V33.782H128.88ZM134.224 33.782H137.224V30.782H134.224V33.782ZM134.224 35.99V38.99H137.224V35.99H134.224ZM128.88 35.99H125.88V38.99H128.88V35.99ZM107.76 43.606L104.798 44.0851L105.209 46.6222L107.779 46.6059L107.76 43.606ZM107.408 41.43V38.43H103.884L104.446 41.9091L107.408 41.43ZM125.616 40.566L128.595 40.2125L128.233 37.1571L125.187 37.5968L125.616 40.566ZM125.84 42.454L126.36 45.4085L129.153 44.9165L128.819 42.1005L125.84 42.454ZM110.992 45.878V42.878H107.992V45.878H110.992ZM130 45.878H133V42.878H130V45.878ZM130 53.942V56.942H133V53.942H130ZM127.344 53.942H124.344V56.942H127.344V53.942ZM127.344 47.99H130.344V44.99H127.344V47.99ZM110.992 47.99H107.992V50.99H110.992V47.99ZM108.144 27.638V24.638H105.144V27.638H108.144ZM124.752 27.638H127.752V24.638H124.752V27.638ZM124.752 29.622V32.622H127.752V29.622H124.752ZM108.144 29.622H105.144V32.622H108.144V29.622ZM115.152 24.79V21.79H112.152V24.79H115.152ZM117.808 24.79H120.808V21.79H117.808V24.79ZM117.808 28.598V31.598H120.808V28.598H117.808ZM115.152 28.598H112.152V31.598H115.152V28.598ZM115.152 41.582H117.808V35.582H115.152V41.582ZM114.808 38.582V42.294H120.808V38.582H114.808ZM117.808 39.294H115.152V45.294H117.808V39.294ZM118.152 42.294V38.582H112.152V42.294H118.152ZM127.344 28.046H130V22.046H127.344V28.046ZM127 25.046V44.438H133V25.046H127ZM130 41.438H127.344V47.438H130V41.438ZM130.344 44.438V25.046H124.344V44.438H130.344ZM128.88 36.782H134.224V30.782H128.88V36.782ZM131.224 33.782V35.99H137.224V33.782H131.224ZM134.224 32.99H128.88V38.99H134.224V32.99ZM131.88 35.99V33.782H125.88V35.99H131.88ZM110.722 43.1269L110.37 40.9509L104.446 41.9091L104.798 44.0851L110.722 43.1269ZM107.408 44.43C112.546 44.43 119.809 44.4356 126.045 43.5352L125.187 37.5968C119.455 38.4244 112.638 38.43 107.408 38.43V44.43ZM122.637 40.9195L122.861 42.8075L128.819 42.1005L128.595 40.2125L122.637 40.9195ZM125.32 39.4995C119.435 40.5361 112.845 40.5738 107.741 40.6061L107.779 46.6059C112.787 46.5742 119.893 46.5479 126.36 45.4085L125.32 39.4995ZM110.992 48.878H130V42.878H110.992V48.878ZM127 45.878V53.942H133V45.878H127ZM130 50.942H127.344V56.942H130V50.942ZM130.344 53.942V47.99H124.344V53.942H130.344ZM127.344 44.99H110.992V50.99H127.344V44.99ZM113.992 47.99V45.878H107.992V47.99H113.992ZM108.144 30.638H124.752V24.638H108.144V30.638ZM121.752 27.638V29.622H127.752V27.638H121.752ZM124.752 26.622H108.144V32.622H124.752V26.622ZM111.144 29.622V27.638H105.144V29.622H111.144ZM116.464 33.742C118.15 33.742 119.211 34.0887 119.746 34.4267C120.174 34.697 120.184 34.8727 120.184 35.03H126.184C126.184 32.5313 124.866 30.563 122.95 29.3533C121.141 28.2113 118.842 27.742 116.464 27.742V33.742ZM120.184 35.03C120.184 35.1873 120.174 35.363 119.746 35.6333C119.211 35.9713 118.15 36.318 116.464 36.318V42.318C118.842 42.318 121.141 41.8487 122.95 40.7067C124.866 39.497 126.184 37.5287 126.184 35.03H120.184ZM116.464 36.318C114.759 36.318 113.688 35.9698 113.15 35.6309C112.72 35.3605 112.712 35.1858 112.712 35.03H106.712C106.712 37.5302 108.032 39.4995 109.954 40.7091C111.768 41.8502 114.073 42.318 116.464 42.318V36.318ZM112.712 35.03C112.712 34.8742 112.72 34.6995 113.15 34.4291C113.688 34.0902 114.759 33.742 116.464 33.742V27.742C114.073 27.742 111.768 28.2098 109.954 29.3509C108.032 30.5605 106.712 32.5298 106.712 35.03H112.712ZM116.464 29.566C114.871 29.566 113.229 29.8416 111.873 30.619C110.409 31.4576 109.208 32.9652 109.208 35.03H115.208C115.208 35.2155 115.15 35.4381 115.026 35.6293C114.914 35.8015 114.815 35.8482 114.855 35.825C114.9 35.7996 115.044 35.7302 115.331 35.669C115.613 35.6089 115.99 35.566 116.464 35.566V29.566ZM109.208 35.03C109.208 37.1011 110.449 38.5855 111.873 39.401C113.219 40.1722 114.853 40.462 116.464 40.462V34.462C115.997 34.462 115.623 34.4183 115.342 34.3573C115.056 34.2953 114.907 34.2243 114.855 34.195C114.806 34.1666 114.899 34.2074 115.01 34.3757C115.135 34.5642 115.208 34.8029 115.208 35.03H109.208ZM116.464 40.462C118.064 40.462 119.692 40.1703 121.034 39.3975C122.45 38.5815 123.688 37.0984 123.688 35.03H117.688C117.688 34.8031 117.761 34.5657 117.884 34.3786C117.994 34.2116 118.087 34.1707 118.038 34.1985C117.989 34.2271 117.842 34.2971 117.562 34.3584C117.287 34.4188 116.921 34.462 116.464 34.462V40.462ZM123.688 35.03C123.688 32.9679 122.49 31.4615 121.034 30.6225C119.681 29.8434 118.046 29.566 116.464 29.566V35.566C116.928 35.566 117.297 35.6085 117.573 35.6679C117.854 35.7283 117.996 35.7968 118.038 35.8215C118.078 35.8441 117.98 35.7973 117.869 35.6264C117.746 35.4367 117.688 35.2154 117.688 35.03H123.688ZM115.152 27.79H117.808V21.79H115.152V27.79ZM114.808 24.79V28.598H120.808V24.79H114.808ZM117.808 25.598H115.152V31.598H117.808V25.598ZM118.152 28.598V24.79H112.152V28.598H118.152ZM158.062 25.046V22.046H155.062V25.046H158.062ZM160.75 25.046H163.75V22.046H160.75V25.046ZM160.75 46.166V49.166H163.75V46.166H160.75ZM158.062 46.166H155.062V49.166H158.062V46.166ZM142.158 51.126V48.126H139.158V51.126H142.158ZM161.614 51.126H164.614V48.126H161.614V51.126ZM161.614 53.302V56.302H164.614V53.302H161.614ZM142.158 53.302H139.158V56.302H142.158V53.302ZM142.158 43.99V40.99H139.158V43.99H142.158ZM144.782 43.99H147.782V40.99H144.782V43.99ZM144.782 51.862V54.862H147.782V51.862H144.782ZM142.158 51.862H139.158V54.862H142.158V51.862ZM158.062 28.046H160.75V22.046H158.062V28.046ZM157.75 25.046V46.166H163.75V25.046H157.75ZM160.75 43.166H158.062V49.166H160.75V43.166ZM161.062 46.166V25.046H155.062V46.166H161.062ZM142.158 54.126H161.614V48.126H142.158V54.126ZM158.614 51.126V53.302H164.614V51.126H158.614ZM161.614 50.302H142.158V56.302H161.614V50.302ZM145.158 53.302V51.126H139.158V53.302H145.158ZM142.158 46.99H144.782V40.99H142.158V46.99ZM141.782 43.99V51.862H147.782V43.99H141.782ZM144.782 48.862H142.158V54.862H144.782V48.862ZM145.158 51.862V43.99H139.158V51.862H145.158ZM145.23 30.03C148.069 30.03 149.75 31.8022 149.75 34.166H155.75C155.75 28.1458 151.03 24.03 145.23 24.03V30.03ZM149.75 34.166C149.75 36.5065 148.06 38.302 145.23 38.302V44.302C151.039 44.302 155.75 40.1455 155.75 34.166H149.75ZM145.23 38.302C142.382 38.302 140.678 36.4902 140.678 34.166H134.678C134.678 40.1618 139.437 44.302 145.23 44.302V38.302ZM140.678 34.166C140.678 31.8184 142.372 30.03 145.23 30.03V24.03C139.447 24.03 134.678 28.1296 134.678 34.166H140.678ZM145.23 26.334C140.875 26.334 137.27 29.5453 137.27 34.166H143.27C143.27 33.0907 143.952 32.334 145.23 32.334V26.334ZM137.27 34.166C137.27 38.7677 140.888 41.966 145.23 41.966V35.966C143.939 35.966 143.27 35.1963 143.27 34.166H137.27ZM145.23 41.966C149.571 41.966 153.19 38.7677 153.19 34.166H147.19C147.19 35.1963 146.52 35.966 145.23 35.966V41.966ZM153.19 34.166C153.19 29.5453 149.584 26.334 145.23 26.334V32.334C146.507 32.334 147.19 33.0907 147.19 34.166H153.19Z" fill="#213D67"/>
<path d="M115.152 38.582H117.808V42.294H115.152V38.582ZM127.344 25.046H130V44.438H127.344V25.046ZM128.88 33.782H134.224V35.99H128.88V33.782ZM107.76 43.606L107.408 41.43C112.592 41.43 119.632 41.43 125.616 40.566L125.84 42.454C119.664 43.542 112.816 43.574 107.76 43.606ZM110.992 45.878H130V53.942H127.344V47.99H110.992V45.878ZM108.144 27.638H124.752V29.622H108.144V27.638ZM116.464 30.742C120.528 30.742 123.184 32.374 123.184 35.03C123.184 37.686 120.528 39.318 116.464 39.318C112.368 39.318 109.712 37.686 109.712 35.03C109.712 32.374 112.368 30.742 116.464 30.742ZM116.464 32.566C113.872 32.566 112.208 33.494 112.208 35.03C112.208 36.502 113.872 37.462 116.464 37.462C119.024 37.462 120.688 36.502 120.688 35.03C120.688 33.494 119.024 32.566 116.464 32.566ZM115.152 24.79H117.808V28.598H115.152V24.79ZM158.062 25.046H160.75V46.166H158.062V25.046ZM142.158 51.126H161.614V53.302H142.158V51.126ZM142.158 43.99H144.782V51.862H142.158V43.99ZM145.23 27.03C149.55 27.03 152.75 29.974 152.75 34.166C152.75 38.326 149.55 41.302 145.23 41.302C140.91 41.302 137.678 38.326 137.678 34.166C137.678 29.974 140.91 27.03 145.23 27.03ZM145.23 29.334C142.414 29.334 140.27 31.318 140.27 34.166C140.27 36.982 142.414 38.966 145.23 38.966C148.046 38.966 150.19 36.982 150.19 34.166C150.19 31.318 148.046 29.334 145.23 29.334Z" fill="white"/>
</g>
<defs>
<clipPath id="clip0_394_805">
<rect width="270" height="92" fill="white"/>
</clipPath>
</defs>
</svg>
