<svg width="280" height="93" viewBox="0 0 280 93" fill="none" xmlns="http://www.w3.org/2000/svg">
<g clip-path="url(#clip0_394_914)">
<path d="M237.336 7H42.552C19.0512 7 0 26.0512 0 49.552C0 73.0528 19.0512 92.104 42.552 92.104H237.336C260.837 92.104 279.888 73.0528 279.888 49.552C279.888 26.0512 260.837 7 237.336 7Z" fill="#38937D"/>
<path d="M237.336 10.5H42.552C20.9842 10.5 3.5 27.9842 3.5 49.552C3.5 71.1198 20.9842 88.604 42.552 88.604H237.336C258.904 88.604 276.388 71.1198 276.388 49.552C276.388 27.9842 258.904 10.5 237.336 10.5Z" stroke="#38937D" stroke-width="7"/>
<path d="M237.584 13.87H42.804C23.1681 13.87 7.25 29.7878 7.25 49.4235C7.25 69.0592 23.1681 84.977 42.804 84.977H237.584C257.22 84.977 273.138 69.0592 273.138 49.4235C273.138 29.7878 257.22 13.87 237.584 13.87Z" fill="#53A695" stroke="#6BC7BF" stroke-width="5"/>
<path d="M111.265 33.416H113.585V59.632H111.265V33.416ZM99.8973 44.117H106.509V46.06H99.8973V44.117ZM105.813 34.083H108.075V58.298H105.813V34.083ZM100.216 36.722H102.536C102.536 43.595 99.7813 49.772 92.7053 53.977L91.2843 52.266C97.4613 48.554 100.216 43.334 100.216 37.157V36.722ZM92.4443 36.722H101.115V38.694H92.4443V36.722ZM137.044 33.445H139.48V48.409H137.044V33.445ZM122.544 49.83H139.48V59.284H122.544V49.83ZM137.102 51.744H124.893V57.341H137.102V51.744ZM125.415 34.808C129.388 34.808 132.23 37.302 132.23 40.927C132.23 44.552 129.388 47.046 125.415 47.046C121.442 47.046 118.571 44.552 118.571 40.927C118.571 37.302 121.442 34.808 125.415 34.808ZM125.415 36.809C122.805 36.809 120.92 38.491 120.92 40.927C120.92 43.363 122.805 45.016 125.415 45.016C128.025 45.016 129.91 43.363 129.91 40.927C129.91 38.491 128.025 36.809 125.415 36.809ZM162.417 33.416H164.824V59.632H162.417V33.416ZM164.244 44.175H169.116V46.205H164.244V44.175ZM144.524 37.592H159.981V39.564H144.524V37.592ZM152.354 41.739C156.066 41.739 158.734 44.233 158.734 47.771C158.734 51.309 156.066 53.803 152.354 53.803C148.671 53.803 145.974 51.309 145.974 47.771C145.974 44.233 148.671 41.739 152.354 41.739ZM152.354 43.74C149.976 43.74 148.265 45.393 148.265 47.771C148.265 50.12 149.976 51.802 152.354 51.802C154.732 51.802 156.443 50.12 156.443 47.771C156.443 45.393 154.732 43.74 152.354 43.74ZM151.107 33.735H153.514V38.491H151.107V33.735ZM190.428 33.416H192.835V59.632H190.428V33.416ZM182.743 36.229H185.121C185.121 43.827 181.699 50.468 172.941 54.76L171.665 52.817C179.234 49.163 182.743 43.595 182.743 36.635V36.229ZM172.854 36.229H183.787V38.201H172.854V36.229Z" fill="#38937D"/>
<path d="M111.265 33.416V30.916H108.765V33.416H111.265ZM113.585 33.416H116.085V30.916H113.585V33.416ZM113.585 59.632V62.132H116.085V59.632H113.585ZM111.265 59.632H108.765V62.132H111.265V59.632ZM99.8973 44.117V41.617H97.3973V44.117H99.8973ZM106.509 44.117H109.009V41.617H106.509V44.117ZM106.509 46.06V48.56H109.009V46.06H106.509ZM99.8973 46.06H97.3973V48.56H99.8973V46.06ZM105.813 34.083V31.583H103.313V34.083H105.813ZM108.075 34.083H110.575V31.583H108.075V34.083ZM108.075 58.298V60.798H110.575V58.298H108.075ZM105.813 58.298H103.313V60.798H105.813V58.298ZM100.216 36.722V34.222H97.7163V36.722H100.216ZM102.536 36.722H105.036V34.222H102.536V36.722ZM92.7053 53.977L90.7821 55.5742L92.1465 57.2172L93.9824 56.1261L92.7053 53.977ZM91.2843 52.266L89.9966 50.1232L87.5006 51.6231L89.3611 53.8632L91.2843 52.266ZM92.4443 36.722V34.222H89.9443V36.722H92.4443ZM101.115 36.722H103.615V34.222H101.115V36.722ZM101.115 38.694V41.194H103.615V38.694H101.115ZM92.4443 38.694H89.9443V41.194H92.4443V38.694ZM111.265 35.916H113.585V30.916H111.265V35.916ZM111.085 33.416V59.632H116.085V33.416H111.085ZM113.585 57.132H111.265V62.132H113.585V57.132ZM113.765 59.632V33.416H108.765V59.632H113.765ZM99.8973 46.617H106.509V41.617H99.8973V46.617ZM104.009 44.117V46.06H109.009V44.117H104.009ZM106.509 43.56H99.8973V48.56H106.509V43.56ZM102.397 46.06V44.117H97.3973V46.06H102.397ZM105.813 36.583H108.075V31.583H105.813V36.583ZM105.575 34.083V58.298H110.575V34.083H105.575ZM108.075 55.798H105.813V60.798H108.075V55.798ZM108.313 58.298V34.083H103.313V58.298H108.313ZM100.216 39.222H102.536V34.222H100.216V39.222ZM100.036 36.722C100.036 42.8086 97.6673 48.1202 91.4281 51.8278L93.9824 56.1261C101.895 51.4238 105.036 44.3814 105.036 36.722H100.036ZM94.6285 52.3797L93.2075 50.6687L89.3611 53.8632L90.7821 55.5742L94.6285 52.3797ZM92.572 54.4088C99.4784 50.2585 102.716 44.2378 102.716 37.157H97.7163C97.7163 42.4301 95.4442 46.8494 89.9966 50.1232L92.572 54.4088ZM102.716 37.157V36.722H97.7163V37.157H102.716ZM92.4443 39.222H101.115V34.222H92.4443V39.222ZM98.6153 36.722V38.694H103.615V36.722H98.6153ZM101.115 36.194H92.4443V41.194H101.115V36.194ZM94.9443 38.694V36.722H89.9443V38.694H94.9443ZM137.044 33.445V30.945H134.544V33.445H137.044ZM139.48 33.445H141.98V30.945H139.48V33.445ZM139.48 48.409V50.909H141.98V48.409H139.48ZM137.044 48.409H134.544V50.909H137.044V48.409ZM122.544 49.83V47.33H120.044V49.83H122.544ZM139.48 49.83H141.98V47.33H139.48V49.83ZM139.48 59.284V61.784H141.98V59.284H139.48ZM122.544 59.284H120.044V61.784H122.544V59.284ZM137.102 51.744H139.602V49.244H137.102V51.744ZM124.893 51.744V49.244H122.393V51.744H124.893ZM124.893 57.341H122.393V59.841H124.893V57.341ZM137.102 57.341V59.841H139.602V57.341H137.102ZM137.044 35.945H139.48V30.945H137.044V35.945ZM136.98 33.445V48.409H141.98V33.445H136.98ZM139.48 45.909H137.044V50.909H139.48V45.909ZM139.544 48.409V33.445H134.544V48.409H139.544ZM122.544 52.33H139.48V47.33H122.544V52.33ZM136.98 49.83V59.284H141.98V49.83H136.98ZM139.48 56.784H122.544V61.784H139.48V56.784ZM125.044 59.284V49.83H120.044V59.284H125.044ZM137.102 49.244H124.893V54.244H137.102V49.244ZM122.393 51.744V57.341H127.393V51.744H122.393ZM124.893 59.841H137.102V54.841H124.893V59.841ZM139.602 57.341V51.744H134.602V57.341H139.602ZM125.415 37.308C126.883 37.308 127.965 37.7647 128.648 38.3739C129.309 38.9635 129.73 39.8079 129.73 40.927H134.73C134.73 38.421 133.73 36.206 131.976 34.6424C130.245 33.0983 127.92 32.308 125.415 32.308V37.308ZM129.73 40.927C129.73 42.046 129.309 42.8905 128.648 43.4801C127.965 44.0893 126.883 44.546 125.415 44.546V49.546C127.92 49.546 130.245 48.7557 131.976 47.2116C133.73 45.648 134.73 43.4329 134.73 40.927H129.73ZM125.415 44.546C123.947 44.546 122.854 44.0887 122.162 43.4752C121.492 42.8819 121.071 42.0377 121.071 40.927H116.071C116.071 43.4413 117.085 45.6566 118.845 47.2165C120.581 48.7563 122.91 49.546 125.415 49.546V44.546ZM121.071 40.927C121.071 39.8163 121.492 38.9721 122.162 38.3788C122.854 37.7653 123.947 37.308 125.415 37.308V32.308C122.91 32.308 120.581 33.0977 118.845 34.6374C117.085 36.1974 116.071 38.4127 116.071 40.927H121.071ZM125.415 34.309C123.574 34.309 121.825 34.9069 120.507 36.1046C119.171 37.3189 118.42 39.028 118.42 40.927H123.42C123.42 40.39 123.611 40.04 123.87 39.8043C124.148 39.5521 124.646 39.309 125.415 39.309V34.309ZM118.42 40.927C118.42 42.8285 119.174 44.5347 120.516 45.7432C121.838 46.9325 123.586 47.516 125.415 47.516V42.516C124.634 42.516 124.135 42.273 123.861 42.0268C123.609 41.7997 123.42 41.4615 123.42 40.927H118.42ZM125.415 47.516C127.244 47.516 128.992 46.9325 130.314 45.7432C131.656 44.5347 132.41 42.8285 132.41 40.927H127.41C127.41 41.4615 127.221 41.7997 126.969 42.0268C126.695 42.273 126.196 42.516 125.415 42.516V47.516ZM132.41 40.927C132.41 39.028 131.659 37.3189 130.323 36.1046C129.005 34.9069 127.256 34.309 125.415 34.309V39.309C126.184 39.309 126.682 39.5521 126.96 39.8043C127.219 40.04 127.41 40.39 127.41 40.927H132.41ZM162.417 33.416V30.916H159.917V33.416H162.417ZM164.824 33.416H167.324V30.916H164.824V33.416ZM164.824 59.632V62.132H167.324V59.632H164.824ZM162.417 59.632H159.917V62.132H162.417V59.632ZM164.244 44.175V41.675H161.744V44.175H164.244ZM169.116 44.175H171.616V41.675H169.116V44.175ZM169.116 46.205V48.705H171.616V46.205H169.116ZM164.244 46.205H161.744V48.705H164.244V46.205ZM144.524 37.592V35.092H142.024V37.592H144.524ZM159.981 37.592H162.481V35.092H159.981V37.592ZM159.981 39.564V42.064H162.481V39.564H159.981ZM144.524 39.564H142.024V42.064H144.524V39.564ZM151.107 33.735V31.235H148.607V33.735H151.107ZM153.514 33.735H156.014V31.235H153.514V33.735ZM153.514 38.491V40.991H156.014V38.491H153.514ZM151.107 38.491H148.607V40.991H151.107V38.491ZM162.417 35.916H164.824V30.916H162.417V35.916ZM162.324 33.416V59.632H167.324V33.416H162.324ZM164.824 57.132H162.417V62.132H164.824V57.132ZM164.917 59.632V33.416H159.917V59.632H164.917ZM164.244 46.675H169.116V41.675H164.244V46.675ZM166.616 44.175V46.205H171.616V44.175H166.616ZM169.116 43.705H164.244V48.705H169.116V43.705ZM166.744 46.205V44.175H161.744V46.205H166.744ZM144.524 40.092H159.981V35.092H144.524V40.092ZM157.481 37.592V39.564H162.481V37.592H157.481ZM159.981 37.064H144.524V42.064H159.981V37.064ZM147.024 39.564V37.592H142.024V39.564H147.024ZM152.354 44.239C154.827 44.239 156.234 45.7516 156.234 47.771H161.234C161.234 42.7144 157.304 39.239 152.354 39.239V44.239ZM156.234 47.771C156.234 49.7904 154.827 51.303 152.354 51.303V56.303C157.304 56.303 161.234 52.8276 161.234 47.771H156.234ZM152.354 51.303C149.902 51.303 148.474 49.7831 148.474 47.771H143.474C143.474 52.8349 147.44 56.303 152.354 56.303V51.303ZM148.474 47.771C148.474 45.7589 149.902 44.239 152.354 44.239V39.239C147.44 39.239 143.474 42.7071 143.474 47.771H148.474ZM152.354 41.24C150.574 41.24 148.903 41.8671 147.668 43.0782C146.427 44.2939 145.765 45.9619 145.765 47.771H150.765C150.765 47.2021 150.958 46.8546 151.167 46.6493C151.382 46.4394 151.755 46.24 152.354 46.24V41.24ZM145.765 47.771C145.765 51.5362 148.631 54.302 152.354 54.302V49.302C151.321 49.302 150.765 48.7038 150.765 47.771H145.765ZM152.354 54.302C156.077 54.302 158.943 51.5362 158.943 47.771H153.943C153.943 48.7038 153.387 49.302 152.354 49.302V54.302ZM158.943 47.771C158.943 45.9619 158.28 44.2939 157.04 43.0782C155.804 41.8671 154.133 41.24 152.354 41.24V46.24C152.952 46.24 153.326 46.4394 153.54 46.6493C153.75 46.8546 153.943 47.2021 153.943 47.771H158.943ZM151.107 36.235H153.514V31.235H151.107V36.235ZM151.014 33.735V38.491H156.014V33.735H151.014ZM153.514 35.991H151.107V40.991H153.514V35.991ZM153.607 38.491V33.735H148.607V38.491H153.607ZM190.428 33.416V30.916H187.928V33.416H190.428ZM192.835 33.416H195.335V30.916H192.835V33.416ZM192.835 59.632V62.132H195.335V59.632H192.835ZM190.428 59.632H187.928V62.132H190.428V59.632ZM182.743 36.229V33.729H180.243V36.229H182.743ZM185.121 36.229H187.621V33.729H185.121V36.229ZM172.941 54.76L170.852 56.1323L172.062 57.9751L174.042 57.0049L172.941 54.76ZM171.665 52.817L170.579 50.5656L168.01 51.8055L169.576 54.1893L171.665 52.817ZM172.854 36.229V33.729H170.354V36.229H172.854ZM183.787 36.229H186.287V33.729H183.787V36.229ZM183.787 38.201V40.701H186.287V38.201H183.787ZM172.854 38.201H170.354V40.701H172.854V38.201ZM190.428 35.916H192.835V30.916H190.428V35.916ZM190.335 33.416V59.632H195.335V33.416H190.335ZM192.835 57.132H190.428V62.132H192.835V57.132ZM192.928 59.632V33.416H187.928V59.632H192.928ZM182.743 38.729H185.121V33.729H182.743V38.729ZM182.621 36.229C182.621 39.6447 181.856 42.7306 180.191 45.4172C178.527 48.1021 175.869 50.5412 171.841 52.5151L174.042 57.0049C178.772 54.6868 182.204 51.6594 184.441 48.0513C186.676 44.4449 187.621 40.4113 187.621 36.229H182.621ZM175.031 53.3877L173.755 51.4447L169.576 54.1893L170.852 56.1323L175.031 53.3877ZM172.752 55.0684C176.848 53.091 179.998 50.5203 182.119 47.3582C184.249 44.183 185.243 40.5544 185.243 36.635H180.243C180.243 39.6756 179.484 42.3109 177.967 44.5732C176.44 46.8487 174.052 48.889 170.579 50.5656L172.752 55.0684ZM185.243 36.635V36.229H180.243V36.635H185.243ZM172.854 38.729H183.787V33.729H172.854V38.729ZM181.287 36.229V38.201H186.287V36.229H181.287ZM183.787 35.701H172.854V40.701H183.787V35.701ZM175.354 38.201V36.229H170.354V38.201H175.354Z" fill="#38937D"/>
<path d="M111.265 33.416H113.585V59.632H111.265V33.416ZM99.8973 44.117H106.509V46.06H99.8973V44.117ZM105.813 34.083H108.075V58.298H105.813V34.083ZM100.216 36.722H102.536C102.536 43.595 99.7813 49.772 92.7053 53.977L91.2843 52.266C97.4613 48.554 100.216 43.334 100.216 37.157V36.722ZM92.4443 36.722H101.115V38.694H92.4443V36.722ZM137.044 33.445H139.48V48.409H137.044V33.445ZM122.544 49.83H139.48V59.284H122.544V49.83ZM137.102 51.744H124.893V57.341H137.102V51.744ZM125.415 34.808C129.388 34.808 132.23 37.302 132.23 40.927C132.23 44.552 129.388 47.046 125.415 47.046C121.442 47.046 118.571 44.552 118.571 40.927C118.571 37.302 121.442 34.808 125.415 34.808ZM125.415 36.809C122.805 36.809 120.92 38.491 120.92 40.927C120.92 43.363 122.805 45.016 125.415 45.016C128.025 45.016 129.91 43.363 129.91 40.927C129.91 38.491 128.025 36.809 125.415 36.809ZM162.417 33.416H164.824V59.632H162.417V33.416ZM164.244 44.175H169.116V46.205H164.244V44.175ZM144.524 37.592H159.981V39.564H144.524V37.592ZM152.354 41.739C156.066 41.739 158.734 44.233 158.734 47.771C158.734 51.309 156.066 53.803 152.354 53.803C148.671 53.803 145.974 51.309 145.974 47.771C145.974 44.233 148.671 41.739 152.354 41.739ZM152.354 43.74C149.976 43.74 148.265 45.393 148.265 47.771C148.265 50.12 149.976 51.802 152.354 51.802C154.732 51.802 156.443 50.12 156.443 47.771C156.443 45.393 154.732 43.74 152.354 43.74ZM151.107 33.735H153.514V38.491H151.107V33.735ZM190.428 33.416H192.835V59.632H190.428V33.416ZM182.743 36.229H185.121C185.121 43.827 181.699 50.468 172.941 54.76L171.665 52.817C179.234 49.163 182.743 43.595 182.743 36.635V36.229ZM172.854 36.229H183.787V38.201H172.854V36.229Z" fill="white"/>
<g opacity="0.6">
<path d="M237.336 7H42.552C19.0512 7 0 26.0512 0 49.552C0 73.0528 19.0512 92.104 42.552 92.104H237.336C260.837 92.104 279.888 73.0528 279.888 49.552C279.888 26.0512 260.837 7 237.336 7Z" fill="#53A695"/>
<path d="M237.336 10.5H42.552C20.9842 10.5 3.5 27.9842 3.5 49.552C3.5 71.1198 20.9842 88.604 42.552 88.604H237.336C258.904 88.604 276.388 71.1198 276.388 49.552C276.388 27.9842 258.904 10.5 237.336 10.5Z" stroke="#38937D" stroke-width="7"/>
</g>
</g>
<defs>
<clipPath id="clip0_394_914">
<rect width="280" height="92.104" fill="white"/>
</clipPath>
</defs>
</svg>
