<svg width="280" height="92" viewBox="0 0 280 92" fill="none" xmlns="http://www.w3.org/2000/svg">
<g clip-path="url(#clip0_394_928)">
<path d="M236.888 5.98801H43C19.2518 5.98801 0 25.2398 0 48.988V48.998C0 72.7462 19.2518 91.998 43 91.998H236.888C260.636 91.998 279.888 72.7462 279.888 48.998V48.988C279.888 25.2398 260.636 5.98801 236.888 5.98801Z" fill="#38937D"/>
<path d="M236.888 9.48801H43C21.1848 9.48801 3.5 27.1728 3.5 48.988V48.998C3.5 70.8133 21.1848 88.498 43 88.498H236.888C258.703 88.498 276.388 70.8133 276.388 48.998V48.988C276.388 27.1728 258.703 9.48801 236.888 9.48801Z" stroke="#38937D" stroke-width="7"/>
<path d="M237.336 0H42.552C19.0512 0 0 19.0512 0 42.552C0 66.0528 19.0512 85.104 42.552 85.104H237.336C260.837 85.104 279.888 66.0528 279.888 42.552C279.888 19.0512 260.837 0 237.336 0Z" fill="#334871"/>
<path d="M237.336 3.5H42.552C20.9842 3.5 3.5 20.9842 3.5 42.552C3.5 64.1198 20.9842 81.604 42.552 81.604H237.336C258.904 81.604 276.388 64.1198 276.388 42.552C276.388 20.9842 258.904 3.5 237.336 3.5Z" stroke="#38937D" stroke-width="7"/>
<path d="M237.584 6.87H42.804C23.1681 6.87 7.25 22.7878 7.25 42.4235C7.25 62.0592 23.1681 77.977 42.804 77.977H237.584C257.22 77.977 273.138 62.0592 273.138 42.4235C273.138 22.7878 257.22 6.87 237.584 6.87Z" fill="#53A695" stroke="#6BC7BF" stroke-width="5"/>
<path d="M111.266 26.416H113.586V52.632H111.266V26.416ZM99.8978 37.117H106.51V39.06H99.8978V37.117ZM105.814 27.083H108.076V51.298H105.814V27.083ZM100.217 29.722H102.537C102.537 36.595 99.7818 42.772 92.7058 46.977L91.2848 45.266C97.4618 41.554 100.217 36.334 100.217 30.157V29.722ZM92.4448 29.722H101.116V31.694H92.4448V29.722ZM137.045 26.445H139.481V41.409H137.045V26.445ZM122.545 42.83H139.481V52.284H122.545V42.83ZM137.103 44.744H124.894V50.341H137.103V44.744ZM125.416 27.808C129.389 27.808 132.231 30.302 132.231 33.927C132.231 37.552 129.389 40.046 125.416 40.046C121.443 40.046 118.572 37.552 118.572 33.927C118.572 30.302 121.443 27.808 125.416 27.808ZM125.416 29.809C122.806 29.809 120.921 31.491 120.921 33.927C120.921 36.363 122.806 38.016 125.416 38.016C128.026 38.016 129.911 36.363 129.911 33.927C129.911 31.491 128.026 29.809 125.416 29.809ZM162.417 26.416H164.824V52.632H162.417V26.416ZM164.244 37.175H169.116V39.205H164.244V37.175ZM144.524 30.592H159.981V32.564H144.524V30.592ZM152.354 34.739C156.066 34.739 158.734 37.233 158.734 40.771C158.734 44.309 156.066 46.803 152.354 46.803C148.671 46.803 145.974 44.309 145.974 40.771C145.974 37.233 148.671 34.739 152.354 34.739ZM152.354 36.74C149.976 36.74 148.265 38.393 148.265 40.771C148.265 43.12 149.976 44.802 152.354 44.802C154.732 44.802 156.443 43.12 156.443 40.771C156.443 38.393 154.732 36.74 152.354 36.74ZM151.107 26.735H153.514V31.491H151.107V26.735ZM190.429 26.416H192.836V52.632H190.429V26.416ZM182.744 29.229H185.122C185.122 36.827 181.7 43.468 172.942 47.76L171.666 45.817C179.235 42.163 182.744 36.595 182.744 29.635V29.229ZM172.855 29.229H183.788V31.201H172.855V29.229Z" fill="#38937D"/>
<path d="M111.266 26.416V23.916H108.766V26.416H111.266ZM113.586 26.416H116.086V23.916H113.586V26.416ZM113.586 52.632V55.132H116.086V52.632H113.586ZM111.266 52.632H108.766V55.132H111.266V52.632ZM99.8978 37.117V34.617H97.3978V37.117H99.8978ZM106.51 37.117H109.01V34.617H106.51V37.117ZM106.51 39.06V41.56H109.01V39.06H106.51ZM99.8978 39.06H97.3978V41.56H99.8978V39.06ZM105.814 27.083V24.583H103.314V27.083H105.814ZM108.076 27.083H110.576V24.583H108.076V27.083ZM108.076 51.298V53.798H110.576V51.298H108.076ZM105.814 51.298H103.314V53.798H105.814V51.298ZM100.217 29.722V27.222H97.7168V29.722H100.217ZM102.537 29.722H105.037V27.222H102.537V29.722ZM92.7058 46.977L90.7825 48.5742L92.147 50.2172L93.9829 49.1261L92.7058 46.977ZM91.2848 45.266L89.9971 43.1232L87.5011 44.6231L89.3615 46.8632L91.2848 45.266ZM92.4448 29.722V27.222H89.9448V29.722H92.4448ZM101.116 29.722H103.616V27.222H101.116V29.722ZM101.116 31.694V34.194H103.616V31.694H101.116ZM92.4448 31.694H89.9448V34.194H92.4448V31.694ZM111.266 28.916H113.586V23.916H111.266V28.916ZM111.086 26.416V52.632H116.086V26.416H111.086ZM113.586 50.132H111.266V55.132H113.586V50.132ZM113.766 52.632V26.416H108.766V52.632H113.766ZM99.8978 39.617H106.51V34.617H99.8978V39.617ZM104.01 37.117V39.06H109.01V37.117H104.01ZM106.51 36.56H99.8978V41.56H106.51V36.56ZM102.398 39.06V37.117H97.3978V39.06H102.398ZM105.814 29.583H108.076V24.583H105.814V29.583ZM105.576 27.083V51.298H110.576V27.083H105.576ZM108.076 48.798H105.814V53.798H108.076V48.798ZM108.314 51.298V27.083H103.314V51.298H108.314ZM100.217 32.222H102.537V27.222H100.217V32.222ZM100.037 29.722C100.037 35.8086 97.6678 41.1202 91.4286 44.8278L93.9829 49.1261C101.896 44.4238 105.037 37.3814 105.037 29.722H100.037ZM94.629 45.3797L93.208 43.6687L89.3615 46.8632L90.7825 48.5742L94.629 45.3797ZM92.5725 47.4088C99.4788 43.2585 102.717 37.2378 102.717 30.157H97.7168C97.7168 35.4301 95.4447 39.8494 89.9971 43.1232L92.5725 47.4088ZM102.717 30.157V29.722H97.7168V30.157H102.717ZM92.4448 32.222H101.116V27.222H92.4448V32.222ZM98.6158 29.722V31.694H103.616V29.722H98.6158ZM101.116 29.194H92.4448V34.194H101.116V29.194ZM94.9448 31.694V29.722H89.9448V31.694H94.9448ZM137.045 26.445V23.945H134.545V26.445H137.045ZM139.481 26.445H141.981V23.945H139.481V26.445ZM139.481 41.409V43.909H141.981V41.409H139.481ZM137.045 41.409H134.545V43.909H137.045V41.409ZM122.545 42.83V40.33H120.045V42.83H122.545ZM139.481 42.83H141.981V40.33H139.481V42.83ZM139.481 52.284V54.784H141.981V52.284H139.481ZM122.545 52.284H120.045V54.784H122.545V52.284ZM137.103 44.744H139.603V42.244H137.103V44.744ZM124.894 44.744V42.244H122.394V44.744H124.894ZM124.894 50.341H122.394V52.841H124.894V50.341ZM137.103 50.341V52.841H139.603V50.341H137.103ZM137.045 28.945H139.481V23.945H137.045V28.945ZM136.981 26.445V41.409H141.981V26.445H136.981ZM139.481 38.909H137.045V43.909H139.481V38.909ZM139.545 41.409V26.445H134.545V41.409H139.545ZM122.545 45.33H139.481V40.33H122.545V45.33ZM136.981 42.83V52.284H141.981V42.83H136.981ZM139.481 49.784H122.545V54.784H139.481V49.784ZM125.045 52.284V42.83H120.045V52.284H125.045ZM137.103 42.244H124.894V47.244H137.103V42.244ZM122.394 44.744V50.341H127.394V44.744H122.394ZM124.894 52.841H137.103V47.841H124.894V52.841ZM139.603 50.341V44.744H134.603V50.341H139.603ZM125.416 30.308C126.883 30.308 127.966 30.7647 128.649 31.3739C129.31 31.9635 129.731 32.8079 129.731 33.927H134.731C134.731 31.421 133.73 29.206 131.977 27.6424C130.246 26.0983 127.921 25.308 125.416 25.308V30.308ZM129.731 33.927C129.731 35.046 129.31 35.8905 128.649 36.4801C127.966 37.0893 126.883 37.546 125.416 37.546V42.546C127.921 42.546 130.246 41.7557 131.977 40.2116C133.73 38.648 134.731 36.4329 134.731 33.927H129.731ZM125.416 37.546C123.947 37.546 122.854 37.0887 122.162 36.4752C121.493 35.8819 121.072 35.0377 121.072 33.927H116.072C116.072 36.4413 117.086 38.6566 118.845 40.2165C120.582 41.7563 122.911 42.546 125.416 42.546V37.546ZM121.072 33.927C121.072 32.8163 121.493 31.9721 122.162 31.3788C122.854 30.7653 123.947 30.308 125.416 30.308V25.308C122.911 25.308 120.582 26.0977 118.845 27.6374C117.086 29.1974 116.072 31.4127 116.072 33.927H121.072ZM125.416 27.309C123.575 27.309 121.825 27.9069 120.508 29.1046C119.172 30.3189 118.421 32.028 118.421 33.927H123.421C123.421 33.39 123.612 33.04 123.871 32.8043C124.148 32.5521 124.646 32.309 125.416 32.309V27.309ZM118.421 33.927C118.421 35.8285 119.174 37.5347 120.517 38.7432C121.838 39.9325 123.586 40.516 125.416 40.516V35.516C124.635 35.516 124.135 35.273 123.862 35.0268C123.609 34.7997 123.421 34.4615 123.421 33.927H118.421ZM125.416 40.516C127.245 40.516 128.993 39.9325 130.314 38.7432C131.657 37.5347 132.411 35.8285 132.411 33.927H127.411C127.411 34.4615 127.222 34.7997 126.969 35.0268C126.696 35.273 126.196 35.516 125.416 35.516V40.516ZM132.411 33.927C132.411 32.028 131.659 30.3189 130.323 29.1046C129.006 27.9069 127.256 27.309 125.416 27.309V32.309C126.185 32.309 126.683 32.5521 126.96 32.8043C127.219 33.04 127.411 33.39 127.411 33.927H132.411ZM162.417 26.416V23.916H159.917V26.416H162.417ZM164.824 26.416H167.324V23.916H164.824V26.416ZM164.824 52.632V55.132H167.324V52.632H164.824ZM162.417 52.632H159.917V55.132H162.417V52.632ZM164.244 37.175V34.675H161.744V37.175H164.244ZM169.116 37.175H171.616V34.675H169.116V37.175ZM169.116 39.205V41.705H171.616V39.205H169.116ZM164.244 39.205H161.744V41.705H164.244V39.205ZM144.524 30.592V28.092H142.024V30.592H144.524ZM159.981 30.592H162.481V28.092H159.981V30.592ZM159.981 32.564V35.064H162.481V32.564H159.981ZM144.524 32.564H142.024V35.064H144.524V32.564ZM151.107 26.735V24.235H148.607V26.735H151.107ZM153.514 26.735H156.014V24.235H153.514V26.735ZM153.514 31.491V33.991H156.014V31.491H153.514ZM151.107 31.491H148.607V33.991H151.107V31.491ZM162.417 28.916H164.824V23.916H162.417V28.916ZM162.324 26.416V52.632H167.324V26.416H162.324ZM164.824 50.132H162.417V55.132H164.824V50.132ZM164.917 52.632V26.416H159.917V52.632H164.917ZM164.244 39.675H169.116V34.675H164.244V39.675ZM166.616 37.175V39.205H171.616V37.175H166.616ZM169.116 36.705H164.244V41.705H169.116V36.705ZM166.744 39.205V37.175H161.744V39.205H166.744ZM144.524 33.092H159.981V28.092H144.524V33.092ZM157.481 30.592V32.564H162.481V30.592H157.481ZM159.981 30.064H144.524V35.064H159.981V30.064ZM147.024 32.564V30.592H142.024V32.564H147.024ZM152.354 37.239C154.828 37.239 156.234 38.7516 156.234 40.771H161.234C161.234 35.7144 157.305 32.239 152.354 32.239V37.239ZM156.234 40.771C156.234 42.7904 154.828 44.303 152.354 44.303V49.303C157.305 49.303 161.234 45.8276 161.234 40.771H156.234ZM152.354 44.303C149.902 44.303 148.474 42.7831 148.474 40.771H143.474C143.474 45.8349 147.44 49.303 152.354 49.303V44.303ZM148.474 40.771C148.474 38.7589 149.902 37.239 152.354 37.239V32.239C147.44 32.239 143.474 35.7071 143.474 40.771H148.474ZM152.354 34.24C150.575 34.24 148.904 34.8671 147.668 36.0782C146.428 37.2939 145.765 38.9619 145.765 40.771H150.765C150.765 40.2021 150.958 39.8546 151.168 39.6493C151.382 39.4394 151.756 39.24 152.354 39.24V34.24ZM145.765 40.771C145.765 44.5362 148.631 47.302 152.354 47.302V42.302C151.321 42.302 150.765 41.7038 150.765 40.771H145.765ZM152.354 47.302C156.077 47.302 158.943 44.5362 158.943 40.771H153.943C153.943 41.7038 153.387 42.302 152.354 42.302V47.302ZM158.943 40.771C158.943 38.9619 158.281 37.2939 157.04 36.0782C155.804 34.8671 154.134 34.24 152.354 34.24V39.24C152.953 39.24 153.326 39.4394 153.541 39.6493C153.75 39.8546 153.943 40.2021 153.943 40.771H158.943ZM151.107 29.235H153.514V24.235H151.107V29.235ZM151.014 26.735V31.491H156.014V26.735H151.014ZM153.514 28.991H151.107V33.991H153.514V28.991ZM153.607 31.491V26.735H148.607V31.491H153.607ZM190.429 26.416V23.916H187.929V26.416H190.429ZM192.836 26.416H195.336V23.916H192.836V26.416ZM192.836 52.632V55.132H195.336V52.632H192.836ZM190.429 52.632H187.929V55.132H190.429V52.632ZM182.744 29.229V26.729H180.244V29.229H182.744ZM185.122 29.229H187.622V26.729H185.122V29.229ZM172.942 47.76L170.852 49.1323L172.062 50.9751L174.042 50.0049L172.942 47.76ZM171.666 45.817L170.579 43.5656L168.011 44.8055L169.576 47.1893L171.666 45.817ZM172.855 29.229V26.729H170.355V29.229H172.855ZM183.788 29.229H186.288V26.729H183.788V29.229ZM183.788 31.201V33.701H186.288V31.201H183.788ZM172.855 31.201H170.355V33.701H172.855V31.201ZM190.429 28.916H192.836V23.916H190.429V28.916ZM190.336 26.416V52.632H195.336V26.416H190.336ZM192.836 50.132H190.429V55.132H192.836V50.132ZM192.929 52.632V26.416H187.929V52.632H192.929ZM182.744 31.729H185.122V26.729H182.744V31.729ZM182.622 29.229C182.622 32.6447 181.856 35.7306 180.191 38.4172C178.527 41.1021 175.87 43.5412 171.842 45.5151L174.042 50.0049C178.772 47.6868 182.205 44.6594 184.441 41.0513C186.676 37.4449 187.622 33.4113 187.622 29.229H182.622ZM175.032 46.3877L173.756 44.4447L169.576 47.1893L170.852 49.1323L175.032 46.3877ZM172.753 48.0684C176.849 46.091 179.999 43.5203 182.12 40.3582C184.249 37.183 185.244 33.5544 185.244 29.635H180.244C180.244 32.6756 179.484 35.3109 177.967 37.5732C176.441 39.8487 174.052 41.889 170.579 43.5656L172.753 48.0684ZM185.244 29.635V29.229H180.244V29.635H185.244ZM172.855 31.729H183.788V26.729H172.855V31.729ZM181.288 29.229V31.201H186.288V29.229H181.288ZM183.788 28.701H172.855V33.701H183.788V28.701ZM175.355 31.201V29.229H170.355V31.201H175.355Z" fill="#38937D"/>
<path d="M111.266 26.416H113.586V52.632H111.266V26.416ZM99.8978 37.117H106.51V39.06H99.8978V37.117ZM105.814 27.083H108.076V51.298H105.814V27.083ZM100.217 29.722H102.537C102.537 36.595 99.7818 42.772 92.7058 46.977L91.2848 45.266C97.4618 41.554 100.217 36.334 100.217 30.157V29.722ZM92.4448 29.722H101.116V31.694H92.4448V29.722ZM137.045 26.445H139.481V41.409H137.045V26.445ZM122.545 42.83H139.481V52.284H122.545V42.83ZM137.103 44.744H124.894V50.341H137.103V44.744ZM125.416 27.808C129.389 27.808 132.231 30.302 132.231 33.927C132.231 37.552 129.389 40.046 125.416 40.046C121.443 40.046 118.572 37.552 118.572 33.927C118.572 30.302 121.443 27.808 125.416 27.808ZM125.416 29.809C122.806 29.809 120.921 31.491 120.921 33.927C120.921 36.363 122.806 38.016 125.416 38.016C128.026 38.016 129.911 36.363 129.911 33.927C129.911 31.491 128.026 29.809 125.416 29.809ZM162.417 26.416H164.824V52.632H162.417V26.416ZM164.244 37.175H169.116V39.205H164.244V37.175ZM144.524 30.592H159.981V32.564H144.524V30.592ZM152.354 34.739C156.066 34.739 158.734 37.233 158.734 40.771C158.734 44.309 156.066 46.803 152.354 46.803C148.671 46.803 145.974 44.309 145.974 40.771C145.974 37.233 148.671 34.739 152.354 34.739ZM152.354 36.74C149.976 36.74 148.265 38.393 148.265 40.771C148.265 43.12 149.976 44.802 152.354 44.802C154.732 44.802 156.443 43.12 156.443 40.771C156.443 38.393 154.732 36.74 152.354 36.74ZM151.107 26.735H153.514V31.491H151.107V26.735ZM190.429 26.416H192.836V52.632H190.429V26.416ZM182.744 29.229H185.122C185.122 36.827 181.7 43.468 172.942 47.76L171.666 45.817C179.235 42.163 182.744 36.595 182.744 29.635V29.229ZM172.855 29.229H183.788V31.201H172.855V29.229Z" fill="white"/>
</g>
<defs>
<clipPath id="clip0_394_928">
<rect width="280" height="92" fill="white"/>
</clipPath>
</defs>
</svg>
