<svg width="280" height="93" viewBox="0 0 280 93" fill="none" xmlns="http://www.w3.org/2000/svg">
<g clip-path="url(#clip0_394_791)">
<path d="M237.336 7H42.552C19.0512 7 0 26.0512 0 49.552C0 73.0528 19.0512 92.104 42.552 92.104H237.336C260.837 92.104 279.888 73.0528 279.888 49.552C279.888 26.0512 260.837 7 237.336 7Z" fill="#334871"/>
<path d="M237.336 10.5H42.552C20.9842 10.5 3.5 27.9842 3.5 49.552C3.5 71.1198 20.9842 88.604 42.552 88.604H237.336C258.904 88.604 276.388 71.1198 276.388 49.552C276.388 27.9842 258.904 10.5 237.336 10.5Z" stroke="#334871" stroke-width="7"/>
<path d="M237.584 13.87H42.804C23.1681 13.87 7.25 29.7878 7.25 49.4235C7.25 69.0592 23.1681 84.977 42.804 84.977H237.584C257.22 84.977 273.138 69.0592 273.138 49.4235C273.138 29.7878 257.22 13.87 237.584 13.87Z" fill="#3E61A3" stroke="#5A83D0" stroke-width="5"/>
<path d="M80.1212 33.416H82.4412V59.632H80.1212V33.416ZM68.7532 44.117H75.3652V46.06H68.7532V44.117ZM74.6692 34.083H76.9312V58.298H74.6692V34.083ZM69.0722 36.722H71.3922C71.3922 43.595 68.6372 49.772 61.5612 53.977L60.1402 52.266C66.3172 48.554 69.0722 43.334 69.0722 37.157V36.722ZM61.3002 36.722H69.9712V38.694H61.3002V36.722ZM105.9 33.445H108.336V48.409H105.9V33.445ZM91.4 49.83H108.336V59.284H91.4V49.83ZM105.958 51.744H93.749V57.341H105.958V51.744ZM94.271 34.808C98.244 34.808 101.086 37.302 101.086 40.927C101.086 44.552 98.244 47.046 94.271 47.046C90.298 47.046 87.427 44.552 87.427 40.927C87.427 37.302 90.298 34.808 94.271 34.808ZM94.271 36.809C91.661 36.809 89.776 38.491 89.776 40.927C89.776 43.363 91.661 45.016 94.271 45.016C96.881 45.016 98.766 43.363 98.766 40.927C98.766 38.491 96.881 36.809 94.271 36.809ZM139.4 33.387H141.836V59.661H139.4V33.387ZM141.256 43.74H146.128V45.77H141.256V43.74ZM122.783 51.106H124.842C129.685 51.106 133.078 50.932 136.993 50.207L137.254 52.237C133.223 52.991 129.772 53.136 124.842 53.136H122.783V51.106ZM122.783 35.939H134.963V37.911H125.161V52.005H122.783V35.939ZM155.261 35.678H157.233V40.376C157.233 46.408 153.985 52.005 149.693 54.18L148.214 52.208C152.1 50.352 155.261 45.335 155.261 40.376V35.678ZM155.667 35.678H157.639V40.376C157.639 45.161 160.771 49.975 164.657 51.773L163.207 53.687C158.944 51.599 155.667 46.205 155.667 40.376V35.678ZM167.383 33.387H169.79V59.661H167.383V33.387ZM192.784 33.416H195.191V59.632H192.784V33.416ZM194.611 44.175H199.483V46.205H194.611V44.175ZM174.891 37.592H190.348V39.564H174.891V37.592ZM182.721 41.739C186.433 41.739 189.101 44.233 189.101 47.771C189.101 51.309 186.433 53.803 182.721 53.803C179.038 53.803 176.341 51.309 176.341 47.771C176.341 44.233 179.038 41.739 182.721 41.739ZM182.721 43.74C180.343 43.74 178.632 45.393 178.632 47.771C178.632 50.12 180.343 51.802 182.721 51.802C185.099 51.802 186.81 50.12 186.81 47.771C186.81 45.393 185.099 43.74 182.721 43.74ZM181.474 33.735H183.881V38.491H181.474V33.735ZM220.796 33.416H223.203V59.632H220.796V33.416ZM213.111 36.229H215.489C215.489 43.827 212.067 50.468 203.309 54.76L202.033 52.817C209.602 49.163 213.111 43.595 213.111 36.635V36.229ZM203.222 36.229H214.155V38.201H203.222V36.229Z" fill="#324772"/>
<path d="M80.1212 33.416V30.916H77.6212V33.416H80.1212ZM82.4412 33.416H84.9412V30.916H82.4412V33.416ZM82.4412 59.632V62.132H84.9412V59.632H82.4412ZM80.1212 59.632H77.6212V62.132H80.1212V59.632ZM68.7532 44.117V41.617H66.2532V44.117H68.7532ZM75.3652 44.117H77.8652V41.617H75.3652V44.117ZM75.3652 46.06V48.56H77.8652V46.06H75.3652ZM68.7532 46.06H66.2532V48.56H68.7532V46.06ZM74.6692 34.083V31.583H72.1692V34.083H74.6692ZM76.9312 34.083H79.4312V31.583H76.9312V34.083ZM76.9312 58.298V60.798H79.4312V58.298H76.9312ZM74.6692 58.298H72.1692V60.798H74.6692V58.298ZM69.0722 36.722V34.222H66.5722V36.722H69.0722ZM71.3922 36.722H73.8922V34.222H71.3922V36.722ZM61.5612 53.977L59.638 55.5742L61.0025 57.2172L62.8384 56.1261L61.5612 53.977ZM60.1402 52.266L58.8525 50.1232L56.3565 51.6231L58.217 53.8632L60.1402 52.266ZM61.3002 36.722V34.222H58.8002V36.722H61.3002ZM69.9712 36.722H72.4712V34.222H69.9712V36.722ZM69.9712 38.694V41.194H72.4712V38.694H69.9712ZM61.3002 38.694H58.8002V41.194H61.3002V38.694ZM80.1212 35.916H82.4412V30.916H80.1212V35.916ZM79.9412 33.416V59.632H84.9412V33.416H79.9412ZM82.4412 57.132H80.1212V62.132H82.4412V57.132ZM82.6212 59.632V33.416H77.6212V59.632H82.6212ZM68.7532 46.617H75.3652V41.617H68.7532V46.617ZM72.8652 44.117V46.06H77.8652V44.117H72.8652ZM75.3652 43.56H68.7532V48.56H75.3652V43.56ZM71.2532 46.06V44.117H66.2532V46.06H71.2532ZM74.6692 36.583H76.9312V31.583H74.6692V36.583ZM74.4312 34.083V58.298H79.4312V34.083H74.4312ZM76.9312 55.798H74.6692V60.798H76.9312V55.798ZM77.1692 58.298V34.083H72.1692V58.298H77.1692ZM69.0722 39.222H71.3922V34.222H69.0722V39.222ZM68.8922 36.722C68.8922 42.8086 66.5232 48.1202 60.2841 51.8278L62.8384 56.1261C70.7513 51.4238 73.8922 44.3814 73.8922 36.722H68.8922ZM63.4845 52.3797L62.0635 50.6687L58.217 53.8632L59.638 55.5742L63.4845 52.3797ZM61.428 54.4088C68.3343 50.2585 71.5722 44.2378 71.5722 37.157H66.5722C66.5722 42.4301 64.3002 46.8494 58.8525 50.1232L61.428 54.4088ZM71.5722 37.157V36.722H66.5722V37.157H71.5722ZM61.3002 39.222H69.9712V34.222H61.3002V39.222ZM67.4712 36.722V38.694H72.4712V36.722H67.4712ZM69.9712 36.194H61.3002V41.194H69.9712V36.194ZM63.8002 38.694V36.722H58.8002V38.694H63.8002ZM105.9 33.445V30.945H103.4V33.445H105.9ZM108.336 33.445H110.836V30.945H108.336V33.445ZM108.336 48.409V50.909H110.836V48.409H108.336ZM105.9 48.409H103.4V50.909H105.9V48.409ZM91.4 49.83V47.33H88.9V49.83H91.4ZM108.336 49.83H110.836V47.33H108.336V49.83ZM108.336 59.284V61.784H110.836V59.284H108.336ZM91.4 59.284H88.9V61.784H91.4V59.284ZM105.958 51.744H108.458V49.244H105.958V51.744ZM93.749 51.744V49.244H91.249V51.744H93.749ZM93.749 57.341H91.249V59.841H93.749V57.341ZM105.958 57.341V59.841H108.458V57.341H105.958ZM105.9 35.945H108.336V30.945H105.9V35.945ZM105.836 33.445V48.409H110.836V33.445H105.836ZM108.336 45.909H105.9V50.909H108.336V45.909ZM108.4 48.409V33.445H103.4V48.409H108.4ZM91.4 52.33H108.336V47.33H91.4V52.33ZM105.836 49.83V59.284H110.836V49.83H105.836ZM108.336 56.784H91.4V61.784H108.336V56.784ZM93.9 59.284V49.83H88.9V59.284H93.9ZM105.958 49.244H93.749V54.244H105.958V49.244ZM91.249 51.744V57.341H96.249V51.744H91.249ZM93.749 59.841H105.958V54.841H93.749V59.841ZM108.458 57.341V51.744H103.458V57.341H108.458ZM94.271 37.308C95.7385 37.308 96.8213 37.7647 97.5043 38.3739C98.1654 38.9635 98.586 39.8079 98.586 40.927H103.586C103.586 38.421 102.585 36.206 100.832 34.6424C99.1011 33.0983 96.7764 32.308 94.271 32.308V37.308ZM98.586 40.927C98.586 42.046 98.1654 42.8905 97.5043 43.4801C96.8213 44.0893 95.7385 44.546 94.271 44.546V49.546C96.7764 49.546 99.1011 48.7557 100.832 47.2116C102.585 45.648 103.586 43.4329 103.586 40.927H98.586ZM94.271 44.546C92.8027 44.546 91.7095 44.0887 91.0176 43.4752C90.3483 42.8819 89.927 42.0377 89.927 40.927H84.927C84.927 43.4413 85.9411 45.6566 87.7006 47.2165C89.4374 48.7563 91.7663 49.546 94.271 49.546V44.546ZM89.927 40.927C89.927 39.8163 90.3483 38.9721 91.0176 38.3788C91.7095 37.7653 92.8027 37.308 94.271 37.308V32.308C91.7663 32.308 89.4374 33.0977 87.7006 34.6374C85.9411 36.1974 84.927 38.4127 84.927 40.927H89.927ZM94.271 34.309C92.43 34.309 90.6806 34.9069 89.363 36.1046C88.0273 37.3189 87.276 39.028 87.276 40.927H92.276C92.276 40.39 92.4671 40.04 92.7264 39.8043C93.0038 39.5521 93.5019 39.309 94.271 39.309V34.309ZM87.276 40.927C87.276 42.8285 88.0295 44.5347 89.3723 45.7432C90.6938 46.9325 92.4416 47.516 94.271 47.516V42.516C93.4903 42.516 92.9907 42.273 92.7171 42.0268C92.4649 41.7997 92.276 41.4615 92.276 40.927H87.276ZM94.271 47.516C96.1003 47.516 97.8482 46.9325 99.1696 45.7432C100.512 44.5347 101.266 42.8285 101.266 40.927H96.266C96.266 41.4615 96.077 41.7997 95.8248 42.0268C95.5513 42.273 95.0516 42.516 94.271 42.516V47.516ZM101.266 40.927C101.266 39.028 100.515 37.3189 99.1789 36.1046C97.8613 34.9069 96.1119 34.309 94.271 34.309V39.309C95.04 39.309 95.5381 39.5521 95.8155 39.8043C96.0748 40.04 96.266 40.39 96.266 40.927H101.266ZM139.4 33.387V30.887H136.9V33.387H139.4ZM141.836 33.387H144.336V30.887H141.836V33.387ZM141.836 59.661V62.161H144.336V59.661H141.836ZM139.4 59.661H136.9V62.161H139.4V59.661ZM141.256 43.74V41.24H138.756V43.74H141.256ZM146.128 43.74H148.628V41.24H146.128V43.74ZM146.128 45.77V48.27H148.628V45.77H146.128ZM141.256 45.77H138.756V48.27H141.256V45.77ZM122.783 51.106V48.606H120.283V51.106H122.783ZM136.993 50.207L139.473 49.8882L139.136 47.2677L136.538 47.7488L136.993 50.207ZM137.254 52.237L137.714 54.6944L140.035 54.2602L139.734 51.9182L137.254 52.237ZM122.783 53.136H120.283V55.636H122.783V53.136ZM122.783 35.939V33.439H120.283V35.939H122.783ZM134.963 35.939H137.463V33.439H134.963V35.939ZM134.963 37.911V40.411H137.463V37.911H134.963ZM125.161 37.911V35.411H122.661V37.911H125.161ZM125.161 52.005V54.505H127.661V52.005H125.161ZM122.783 52.005H120.283V54.505H122.783V52.005ZM139.4 35.887H141.836V30.887H139.4V35.887ZM139.336 33.387V59.661H144.336V33.387H139.336ZM141.836 57.161H139.4V62.161H141.836V57.161ZM141.9 59.661V33.387H136.9V59.661H141.9ZM141.256 46.24H146.128V41.24H141.256V46.24ZM143.628 43.74V45.77H148.628V43.74H143.628ZM146.128 43.27H141.256V48.27H146.128V43.27ZM143.756 45.77V43.74H138.756V45.77H143.756ZM122.783 53.606H124.842V48.606H122.783V53.606ZM124.842 53.606C129.753 53.606 133.318 53.4301 137.448 52.6652L136.538 47.7488C132.838 48.4339 129.617 48.606 124.842 48.606V53.606ZM134.513 50.5258L134.774 52.5558L139.734 51.9182L139.473 49.8882L134.513 50.5258ZM136.794 49.7796C132.99 50.4912 129.72 50.636 124.842 50.636V55.636C129.824 55.636 133.456 55.4908 137.714 54.6944L136.794 49.7796ZM124.842 50.636H122.783V55.636H124.842V50.636ZM125.283 53.136V51.106H120.283V53.136H125.283ZM122.783 38.439H134.963V33.439H122.783V38.439ZM132.463 35.939V37.911H137.463V35.939H132.463ZM134.963 35.411H125.161V40.411H134.963V35.411ZM122.661 37.911V52.005H127.661V37.911H122.661ZM125.161 49.505H122.783V54.505H125.161V49.505ZM125.283 52.005V35.939H120.283V52.005H125.283ZM155.261 35.678V33.178H152.761V35.678H155.261ZM157.233 35.678H159.733V33.178H157.233V35.678ZM149.693 54.18L147.693 55.68L148.951 57.3583L150.823 56.41L149.693 54.18ZM148.214 52.208L147.136 49.9521L144.383 51.2671L146.214 53.708L148.214 52.208ZM155.667 35.678V33.178H153.167V35.678H155.667ZM157.639 35.678H160.139V33.178H157.639V35.678ZM164.657 51.773L166.649 53.2826L168.524 50.8078L165.706 49.5041L164.657 51.773ZM163.207 53.687L162.107 55.9322L163.956 56.8378L165.199 55.1966L163.207 53.687ZM167.383 33.387V30.887H164.883V33.387H167.383ZM169.79 33.387H172.29V30.887H169.79V33.387ZM169.79 59.661V62.161H172.29V59.661H169.79ZM167.383 59.661H164.883V62.161H167.383V59.661ZM155.261 38.178H157.233V33.178H155.261V38.178ZM154.733 35.678V40.376H159.733V35.678H154.733ZM154.733 40.376C154.733 45.6416 151.868 50.2748 148.563 51.95L150.823 56.41C156.101 53.7351 159.733 47.1743 159.733 40.376H154.733ZM151.693 52.68L150.214 50.708L146.214 53.708L147.693 55.68L151.693 52.68ZM149.291 54.4639C154.109 52.1628 157.761 46.2267 157.761 40.376H152.761C152.761 44.4433 150.09 48.5412 147.136 49.9521L149.291 54.4639ZM157.761 40.376V35.678H152.761V40.376H157.761ZM155.667 38.178H157.639V33.178H155.667V38.178ZM155.139 35.678V40.376H160.139V35.678H155.139ZM155.139 40.376C155.139 46.0981 158.803 51.8194 163.607 54.0419L165.706 49.5041C162.738 48.1306 160.139 44.2239 160.139 40.376H155.139ZM162.664 50.2634L161.214 52.1774L165.199 55.1966L166.649 53.2826L162.664 50.2634ZM164.306 51.4418C161.015 49.8297 158.167 45.3852 158.167 40.376H153.167C153.167 47.0247 156.872 53.3683 162.107 55.9322L164.306 51.4418ZM158.167 40.376V35.678H153.167V40.376H158.167ZM167.383 35.887H169.79V30.887H167.383V35.887ZM167.29 33.387V59.661H172.29V33.387H167.29ZM169.79 57.161H167.383V62.161H169.79V57.161ZM169.883 59.661V33.387H164.883V59.661H169.883ZM192.784 33.416V30.916H190.284V33.416H192.784ZM195.191 33.416H197.691V30.916H195.191V33.416ZM195.191 59.632V62.132H197.691V59.632H195.191ZM192.784 59.632H190.284V62.132H192.784V59.632ZM194.611 44.175V41.675H192.111V44.175H194.611ZM199.483 44.175H201.983V41.675H199.483V44.175ZM199.483 46.205V48.705H201.983V46.205H199.483ZM194.611 46.205H192.111V48.705H194.611V46.205ZM174.891 37.592V35.092H172.391V37.592H174.891ZM190.348 37.592H192.848V35.092H190.348V37.592ZM190.348 39.564V42.064H192.848V39.564H190.348ZM174.891 39.564H172.391V42.064H174.891V39.564ZM181.474 33.735V31.235H178.974V33.735H181.474ZM183.881 33.735H186.381V31.235H183.881V33.735ZM183.881 38.491V40.991H186.381V38.491H183.881ZM181.474 38.491H178.974V40.991H181.474V38.491ZM192.784 35.916H195.191V30.916H192.784V35.916ZM192.691 33.416V59.632H197.691V33.416H192.691ZM195.191 57.132H192.784V62.132H195.191V57.132ZM195.284 59.632V33.416H190.284V59.632H195.284ZM194.611 46.675H199.483V41.675H194.611V46.675ZM196.983 44.175V46.205H201.983V44.175H196.983ZM199.483 43.705H194.611V48.705H199.483V43.705ZM197.111 46.205V44.175H192.111V46.205H197.111ZM174.891 40.092H190.348V35.092H174.891V40.092ZM187.848 37.592V39.564H192.848V37.592H187.848ZM190.348 37.064H174.891V42.064H190.348V37.064ZM177.391 39.564V37.592H172.391V39.564H177.391ZM182.721 44.239C185.195 44.239 186.601 45.7516 186.601 47.771H191.601C191.601 42.7144 187.672 39.239 182.721 39.239V44.239ZM186.601 47.771C186.601 49.7904 185.195 51.303 182.721 51.303V56.303C187.672 56.303 191.601 52.8276 191.601 47.771H186.601ZM182.721 51.303C180.269 51.303 178.841 49.7831 178.841 47.771H173.841C173.841 52.8349 177.808 56.303 182.721 56.303V51.303ZM178.841 47.771C178.841 45.7589 180.269 44.239 182.721 44.239V39.239C177.808 39.239 173.841 42.7071 173.841 47.771H178.841ZM182.721 41.24C180.942 41.24 179.271 41.8671 178.035 43.0782C176.795 44.2939 176.132 45.9619 176.132 47.771H181.132C181.132 47.2021 181.325 46.8546 181.535 46.6493C181.749 46.4394 182.123 46.24 182.721 46.24V41.24ZM176.132 47.771C176.132 51.5362 178.998 54.302 182.721 54.302V49.302C181.688 49.302 181.132 48.7038 181.132 47.771H176.132ZM182.721 54.302C186.444 54.302 189.31 51.5362 189.31 47.771H184.31C184.31 48.7038 183.754 49.302 182.721 49.302V54.302ZM189.31 47.771C189.31 45.9619 188.648 44.2939 187.407 43.0782C186.172 41.8671 184.501 41.24 182.721 41.24V46.24C183.32 46.24 183.694 46.4394 183.908 46.6493C184.117 46.8546 184.31 47.2021 184.31 47.771H189.31ZM181.474 36.235H183.881V31.235H181.474V36.235ZM181.381 33.735V38.491H186.381V33.735H181.381ZM183.881 35.991H181.474V40.991H183.881V35.991ZM183.974 38.491V33.735H178.974V38.491H183.974ZM220.796 33.416V30.916H218.296V33.416H220.796ZM223.203 33.416H225.703V30.916H223.203V33.416ZM223.203 59.632V62.132H225.703V59.632H223.203ZM220.796 59.632H218.296V62.132H220.796V59.632ZM213.111 36.229V33.729H210.611V36.229H213.111ZM215.489 36.229H217.989V33.729H215.489V36.229ZM203.309 54.76L201.219 56.1323L202.43 57.9751L204.409 57.0049L203.309 54.76ZM202.033 52.817L200.946 50.5656L198.378 51.8055L199.943 54.1893L202.033 52.817ZM203.222 36.229V33.729H200.722V36.229H203.222ZM214.155 36.229H216.655V33.729H214.155V36.229ZM214.155 38.201V40.701H216.655V38.201H214.155ZM203.222 38.201H200.722V40.701H203.222V38.201ZM220.796 35.916H223.203V30.916H220.796V35.916ZM220.703 33.416V59.632H225.703V33.416H220.703ZM223.203 57.132H220.796V62.132H223.203V57.132ZM223.296 59.632V33.416H218.296V59.632H223.296ZM213.111 38.729H215.489V33.729H213.111V38.729ZM212.989 36.229C212.989 39.6447 212.224 42.7306 210.558 45.4172C208.894 48.1021 206.237 50.5412 202.209 52.5151L204.409 57.0049C209.139 54.6868 212.572 51.6594 214.808 48.0513C217.044 44.4449 217.989 40.4113 217.989 36.229H212.989ZM205.399 53.3877L204.123 51.4447L199.943 54.1893L201.219 56.1323L205.399 53.3877ZM203.12 55.0684C207.216 53.091 210.366 50.5203 212.487 47.3582C214.616 44.183 215.611 40.5544 215.611 36.635H210.611C210.611 39.6756 209.852 42.3109 208.334 44.5732C206.808 46.8487 204.419 48.889 200.946 50.5656L203.12 55.0684ZM215.611 36.635V36.229H210.611V36.635H215.611ZM203.222 38.729H214.155V33.729H203.222V38.729ZM211.655 36.229V38.201H216.655V36.229H211.655ZM214.155 35.701H203.222V40.701H214.155V35.701ZM205.722 38.201V36.229H200.722V38.201H205.722Z" fill="#324772"/>
<path d="M80.1212 33.416H82.4412V59.632H80.1212V33.416ZM68.7532 44.117H75.3652V46.06H68.7532V44.117ZM74.6692 34.083H76.9312V58.298H74.6692V34.083ZM69.0722 36.722H71.3922C71.3922 43.595 68.6372 49.772 61.5612 53.977L60.1402 52.266C66.3172 48.554 69.0722 43.334 69.0722 37.157V36.722ZM61.3002 36.722H69.9712V38.694H61.3002V36.722ZM105.9 33.445H108.336V48.409H105.9V33.445ZM91.4 49.83H108.336V59.284H91.4V49.83ZM105.958 51.744H93.749V57.341H105.958V51.744ZM94.271 34.808C98.244 34.808 101.086 37.302 101.086 40.927C101.086 44.552 98.244 47.046 94.271 47.046C90.298 47.046 87.427 44.552 87.427 40.927C87.427 37.302 90.298 34.808 94.271 34.808ZM94.271 36.809C91.661 36.809 89.776 38.491 89.776 40.927C89.776 43.363 91.661 45.016 94.271 45.016C96.881 45.016 98.766 43.363 98.766 40.927C98.766 38.491 96.881 36.809 94.271 36.809ZM139.4 33.387H141.836V59.661H139.4V33.387ZM141.256 43.74H146.128V45.77H141.256V43.74ZM122.783 51.106H124.842C129.685 51.106 133.078 50.932 136.993 50.207L137.254 52.237C133.223 52.991 129.772 53.136 124.842 53.136H122.783V51.106ZM122.783 35.939H134.963V37.911H125.161V52.005H122.783V35.939ZM155.261 35.678H157.233V40.376C157.233 46.408 153.985 52.005 149.693 54.18L148.214 52.208C152.1 50.352 155.261 45.335 155.261 40.376V35.678ZM155.667 35.678H157.639V40.376C157.639 45.161 160.771 49.975 164.657 51.773L163.207 53.687C158.944 51.599 155.667 46.205 155.667 40.376V35.678ZM167.383 33.387H169.79V59.661H167.383V33.387ZM192.784 33.416H195.191V59.632H192.784V33.416ZM194.611 44.175H199.483V46.205H194.611V44.175ZM174.891 37.592H190.348V39.564H174.891V37.592ZM182.721 41.739C186.433 41.739 189.101 44.233 189.101 47.771C189.101 51.309 186.433 53.803 182.721 53.803C179.038 53.803 176.341 51.309 176.341 47.771C176.341 44.233 179.038 41.739 182.721 41.739ZM182.721 43.74C180.343 43.74 178.632 45.393 178.632 47.771C178.632 50.12 180.343 51.802 182.721 51.802C185.099 51.802 186.81 50.12 186.81 47.771C186.81 45.393 185.099 43.74 182.721 43.74ZM181.474 33.735H183.881V38.491H181.474V33.735ZM220.796 33.416H223.203V59.632H220.796V33.416ZM213.111 36.229H215.489C215.489 43.827 212.067 50.468 203.309 54.76L202.033 52.817C209.602 49.163 213.111 43.595 213.111 36.635V36.229ZM203.222 36.229H214.155V38.201H203.222V36.229Z" fill="white"/>
<g opacity="0.6">
<path d="M237.336 7H42.552C19.0512 7 0 26.0512 0 49.552C0 73.0528 19.0512 92.104 42.552 92.104H237.336C260.837 92.104 279.888 73.0528 279.888 49.552C279.888 26.0512 260.837 7 237.336 7Z" fill="#334871"/>
<path d="M237.336 10.5H42.552C20.9842 10.5 3.5 27.9842 3.5 49.552C3.5 71.1198 20.9842 88.604 42.552 88.604H237.336C258.904 88.604 276.388 71.1198 276.388 49.552C276.388 27.9842 258.904 10.5 237.336 10.5Z" stroke="#334871" stroke-width="7"/>
</g>
</g>
<defs>
<clipPath id="clip0_394_791">
<rect width="280" height="92.104" fill="white"/>
</clipPath>
</defs>
</svg>
