<svg width="280" height="92" viewBox="0 0 280 92" fill="none" xmlns="http://www.w3.org/2000/svg">
<g clip-path="url(#clip0_394_900)">
<path d="M236.888 5.98798H43C19.2518 5.98798 0 25.2397 0 48.988V48.998C0 72.7462 19.2518 91.998 43 91.998H236.888C260.636 91.998 279.888 72.7462 279.888 48.998V48.988C279.888 25.2397 260.636 5.98798 236.888 5.98798Z" fill="#334871"/>
<path d="M236.888 9.48798H43C21.1848 9.48798 3.5 27.1727 3.5 48.988V48.998C3.5 70.8132 21.1848 88.498 43 88.498H236.888C258.703 88.498 276.388 70.8132 276.388 48.998V48.988C276.388 27.1727 258.703 9.48798 236.888 9.48798Z" stroke="#334871" stroke-width="7"/>
<path d="M237.336 0H42.552C19.0512 0 0 19.0512 0 42.552C0 66.0528 19.0512 85.104 42.552 85.104H237.336C260.837 85.104 279.888 66.0528 279.888 42.552C279.888 19.0512 260.837 0 237.336 0Z" fill="#334871"/>
<path d="M237.336 3.5H42.552C20.9842 3.5 3.5 20.9842 3.5 42.552C3.5 64.1198 20.9842 81.604 42.552 81.604H237.336C258.904 81.604 276.388 64.1198 276.388 42.552C276.388 20.9842 258.904 3.5 237.336 3.5Z" stroke="#334871" stroke-width="7"/>
<path d="M237.584 6.87H42.804C23.1681 6.87 7.25 22.7878 7.25 42.4235C7.25 62.0592 23.1681 77.977 42.804 77.977H237.584C257.22 77.977 273.138 62.0592 273.138 42.4235C273.138 22.7878 257.22 6.87 237.584 6.87Z" fill="#3E61A3" stroke="#5A83D0" stroke-width="5"/>
<path d="M80.1212 26.416H82.4412V52.632H80.1212V26.416ZM68.7532 37.117H75.3652V39.06H68.7532V37.117ZM74.6692 27.083H76.9312V51.298H74.6692V27.083ZM69.0722 29.722H71.3922C71.3922 36.595 68.6372 42.772 61.5612 46.977L60.1402 45.266C66.3172 41.554 69.0722 36.334 69.0722 30.157V29.722ZM61.3002 29.722H69.9712V31.694H61.3002V29.722ZM105.9 26.445H108.336V41.409H105.9V26.445ZM91.4 42.83H108.336V52.284H91.4V42.83ZM105.958 44.744H93.749V50.341H105.958V44.744ZM94.271 27.808C98.244 27.808 101.086 30.302 101.086 33.927C101.086 37.552 98.244 40.046 94.271 40.046C90.298 40.046 87.427 37.552 87.427 33.927C87.427 30.302 90.298 27.808 94.271 27.808ZM94.271 29.809C91.661 29.809 89.776 31.491 89.776 33.927C89.776 36.363 91.661 38.016 94.271 38.016C96.881 38.016 98.766 36.363 98.766 33.927C98.766 31.491 96.881 29.809 94.271 29.809ZM139.4 26.387H141.836V52.661H139.4V26.387ZM141.256 36.74H146.128V38.77H141.256V36.74ZM122.783 44.106H124.842C129.685 44.106 133.078 43.932 136.993 43.207L137.254 45.237C133.223 45.991 129.772 46.136 124.842 46.136H122.783V44.106ZM122.783 28.939H134.963V30.911H125.161V45.005H122.783V28.939ZM155.261 28.678H157.233V33.376C157.233 39.408 153.985 45.005 149.693 47.18L148.214 45.208C152.1 43.352 155.261 38.335 155.261 33.376V28.678ZM155.667 28.678H157.639V33.376C157.639 38.161 160.771 42.975 164.657 44.773L163.207 46.687C158.944 44.599 155.667 39.205 155.667 33.376V28.678ZM167.383 26.387H169.79V52.661H167.383V26.387ZM192.784 26.416H195.191V52.632H192.784V26.416ZM194.611 37.175H199.483V39.205H194.611V37.175ZM174.891 30.592H190.348V32.564H174.891V30.592ZM182.721 34.739C186.433 34.739 189.101 37.233 189.101 40.771C189.101 44.309 186.433 46.803 182.721 46.803C179.038 46.803 176.341 44.309 176.341 40.771C176.341 37.233 179.038 34.739 182.721 34.739ZM182.721 36.74C180.343 36.74 178.632 38.393 178.632 40.771C178.632 43.12 180.343 44.802 182.721 44.802C185.099 44.802 186.81 43.12 186.81 40.771C186.81 38.393 185.099 36.74 182.721 36.74ZM181.474 26.735H183.881V31.491H181.474V26.735ZM220.796 26.416H223.203V52.632H220.796V26.416ZM213.111 29.229H215.489C215.489 36.827 212.067 43.468 203.309 47.76L202.033 45.817C209.602 42.163 213.111 36.595 213.111 29.635V29.229ZM203.222 29.229H214.155V31.201H203.222V29.229Z" fill="#324772"/>
<path d="M80.1212 26.416V23.916H77.6212V26.416H80.1212ZM82.4412 26.416H84.9412V23.916H82.4412V26.416ZM82.4412 52.632V55.132H84.9412V52.632H82.4412ZM80.1212 52.632H77.6212V55.132H80.1212V52.632ZM68.7532 37.117V34.617H66.2532V37.117H68.7532ZM75.3652 37.117H77.8652V34.617H75.3652V37.117ZM75.3652 39.06V41.56H77.8652V39.06H75.3652ZM68.7532 39.06H66.2532V41.56H68.7532V39.06ZM74.6692 27.083V24.583H72.1692V27.083H74.6692ZM76.9312 27.083H79.4312V24.583H76.9312V27.083ZM76.9312 51.298V53.798H79.4312V51.298H76.9312ZM74.6692 51.298H72.1692V53.798H74.6692V51.298ZM69.0722 29.722V27.222H66.5722V29.722H69.0722ZM71.3922 29.722H73.8922V27.222H71.3922V29.722ZM61.5612 46.977L59.638 48.5742L61.0025 50.2172L62.8384 49.1261L61.5612 46.977ZM60.1402 45.266L58.8525 43.1232L56.3565 44.6231L58.217 46.8632L60.1402 45.266ZM61.3002 29.722V27.222H58.8002V29.722H61.3002ZM69.9712 29.722H72.4712V27.222H69.9712V29.722ZM69.9712 31.694V34.194H72.4712V31.694H69.9712ZM61.3002 31.694H58.8002V34.194H61.3002V31.694ZM80.1212 28.916H82.4412V23.916H80.1212V28.916ZM79.9412 26.416V52.632H84.9412V26.416H79.9412ZM82.4412 50.132H80.1212V55.132H82.4412V50.132ZM82.6212 52.632V26.416H77.6212V52.632H82.6212ZM68.7532 39.617H75.3652V34.617H68.7532V39.617ZM72.8652 37.117V39.06H77.8652V37.117H72.8652ZM75.3652 36.56H68.7532V41.56H75.3652V36.56ZM71.2532 39.06V37.117H66.2532V39.06H71.2532ZM74.6692 29.583H76.9312V24.583H74.6692V29.583ZM74.4312 27.083V51.298H79.4312V27.083H74.4312ZM76.9312 48.798H74.6692V53.798H76.9312V48.798ZM77.1692 51.298V27.083H72.1692V51.298H77.1692ZM69.0722 32.222H71.3922V27.222H69.0722V32.222ZM68.8922 29.722C68.8922 35.8086 66.5232 41.1202 60.2841 44.8278L62.8384 49.1261C70.7513 44.4238 73.8922 37.3814 73.8922 29.722H68.8922ZM63.4845 45.3797L62.0635 43.6687L58.217 46.8632L59.638 48.5742L63.4845 45.3797ZM61.428 47.4088C68.3343 43.2585 71.5722 37.2378 71.5722 30.157H66.5722C66.5722 35.4301 64.3002 39.8494 58.8525 43.1232L61.428 47.4088ZM71.5722 30.157V29.722H66.5722V30.157H71.5722ZM61.3002 32.222H69.9712V27.222H61.3002V32.222ZM67.4712 29.722V31.694H72.4712V29.722H67.4712ZM69.9712 29.194H61.3002V34.194H69.9712V29.194ZM63.8002 31.694V29.722H58.8002V31.694H63.8002ZM105.9 26.445V23.945H103.4V26.445H105.9ZM108.336 26.445H110.836V23.945H108.336V26.445ZM108.336 41.409V43.909H110.836V41.409H108.336ZM105.9 41.409H103.4V43.909H105.9V41.409ZM91.4 42.83V40.33H88.9V42.83H91.4ZM108.336 42.83H110.836V40.33H108.336V42.83ZM108.336 52.284V54.784H110.836V52.284H108.336ZM91.4 52.284H88.9V54.784H91.4V52.284ZM105.958 44.744H108.458V42.244H105.958V44.744ZM93.749 44.744V42.244H91.249V44.744H93.749ZM93.749 50.341H91.249V52.841H93.749V50.341ZM105.958 50.341V52.841H108.458V50.341H105.958ZM105.9 28.945H108.336V23.945H105.9V28.945ZM105.836 26.445V41.409H110.836V26.445H105.836ZM108.336 38.909H105.9V43.909H108.336V38.909ZM108.4 41.409V26.445H103.4V41.409H108.4ZM91.4 45.33H108.336V40.33H91.4V45.33ZM105.836 42.83V52.284H110.836V42.83H105.836ZM108.336 49.784H91.4V54.784H108.336V49.784ZM93.9 52.284V42.83H88.9V52.284H93.9ZM105.958 42.244H93.749V47.244H105.958V42.244ZM91.249 44.744V50.341H96.249V44.744H91.249ZM93.749 52.841H105.958V47.841H93.749V52.841ZM108.458 50.341V44.744H103.458V50.341H108.458ZM94.271 30.308C95.7385 30.308 96.8213 30.7647 97.5043 31.3739C98.1654 31.9635 98.586 32.8079 98.586 33.927H103.586C103.586 31.421 102.585 29.206 100.832 27.6424C99.1011 26.0983 96.7764 25.308 94.271 25.308V30.308ZM98.586 33.927C98.586 35.046 98.1654 35.8905 97.5043 36.4801C96.8213 37.0893 95.7385 37.546 94.271 37.546V42.546C96.7764 42.546 99.1011 41.7557 100.832 40.2116C102.585 38.648 103.586 36.4329 103.586 33.927H98.586ZM94.271 37.546C92.8027 37.546 91.7095 37.0887 91.0176 36.4752C90.3483 35.8819 89.927 35.0377 89.927 33.927H84.927C84.927 36.4413 85.9411 38.6566 87.7006 40.2165C89.4374 41.7563 91.7663 42.546 94.271 42.546V37.546ZM89.927 33.927C89.927 32.8163 90.3483 31.9721 91.0176 31.3788C91.7095 30.7653 92.8027 30.308 94.271 30.308V25.308C91.7663 25.308 89.4374 26.0977 87.7006 27.6374C85.9411 29.1974 84.927 31.4127 84.927 33.927H89.927ZM94.271 27.309C92.43 27.309 90.6806 27.9069 89.363 29.1046C88.0273 30.3189 87.276 32.028 87.276 33.927H92.276C92.276 33.39 92.4671 33.04 92.7264 32.8043C93.0038 32.5521 93.5019 32.309 94.271 32.309V27.309ZM87.276 33.927C87.276 35.8285 88.0295 37.5347 89.3723 38.7432C90.6938 39.9325 92.4416 40.516 94.271 40.516V35.516C93.4903 35.516 92.9907 35.273 92.7171 35.0268C92.4649 34.7997 92.276 34.4615 92.276 33.927H87.276ZM94.271 40.516C96.1003 40.516 97.8482 39.9325 99.1696 38.7432C100.512 37.5347 101.266 35.8285 101.266 33.927H96.266C96.266 34.4615 96.077 34.7997 95.8248 35.0268C95.5513 35.273 95.0516 35.516 94.271 35.516V40.516ZM101.266 33.927C101.266 32.028 100.515 30.3189 99.1789 29.1046C97.8613 27.9069 96.1119 27.309 94.271 27.309V32.309C95.04 32.309 95.5381 32.5521 95.8155 32.8043C96.0748 33.04 96.266 33.39 96.266 33.927H101.266ZM139.4 26.387V23.887H136.9V26.387H139.4ZM141.836 26.387H144.336V23.887H141.836V26.387ZM141.836 52.661V55.161H144.336V52.661H141.836ZM139.4 52.661H136.9V55.161H139.4V52.661ZM141.256 36.74V34.24H138.756V36.74H141.256ZM146.128 36.74H148.628V34.24H146.128V36.74ZM146.128 38.77V41.27H148.628V38.77H146.128ZM141.256 38.77H138.756V41.27H141.256V38.77ZM122.783 44.106V41.606H120.283V44.106H122.783ZM136.993 43.207L139.473 42.8882L139.136 40.2677L136.538 40.7488L136.993 43.207ZM137.254 45.237L137.714 47.6944L140.035 47.2602L139.734 44.9182L137.254 45.237ZM122.783 46.136H120.283V48.636H122.783V46.136ZM122.783 28.939V26.439H120.283V28.939H122.783ZM134.963 28.939H137.463V26.439H134.963V28.939ZM134.963 30.911V33.411H137.463V30.911H134.963ZM125.161 30.911V28.411H122.661V30.911H125.161ZM125.161 45.005V47.505H127.661V45.005H125.161ZM122.783 45.005H120.283V47.505H122.783V45.005ZM139.4 28.887H141.836V23.887H139.4V28.887ZM139.336 26.387V52.661H144.336V26.387H139.336ZM141.836 50.161H139.4V55.161H141.836V50.161ZM141.9 52.661V26.387H136.9V52.661H141.9ZM141.256 39.24H146.128V34.24H141.256V39.24ZM143.628 36.74V38.77H148.628V36.74H143.628ZM146.128 36.27H141.256V41.27H146.128V36.27ZM143.756 38.77V36.74H138.756V38.77H143.756ZM122.783 46.606H124.842V41.606H122.783V46.606ZM124.842 46.606C129.753 46.606 133.318 46.4301 137.448 45.6652L136.538 40.7488C132.838 41.4339 129.617 41.606 124.842 41.606V46.606ZM134.513 43.5258L134.774 45.5558L139.734 44.9182L139.473 42.8882L134.513 43.5258ZM136.794 42.7796C132.99 43.4912 129.72 43.636 124.842 43.636V48.636C129.824 48.636 133.456 48.4908 137.714 47.6944L136.794 42.7796ZM124.842 43.636H122.783V48.636H124.842V43.636ZM125.283 46.136V44.106H120.283V46.136H125.283ZM122.783 31.439H134.963V26.439H122.783V31.439ZM132.463 28.939V30.911H137.463V28.939H132.463ZM134.963 28.411H125.161V33.411H134.963V28.411ZM122.661 30.911V45.005H127.661V30.911H122.661ZM125.161 42.505H122.783V47.505H125.161V42.505ZM125.283 45.005V28.939H120.283V45.005H125.283ZM155.261 28.678V26.178H152.761V28.678H155.261ZM157.233 28.678H159.733V26.178H157.233V28.678ZM149.693 47.18L147.693 48.68L148.951 50.3583L150.823 49.41L149.693 47.18ZM148.214 45.208L147.136 42.9521L144.383 44.2671L146.214 46.708L148.214 45.208ZM155.667 28.678V26.178H153.167V28.678H155.667ZM157.639 28.678H160.139V26.178H157.639V28.678ZM164.657 44.773L166.649 46.2826L168.524 43.8078L165.706 42.5041L164.657 44.773ZM163.207 46.687L162.107 48.9322L163.956 49.8378L165.199 48.1966L163.207 46.687ZM167.383 26.387V23.887H164.883V26.387H167.383ZM169.79 26.387H172.29V23.887H169.79V26.387ZM169.79 52.661V55.161H172.29V52.661H169.79ZM167.383 52.661H164.883V55.161H167.383V52.661ZM155.261 31.178H157.233V26.178H155.261V31.178ZM154.733 28.678V33.376H159.733V28.678H154.733ZM154.733 33.376C154.733 38.6416 151.868 43.2748 148.563 44.95L150.823 49.41C156.101 46.7351 159.733 40.1743 159.733 33.376H154.733ZM151.693 45.68L150.214 43.708L146.214 46.708L147.693 48.68L151.693 45.68ZM149.291 47.4639C154.109 45.1628 157.761 39.2267 157.761 33.376H152.761C152.761 37.4433 150.09 41.5412 147.136 42.9521L149.291 47.4639ZM157.761 33.376V28.678H152.761V33.376H157.761ZM155.667 31.178H157.639V26.178H155.667V31.178ZM155.139 28.678V33.376H160.139V28.678H155.139ZM155.139 33.376C155.139 39.0981 158.803 44.8194 163.607 47.0419L165.706 42.5041C162.738 41.1306 160.139 37.2239 160.139 33.376H155.139ZM162.664 43.2634L161.214 45.1774L165.199 48.1966L166.649 46.2826L162.664 43.2634ZM164.306 44.4418C161.015 42.8297 158.167 38.3852 158.167 33.376H153.167C153.167 40.0247 156.872 46.3683 162.107 48.9322L164.306 44.4418ZM158.167 33.376V28.678H153.167V33.376H158.167ZM167.383 28.887H169.79V23.887H167.383V28.887ZM167.29 26.387V52.661H172.29V26.387H167.29ZM169.79 50.161H167.383V55.161H169.79V50.161ZM169.883 52.661V26.387H164.883V52.661H169.883ZM192.784 26.416V23.916H190.284V26.416H192.784ZM195.191 26.416H197.691V23.916H195.191V26.416ZM195.191 52.632V55.132H197.691V52.632H195.191ZM192.784 52.632H190.284V55.132H192.784V52.632ZM194.611 37.175V34.675H192.111V37.175H194.611ZM199.483 37.175H201.983V34.675H199.483V37.175ZM199.483 39.205V41.705H201.983V39.205H199.483ZM194.611 39.205H192.111V41.705H194.611V39.205ZM174.891 30.592V28.092H172.391V30.592H174.891ZM190.348 30.592H192.848V28.092H190.348V30.592ZM190.348 32.564V35.064H192.848V32.564H190.348ZM174.891 32.564H172.391V35.064H174.891V32.564ZM181.474 26.735V24.235H178.974V26.735H181.474ZM183.881 26.735H186.381V24.235H183.881V26.735ZM183.881 31.491V33.991H186.381V31.491H183.881ZM181.474 31.491H178.974V33.991H181.474V31.491ZM192.784 28.916H195.191V23.916H192.784V28.916ZM192.691 26.416V52.632H197.691V26.416H192.691ZM195.191 50.132H192.784V55.132H195.191V50.132ZM195.284 52.632V26.416H190.284V52.632H195.284ZM194.611 39.675H199.483V34.675H194.611V39.675ZM196.983 37.175V39.205H201.983V37.175H196.983ZM199.483 36.705H194.611V41.705H199.483V36.705ZM197.111 39.205V37.175H192.111V39.205H197.111ZM174.891 33.092H190.348V28.092H174.891V33.092ZM187.848 30.592V32.564H192.848V30.592H187.848ZM190.348 30.064H174.891V35.064H190.348V30.064ZM177.391 32.564V30.592H172.391V32.564H177.391ZM182.721 37.239C185.195 37.239 186.601 38.7516 186.601 40.771H191.601C191.601 35.7144 187.672 32.239 182.721 32.239V37.239ZM186.601 40.771C186.601 42.7904 185.195 44.303 182.721 44.303V49.303C187.672 49.303 191.601 45.8276 191.601 40.771H186.601ZM182.721 44.303C180.269 44.303 178.841 42.7831 178.841 40.771H173.841C173.841 45.8349 177.808 49.303 182.721 49.303V44.303ZM178.841 40.771C178.841 38.7589 180.269 37.239 182.721 37.239V32.239C177.808 32.239 173.841 35.7071 173.841 40.771H178.841ZM182.721 34.24C180.942 34.24 179.271 34.8671 178.035 36.0782C176.795 37.2939 176.132 38.9619 176.132 40.771H181.132C181.132 40.2021 181.325 39.8546 181.535 39.6493C181.749 39.4394 182.123 39.24 182.721 39.24V34.24ZM176.132 40.771C176.132 44.5362 178.998 47.302 182.721 47.302V42.302C181.688 42.302 181.132 41.7038 181.132 40.771H176.132ZM182.721 47.302C186.444 47.302 189.31 44.5362 189.31 40.771H184.31C184.31 41.7038 183.754 42.302 182.721 42.302V47.302ZM189.31 40.771C189.31 38.9619 188.648 37.2939 187.407 36.0782C186.172 34.8671 184.501 34.24 182.721 34.24V39.24C183.32 39.24 183.694 39.4394 183.908 39.6493C184.117 39.8546 184.31 40.2021 184.31 40.771H189.31ZM181.474 29.235H183.881V24.235H181.474V29.235ZM181.381 26.735V31.491H186.381V26.735H181.381ZM183.881 28.991H181.474V33.991H183.881V28.991ZM183.974 31.491V26.735H178.974V31.491H183.974ZM220.796 26.416V23.916H218.296V26.416H220.796ZM223.203 26.416H225.703V23.916H223.203V26.416ZM223.203 52.632V55.132H225.703V52.632H223.203ZM220.796 52.632H218.296V55.132H220.796V52.632ZM213.111 29.229V26.729H210.611V29.229H213.111ZM215.489 29.229H217.989V26.729H215.489V29.229ZM203.309 47.76L201.219 49.1323L202.43 50.9751L204.409 50.0049L203.309 47.76ZM202.033 45.817L200.946 43.5656L198.378 44.8055L199.943 47.1893L202.033 45.817ZM203.222 29.229V26.729H200.722V29.229H203.222ZM214.155 29.229H216.655V26.729H214.155V29.229ZM214.155 31.201V33.701H216.655V31.201H214.155ZM203.222 31.201H200.722V33.701H203.222V31.201ZM220.796 28.916H223.203V23.916H220.796V28.916ZM220.703 26.416V52.632H225.703V26.416H220.703ZM223.203 50.132H220.796V55.132H223.203V50.132ZM223.296 52.632V26.416H218.296V52.632H223.296ZM213.111 31.729H215.489V26.729H213.111V31.729ZM212.989 29.229C212.989 32.6447 212.224 35.7306 210.558 38.4172C208.894 41.1021 206.237 43.5412 202.209 45.5151L204.409 50.0049C209.139 47.6868 212.572 44.6594 214.808 41.0513C217.044 37.4449 217.989 33.4113 217.989 29.229H212.989ZM205.399 46.3877L204.123 44.4447L199.943 47.1893L201.219 49.1323L205.399 46.3877ZM203.12 48.0684C207.216 46.091 210.366 43.5203 212.487 40.3582C214.616 37.183 215.611 33.5544 215.611 29.635H210.611C210.611 32.6756 209.852 35.3109 208.334 37.5732C206.808 39.8487 204.419 41.889 200.946 43.5656L203.12 48.0684ZM215.611 29.635V29.229H210.611V29.635H215.611ZM203.222 31.729H214.155V26.729H203.222V31.729ZM211.655 29.229V31.201H216.655V29.229H211.655ZM214.155 28.701H203.222V33.701H214.155V28.701ZM205.722 31.201V29.229H200.722V31.201H205.722Z" fill="#324772"/>
<path d="M80.1212 26.416H82.4412V52.632H80.1212V26.416ZM68.7532 37.117H75.3652V39.06H68.7532V37.117ZM74.6692 27.083H76.9312V51.298H74.6692V27.083ZM69.0722 29.722H71.3922C71.3922 36.595 68.6372 42.772 61.5612 46.977L60.1402 45.266C66.3172 41.554 69.0722 36.334 69.0722 30.157V29.722ZM61.3002 29.722H69.9712V31.694H61.3002V29.722ZM105.9 26.445H108.336V41.409H105.9V26.445ZM91.4 42.83H108.336V52.284H91.4V42.83ZM105.958 44.744H93.749V50.341H105.958V44.744ZM94.271 27.808C98.244 27.808 101.086 30.302 101.086 33.927C101.086 37.552 98.244 40.046 94.271 40.046C90.298 40.046 87.427 37.552 87.427 33.927C87.427 30.302 90.298 27.808 94.271 27.808ZM94.271 29.809C91.661 29.809 89.776 31.491 89.776 33.927C89.776 36.363 91.661 38.016 94.271 38.016C96.881 38.016 98.766 36.363 98.766 33.927C98.766 31.491 96.881 29.809 94.271 29.809ZM139.4 26.387H141.836V52.661H139.4V26.387ZM141.256 36.74H146.128V38.77H141.256V36.74ZM122.783 44.106H124.842C129.685 44.106 133.078 43.932 136.993 43.207L137.254 45.237C133.223 45.991 129.772 46.136 124.842 46.136H122.783V44.106ZM122.783 28.939H134.963V30.911H125.161V45.005H122.783V28.939ZM155.261 28.678H157.233V33.376C157.233 39.408 153.985 45.005 149.693 47.18L148.214 45.208C152.1 43.352 155.261 38.335 155.261 33.376V28.678ZM155.667 28.678H157.639V33.376C157.639 38.161 160.771 42.975 164.657 44.773L163.207 46.687C158.944 44.599 155.667 39.205 155.667 33.376V28.678ZM167.383 26.387H169.79V52.661H167.383V26.387ZM192.784 26.416H195.191V52.632H192.784V26.416ZM194.611 37.175H199.483V39.205H194.611V37.175ZM174.891 30.592H190.348V32.564H174.891V30.592ZM182.721 34.739C186.433 34.739 189.101 37.233 189.101 40.771C189.101 44.309 186.433 46.803 182.721 46.803C179.038 46.803 176.341 44.309 176.341 40.771C176.341 37.233 179.038 34.739 182.721 34.739ZM182.721 36.74C180.343 36.74 178.632 38.393 178.632 40.771C178.632 43.12 180.343 44.802 182.721 44.802C185.099 44.802 186.81 43.12 186.81 40.771C186.81 38.393 185.099 36.74 182.721 36.74ZM181.474 26.735H183.881V31.491H181.474V26.735ZM220.796 26.416H223.203V52.632H220.796V26.416ZM213.111 29.229H215.489C215.489 36.827 212.067 43.468 203.309 47.76L202.033 45.817C209.602 42.163 213.111 36.595 213.111 29.635V29.229ZM203.222 29.229H214.155V31.201H203.222V29.229Z" fill="white"/>
</g>
<defs>
<clipPath id="clip0_394_900">
<rect width="280" height="92" fill="white"/>
</clipPath>
</defs>
</svg>
