<svg width="280" height="92" viewBox="0 0 280 92" fill="none" xmlns="http://www.w3.org/2000/svg">
<g clip-path="url(#clip0_394_956)">
<path d="M236.888 5.98801H43C19.2518 5.98801 0 25.2398 0 48.988V48.998C0 72.7462 19.2518 91.998 43 91.998H236.888C260.636 91.998 279.888 72.7462 279.888 48.998V48.988C279.888 25.2398 260.636 5.98801 236.888 5.98801Z" fill="#334871"/>
<path d="M236.888 9.48801H43C21.1848 9.48801 3.5 27.1728 3.5 48.988V48.998C3.5 70.8133 21.1848 88.498 43 88.498H236.888C258.703 88.498 276.388 70.8133 276.388 48.998V48.988C276.388 27.1728 258.703 9.48801 236.888 9.48801Z" stroke="#334871" stroke-width="7"/>
<path d="M237.336 0H42.552C19.0512 0 0 19.0512 0 42.552C0 66.0528 19.0512 85.104 42.552 85.104H237.336C260.837 85.104 279.888 66.0528 279.888 42.552C279.888 19.0512 260.837 0 237.336 0Z" fill="#334871"/>
<path d="M237.336 3.5H42.552C20.9842 3.5 3.5 20.9842 3.5 42.552C3.5 64.1198 20.9842 81.604 42.552 81.604H237.336C258.904 81.604 276.388 64.1198 276.388 42.552C276.388 20.9842 258.904 3.5 237.336 3.5Z" stroke="#334871" stroke-width="7"/>
<path d="M237.584 6.87H42.804C23.1681 6.87 7.25 22.7878 7.25 42.4235C7.25 62.0592 23.1681 77.977 42.804 77.977H237.584C257.22 77.977 273.138 62.0592 273.138 42.4235C273.138 22.7878 257.22 6.87 237.584 6.87Z" fill="#3E61A3" stroke="#5A83D0" stroke-width="5"/>
<path d="M107.188 26.416H109.508V52.632H107.188V26.416ZM95.8196 37.117H102.432V39.06H95.8196V37.117ZM101.736 27.083H103.998V51.298H101.736V27.083ZM96.1386 29.722H98.4586C98.4586 36.595 95.7036 42.772 88.6276 46.977L87.2066 45.266C93.3836 41.554 96.1386 36.334 96.1386 30.157V29.722ZM88.3666 29.722H97.0376V31.694H88.3666V29.722ZM132.966 26.445H135.402V41.409H132.966V26.445ZM118.466 42.83H135.402V52.284H118.466V42.83ZM133.024 44.744H120.815V50.341H133.024V44.744ZM121.337 27.808C125.31 27.808 128.152 30.302 128.152 33.927C128.152 37.552 125.31 40.046 121.337 40.046C117.364 40.046 114.493 37.552 114.493 33.927C114.493 30.302 117.364 27.808 121.337 27.808ZM121.337 29.809C118.727 29.809 116.842 31.491 116.842 33.927C116.842 36.363 118.727 38.016 121.337 38.016C123.947 38.016 125.832 36.363 125.832 33.927C125.832 31.491 123.947 29.809 121.337 29.809ZM160.724 42.859C166.06 42.859 169.337 44.657 169.337 47.731C169.337 50.805 166.06 52.603 160.724 52.603C155.388 52.603 152.111 50.805 152.111 47.731C152.111 44.657 155.388 42.859 160.724 42.859ZM160.724 44.802C156.838 44.802 154.46 45.875 154.46 47.731C154.46 49.616 156.838 50.689 160.724 50.689C164.61 50.689 166.988 49.616 166.988 47.731C166.988 45.875 164.61 44.802 160.724 44.802ZM166.669 26.416H169.076V42.163H166.669V26.416ZM168.409 32.999H172.962V35.029H168.409V32.999ZM149.82 28.069H152.198V31.984H159.593V28.069H161.942V40.162H149.82V28.069ZM152.198 33.898V38.219H159.593V33.898H152.198ZM176.701 27.75H179.079V31.781H186.184V27.75H188.533V39.756H176.701V27.75ZM179.079 33.666V37.784H186.184V33.666H179.079ZM187.866 32.854H195.29V34.826H187.866V32.854ZM194.565 26.416H196.972V40.742H194.565V26.416ZM180.181 42.018H182.559V45.179H194.594V42.018H196.972V52.284H180.181V42.018ZM182.559 47.093V50.312H194.594V47.093H182.559Z" fill="#324772"/>
<path d="M107.188 26.416V23.916H104.688V26.416H107.188ZM109.508 26.416H112.008V23.916H109.508V26.416ZM109.508 52.632V55.132H112.008V52.632H109.508ZM107.188 52.632H104.688V55.132H107.188V52.632ZM95.8196 37.117V34.617H93.3196V37.117H95.8196ZM102.432 37.117H104.932V34.617H102.432V37.117ZM102.432 39.06V41.56H104.932V39.06H102.432ZM95.8196 39.06H93.3196V41.56H95.8196V39.06ZM101.736 27.083V24.583H99.2356V27.083H101.736ZM103.998 27.083H106.498V24.583H103.998V27.083ZM103.998 51.298V53.798H106.498V51.298H103.998ZM101.736 51.298H99.2356V53.798H101.736V51.298ZM96.1386 29.722V27.222H93.6386V29.722H96.1386ZM98.4586 29.722H100.959V27.222H98.4586V29.722ZM88.6276 46.977L86.7044 48.5742L88.0689 50.2172L89.9048 49.1261L88.6276 46.977ZM87.2066 45.266L85.9189 43.1232L83.4229 44.6231L85.2834 46.8632L87.2066 45.266ZM88.3666 29.722V27.222H85.8666V29.722H88.3666ZM97.0376 29.722H99.5376V27.222H97.0376V29.722ZM97.0376 31.694V34.194H99.5376V31.694H97.0376ZM88.3666 31.694H85.8666V34.194H88.3666V31.694ZM107.188 28.916H109.508V23.916H107.188V28.916ZM107.008 26.416V52.632H112.008V26.416H107.008ZM109.508 50.132H107.188V55.132H109.508V50.132ZM109.688 52.632V26.416H104.688V52.632H109.688ZM95.8196 39.617H102.432V34.617H95.8196V39.617ZM99.9316 37.117V39.06H104.932V37.117H99.9316ZM102.432 36.56H95.8196V41.56H102.432V36.56ZM98.3196 39.06V37.117H93.3196V39.06H98.3196ZM101.736 29.583H103.998V24.583H101.736V29.583ZM101.498 27.083V51.298H106.498V27.083H101.498ZM103.998 48.798H101.736V53.798H103.998V48.798ZM104.236 51.298V27.083H99.2356V51.298H104.236ZM96.1386 32.222H98.4586V27.222H96.1386V32.222ZM95.9586 29.722C95.9586 35.8086 93.5896 41.1202 87.3505 44.8278L89.9048 49.1261C97.8177 44.4238 100.959 37.3814 100.959 29.722H95.9586ZM90.5509 45.3797L89.1299 43.6687L85.2834 46.8632L86.7044 48.5742L90.5509 45.3797ZM88.4944 47.4088C95.4007 43.2585 98.6386 37.2378 98.6386 30.157H93.6386C93.6386 35.4301 91.3666 39.8494 85.9189 43.1232L88.4944 47.4088ZM98.6386 30.157V29.722H93.6386V30.157H98.6386ZM88.3666 32.222H97.0376V27.222H88.3666V32.222ZM94.5376 29.722V31.694H99.5376V29.722H94.5376ZM97.0376 29.194H88.3666V34.194H97.0376V29.194ZM90.8666 31.694V29.722H85.8666V31.694H90.8666ZM132.966 26.445V23.945H130.466V26.445H132.966ZM135.402 26.445H137.902V23.945H135.402V26.445ZM135.402 41.409V43.909H137.902V41.409H135.402ZM132.966 41.409H130.466V43.909H132.966V41.409ZM118.466 42.83V40.33H115.966V42.83H118.466ZM135.402 42.83H137.902V40.33H135.402V42.83ZM135.402 52.284V54.784H137.902V52.284H135.402ZM118.466 52.284H115.966V54.784H118.466V52.284ZM133.024 44.744H135.524V42.244H133.024V44.744ZM120.815 44.744V42.244H118.315V44.744H120.815ZM120.815 50.341H118.315V52.841H120.815V50.341ZM133.024 50.341V52.841H135.524V50.341H133.024ZM132.966 28.945H135.402V23.945H132.966V28.945ZM132.902 26.445V41.409H137.902V26.445H132.902ZM135.402 38.909H132.966V43.909H135.402V38.909ZM135.466 41.409V26.445H130.466V41.409H135.466ZM118.466 45.33H135.402V40.33H118.466V45.33ZM132.902 42.83V52.284H137.902V42.83H132.902ZM135.402 49.784H118.466V54.784H135.402V49.784ZM120.966 52.284V42.83H115.966V52.284H120.966ZM133.024 42.244H120.815V47.244H133.024V42.244ZM118.315 44.744V50.341H123.315V44.744H118.315ZM120.815 52.841H133.024V47.841H120.815V52.841ZM135.524 50.341V44.744H130.524V50.341H135.524ZM121.337 30.308C122.805 30.308 123.888 30.7647 124.571 31.3739C125.232 31.9635 125.652 32.8079 125.652 33.927H130.652C130.652 31.421 129.652 29.206 127.899 27.6424C126.168 26.0983 123.843 25.308 121.337 25.308V30.308ZM125.652 33.927C125.652 35.046 125.232 35.8905 124.571 36.4801C123.888 37.0893 122.805 37.546 121.337 37.546V42.546C123.843 42.546 126.168 41.7557 127.899 40.2116C129.652 38.648 130.652 36.4329 130.652 33.927H125.652ZM121.337 37.546C119.869 37.546 118.776 37.0887 118.084 36.4752C117.415 35.8819 116.993 35.0377 116.993 33.927H111.993C111.993 36.4413 113.008 38.6566 114.767 40.2165C116.504 41.7563 118.833 42.546 121.337 42.546V37.546ZM116.993 33.927C116.993 32.8163 117.415 31.9721 118.084 31.3788C118.776 30.7653 119.869 30.308 121.337 30.308V25.308C118.833 25.308 116.504 26.0977 114.767 27.6374C113.008 29.1974 111.993 31.4127 111.993 33.927H116.993ZM121.337 27.309C119.496 27.309 117.747 27.9069 116.429 29.1046C115.094 30.3189 114.342 32.028 114.342 33.927H119.342C119.342 33.39 119.534 33.04 119.793 32.8043C120.07 32.5521 120.568 32.309 121.337 32.309V27.309ZM114.342 33.927C114.342 35.8285 115.096 37.5347 116.439 38.7432C117.76 39.9325 119.508 40.516 121.337 40.516V35.516C120.557 35.516 120.057 35.273 119.784 35.0268C119.531 34.7997 119.342 34.4615 119.342 33.927H114.342ZM121.337 40.516C123.167 40.516 124.915 39.9325 126.236 38.7432C127.579 37.5347 128.332 35.8285 128.332 33.927H123.332C123.332 34.4615 123.143 34.7997 122.891 35.0268C122.618 35.273 122.118 35.516 121.337 35.516V40.516ZM128.332 33.927C128.332 32.028 127.581 30.3189 126.245 29.1046C124.928 27.9069 123.178 27.309 121.337 27.309V32.309C122.106 32.309 122.605 32.5521 122.882 32.8043C123.141 33.04 123.332 33.39 123.332 33.927H128.332ZM166.669 26.416V23.916H164.169V26.416H166.669ZM169.076 26.416H171.576V23.916H169.076V26.416ZM169.076 42.163V44.663H171.576V42.163H169.076ZM166.669 42.163H164.169V44.663H166.669V42.163ZM168.409 32.999V30.499H165.909V32.999H168.409ZM172.962 32.999H175.462V30.499H172.962V32.999ZM172.962 35.029V37.529H175.462V35.029H172.962ZM168.409 35.029H165.909V37.529H168.409V35.029ZM149.82 28.069V25.569H147.32V28.069H149.82ZM152.198 28.069H154.698V25.569H152.198V28.069ZM152.198 31.984H149.698V34.484H152.198V31.984ZM159.593 31.984V34.484H162.093V31.984H159.593ZM159.593 28.069V25.569H157.093V28.069H159.593ZM161.942 28.069H164.442V25.569H161.942V28.069ZM161.942 40.162V42.662H164.442V40.162H161.942ZM149.82 40.162H147.32V42.662H149.82V40.162ZM152.198 33.898V31.398H149.698V33.898H152.198ZM152.198 38.219H149.698V40.719H152.198V38.219ZM159.593 38.219V40.719H162.093V38.219H159.593ZM159.593 33.898H162.093V31.398H159.593V33.898ZM160.724 45.359C163.168 45.359 164.841 45.7795 165.809 46.3226C166.67 46.8056 166.837 47.2712 166.837 47.731H171.837C171.837 45.1168 170.367 43.1464 168.255 41.9619C166.251 40.8375 163.617 40.359 160.724 40.359V45.359ZM166.837 47.731C166.837 48.1908 166.67 48.6564 165.809 49.1394C164.841 49.6825 163.168 50.103 160.724 50.103V55.103C163.617 55.103 166.251 54.6245 168.255 53.5001C170.367 52.3156 171.837 50.3452 171.837 47.731H166.837ZM160.724 50.103C158.281 50.103 156.608 49.6825 155.64 49.1394C154.779 48.6564 154.611 48.1908 154.611 47.731H149.611C149.611 50.3452 151.082 52.3156 153.194 53.5001C155.198 54.6245 157.832 55.103 160.724 55.103V50.103ZM154.611 47.731C154.611 47.2712 154.779 46.8056 155.64 46.3226C156.608 45.7795 158.281 45.359 160.724 45.359V40.359C157.832 40.359 155.198 40.8375 153.194 41.9619C151.082 43.1464 149.611 45.1168 149.611 47.731H154.611ZM160.724 42.302C158.608 42.302 156.631 42.5857 155.085 43.3019C153.493 44.0389 151.96 45.4762 151.96 47.731H156.96C156.96 48.1298 156.617 48.1025 157.186 47.8391C157.799 47.5548 158.954 47.302 160.724 47.302V42.302ZM151.96 47.731C151.96 49.9838 153.473 51.4337 155.078 52.1825C156.629 52.9056 158.609 53.189 160.724 53.189V48.189C158.953 48.189 157.802 47.9359 157.192 47.6512C156.637 47.3923 156.96 47.3632 156.96 47.731H151.96ZM160.724 53.189C162.839 53.189 164.82 52.9056 166.37 52.1825C167.976 51.4337 169.488 49.9838 169.488 47.731H164.488C164.488 47.3632 164.812 47.3923 164.257 47.6512C163.647 47.9359 162.495 48.189 160.724 48.189V53.189ZM169.488 47.731C169.488 45.4762 167.956 44.0389 166.364 43.3019C164.817 42.5857 162.84 42.302 160.724 42.302V47.302C162.494 47.302 163.649 47.5548 164.263 47.8391C164.832 48.1025 164.488 48.1298 164.488 47.731H169.488ZM166.669 28.916H169.076V23.916H166.669V28.916ZM166.576 26.416V42.163H171.576V26.416H166.576ZM169.076 39.663H166.669V44.663H169.076V39.663ZM169.169 42.163V26.416H164.169V42.163H169.169ZM168.409 35.499H172.962V30.499H168.409V35.499ZM170.462 32.999V35.029H175.462V32.999H170.462ZM172.962 32.529H168.409V37.529H172.962V32.529ZM170.909 35.029V32.999H165.909V35.029H170.909ZM149.82 30.569H152.198V25.569H149.82V30.569ZM149.698 28.069V31.984H154.698V28.069H149.698ZM152.198 34.484H159.593V29.484H152.198V34.484ZM162.093 31.984V28.069H157.093V31.984H162.093ZM159.593 30.569H161.942V25.569H159.593V30.569ZM159.442 28.069V40.162H164.442V28.069H159.442ZM161.942 37.662H149.82V42.662H161.942V37.662ZM152.32 40.162V28.069H147.32V40.162H152.32ZM149.698 33.898V38.219H154.698V33.898H149.698ZM152.198 40.719H159.593V35.719H152.198V40.719ZM162.093 38.219V33.898H157.093V38.219H162.093ZM159.593 31.398H152.198V36.398H159.593V31.398ZM176.701 27.75V25.25H174.201V27.75H176.701ZM179.079 27.75H181.579V25.25H179.079V27.75ZM179.079 31.781H176.579V34.281H179.079V31.781ZM186.184 31.781V34.281H188.684V31.781H186.184ZM186.184 27.75V25.25H183.684V27.75H186.184ZM188.533 27.75H191.033V25.25H188.533V27.75ZM188.533 39.756V42.256H191.033V39.756H188.533ZM176.701 39.756H174.201V42.256H176.701V39.756ZM179.079 33.666V31.166H176.579V33.666H179.079ZM179.079 37.784H176.579V40.284H179.079V37.784ZM186.184 37.784V40.284H188.684V37.784H186.184ZM186.184 33.666H188.684V31.166H186.184V33.666ZM187.866 32.854V30.354H185.366V32.854H187.866ZM195.29 32.854H197.79V30.354H195.29V32.854ZM195.29 34.826V37.326H197.79V34.826H195.29ZM187.866 34.826H185.366V37.326H187.866V34.826ZM194.565 26.416V23.916H192.065V26.416H194.565ZM196.972 26.416H199.472V23.916H196.972V26.416ZM196.972 40.742V43.242H199.472V40.742H196.972ZM194.565 40.742H192.065V43.242H194.565V40.742ZM180.181 42.018V39.518H177.681V42.018H180.181ZM182.559 42.018H185.059V39.518H182.559V42.018ZM182.559 45.179H180.059V47.679H182.559V45.179ZM194.594 45.179V47.679H197.094V45.179H194.594ZM194.594 42.018V39.518H192.094V42.018H194.594ZM196.972 42.018H199.472V39.518H196.972V42.018ZM196.972 52.284V54.784H199.472V52.284H196.972ZM180.181 52.284H177.681V54.784H180.181V52.284ZM182.559 47.093V44.593H180.059V47.093H182.559ZM182.559 50.312H180.059V52.812H182.559V50.312ZM194.594 50.312V52.812H197.094V50.312H194.594ZM194.594 47.093H197.094V44.593H194.594V47.093ZM176.701 30.25H179.079V25.25H176.701V30.25ZM176.579 27.75V31.781H181.579V27.75H176.579ZM179.079 34.281H186.184V29.281H179.079V34.281ZM188.684 31.781V27.75H183.684V31.781H188.684ZM186.184 30.25H188.533V25.25H186.184V30.25ZM186.033 27.75V39.756H191.033V27.75H186.033ZM188.533 37.256H176.701V42.256H188.533V37.256ZM179.201 39.756V27.75H174.201V39.756H179.201ZM176.579 33.666V37.784H181.579V33.666H176.579ZM179.079 40.284H186.184V35.284H179.079V40.284ZM188.684 37.784V33.666H183.684V37.784H188.684ZM186.184 31.166H179.079V36.166H186.184V31.166ZM187.866 35.354H195.29V30.354H187.866V35.354ZM192.79 32.854V34.826H197.79V32.854H192.79ZM195.29 32.326H187.866V37.326H195.29V32.326ZM190.366 34.826V32.854H185.366V34.826H190.366ZM194.565 28.916H196.972V23.916H194.565V28.916ZM194.472 26.416V40.742H199.472V26.416H194.472ZM196.972 38.242H194.565V43.242H196.972V38.242ZM197.065 40.742V26.416H192.065V40.742H197.065ZM180.181 44.518H182.559V39.518H180.181V44.518ZM180.059 42.018V45.179H185.059V42.018H180.059ZM182.559 47.679H194.594V42.679H182.559V47.679ZM197.094 45.179V42.018H192.094V45.179H197.094ZM194.594 44.518H196.972V39.518H194.594V44.518ZM194.472 42.018V52.284H199.472V42.018H194.472ZM196.972 49.784H180.181V54.784H196.972V49.784ZM182.681 52.284V42.018H177.681V52.284H182.681ZM180.059 47.093V50.312H185.059V47.093H180.059ZM182.559 52.812H194.594V47.812H182.559V52.812ZM197.094 50.312V47.093H192.094V50.312H197.094ZM194.594 44.593H182.559V49.593H194.594V44.593Z" fill="#324772"/>
<path d="M107.188 26.416H109.508V52.632H107.188V26.416ZM95.8196 37.117H102.432V39.06H95.8196V37.117ZM101.736 27.083H103.998V51.298H101.736V27.083ZM96.1386 29.722H98.4586C98.4586 36.595 95.7036 42.772 88.6276 46.977L87.2066 45.266C93.3836 41.554 96.1386 36.334 96.1386 30.157V29.722ZM88.3666 29.722H97.0376V31.694H88.3666V29.722ZM132.966 26.445H135.402V41.409H132.966V26.445ZM118.466 42.83H135.402V52.284H118.466V42.83ZM133.024 44.744H120.815V50.341H133.024V44.744ZM121.337 27.808C125.31 27.808 128.152 30.302 128.152 33.927C128.152 37.552 125.31 40.046 121.337 40.046C117.364 40.046 114.493 37.552 114.493 33.927C114.493 30.302 117.364 27.808 121.337 27.808ZM121.337 29.809C118.727 29.809 116.842 31.491 116.842 33.927C116.842 36.363 118.727 38.016 121.337 38.016C123.947 38.016 125.832 36.363 125.832 33.927C125.832 31.491 123.947 29.809 121.337 29.809ZM160.724 42.859C166.06 42.859 169.337 44.657 169.337 47.731C169.337 50.805 166.06 52.603 160.724 52.603C155.388 52.603 152.111 50.805 152.111 47.731C152.111 44.657 155.388 42.859 160.724 42.859ZM160.724 44.802C156.838 44.802 154.46 45.875 154.46 47.731C154.46 49.616 156.838 50.689 160.724 50.689C164.61 50.689 166.988 49.616 166.988 47.731C166.988 45.875 164.61 44.802 160.724 44.802ZM166.669 26.416H169.076V42.163H166.669V26.416ZM168.409 32.999H172.962V35.029H168.409V32.999ZM149.82 28.069H152.198V31.984H159.593V28.069H161.942V40.162H149.82V28.069ZM152.198 33.898V38.219H159.593V33.898H152.198ZM176.701 27.75H179.079V31.781H186.184V27.75H188.533V39.756H176.701V27.75ZM179.079 33.666V37.784H186.184V33.666H179.079ZM187.866 32.854H195.29V34.826H187.866V32.854ZM194.565 26.416H196.972V40.742H194.565V26.416ZM180.181 42.018H182.559V45.179H194.594V42.018H196.972V52.284H180.181V42.018ZM182.559 47.093V50.312H194.594V47.093H182.559Z" fill="white"/>
</g>
<defs>
<clipPath id="clip0_394_956">
<rect width="280" height="92" fill="white"/>
</clipPath>
</defs>
</svg>
