<svg width="280" height="93" viewBox="0 0 280 93" fill="none" xmlns="http://www.w3.org/2000/svg">
<g clip-path="url(#clip0_394_942)">
<path d="M237.336 7H42.552C19.0512 7 0 26.0512 0 49.552C0 73.0528 19.0512 92.104 42.552 92.104H237.336C260.837 92.104 279.888 73.0528 279.888 49.552C279.888 26.0512 260.837 7 237.336 7Z" fill="#334871"/>
<path d="M237.336 10.5H42.552C20.9842 10.5 3.5 27.9842 3.5 49.552C3.5 71.1198 20.9842 88.604 42.552 88.604H237.336C258.904 88.604 276.388 71.1198 276.388 49.552C276.388 27.9842 258.904 10.5 237.336 10.5Z" stroke="#334871" stroke-width="7"/>
<path d="M237.584 13.87H42.804C23.1681 13.87 7.25 29.7878 7.25 49.4235C7.25 69.0592 23.1681 84.977 42.804 84.977H237.584C257.22 84.977 273.138 69.0592 273.138 49.4235C273.138 29.7878 257.22 13.87 237.584 13.87Z" fill="#3E61A3" stroke="#5A83D0" stroke-width="5"/>
<path d="M107.187 33.416H109.507V59.632H107.187V33.416ZM95.8192 44.117H102.431V46.06H95.8192V44.117ZM101.735 34.083H103.997V58.298H101.735V34.083ZM96.1382 36.722H98.4582C98.4582 43.595 95.7032 49.772 88.6272 53.977L87.2062 52.266C93.3832 48.554 96.1382 43.334 96.1382 37.157V36.722ZM88.3662 36.722H97.0372V38.694H88.3662V36.722ZM132.966 33.445H135.402V48.409H132.966V33.445ZM118.466 49.83H135.402V59.284H118.466V49.83ZM133.024 51.744H120.815V57.341H133.024V51.744ZM121.337 34.808C125.31 34.808 128.152 37.302 128.152 40.927C128.152 44.552 125.31 47.046 121.337 47.046C117.364 47.046 114.493 44.552 114.493 40.927C114.493 37.302 117.364 34.808 121.337 34.808ZM121.337 36.809C118.727 36.809 116.842 38.491 116.842 40.927C116.842 43.363 118.727 45.016 121.337 45.016C123.947 45.016 125.832 43.363 125.832 40.927C125.832 38.491 123.947 36.809 121.337 36.809ZM160.724 49.859C166.06 49.859 169.337 51.657 169.337 54.731C169.337 57.805 166.06 59.603 160.724 59.603C155.388 59.603 152.111 57.805 152.111 54.731C152.111 51.657 155.388 49.859 160.724 49.859ZM160.724 51.802C156.838 51.802 154.46 52.875 154.46 54.731C154.46 56.616 156.838 57.689 160.724 57.689C164.61 57.689 166.988 56.616 166.988 54.731C166.988 52.875 164.61 51.802 160.724 51.802ZM166.669 33.416H169.076V49.163H166.669V33.416ZM168.409 39.999H172.962V42.029H168.409V39.999ZM149.82 35.069H152.198V38.984H159.593V35.069H161.942V47.162H149.82V35.069ZM152.198 40.898V45.219H159.593V40.898H152.198ZM176.701 34.75H179.079V38.781H186.184V34.75H188.533V46.756H176.701V34.75ZM179.079 40.666V44.784H186.184V40.666H179.079ZM187.866 39.854H195.29V41.826H187.866V39.854ZM194.565 33.416H196.972V47.742H194.565V33.416ZM180.181 49.018H182.559V52.179H194.594V49.018H196.972V59.284H180.181V49.018ZM182.559 54.093V57.312H194.594V54.093H182.559Z" fill="#324772"/>
<path d="M107.187 33.416V30.916H104.687V33.416H107.187ZM109.507 33.416H112.007V30.916H109.507V33.416ZM109.507 59.632V62.132H112.007V59.632H109.507ZM107.187 59.632H104.687V62.132H107.187V59.632ZM95.8192 44.117V41.617H93.3192V44.117H95.8192ZM102.431 44.117H104.931V41.617H102.431V44.117ZM102.431 46.06V48.56H104.931V46.06H102.431ZM95.8192 46.06H93.3192V48.56H95.8192V46.06ZM101.735 34.083V31.583H99.2352V34.083H101.735ZM103.997 34.083H106.497V31.583H103.997V34.083ZM103.997 58.298V60.798H106.497V58.298H103.997ZM101.735 58.298H99.2352V60.798H101.735V58.298ZM96.1382 36.722V34.222H93.6382V36.722H96.1382ZM98.4582 36.722H100.958V34.222H98.4582V36.722ZM88.6272 53.977L86.7039 55.5742L88.0684 57.2172L89.9043 56.1261L88.6272 53.977ZM87.2062 52.266L85.9184 50.1232L83.4225 51.6231L85.2829 53.8632L87.2062 52.266ZM88.3662 36.722V34.222H85.8662V36.722H88.3662ZM97.0372 36.722H99.5372V34.222H97.0372V36.722ZM97.0372 38.694V41.194H99.5372V38.694H97.0372ZM88.3662 38.694H85.8662V41.194H88.3662V38.694ZM107.187 35.916H109.507V30.916H107.187V35.916ZM107.007 33.416V59.632H112.007V33.416H107.007ZM109.507 57.132H107.187V62.132H109.507V57.132ZM109.687 59.632V33.416H104.687V59.632H109.687ZM95.8192 46.617H102.431V41.617H95.8192V46.617ZM99.9312 44.117V46.06H104.931V44.117H99.9312ZM102.431 43.56H95.8192V48.56H102.431V43.56ZM98.3192 46.06V44.117H93.3192V46.06H98.3192ZM101.735 36.583H103.997V31.583H101.735V36.583ZM101.497 34.083V58.298H106.497V34.083H101.497ZM103.997 55.798H101.735V60.798H103.997V55.798ZM104.235 58.298V34.083H99.2352V58.298H104.235ZM96.1382 39.222H98.4582V34.222H96.1382V39.222ZM95.9582 36.722C95.9582 42.8086 93.5891 48.1202 87.35 51.8278L89.9043 56.1261C97.8172 51.4238 100.958 44.3814 100.958 36.722H95.9582ZM90.5504 52.3797L89.1294 50.6687L85.2829 53.8632L86.7039 55.5742L90.5504 52.3797ZM88.4939 54.4088C95.4002 50.2585 98.6382 44.2378 98.6382 37.157H93.6382C93.6382 42.4301 91.3661 46.8494 85.9184 50.1232L88.4939 54.4088ZM98.6382 37.157V36.722H93.6382V37.157H98.6382ZM88.3662 39.222H97.0372V34.222H88.3662V39.222ZM94.5372 36.722V38.694H99.5372V36.722H94.5372ZM97.0372 36.194H88.3662V41.194H97.0372V36.194ZM90.8662 38.694V36.722H85.8662V38.694H90.8662ZM132.966 33.445V30.945H130.466V33.445H132.966ZM135.402 33.445H137.902V30.945H135.402V33.445ZM135.402 48.409V50.909H137.902V48.409H135.402ZM132.966 48.409H130.466V50.909H132.966V48.409ZM118.466 49.83V47.33H115.966V49.83H118.466ZM135.402 49.83H137.902V47.33H135.402V49.83ZM135.402 59.284V61.784H137.902V59.284H135.402ZM118.466 59.284H115.966V61.784H118.466V59.284ZM133.024 51.744H135.524V49.244H133.024V51.744ZM120.815 51.744V49.244H118.315V51.744H120.815ZM120.815 57.341H118.315V59.841H120.815V57.341ZM133.024 57.341V59.841H135.524V57.341H133.024ZM132.966 35.945H135.402V30.945H132.966V35.945ZM132.902 33.445V48.409H137.902V33.445H132.902ZM135.402 45.909H132.966V50.909H135.402V45.909ZM135.466 48.409V33.445H130.466V48.409H135.466ZM118.466 52.33H135.402V47.33H118.466V52.33ZM132.902 49.83V59.284H137.902V49.83H132.902ZM135.402 56.784H118.466V61.784H135.402V56.784ZM120.966 59.284V49.83H115.966V59.284H120.966ZM133.024 49.244H120.815V54.244H133.024V49.244ZM118.315 51.744V57.341H123.315V51.744H118.315ZM120.815 59.841H133.024V54.841H120.815V59.841ZM135.524 57.341V51.744H130.524V57.341H135.524ZM121.337 37.308C122.804 37.308 123.887 37.7647 124.57 38.3739C125.231 38.9635 125.652 39.8079 125.652 40.927H130.652C130.652 38.421 129.651 36.206 127.898 34.6424C126.167 33.0983 123.842 32.308 121.337 32.308V37.308ZM125.652 40.927C125.652 42.046 125.231 42.8905 124.57 43.4801C123.887 44.0893 122.804 44.546 121.337 44.546V49.546C123.842 49.546 126.167 48.7557 127.898 47.2116C129.651 45.648 130.652 43.4329 130.652 40.927H125.652ZM121.337 44.546C119.869 44.546 118.775 44.0887 118.083 43.4752C117.414 42.8819 116.993 42.0377 116.993 40.927H111.993C111.993 43.4413 113.007 45.6566 114.767 47.2165C116.503 48.7563 118.832 49.546 121.337 49.546V44.546ZM116.993 40.927C116.993 39.8163 117.414 38.9721 118.083 38.3788C118.775 37.7653 119.869 37.308 121.337 37.308V32.308C118.832 32.308 116.503 33.0977 114.767 34.6374C113.007 36.1974 111.993 38.4127 111.993 40.927H116.993ZM121.337 34.309C119.496 34.309 117.747 34.9069 116.429 36.1046C115.093 37.3189 114.342 39.028 114.342 40.927H119.342C119.342 40.39 119.533 40.04 119.792 39.8043C120.07 39.5521 120.568 39.309 121.337 39.309V34.309ZM114.342 40.927C114.342 42.8285 115.095 44.5347 116.438 45.7432C117.76 46.9325 119.508 47.516 121.337 47.516V42.516C120.556 42.516 120.057 42.273 119.783 42.0268C119.531 41.7997 119.342 41.4615 119.342 40.927H114.342ZM121.337 47.516C123.166 47.516 124.914 46.9325 126.236 45.7432C127.578 44.5347 128.332 42.8285 128.332 40.927H123.332C123.332 41.4615 123.143 41.7997 122.891 42.0268C122.617 42.273 122.118 42.516 121.337 42.516V47.516ZM128.332 40.927C128.332 39.028 127.581 37.3189 126.245 36.1046C124.927 34.9069 123.178 34.309 121.337 34.309V39.309C122.106 39.309 122.604 39.5521 122.881 39.8043C123.141 40.04 123.332 40.39 123.332 40.927H128.332ZM166.669 33.416V30.916H164.169V33.416H166.669ZM169.076 33.416H171.576V30.916H169.076V33.416ZM169.076 49.163V51.663H171.576V49.163H169.076ZM166.669 49.163H164.169V51.663H166.669V49.163ZM168.409 39.999V37.499H165.909V39.999H168.409ZM172.962 39.999H175.462V37.499H172.962V39.999ZM172.962 42.029V44.529H175.462V42.029H172.962ZM168.409 42.029H165.909V44.529H168.409V42.029ZM149.82 35.069V32.569H147.32V35.069H149.82ZM152.198 35.069H154.698V32.569H152.198V35.069ZM152.198 38.984H149.698V41.484H152.198V38.984ZM159.593 38.984V41.484H162.093V38.984H159.593ZM159.593 35.069V32.569H157.093V35.069H159.593ZM161.942 35.069H164.442V32.569H161.942V35.069ZM161.942 47.162V49.662H164.442V47.162H161.942ZM149.82 47.162H147.32V49.662H149.82V47.162ZM152.198 40.898V38.398H149.698V40.898H152.198ZM152.198 45.219H149.698V47.719H152.198V45.219ZM159.593 45.219V47.719H162.093V45.219H159.593ZM159.593 40.898H162.093V38.398H159.593V40.898ZM160.724 52.359C163.167 52.359 164.84 52.7795 165.808 53.3226C166.669 53.8056 166.837 54.2712 166.837 54.731H171.837C171.837 52.1168 170.366 50.1464 168.255 48.9619C166.25 47.8375 163.617 47.359 160.724 47.359V52.359ZM166.837 54.731C166.837 55.1908 166.669 55.6564 165.808 56.1394C164.84 56.6825 163.167 57.103 160.724 57.103V62.103C163.617 62.103 166.25 61.6245 168.255 60.5001C170.366 59.3156 171.837 57.3452 171.837 54.731H166.837ZM160.724 57.103C158.281 57.103 156.608 56.6825 155.64 56.1394C154.779 55.6564 154.611 55.1908 154.611 54.731H149.611C149.611 57.3452 151.082 59.3156 153.193 60.5001C155.198 61.6245 157.831 62.103 160.724 62.103V57.103ZM154.611 54.731C154.611 54.2712 154.779 53.8056 155.64 53.3226C156.608 52.7795 158.281 52.359 160.724 52.359V47.359C157.831 47.359 155.198 47.8375 153.193 48.9619C151.082 50.1464 149.611 52.1168 149.611 54.731H154.611ZM160.724 49.302C158.608 49.302 156.631 49.5857 155.084 50.3019C153.493 51.0389 151.96 52.4762 151.96 54.731H156.96C156.96 55.1298 156.616 55.1025 157.185 54.8391C157.799 54.5548 158.954 54.302 160.724 54.302V49.302ZM151.96 54.731C151.96 56.9838 153.472 58.4337 155.078 59.1825C156.628 59.9056 158.609 60.189 160.724 60.189V55.189C158.953 55.189 157.802 54.9359 157.191 54.6512C156.636 54.3923 156.96 54.3632 156.96 54.731H151.96ZM160.724 60.189C162.839 60.189 164.82 59.9056 166.37 59.1825C167.975 58.4337 169.488 56.9838 169.488 54.731H164.488C164.488 54.3632 164.811 54.3923 164.256 54.6512C163.646 54.9359 162.495 55.189 160.724 55.189V60.189ZM169.488 54.731C169.488 52.4762 167.955 51.0389 166.364 50.3019C164.817 49.5857 162.84 49.302 160.724 49.302V54.302C162.494 54.302 163.649 54.5548 164.263 54.8391C164.832 55.1025 164.488 55.1298 164.488 54.731H169.488ZM166.669 35.916H169.076V30.916H166.669V35.916ZM166.576 33.416V49.163H171.576V33.416H166.576ZM169.076 46.663H166.669V51.663H169.076V46.663ZM169.169 49.163V33.416H164.169V49.163H169.169ZM168.409 42.499H172.962V37.499H168.409V42.499ZM170.462 39.999V42.029H175.462V39.999H170.462ZM172.962 39.529H168.409V44.529H172.962V39.529ZM170.909 42.029V39.999H165.909V42.029H170.909ZM149.82 37.569H152.198V32.569H149.82V37.569ZM149.698 35.069V38.984H154.698V35.069H149.698ZM152.198 41.484H159.593V36.484H152.198V41.484ZM162.093 38.984V35.069H157.093V38.984H162.093ZM159.593 37.569H161.942V32.569H159.593V37.569ZM159.442 35.069V47.162H164.442V35.069H159.442ZM161.942 44.662H149.82V49.662H161.942V44.662ZM152.32 47.162V35.069H147.32V47.162H152.32ZM149.698 40.898V45.219H154.698V40.898H149.698ZM152.198 47.719H159.593V42.719H152.198V47.719ZM162.093 45.219V40.898H157.093V45.219H162.093ZM159.593 38.398H152.198V43.398H159.593V38.398ZM176.701 34.75V32.25H174.201V34.75H176.701ZM179.079 34.75H181.579V32.25H179.079V34.75ZM179.079 38.781H176.579V41.281H179.079V38.781ZM186.184 38.781V41.281H188.684V38.781H186.184ZM186.184 34.75V32.25H183.684V34.75H186.184ZM188.533 34.75H191.033V32.25H188.533V34.75ZM188.533 46.756V49.256H191.033V46.756H188.533ZM176.701 46.756H174.201V49.256H176.701V46.756ZM179.079 40.666V38.166H176.579V40.666H179.079ZM179.079 44.784H176.579V47.284H179.079V44.784ZM186.184 44.784V47.284H188.684V44.784H186.184ZM186.184 40.666H188.684V38.166H186.184V40.666ZM187.866 39.854V37.354H185.366V39.854H187.866ZM195.29 39.854H197.79V37.354H195.29V39.854ZM195.29 41.826V44.326H197.79V41.826H195.29ZM187.866 41.826H185.366V44.326H187.866V41.826ZM194.565 33.416V30.916H192.065V33.416H194.565ZM196.972 33.416H199.472V30.916H196.972V33.416ZM196.972 47.742V50.242H199.472V47.742H196.972ZM194.565 47.742H192.065V50.242H194.565V47.742ZM180.181 49.018V46.518H177.681V49.018H180.181ZM182.559 49.018H185.059V46.518H182.559V49.018ZM182.559 52.179H180.059V54.679H182.559V52.179ZM194.594 52.179V54.679H197.094V52.179H194.594ZM194.594 49.018V46.518H192.094V49.018H194.594ZM196.972 49.018H199.472V46.518H196.972V49.018ZM196.972 59.284V61.784H199.472V59.284H196.972ZM180.181 59.284H177.681V61.784H180.181V59.284ZM182.559 54.093V51.593H180.059V54.093H182.559ZM182.559 57.312H180.059V59.812H182.559V57.312ZM194.594 57.312V59.812H197.094V57.312H194.594ZM194.594 54.093H197.094V51.593H194.594V54.093ZM176.701 37.25H179.079V32.25H176.701V37.25ZM176.579 34.75V38.781H181.579V34.75H176.579ZM179.079 41.281H186.184V36.281H179.079V41.281ZM188.684 38.781V34.75H183.684V38.781H188.684ZM186.184 37.25H188.533V32.25H186.184V37.25ZM186.033 34.75V46.756H191.033V34.75H186.033ZM188.533 44.256H176.701V49.256H188.533V44.256ZM179.201 46.756V34.75H174.201V46.756H179.201ZM176.579 40.666V44.784H181.579V40.666H176.579ZM179.079 47.284H186.184V42.284H179.079V47.284ZM188.684 44.784V40.666H183.684V44.784H188.684ZM186.184 38.166H179.079V43.166H186.184V38.166ZM187.866 42.354H195.29V37.354H187.866V42.354ZM192.79 39.854V41.826H197.79V39.854H192.79ZM195.29 39.326H187.866V44.326H195.29V39.326ZM190.366 41.826V39.854H185.366V41.826H190.366ZM194.565 35.916H196.972V30.916H194.565V35.916ZM194.472 33.416V47.742H199.472V33.416H194.472ZM196.972 45.242H194.565V50.242H196.972V45.242ZM197.065 47.742V33.416H192.065V47.742H197.065ZM180.181 51.518H182.559V46.518H180.181V51.518ZM180.059 49.018V52.179H185.059V49.018H180.059ZM182.559 54.679H194.594V49.679H182.559V54.679ZM197.094 52.179V49.018H192.094V52.179H197.094ZM194.594 51.518H196.972V46.518H194.594V51.518ZM194.472 49.018V59.284H199.472V49.018H194.472ZM196.972 56.784H180.181V61.784H196.972V56.784ZM182.681 59.284V49.018H177.681V59.284H182.681ZM180.059 54.093V57.312H185.059V54.093H180.059ZM182.559 59.812H194.594V54.812H182.559V59.812ZM197.094 57.312V54.093H192.094V57.312H197.094ZM194.594 51.593H182.559V56.593H194.594V51.593Z" fill="#324772"/>
<path d="M107.187 33.416H109.507V59.632H107.187V33.416ZM95.8192 44.117H102.431V46.06H95.8192V44.117ZM101.735 34.083H103.997V58.298H101.735V34.083ZM96.1382 36.722H98.4582C98.4582 43.595 95.7032 49.772 88.6272 53.977L87.2062 52.266C93.3832 48.554 96.1382 43.334 96.1382 37.157V36.722ZM88.3662 36.722H97.0372V38.694H88.3662V36.722ZM132.966 33.445H135.402V48.409H132.966V33.445ZM118.466 49.83H135.402V59.284H118.466V49.83ZM133.024 51.744H120.815V57.341H133.024V51.744ZM121.337 34.808C125.31 34.808 128.152 37.302 128.152 40.927C128.152 44.552 125.31 47.046 121.337 47.046C117.364 47.046 114.493 44.552 114.493 40.927C114.493 37.302 117.364 34.808 121.337 34.808ZM121.337 36.809C118.727 36.809 116.842 38.491 116.842 40.927C116.842 43.363 118.727 45.016 121.337 45.016C123.947 45.016 125.832 43.363 125.832 40.927C125.832 38.491 123.947 36.809 121.337 36.809ZM160.724 49.859C166.06 49.859 169.337 51.657 169.337 54.731C169.337 57.805 166.06 59.603 160.724 59.603C155.388 59.603 152.111 57.805 152.111 54.731C152.111 51.657 155.388 49.859 160.724 49.859ZM160.724 51.802C156.838 51.802 154.46 52.875 154.46 54.731C154.46 56.616 156.838 57.689 160.724 57.689C164.61 57.689 166.988 56.616 166.988 54.731C166.988 52.875 164.61 51.802 160.724 51.802ZM166.669 33.416H169.076V49.163H166.669V33.416ZM168.409 39.999H172.962V42.029H168.409V39.999ZM149.82 35.069H152.198V38.984H159.593V35.069H161.942V47.162H149.82V35.069ZM152.198 40.898V45.219H159.593V40.898H152.198ZM176.701 34.75H179.079V38.781H186.184V34.75H188.533V46.756H176.701V34.75ZM179.079 40.666V44.784H186.184V40.666H179.079ZM187.866 39.854H195.29V41.826H187.866V39.854ZM194.565 33.416H196.972V47.742H194.565V33.416ZM180.181 49.018H182.559V52.179H194.594V49.018H196.972V59.284H180.181V49.018ZM182.559 54.093V57.312H194.594V54.093H182.559Z" fill="white"/>
<g opacity="0.6">
<path d="M237.336 7H42.552C19.0512 7 0 26.0512 0 49.552C0 73.0528 19.0512 92.104 42.552 92.104H237.336C260.837 92.104 279.888 73.0528 279.888 49.552C279.888 26.0512 260.837 7 237.336 7Z" fill="#334871"/>
<path d="M237.336 10.5H42.552C20.9842 10.5 3.5 27.9842 3.5 49.552C3.5 71.1198 20.9842 88.604 42.552 88.604H237.336C258.904 88.604 276.388 71.1198 276.388 49.552C276.388 27.9842 258.904 10.5 237.336 10.5Z" stroke="#334871" stroke-width="7"/>
</g>
</g>
<defs>
<clipPath id="clip0_394_942">
<rect width="280" height="92.104" fill="white"/>
</clipPath>
</defs>
</svg>
