<svg width="400" height="260" viewBox="0 0 400 260" fill="none" xmlns="http://www.w3.org/2000/svg">
<rect x="143" y="143" width="114" height="114" rx="11" fill="white" stroke="#999999" stroke-width="6"/>
<rect x="143" y="3" width="114" height="114" rx="11" fill="white" stroke="#F3CE8C" stroke-width="6"/>
<rect x="3" y="143" width="114" height="114" rx="11" fill="white" stroke="#F3CE8C" stroke-width="6"/>
<rect x="283" y="143" width="114" height="114" rx="11" fill="white" stroke="#F3CE8C" stroke-width="6"/>
<path d="M187.284 86.16C184.704 86.16 182.604 84.6 182.064 82.38L172.224 41.34C172.104 40.86 172.044 40.38 172.044 39.96C172.044 37.8 173.364 36.18 175.764 35.64C176.244 35.52 176.724 35.46 177.144 35.46C179.364 35.46 181.044 36.9 181.524 39.12L186.204 61.02C186.744 63.72 187.224 67.2 187.644 71.4C188.004 67.38 188.544 63.9 189.264 61.08L194.424 40.5C195.204 37.62 197.064 36.18 200.004 36.18C202.944 36.18 204.804 37.62 205.584 40.5L210.744 61.08C211.464 63.9 212.004 67.38 212.364 71.4C212.784 67.2 213.264 63.72 213.804 61.02L218.484 39.12C218.964 36.9 220.644 35.46 222.864 35.46C223.284 35.46 223.764 35.52 224.244 35.64C226.644 36.18 227.964 37.8 227.964 39.96C227.964 40.38 227.904 40.86 227.784 41.34L217.944 82.38C217.404 84.6 215.304 86.16 212.724 86.16C210.084 86.16 207.864 84.6 207.324 82.38L201.924 60.24C201.204 57.3 200.544 53.82 200.004 49.8C199.464 53.82 198.804 57.3 198.084 60.24L192.684 82.38C192.144 84.6 189.924 86.16 187.284 86.16Z" fill="#333333"/>
<path d="M43.5155 225.86C41.4155 225.08 40.2755 223.58 40.2755 221.66C40.2755 221.06 40.3955 220.46 40.6355 219.8L55.2755 179.24C56.2955 176.42 58.0355 174.98 60.4955 174.98C62.9555 174.98 64.6955 176.42 65.7155 179.24L80.3555 219.8C80.5955 220.46 80.7155 221.06 80.7155 221.72C80.7155 223.58 79.6355 225.02 77.5355 225.8C76.8755 226.04 76.2155 226.16 75.5556 226.16C73.5755 226.16 71.8955 224.96 71.2355 222.98L67.9355 213.5H53.0555L49.7555 222.98C49.0355 224.96 47.4155 226.16 45.4355 226.16C44.7155 226.16 44.0555 226.04 43.5155 225.86ZM56.1155 204.8H64.8755L61.4555 195.02L60.4355 191.78L59.5355 195.02L56.1155 204.8Z" fill="#333333"/>
<path d="M200.142 226.4C193.722 226.4 187.062 224.54 183.042 221.12C181.902 220.16 181.122 218.72 181.122 217.28C181.122 216.14 181.542 215.18 182.442 214.28C183.282 213.38 184.302 212.96 185.442 212.96C186.822 212.96 188.202 213.56 189.162 214.28C192.102 216.5 195.762 217.58 200.142 217.58C206.262 217.58 209.322 215.6 209.322 211.58C209.322 208.04 206.622 205.76 199.182 204.08C187.662 201.5 181.722 197.6 181.722 189.38C181.722 181.04 189.282 174.8 199.362 174.8C204.942 174.8 210.702 176.12 214.362 179.06C215.742 180.2 216.402 181.4 216.402 182.78C216.402 183.68 216.102 184.52 215.502 185.3C214.602 186.5 213.342 187.1 211.962 187.1C210.942 187.1 209.862 186.74 208.842 186.08C206.382 184.4 203.142 183.5 199.842 183.5C194.742 183.5 191.622 185.66 191.622 189.26C191.622 190.52 191.982 191.48 192.642 192.14C194.142 193.7 196.782 194.36 201.522 195.62C205.782 196.76 209.142 197.96 211.722 199.34C216.762 202.1 219.102 205.94 219.102 211.76C219.102 220.34 211.662 226.4 200.142 226.4Z" fill="#939393"/>
<path d="M332.181 225.92C324.441 225.92 320.541 222.08 320.541 214.4V181.4C320.541 177.08 322.281 175.22 327.801 175.22H335.121C340.461 175.22 344.961 176.36 348.741 178.64C356.241 183.2 360.081 191.18 360.081 200.48C360.081 216.02 351.321 225.92 335.901 225.92H332.181ZM330.381 214.64C330.381 216.74 330.921 217.22 332.901 217.22H336.081C345.681 217.22 350.241 211.28 350.241 200.48C350.241 190.46 344.781 183.92 335.781 183.92H330.981C330.441 183.92 330.381 183.92 330.381 184.64V214.64Z" fill="#333333"/>
</svg>
