<svg width="24" height="24" viewBox="0 0 24 24" fill="none" xmlns="http://www.w3.org/2000/svg">
<path d="M6.92975 13.6875C7.09375 13.5937 7.30475 13.6523 7.39845 13.8203L7.46095 13.9258C7.94145 14.7773 8.44145 15.5859 8.96095 16.3516C9.57425 17.2539 10.2656 18.168 11.0352 19.0937C11.0938 19.1633 11.1226 19.2532 11.1153 19.3439C11.1079 19.4346 11.0651 19.5188 10.9961 19.5781L10.9219 19.6445C8.37895 21.8672 6.73055 22.3085 5.96875 20.9765C5.22275 19.6719 5.49225 17.3047 6.77735 13.8672C6.80539 13.7912 6.85936 13.7276 6.92975 13.6875ZM17.75 16.3008C17.9336 16.2695 18.1094 16.3868 18.1445 16.5703L18.1641 16.6719C18.793 19.957 18.3516 21.6016 16.8398 21.6016C15.3594 21.6016 13.4805 20.1992 11.1914 17.3984C11.14 17.3359 11.1136 17.2566 11.1172 17.1758C11.1172 16.9883 11.2734 16.8359 11.4609 16.8359H11.582C12.5192 16.8433 13.4563 16.8107 14.3906 16.7383C15.4609 16.6523 16.582 16.5078 17.75 16.3008ZM18.621 9.32419C18.6531 9.23785 18.7176 9.16745 18.8008 9.12803C18.884 9.0886 18.9794 9.08328 19.0664 9.1132L19.168 9.1484C22.4297 10.2578 23.6719 11.4804 22.8867 12.8125C22.1211 14.1172 19.8945 15.0665 16.2031 15.6602C16.1211 15.6719 16.0351 15.6562 15.9648 15.6132C15.7968 15.5156 15.7383 15.3047 15.8398 15.1367L15.9023 15.0313C16.4063 14.1875 16.8593 13.3477 17.2695 12.5078C17.7461 11.5195 18.1991 10.457 18.621 9.32419ZM7.79705 8.3398C7.87905 8.3281 7.96505 8.3438 8.03535 8.3868C8.20335 8.4844 8.26185 8.6953 8.16035 8.8633L8.09785 8.9687C7.60689 9.7903 7.15075 10.6322 6.73065 11.4922C6.25405 12.4805 5.80095 13.543 5.37905 14.6758C5.34703 14.7621 5.28254 14.8325 5.19934 14.8719C5.11614 14.9113 5.02083 14.9167 4.93375 14.8868L4.83215 14.8516C1.57045 13.7422 0.328248 12.5196 1.11345 11.1875C1.87905 9.8828 4.10565 8.9335 7.79705 8.3398ZM13.0782 4.3555C15.6212 2.1328 17.2696 1.69149 18.0314 3.02349C18.7774 4.32809 18.5079 6.6953 17.2228 10.1328C17.1948 10.2088 17.1408 10.2724 17.0704 10.3125C16.9064 10.4063 16.6954 10.3477 16.6017 10.1797L16.5392 10.0742C16.0587 9.22269 15.5587 8.41409 15.0392 7.64839C14.4259 6.74609 13.7345 5.832 12.9649 4.9063C12.9064 4.83667 12.8776 4.74675 12.8849 4.65606C12.8923 4.56537 12.9351 4.48122 13.004 4.42189L13.0782 4.3555ZM7.28525 2.27349C8.76575 2.27349 10.6485 3.67579 12.9337 6.47649C12.984 6.53836 13.0116 6.61558 13.0118 6.6953C13.0079 6.8867 12.8556 7.03909 12.6642 7.03909L12.547 7.0351C11.6099 7.03089 10.6729 7.06479 9.73845 7.13669C8.66425 7.22269 7.54315 7.36719 6.37515 7.57419C6.2867 7.58928 6.19586 7.5691 6.12211 7.51799C6.04836 7.46688 5.99758 7.38891 5.98065 7.30079L5.96105 7.2031C5.33205 3.918 5.77345 2.27349 7.28525 2.27349ZM10.1563 8.0859H13.8438C13.9553 8.08593 14.0648 8.11516 14.1614 8.17067C14.2581 8.22619 14.3385 8.30604 14.3946 8.4023L16.2423 11.6211C16.2961 11.7172 16.3244 11.8254 16.3244 11.9355C16.3244 12.0457 16.2961 12.1539 16.2423 12.25L14.3946 15.4727C14.3385 15.5689 14.2581 15.6488 14.1615 15.7043C14.0648 15.7598 13.9554 15.789 13.8439 15.7891H10.1564C9.92985 15.7891 9.71895 15.668 9.60945 15.4727L7.75795 12.25C7.70414 12.1539 7.67589 12.0456 7.67589 11.9355C7.67589 11.8254 7.70414 11.7171 7.75795 11.621L9.60955 8.4023C9.71885 8.207 9.92985 8.0859 10.1563 8.0859ZM13.3868 8.87889C13.4983 8.87893 13.6078 8.90816 13.7044 8.96367C13.8011 9.01919 13.8815 9.09904 13.9376 9.1953L15.3282 11.6211C15.382 11.7172 15.4103 11.8254 15.4103 11.9355C15.4103 12.0457 15.382 12.1539 15.3282 12.25L13.9376 14.6797C13.8815 14.7759 13.8011 14.8558 13.7044 14.9113C13.6078 14.9668 13.4983 14.9961 13.3868 14.9961H10.6134C10.3868 14.9961 10.1759 14.875 10.0665 14.6797L8.67205 12.25C8.61824 12.1539 8.58999 12.0456 8.58999 11.9355C8.58999 11.8254 8.61824 11.7171 8.67205 11.621L10.0665 9.1953C10.1759 9 10.3868 8.87889 10.6134 8.87889H13.3868ZM12.8946 9.7461H11.1056C10.879 9.7461 10.672 9.8633 10.5586 10.0625L9.66035 11.6211C9.60656 11.7172 9.57832 11.8254 9.57832 11.9355C9.57832 12.0457 9.60656 12.1539 9.66035 12.25L10.5587 13.8125C10.6141 13.9086 10.6938 13.9884 10.7898 14.044C10.8858 14.0995 10.9947 14.1288 11.1056 14.1289H12.8946C13.0056 14.1288 13.1145 14.0996 13.2106 14.044C13.3066 13.9885 13.3863 13.9086 13.4416 13.8125L14.3399 12.25C14.3938 12.1539 14.422 12.0456 14.422 11.9355C14.422 11.8254 14.3938 11.7171 14.3399 11.621L13.4415 10.0625C13.3282 9.8633 13.1212 9.7461 12.8946 9.7461ZM12.4181 10.5742C12.6446 10.5742 12.8556 10.6953 12.9649 10.8906L13.3869 11.6211C13.5001 11.8164 13.5001 12.0586 13.3869 12.25L12.9649 12.9844C12.8556 13.1797 12.6446 13.3008 12.4181 13.3008H11.5821C11.4713 13.3007 11.3623 13.2714 11.2664 13.2159C11.1704 13.1603 11.0907 13.0805 11.0353 12.9844L10.6133 12.25C10.5001 12.0586 10.5001 11.8164 10.6133 11.621L11.0353 10.8906C11.0907 10.7945 11.1704 10.7147 11.2664 10.6591C11.3623 10.6036 11.4713 10.5743 11.5821 10.5742H12.4181ZM12.0001 11.3906C11.9043 11.3909 11.8102 11.4163 11.7273 11.4643C11.6444 11.5123 11.5754 11.5812 11.5274 11.6641C11.4298 11.8321 11.4298 12.0391 11.5274 12.2109C11.5757 12.2934 11.6447 12.3617 11.7277 12.409C11.8107 12.4563 11.9046 12.481 12.0001 12.4805C12.0957 12.481 12.1896 12.4563 12.2726 12.409C12.3556 12.3617 12.4246 12.2934 12.4728 12.2109C12.5704 12.0391 12.5704 11.832 12.4728 11.6641C12.4248 11.5811 12.3559 11.5122 12.273 11.4642C12.19 11.4162 12.096 11.3909 12.0001 11.3906ZM7.57825 11.9375H8.55875ZM18.9805 7.75C19.3711 5.8555 19.457 4.40619 19.2031 3.35159C19.0547 2.72259 18.7813 2.21479 18.3633 1.84379C17.9219 1.45309 17.3633 1.2618 16.7383 1.2618C15.7031 1.2618 14.6172 1.7344 13.457 2.6289C12.9844 2.9922 12.4922 3.4336 11.9844 3.9453C11.9414 3.8945 11.8984 3.8438 11.8477 3.8008C10.4023 2.5156 9.18755 1.7188 8.14845 1.41019C7.53135 1.22659 6.95315 1.2109 6.42585 1.3867C5.86725 1.5742 5.42185 1.9609 5.10945 2.5039C4.59385 3.3984 4.45705 4.57809 4.64845 6.03129C4.72665 6.62109 4.86335 7.2656 5.05085 7.9648C4.97784 7.97336 4.90586 7.98911 4.83595 8.0118C3.00805 8.621 1.71105 9.2694 0.925848 10.0155C0.460948 10.4569 0.156348 10.953 0.0430477 11.496C-0.0702523 12.0741 0.0430477 12.6522 0.355548 13.1952C0.871148 14.0897 1.82035 14.7929 3.17195 15.3515C3.71495 15.5741 4.32815 15.7772 5.01565 15.9608C4.9835 16.0333 4.95991 16.1094 4.94535 16.1874C4.55475 18.078 4.46885 19.5312 4.72275 20.5819C4.87115 21.2109 5.14845 21.7226 5.56255 22.0897C6.00395 22.4804 6.56255 22.6717 7.18755 22.6717C8.22275 22.6717 9.30855 22.1991 10.4688 21.3085C10.9453 20.9374 11.4414 20.4921 11.957 19.9725C12.0124 20.0559 12.0781 20.132 12.1523 20.1991C13.5977 21.4843 14.8125 22.2811 15.8516 22.5897C16.4688 22.7733 17.0469 22.789 17.5742 22.6132C18.1328 22.4257 18.5782 22.039 18.8906 21.496C19.4063 20.6015 19.543 19.4218 19.3516 17.9687C19.2696 17.3554 19.1289 16.6874 18.9258 15.9569C19.0066 15.9492 19.0865 15.9336 19.1641 15.9101C20.9921 15.3007 22.2891 14.6523 23.0742 13.9061C23.5391 13.4648 23.8438 12.9687 23.957 12.4257C24.0703 11.8476 23.957 11.2694 23.6445 10.7265C23.1289 9.83189 22.1797 9.1288 20.8281 8.5702C20.2695 8.3398 19.6328 8.1288 18.9219 7.9452C18.9491 7.88263 18.9688 7.81718 18.9805 7.75Z" fill="#FF4154"/>
</svg>
