<svg width="24" height="24" viewBox="0 0 24 24" fill="none" xmlns="http://www.w3.org/2000/svg">
<g clip-path="url(#clip0_545_229)">
<path d="M8.28597 10.578L8.79797 1.92099C8.80204 1.85326 8.82852 1.78879 8.87323 1.73774C8.91794 1.68669 8.97836 1.65196 9.04497 1.63899L17.377 0.00599454C17.4284 -0.00411077 17.4816 -0.000822097 17.5314 0.015545C17.5813 0.0319121 17.626 0.0608084 17.6615 0.0994612C17.6969 0.138114 17.7218 0.185226 17.7338 0.236277C17.7458 0.287328 17.7445 0.340604 17.73 0.390995L16.172 5.79399C16.1575 5.84429 16.1562 5.89745 16.1681 5.9484C16.1801 5.99935 16.2049 6.04638 16.2402 6.085C16.2755 6.12363 16.3202 6.15255 16.3698 6.169C16.4195 6.18546 16.4726 6.1889 16.524 6.17899L18.912 5.71899C18.9682 5.70801 19.0263 5.713 19.0798 5.73341C19.1333 5.75383 19.18 5.78884 19.2146 5.83446C19.2491 5.88009 19.2702 5.9345 19.2754 5.99152C19.2806 6.04853 19.2697 6.10587 19.244 6.15699L12.454 19.707L12.331 19.897C12.3045 19.94 12.2674 19.9755 12.2233 20C12.1792 20.0245 12.1295 20.0373 12.079 20.037C11.902 20.037 11.729 19.885 11.774 19.668L12.869 14.367C12.8797 14.3151 12.8768 14.2612 12.8605 14.2108C12.8442 14.1603 12.815 14.115 12.7759 14.0792C12.7368 14.0434 12.689 14.0184 12.6373 14.0066C12.5856 13.9948 12.5317 13.9967 12.481 14.012L11.048 14.447C10.9972 14.4625 10.9434 14.4645 10.8916 14.4528C10.8399 14.4412 10.792 14.4163 10.7528 14.3806C10.7136 14.3449 10.6843 14.2996 10.6679 14.2492C10.6514 14.1988 10.6483 14.145 10.659 14.093L11.349 10.718C11.3594 10.6676 11.357 10.6154 11.3419 10.5662C11.3269 10.517 11.2996 10.4724 11.2627 10.4365C11.2259 10.4006 11.1805 10.3746 11.1309 10.3609C11.0813 10.3471 11.0291 10.3462 10.979 10.358L8.65897 10.894C8.61267 10.9046 8.56452 10.9043 8.51835 10.8931C8.47218 10.882 8.42925 10.8602 8.39296 10.8295C8.35667 10.7988 8.32802 10.7602 8.30928 10.7165C8.29053 10.6728 8.28221 10.6254 8.28497 10.578H8.28597ZM23.262 2.65199L17.284 3.73999L16.74 5.62699L18.817 5.22699C18.9779 5.19491 19.1449 5.2131 19.2951 5.27911C19.4454 5.34512 19.5717 5.45575 19.657 5.59599C19.7293 5.71263 19.7705 5.84592 19.7764 5.98305C19.7824 6.12017 19.7529 6.25653 19.691 6.37899L12.9 19.93L12.887 19.955L12.872 19.978L12.75 20.168C12.6779 20.281 12.5785 20.374 12.4611 20.4387C12.3437 20.5033 12.212 20.5375 12.078 20.538C11.9566 20.5373 11.8369 20.5099 11.7273 20.4577C11.6177 20.4055 11.521 20.3298 11.444 20.236C11.3691 20.1433 11.3158 20.035 11.2882 19.9191C11.2605 19.8032 11.259 19.6825 11.284 19.566L12.313 14.585L11.193 14.925C11.0398 14.9711 10.8763 14.9709 10.7233 14.9243C10.5702 14.8776 10.4344 14.7867 10.333 14.663C10.2573 14.5706 10.2033 14.4626 10.1747 14.3466C10.1462 14.2307 10.1439 14.1099 10.168 13.993L10.798 10.913L8.77097 11.381C8.63375 11.4124 8.4907 11.4075 8.356 11.3666C8.22129 11.3257 8.09959 11.2504 8.00297 11.148C7.92806 11.0679 7.87021 10.9734 7.8329 10.8703C7.7956 10.7671 7.77964 10.6575 7.78597 10.548L8.17497 3.97799L0.73497 2.64799C0.620338 2.62731 0.502184 2.63976 0.394387 2.6839C0.28659 2.72804 0.193627 2.80202 0.12642 2.89716C0.0592136 2.9923 0.0205538 3.10465 0.0149828 3.221C0.00941167 3.33735 0.0371606 3.45287 0.0949698 3.55399L11.58 23.691C11.6336 23.7852 11.7114 23.8636 11.8052 23.9179C11.8991 23.9722 12.0057 24.0006 12.1141 24.0002C12.2226 23.9998 12.329 23.9706 12.4224 23.9156C12.5159 23.8605 12.593 23.7816 12.646 23.687L23.906 3.55199C23.9624 3.45069 23.9889 3.33543 23.9824 3.21964C23.9758 3.10386 23.9365 2.99232 23.869 2.89801C23.8016 2.8037 23.7087 2.7305 23.6012 2.68695C23.4937 2.64339 23.3761 2.63127 23.262 2.65199Z" fill="#646CFF"/>
</g>
<defs>
<clipPath id="clip0_545_229">
<rect width="24" height="24" fill="white"/>
</clipPath>
</defs>
</svg>
