<?xml version="1.0" encoding="utf-8"?>
<!-- Generator: Adobe Illustrator 16.0.0, SVG Export Plug-In . SVG Version: 6.00 Build 0)  -->
<!DOCTYPE svg PUBLIC "-//W3C//DTD SVG 1.1//EN" "http://www.w3.org/Graphics/SVG/1.1/DTD/svg11.dtd">
<svg version="1.1" id="레이어_1" xmlns="http://www.w3.org/2000/svg" xmlns:xlink="http://www.w3.org/1999/xlink" x="0px"
	 y="0px" width="173px" height="200px" viewBox="0 0 173 200" style="enable-background:new 0 0 173 200;" xml:space="preserve">
<style type="text/css">
<![CDATA[
	.st0{fill:#E4004F;}
	.st1{fill:none;stroke:#231815;stroke-width:2;stroke-linecap:round;stroke-linejoin:round;stroke-miterlimit:10;}
	.st2{fill:none;stroke:#231815;stroke-width:4;stroke-linecap:round;stroke-linejoin:round;stroke-miterlimit:10;}
	.st3{fill:#231815;}
	.st4{fill:#FFF23F;}
	.st5{fill:#FFF3C2;}
	.st6{fill:#78C39B;}
]]>
</style>
<path class="st4" d="M38.8,165.8c-0.5,0.7-7.3,32-7.3,32l27-22.9L38.8,165.8z"/>
<polygon class="st4" points="138.6,160.5 121.7,171.9 147.6,194.8 "/>
<path class="st1" d="M38.8,165.8c-0.5,0.7-7.3,32-7.3,32l27-22.9L38.8,165.8z"/>
<polygon class="st1" points="138.6,160.5 121.7,171.9 147.6,194.8 "/>
<path class="st3" d="M94.8,8.5c0-4.1-3.3-7.4-7.4-7.4s-7.4,3.3-7.4,7.4c0,3.2,2,5.9,4.9,6.9v8.3h4.9v-8.3
	C92.7,14.4,94.8,11.7,94.8,8.5z"/>
<path class="st4" d="M160.4,11.4c-12.5-10.7-31.3-9.3-42,3.1l45.1,38.8C174.2,41,172.8,22.2,160.4,11.4z"/>
<circle class="st3" cx="164.7" cy="7.4" r="6.6"/>
<path class="st4" d="M13.6,11.4c12.5-10.7,31.3-9.3,42,3.1L10.4,53.4C-0.3,41,1.1,22.2,13.6,11.4z"/>
<path class="st1" d="M160.4,11.4c-12.5-10.7-31.3-9.3-42,3.1l45.1,38.8C174.2,41,172.8,22.2,160.4,11.4z"/>
<path class="st1" d="M13.6,11.4c12.5-10.7,31.3-9.3,42,3.1L10.4,53.4C-0.3,41,1.1,22.2,13.6,11.4z"/>
<circle class="st3" cx="9.3" cy="7.4" r="6.6"/>
<circle class="st6" cx="86.9" cy="102.3" r="80.6"/>
<circle class="st5" cx="86.9" cy="102.3" r="69.3"/>
<circle class="st1" cx="86.9" cy="102.3" r="80.6"/>
<circle class="st1" cx="86.9" cy="102.3" r="69.3"/>
<path class="st3" d="M86.7,56.6C85,56.6,75,74.3,75.6,75.4c0.2,0.4,2.6,0,6.4-0.9l1.4,23.8c0,0,6.2,0,6.3,0c0.1,0,1.1-18.5,1.4-23.6
	c3.3,0.6,6,1.3,6.2,0.8C97.9,73.7,88.4,56.6,86.7,56.6z"/>
<path class="st3" d="M54.6,123.5c0.6,1.2,16.4,1.3,16.9,0.5c0.2-0.3-1-1.7-3-4l16.8-10.5c0,0-3.6-3.6-3.7-3.7c0-0.1-12.9,6.2-16.5,8
	c-0.8-2.5-1.4-4.6-1.8-4.5C62,109.5,53.9,122.3,54.6,123.5z"/>
<g>
	<line class="st2" x1="86.4" y1="39.8" x2="86.4" y2="52"/>
	<line class="st2" x1="86.4" y1="152.6" x2="86.4" y2="164.9"/>
</g>
<g>
	<line class="st2" x1="149" y1="102.3" x2="136.7" y2="102.3"/>
	<line class="st2" x1="36.2" y1="102.3" x2="23.9" y2="102.3"/>
</g>
<g>
	<line class="st2" x1="141.6" y1="127.1" x2="135.5" y2="124.4"/>
	<line class="st2" x1="38.1" y1="80.6" x2="32.1" y2="77.9"/>
</g>
<g>
	<line class="st2" x1="123.4" y1="149.9" x2="119.4" y2="144.7"/>
	<line class="st2" x1="53.8" y1="60.4" x2="49.6" y2="54.9"/>
</g>
<g>
	<line class="st2" x1="123.4" y1="54.6" x2="119.4" y2="59.8"/>
	<line class="st2" x1="54.1" y1="144" x2="49.9" y2="149.5"/>
</g>
<g>
	<line class="st2" x1="141.6" y1="77.4" x2="135.5" y2="80.1"/>
	<line class="st2" x1="38.2" y1="124.1" x2="32.2" y2="126.8"/>
</g>
<g>
	<path class="st0" d="M86.9,94.4c-4.3,0-7.9,3.5-7.9,7.9c0,4.3,3.5,7.9,7.9,7.9s7.9-3.5,7.9-7.9C94.8,97.9,91.3,94.4,86.9,94.4z
		 M86.9,105.9c-2,0-3.7-1.6-3.7-3.7c0-2,1.6-3.7,3.7-3.7s3.7,1.6,3.7,3.7C90.6,104.3,88.9,105.9,86.9,105.9z"/>
</g>
</svg>
