<?xml version="1.0" encoding="utf-8"?>
<!-- Generator: Adobe Illustrator 16.0.0, SVG Export Plug-In . SVG Version: 6.00 Build 0)  -->
<!DOCTYPE svg PUBLIC "-//W3C//DTD SVG 1.1//EN" "http://www.w3.org/Graphics/SVG/1.1/DTD/svg11.dtd">
<svg version="1.1" id="Layer_2" xmlns="http://www.w3.org/2000/svg" xmlns:xlink="http://www.w3.org/1999/xlink" x="0px" y="0px"
	 width="200px" height="54px" viewBox="0 0 200 54" style="enable-background:new 0 0 200 54;" xml:space="preserve">
<style type="text/css">
<![CDATA[
	.st0{fill:#FFFFFF;stroke:#000000;stroke-width:2;stroke-linecap:round;stroke-linejoin:round;stroke-miterlimit:10;}
	.st1{fill:none;stroke:#000000;stroke-linecap:round;stroke-linejoin:round;stroke-miterlimit:10;}
	.st2{fill:#96D5D1;stroke:#000000;stroke-width:2;stroke-linecap:round;stroke-linejoin:round;stroke-miterlimit:10;}
	.st3{fill:#D4B79A;stroke:#000000;stroke-width:2;stroke-linecap:round;stroke-linejoin:round;stroke-miterlimit:10;}
]]>
</style>
<path class="st2" d="M30.207,3.503c0,0,2.805-2.31,16.666-0.825c0,0-0.248,41.91-1.073,48.675c0,0-14.52,0.908-15.593-2.887
	C30.207,48.466,29.381,31.636,30.207,3.503z"/>
<path class="st3" d="M46.872,2.678c0,0,10.147,0.824,23.512,10.312c13.365,9.488,25.906,7.343,42.901,4.868
	c16.994-2.475,57.255-10.972,84.314,8.002c0,0-8.662,18.233-54.863,14.273c-46.2-3.96-41.745-13.2-65.34-2.64
	c-23.595,10.56-13.504,12.743-31.46,12.353L46.872,2.678z"/>
<path class="st1" d="M31.815,47.352c0,0,10.147,0.619,11.756,0.619"/>
<path class="st1" d="M47.532,47.352c0,0,4.455,0.866,10.271-2.723c5.816-3.589,20.516-12.681,23.513-13.489"/>
<path class="st1" d="M86.76,29.491c0,0,6.064-2.558,24.998,1.65s68.6,12.209,85.842-5.28"/>
<path class="st1" d="M82.995,30.596c0,0,1.415-0.569,2.219-0.569"/>
<circle class="st0" cx="178.707" cy="25.943" r="2.846"/>
<path class="st0" d="M30.207,3.503c0,0-16.665-3.382-26.647,0l0.578,2.062L3.56,7.216l0.907,2.062L3.56,11.341l0.578,2.063
	L3.56,14.971l0.66,2.063l-1.155,1.65l1.073,2.64l-1.073,1.732l0.495,1.98l-0.495,2.31l0.578,2.31l-0.908,2.392l0.908,1.898
	l-0.908,2.887l0.742,2.459l-0.742,2.409l1.155,2.145l-1.155,1.897l1.072,1.701l-1.072,1.6c0,0,17.343,6.352,27.77,0L30.207,3.503z"
	/>
<path class="st1" d="M42.995,5.979c0,0,0.083,10.147,0,12.54"/>
<path class="st1" d="M43.031,22.313c0,0,0.284,8.333,0,10.973"/>
<path class="st1" d="M42.995,35.266c0,0,0.087,9.461-0.495,11.055"/>
<path class="st1" d="M3.854,6.374c0,0,19.423,0.264,22.229,1.007"/>
<path class="st1" d="M3.429,46.846c0,0,15.805,0.772,18.28,0"/>
<path class="st1" d="M3.89,43.846c0,0,7.955,0.083,8.68,0"/>
<path class="st1" d="M2.865,41.277c0,0,10.759,0.319,12.575,0"/>
<path class="st1" d="M2.865,37.265c0,0,19.835,0.641,22.557,0.723"/>
<path class="st1" d="M4.302,9.652c0,0,18.976,0.781,21.12,1.358"/>
<path class="st1" d="M4.302,14.558c0,0,19.718,0.908,21.12,1.073"/>
<path class="st1" d="M3.854,17.555c0,0,18.269,0.715,18.846,0.963"/>
<path class="st1" d="M3.89,22.313c0,0,20.295,0.66,21.532,0.742"/>
<path class="st1" d="M3.429,26.933c0,0,17.043,0.082,21.003,0.866"/>
<path class="st1" d="M2.865,32.321c0,0,19.835,0.718,23.217,0.965"/>
<path class="st1" d="M3.89,29.243c0,0,14.272-0.33,16.005,0"/>
</svg>
