<?xml version="1.0" encoding="utf-8"?>
<!-- Generator: Adobe Illustrator 16.0.0, SVG Export Plug-In . SVG Version: 6.00 Build 0)  -->
<!DOCTYPE svg PUBLIC "-//W3C//DTD SVG 1.1//EN" "http://www.w3.org/Graphics/SVG/1.1/DTD/svg11.dtd">
<svg version="1.1" id="레이어_1" xmlns="http://www.w3.org/2000/svg" xmlns:xlink="http://www.w3.org/1999/xlink" x="0px"
	 y="0px" width="196px" height="200px" viewBox="0 0 196 200" style="enable-background:new 0 0 196 200;" xml:space="preserve">
<style type="text/css">
<![CDATA[
	.st0{fill:#AACF71;}
	.st1{fill:none;stroke:#000000;stroke-width:2;stroke-linecap:round;stroke-linejoin:round;stroke-miterlimit:10;}
	.st2{fill:#EA6D4C;}
	.st3{fill:#BDCBC9;}
	.st4{fill:#F19614;}
	.st5{fill:#F8ED39;}
	.st6{fill:#FFFFFF;}
	.st7{fill:none;stroke:#000000;stroke-width:2;stroke-miterlimit:10;}
	.st8{fill:#DEC196;}
]]>
</style>
<path class="st2" d="M104.3,3.3c0,0-27.2-4.1-35.1,27l8.7-0.6c0,0,3.6-19.8,25-18.5c0,0,19.8,0.1,20.1,24l7.8,0.1
	C130.7,35.2,133.9,6.7,104.3,3.3z"/>
<path class="st7" d="M104.3,3.3c0,0-27.2-4.1-35.1,27l8.7-0.6c0,0,3.6-19.8,25-18.5c0,0,19.8,0.1,20.1,24l7.8,0.1
	C130.7,35.2,133.9,6.7,104.3,3.3z"/>
<path class="st2" d="M193.1,105.4c-4.5-30.5-39.4-44.2-39.4-44.2l2.8,13.7c43.1,17.9,22.4,57.9,22.4,57.9l-1.7,17.9
	C198.5,132.1,193.1,105.4,193.1,105.4z"/>
<path class="st7" d="M193.1,105.4c-4.5-30.5-39.4-44.2-39.4-44.2l2.8,13.7c43.1,17.9,22.4,57.9,22.4,57.9l-1.7,17.9
	C198.5,132.1,193.1,105.4,193.1,105.4z"/>
<path class="st4" d="M160.4,72.3C147.7,24.7,94.7,27,94.7,27l42.6,120.4l35.9-12.5C169.3,106.1,160.4,72.3,160.4,72.3z"/>
<path class="st7" d="M160.4,72.3C147.7,24.7,94.7,27,94.7,27l42.6,120.4l35.9-12.5C169.3,106.1,160.4,72.3,160.4,72.3z"/>
<path class="st2" d="M162.3,103.8c0,0,16.5-5.7,19.2,18.2c0,0,1.7,29.5,0.9,40.9c0,0,0,17.9-12.3,19.9l-19.2,1.2l-1-58.8
	C149.8,125.3,148.4,110.6,162.3,103.8z"/>
<path class="st7" d="M162.3,103.8c0,0,16.5-5.7,19.2,18.2c0,0,1.7,29.5,0.9,40.9c0,0,0,17.9-12.3,19.9l-19.2,1.2l-1-58.8
	C149.8,125.3,148.4,110.6,162.3,103.8z"/>
<g>
	<path class="st8" d="M170.6,166.7c0,0-10.8,1.3-20.1-0.2l0.3,17.6l19.2-1.2c12.3-2.1,12.3-19.9,12.3-19.9c0.1-1.2,0.1-2.5,0.2-4
		C182.5,158.9,179.2,166.6,170.6,166.7z"/>
</g>
<path class="st1" d="M156.5,146.5c0,0-1.2-43.3,18.3-39.6"/>
<g>
	<path class="st1" d="M170.6,166.7c0,0-10.8,1.3-20.1-0.2l0.3,17.6l19.2-1.2c13.5,0,12.3-19.9,12.3-19.9c0.1-1.2,0.1-2.5,0.2-4
		C182.5,158.9,179.2,166.6,170.6,166.7z"/>
</g>
<path class="st3" d="M20.8,89.7c0,0-5.2-0.9-5.2,11.9h12.1V89.7H20.8z"/>
<path class="st7" d="M20.8,89.7c0,0-6.7-0.8-5.2,11.9h12.1V89.7H20.8z"/>
<path class="st8" d="M12.9,160.3l-8.5,2.5c0,0-0.8,21.8,9.6,21.8h15v-22.3L12.9,160.3z"/>
<path class="st7" d="M12.9,160.3l-8.5,2.5c0,0-3.7,21.8,9.6,21.8h15v-22.3L12.9,160.3z"/>
<g>
	<path class="st6" d="M27.1,98.4H20c0,0-8.8-0.9-10.4,9.7v10.6h17.5V98.4z"/>
	<path class="st2" d="M9.6,118.7c0,0-6.9,2.6-6.9,15.8v19.2c0,0-0.7,13.2,8,13.2h16.5v-48.2H9.6z"/>
</g>
<g>
	<path class="st7" d="M27.1,98.4H20c0,0-8.8-0.9-10.4,9.7v10.6h17.5V98.4z"/>
	<path class="st7" d="M9.6,118.7c0,0-6.9,2.6-6.9,15.8v19.2c0,0-0.7,13.2,8,13.2h16.5v-48.2H9.6z"/>
</g>
<path class="st4" d="M92.8,27c0,0,54.6-3.6,56.9,67.9c0,0,3.9,65,3.9,94.6c0,0,4.9,7.3-67.6,7.3c0,0-64.5,2.1-64.5-9.1
	c0,0,1.4-77.5,3.6-98.3C25.3,89.4,27.1,27,92.8,27z"/>
<path class="st5" d="M111.8,68.4c0,2.9-2.3,5.2-5.2,5.2H70.2c-2.9,0-5.2-2.3-5.2-5.2V57.5c0-2.9,2.3-5.2,5.2-5.2h36.4
	c2.9,0,5.2,2.3,5.2,5.2V68.4z"/>
<path class="st7" d="M111.8,68.4c0,2.9-2.3,5.2-5.2,5.2H70.2c-2.9,0-5.2-2.3-5.2-5.2V57.5c0-2.9,2.3-5.2,5.2-5.2h36.4
	c2.9,0,5.2,2.3,5.2,5.2V68.4z"/>
<g>
	<path class="st2" d="M80.1,89.8C33.3,93.2,23,131.9,23,131.9c-0.9,27.1-1.4,55.8-1.4,55.8c0,11.2,64.5,9.1,64.5,9.1
		c72.5,0,67.6-7.3,67.6-7.3c0-13.2-0.8-33.3-1.6-51.6C139.2,85.3,80.1,89.8,80.1,89.8z"/>
</g>
<g>
	<path class="st7" d="M80.1,89.8C33.3,93.2,23,131.9,23,131.9c-0.9,27.1-1.4,55.8-1.4,55.8c0,11.2,64.5,9.1,64.5,9.1
		c72.5,0,67.6-7.3,67.6-7.3c0-13.2-0.8-33.3-1.6-51.6C139.2,85.3,80.1,89.8,80.1,89.8z"/>
</g>
<g>
	<path class="st8" d="M77.8,180.2c0,0-51.4,1.9-55.8-7.7c-0.2,9.2-0.3,15.3-0.3,15.3c0,11.2,64.5,9.1,64.5,9.1
		c72.5,0,67.6-7.3,67.6-7.3c0-4.7-0.1-10.3-0.3-16.3C151.9,174.5,141.6,180.2,77.8,180.2z"/>
</g>
<g>
	<path class="st1" d="M77.8,180.2c0,0-51.4,1.9-55.8-7.7c-0.2,9.2-0.3,15.3-0.3,15.3c0,11.2,64.5,9.1,64.5,9.1
		c72.5,0,67.6-7.3,67.6-7.3c0-4.7-0.1-10.3-0.3-16.3C151.9,174.5,141.6,180.2,77.8,180.2z"/>
</g>
<path class="st7" d="M107,92.8c0,0,24.9,13.9,24.9,57.6v44.2"/>
<path class="st0" d="M51.9,122.7h52c0,0,6.4,0.2,6.4,7.1v17.6c0,0,0.5,6.7-4.3,9.3l-23.4,12.8c0,0-3.5,1.9-8.5-1L52.7,156
	c0,0-5.2-4-5.2-10.9v-15.4C47.5,129.6,46.7,122.7,51.9,122.7z"/>
<path class="st7" d="M51.9,122.7h52c0,0,6.4,0.2,6.4,7.1v17.6c0,0,0.5,6.7-4.3,9.3l-23.4,12.8c0,0-3.5,1.9-8.5-1L52.7,156
	c0,0-5.2-4-5.2-10.9v-15.4C47.5,129.6,46.7,122.7,51.9,122.7z"/>
<path class="st7" d="M92.8,27c0,0,54.6-3.6,56.9,67.9c0,0,3.9,65,3.9,94.6c0,0,4.9,7.3-67.6,7.3c0,0-64.5,2.1-64.5-9.1
	c0,0,1.4-77.5,3.6-98.3C25.3,89.4,27.1,27,92.8,27z"/>
</svg>
