<svg width="420" height="420" viewBox="0 0 420 420" fill="none" xmlns="http://www.w3.org/2000/svg">
<rect width="420" height="420" fill="white"/>
<g clip-path="url(#clip0_72_16)">
<path d="M60.2662 284.971C60.2662 284.971 61.0631 276.737 85.767 256.814C85.767 256.814 152.834 324.68 162.396 336.898C162.396 336.898 140.484 361.734 132.647 357.352C132.647 357.352 104.225 331.589 60.2662 284.971Z" fill="#96D5D1" stroke="black" stroke-width="2" stroke-miterlimit="10" stroke-linecap="round" stroke-linejoin="round"/>
<path d="M85.7653 256.815C85.7653 256.815 103.426 241.807 140.215 235.566C177.004 229.325 193.739 205.684 217.113 174.341C240.486 143 291.619 64.5095 365.723 51.4943C365.723 51.4943 381.13 94.7897 300.381 162.789C219.634 230.787 211.931 208.741 190.948 263.723C169.964 318.706 189.723 305.975 160.189 334.253L85.7653 256.815Z" fill="#D4B79A" stroke="black" stroke-width="2" stroke-miterlimit="10" stroke-linecap="round" stroke-linejoin="round"/>
<path d="M133.443 352.97C133.443 352.97 150.774 337.632 153.364 335.042" stroke="black" stroke-miterlimit="10" stroke-linecap="round" stroke-linejoin="round"/>
<path d="M158.744 327.669C158.744 327.669 167.309 321.892 170.894 306.752C174.479 291.611 183.507 253.311 187.031 247.186" stroke="black" stroke-miterlimit="10" stroke-linecap="round" stroke-linejoin="round"/>
<path d="M193.14 235.768C193.14 235.768 198.784 221.888 236.038 198.182C273.292 174.477 366.124 107.404 365.726 51.4947" stroke="black" stroke-miterlimit="10" stroke-linecap="round" stroke-linejoin="round"/>
<path d="M188.858 243.607C188.858 243.607 190.22 240.414 191.514 239.119" stroke="black" stroke-miterlimit="10" stroke-linecap="round" stroke-linejoin="round"/>
<path d="M340.026 86.622C342.556 84.0917 342.556 79.9893 340.026 77.4591C337.496 74.9288 333.393 74.9288 330.863 77.459C328.333 79.9893 328.333 84.0917 330.863 86.622C333.393 89.1523 337.496 89.1523 340.026 86.622Z" fill="white" stroke="black" stroke-width="2" stroke-miterlimit="10" stroke-linecap="round" stroke-linejoin="round"/>
<path d="M60.2663 284.971C60.2663 284.971 27.9947 306.354 17.3701 327.867L21.62 330.256L23.3473 333.844L28.1267 335.703L29.9877 340.485L34.2391 342.875L35.8312 346.328L40.2147 348.587L41.0115 353.102L46.9887 355.625L48.0495 360.14L52.0338 362.531L54.9556 367.046L59.6047 369.834L61.9936 375.147L66.5107 376.74L69.6965 382.85L74.8494 385.614L77.5329 390.686L82.8453 392.28L84.0397 397.193L88.5037 398.205L89.3536 402.507C89.3536 402.507 127.498 384.813 134.058 357.803L60.2663 284.971Z" fill="white" stroke="black" stroke-width="2" stroke-miterlimit="10" stroke-linecap="round" stroke-linejoin="round"/>
<path d="M84.8381 268.371C84.8381 268.371 101.306 284.572 105.025 288.557" stroke="black" stroke-miterlimit="10" stroke-linecap="round" stroke-linejoin="round"/>
<path d="M111.19 294.607C111.19 294.607 125.062 307.565 128.855 312.272" stroke="black" stroke-miterlimit="10" stroke-linecap="round" stroke-linejoin="round"/>
<path d="M131.984 315.517C131.984 315.517 147.354 330.607 148.984 334.11" stroke="black" stroke-miterlimit="10" stroke-linecap="round" stroke-linejoin="round"/>
<path d="M22.4651 332.016C22.4651 332.016 54.1571 301.174 59.8703 297.853" stroke="black" stroke-miterlimit="10" stroke-linecap="round" stroke-linejoin="round"/>
<path d="M86.9324 397.852C86.9324 397.852 113.618 373.652 116.359 368.425" stroke="black" stroke-miterlimit="10" stroke-linecap="round" stroke-linejoin="round"/>
<path d="M82.8452 392.28C82.8452 392.28 95.7847 379.607 96.8182 378.307" stroke="black" stroke-miterlimit="10" stroke-linecap="round" stroke-linejoin="round"/>
<path d="M77.0596 389.794C77.0596 389.794 94.8929 372.988 97.3027 369.551" stroke="black" stroke-miterlimit="10" stroke-linecap="round" stroke-linejoin="round"/>
<path d="M70.6011 383.336C70.6011 383.336 103.563 352.438 108.077 348.188" stroke="black" stroke-miterlimit="10" stroke-linecap="round" stroke-linejoin="round"/>
<path d="M28.4631 336.571C28.4631 336.571 60.2678 307.281 64.6481 304.759" stroke="black" stroke-miterlimit="10" stroke-linecap="round" stroke-linejoin="round"/>
<path d="M36.3606 344.469C36.3606 344.469 69.5642 314.189 72.0868 312.198" stroke="black" stroke-miterlimit="10" stroke-linecap="round" stroke-linejoin="round"/>
<path d="M40.4641 350.015C40.4641 350.015 71.0244 321.756 72.3525 321.227" stroke="black" stroke-miterlimit="10" stroke-linecap="round" stroke-linejoin="round"/>
<path d="M48.1814 357.616C48.1814 357.616 81.9146 326.008 84.038 324.149" stroke="black" stroke-miterlimit="10" stroke-linecap="round" stroke-linejoin="round"/>
<path d="M54.8765 365.795C54.8765 365.795 82.4442 338.492 90.081 333.379" stroke="black" stroke-miterlimit="10" stroke-linecap="round" stroke-linejoin="round"/>
<path d="M62.6423 375.377C62.6423 375.377 95.7284 344.603 101.57 339.556" stroke="black" stroke-miterlimit="10" stroke-linecap="round" stroke-linejoin="round"/>
<path d="M59.3374 368.772C59.3374 368.772 81.7812 345.266 85.1022 343.007" stroke="black" stroke-miterlimit="10" stroke-linecap="round" stroke-linejoin="round"/>
</g>
<defs>
<clipPath id="clip0_72_16">
<rect width="455.319" height="122.936" fill="white" transform="translate(6 327.959) rotate(-45)"/>
</clipPath>
</defs>
</svg>
