<svg width="420" height="420" viewBox="0 0 420 420" fill="none" xmlns="http://www.w3.org/2000/svg">
<rect width="420" height="420" fill="white"/>
<g clip-path="url(#clip0_72_17)">
<path d="M380.688 41.077C401.877 62.2662 385.937 84.0386 381.66 88.3153L333.449 40.105C337.726 35.8283 359.985 20.3737 380.688 41.077Z" fill="#FD939B"/>
<path d="M380.688 41.0769C381.465 41.8545 382.243 42.6321 382.923 43.3125C363.095 25.8168 345.113 38.161 341.128 42.1461L333.547 40.0078C337.726 35.8282 359.985 20.3737 380.688 41.0769Z" fill="#E6818D"/>
<path d="M339.476 40.2994L381.271 82.0947C383.021 83.8442 383.312 86.663 381.854 88.121L365.914 104.061L317.606 55.7539L333.352 40.0078C335.005 38.3555 337.726 38.5499 339.476 40.2994Z" fill="#97969A"/>
<path d="M331.797 47.9781L373.592 89.7734C375.342 91.523 375.633 94.3417 374.175 95.7997L358.332 111.643L310.025 63.3355L325.673 47.6865C327.326 46.0342 330.047 46.2286 331.797 47.9781Z" fill="#B6B6B6"/>
<path d="M324.119 55.6569L365.914 97.4521C367.663 99.2017 367.955 102.02 366.497 103.478L358.041 111.935L309.733 63.6271L318.189 55.1709C319.55 53.8101 322.369 53.9073 324.119 55.6569Z" fill="#97969A"/>
<g opacity="0.1">
<path d="M339.476 40.2994L341.225 42.049L341.128 42.1462L325.576 57.6979C323.827 59.4475 323.73 62.4606 325.576 64.3074L365.622 104.353L357.943 112.032L309.636 63.7242L333.352 40.0078C335.005 38.3555 337.726 38.5499 339.476 40.2994Z" fill="#1C1C1C"/>
</g>
<path d="M108.727 361.248L44.2846 382.34C42.9238 382.729 41.5631 382.34 40.4939 381.271C39.5219 380.299 39.1331 378.938 39.4247 377.48L60.5167 313.038L108.727 361.248Z" fill="#EDCEAA"/>
<path d="M44.1876 382.243C42.8268 382.632 41.466 382.243 40.3968 381.174C39.4249 380.202 39.0361 378.841 39.3277 377.383L43.1184 366.011L55.7542 378.646L44.1876 382.243Z" fill="#424344"/>
<g opacity="0.1">
<path d="M65.6682 318.189L45.8397 378.646C45.6453 379.618 45.6453 380.785 46.3257 381.659L44.1874 382.243C42.8266 382.631 41.4658 382.243 40.3966 381.173C39.4247 380.201 39.0359 378.841 39.3275 377.383L60.4195 312.94L65.6682 318.189Z" fill="#1C1C1C"/>
</g>
<path d="M329.853 77.915L80.8311 326.937C77.0404 329.172 76.4572 329.561 75.5824 329.658L62.9467 330.825C61.8775 330.922 60.8083 330.63 60.1279 329.95C59.4475 329.27 58.9616 328.006 59.2531 327.131L60.4195 314.496C60.4195 313.718 60.8083 313.135 61.3915 312.552L312.941 61.0025L329.853 77.915Z" fill="#F8B220"/>
<path d="M360.957 109.019L109.407 360.568C108.922 361.054 108.338 361.442 107.464 361.54L94.8278 362.706C93.7586 362.803 92.6894 362.512 92.009 361.831C91.3286 361.151 90.9399 359.984 91.1342 359.012L92.3006 346.377C92.3006 345.599 92.6894 345.016 93.2726 344.433L344.822 92.8836L360.957 109.019Z" fill="#F8B220"/>
<path d="M344.919 93.1753L93.4671 344.627C92.9811 345.113 92.3979 345.502 91.5231 345.599L78.8874 346.765C77.8182 346.863 76.749 346.571 76.0686 345.891C75.3882 345.21 74.9022 343.947 75.1938 343.072L76.3602 330.436C76.3602 329.659 76.749 329.075 77.3322 328.492L328.784 77.0404L344.919 93.1753Z" fill="#F8C020"/>
<path d="M360.373 109.602L361.345 108.63L313.135 60.4196L312.163 61.3915L360.373 109.602Z" fill="#EF9E0F"/>
</g>
<defs>
<clipPath id="clip0_72_17">
<rect width="481.107" height="68.7295" fill="white" transform="translate(404.793 64.5991) rotate(135)"/>
</clipPath>
</defs>
</svg>
