<?xml version="1.0" encoding="utf-8"?>
<!-- Generator: Adobe Illustrator 16.0.0, SVG Export Plug-In . SVG Version: 6.00 Build 0)  -->
<!DOCTYPE svg PUBLIC "-//W3C//DTD SVG 1.1//EN" "http://www.w3.org/Graphics/SVG/1.1/DTD/svg11.dtd">
<svg version="1.1" id="레이어_1" xmlns="http://www.w3.org/2000/svg" xmlns:xlink="http://www.w3.org/1999/xlink" x="0px"
	 y="0px" width="350px" height="50px" viewBox="0 0 350 50" style="enable-background:new 0 0 350 50;" xml:space="preserve">
<style type="text/css">
<![CDATA[
	.st0{fill:#E6818D;}
	.st1{fill:#B6B6B6;}
	.st2{fill:#1C1C1C;}
	.st3{fill:#EDCEAA;}
	.st4{fill:#EF9E0F;enable-background:new    ;}
	.st5{fill:#F8B220;}
	.st6{fill:#F8C020;}
	.st7{fill:#97969A;}
	.st8{fill:#FD939B;}
	.st9{opacity:0.1;}
	.st10{fill:#424344;}
]]>
</style>
<g>
	<path class="st8" d="M0.3,24.5C0.3,2.7,19.7-0.3,24.1-0.3v49.6C19.7,49.3,0.3,45.8,0.3,24.5z"/>
	<g>
		<path class="st0" d="M0.3,24.5c0-0.8,0-1.6,0-2.3c1.2,19.2,16.8,22.1,20.9,22.1l2.8,5C19.7,49.3,0.3,45.8,0.3,24.5z"/>
	</g>
	<path class="st7" d="M21.1,46.1v-43c0-1.8,1.3-3.4,2.8-3.4h16.4v49.7H24.1C22.4,49.4,21.1,47.9,21.1,46.1z"/>
	<path class="st1" d="M29,46.1v-43c0-1.8,1.3-3.4,2.8-3.4h16.3v49.7H32C30.3,49.4,29,47.9,29,46.1z"/>
	<path class="st7" d="M36.9,46.1v-43c0-1.8,1.3-3.4,2.8-3.4h8.7v49.7h-8.7C38.3,49.4,36.9,47.9,36.9,46.1z"/>
	<g class="st9">
		<path class="st2" d="M21.1,46.1v-1.8h0.1h16c1.8,0,3.4-1.5,3.4-3.4V-0.3h7.9v49.7H24.1C22.4,49.4,21.1,47.9,21.1,46.1z"/>
	</g>
	<path class="st3" d="M304.9-0.3l44,22.3c0.9,0.5,1.4,1.4,1.4,2.5l0,0c0,1-0.5,1.9-1.4,2.5l-44,22.3V-0.3z"/>
	<g>
		<path class="st10" d="M348.9,22.1c0.9,0.5,1.4,1.4,1.4,2.5l0,0c0,1-0.5,1.9-1.4,2.5l-7.8,3.9V18L348.9,22.1z"/>
	</g>
	<g class="st9">
		<path class="st2" d="M304.9,44l41.3-20.9c0.6-0.4,1.2-1,1.3-1.8l1.4,0.8c0.9,0.5,1.4,1.4,1.4,2.5l0,0c0,1-0.5,1.9-1.4,2.5
			l-44,22.3V44z"/>
	</g>
	<path class="st5" d="M45.4,31.7h256.2c3.1,0.8,3.6,0.9,4.1,1.3l7.1,5.9c0.6,0.5,1,1.2,1,1.9s-0.4,1.6-1,1.9l-7.1,5.9
		c-0.4,0.4-0.9,0.5-1.5,0.5H45.4V31.7z"/>
	<path class="st5" d="M45.4-0.3h258.8c0.5,0,1,0.1,1.5,0.5l7.1,5.9c0.6,0.5,1,1.2,1,1.9s-0.4,1.5-1,1.9l-7.1,5.9
		c-0.4,0.4-0.9,0.5-1.5,0.5H45.4V-0.3z"/>
	<path class="st6" d="M45.5,16.1h258.7c0.5,0,1,0.1,1.5,0.5l7.1,5.9c0.6,0.5,1,1.2,1,1.9s-0.4,1.6-1,1.9l-7.1,5.9
		c-0.4,0.4-0.9,0.5-1.5,0.5H45.5V16.1z"/>
	<rect x="45" y="-0.3" class="st4" width="1" height="49.6"/>
</g>
</svg>
