<?xml version="1.0" encoding="utf-8"?>
<!-- Generator: Adobe Illustrator 16.0.0, SVG Export Plug-In . SVG Version: 6.00 Build 0)  -->
<!DOCTYPE svg PUBLIC "-//W3C//DTD SVG 1.1//EN" "http://www.w3.org/Graphics/SVG/1.1/DTD/svg11.dtd">
<svg version="1.1" id="레이어_1" xmlns="http://www.w3.org/2000/svg" xmlns:xlink="http://www.w3.org/1999/xlink" x="0px"
	 y="0px" width="314px" height="40px" viewBox="0 0 314 40" style="enable-background:new 0 0 314 40;" xml:space="preserve">
<style type="text/css">
<![CDATA[
	.st0{opacity:0.4;fill:#C42A40;enable-background:new    ;}
	.st1{fill:#E73548;}
	.st2{fill:#1C1C1C;}
	.st3{fill:#EDCEAA;}
	.st4{opacity:0.4;fill:#D92841;enable-background:new    ;}
	.st5{fill:#C21D3A;}
	.st6{opacity:0.1;}
	.st7{fill:#FF5B67;}
	.st8{opacity:0.4;fill:#C42A40;}
	.st9{fill:#D4263D;}
]]>
</style>
<g>
	<path class="st3" d="M268,38.7L311,21.4c0.7-0.4,1.1-1.1,1.1-1.9l0,0c0-0.8-0.4-1.5-1.1-1.9L268,0.4V38.7z"/>
	<g>
		<path class="st1" d="M298,12.2v14.2l13-5.2c0.7-0.4,1.1-1.1,1.1-1.9c0-0.8-0.4-1.5-1.1-1.9L298,12.2z"/>
	</g>
	<g class="st6">
		<path class="st2" d="M268,38.7L311,21.4c0.7-0.4,1.1-1.1,1.1-1.9l0,0c0-0.8-0.4-1.5-1.1-1.9l-1.1-0.6c-0.2,0.6-0.6,1.1-1,1.4
			L268,34.6V38.7z"/>
	</g>
	<path class="st1" d="M267.6,38.7c0.5,0,0.9-0.1,1.2-0.4l5.5-4.6c0.5-0.3,0.8-0.9,0.8-1.5c0-0.6-0.3-1.1-0.8-1.5l-5.5-4.6
		c-0.4-0.3-0.9-0.4-3.2-1h-192V13.4h191.9c2.5-0.6,2.9-0.8,3.2-1l5.5-4.6c0.5-0.3,0.8-0.9,0.8-1.5c0-0.6-0.3-1.1-0.8-1.5l-5.2-4.1
		c-0.4-0.3-1.2-0.3-1.6-0.3H10.2v38.6L267.6,38.7z"/>
	<path class="st7" d="M10.2,25.8h257.4c0.5,0,0.9-0.1,1.2-0.4l5.5-4.6c0.5-0.3,0.8-0.9,0.8-1.5c0-0.6-0.3-1.1-0.8-1.5l-5.5-4.6
		c-0.4-0.3-0.8-0.4-1.2-0.4H10.2V25.8z"/>
	<path class="st9" d="M10.2,38.9V0.4c-4.7,0-8.6,3.4-8.6,8.2v21.7C1.6,35,5.4,38.9,10.2,38.9z"/>
	<g>
		<path class="st5" d="M10.3,38.9V0.4c-1,0-2.1,0.1-2.9,0.4c0.8,1.3,1.3,2.3,1.3,4.1v21.7c0,3.7-2.5,7-5.8,8.1
			C4.3,37.2,7.1,38.9,10.3,38.9L10.3,38.9z"/>
	</g>
	<path class="st8" d="M274.9,31.8L274.9,31.8c-0.1-0.2-0.2-0.3-0.3-0.6c-0.1-0.1-0.2-0.2-0.3-0.3l-5.5-4.6c-0.1-0.1-0.2-0.2-0.5-0.3
		h-3.7c0.2,0.1,0.4,0.2,0.5,0.3l6.3,6.1c0,0.6-0.3,1.1-0.8,1.5l-3.1,2.6H10.2v2.4h253.6h3.7c0.5,0,0.9-0.1,1.2-0.4l5.5-4.6
		c0.5-0.3,0.8-0.9,0.8-1.5C275,32.2,275,32.1,274.9,31.8z"/>
	<g>
		<path class="st0" d="M263.7,12.8h3.7c0.5,0,0.9-0.1,1.2-0.4l5.5-4.6c0.5-0.3,0.8-0.9,0.8-1.5c0-0.2,0-0.4-0.1-0.6V5.6
			c-0.1-0.2-0.2-0.2-0.3-0.5l0,0c-0.1-0.2-0.2-0.2-0.3-0.3c0,0-5.7-4.4-6-4.5h-3.7c0.2,0.1,0.4-0.1,0.5,0l5.5,4.7
			c0.5,0.3,0.8,0.9,0.8,1.5c0,0.6-0.3,1.1-0.8,1.5l-3.1,2.6H10.2v2.4L263.7,12.8z"/>
	</g>
	<g>
		<path class="st4" d="M263.7,26h3.7c0.5,0,0.9-0.1,1.2-0.4l5.5-4.6c0.5-0.3,0.8-0.9,0.8-1.5c0-0.2,0-0.4-0.1-0.6v-0.1
			c-0.1-0.2-0.2-0.2-0.3-0.5l0,0c-0.1-0.1-0.2-0.2-0.3-0.3l-5.5-4.6c-0.1-0.1-0.4-0.3-0.7-0.4h-3.7c0.2,0.1,0.6,0.3,0.7,0.4l5.5,4.6
			c0.5,0.3,0.8,0.9,0.8,1.5c0,0.6-0.3,1.1-0.8,1.5l-3.1,2.6H10.2V26H263.7z"/>
	</g>
</g>
</svg>
