<svg width="420" height="420" viewBox="0 0 420 420" fill="none" xmlns="http://www.w3.org/2000/svg">
<rect width="420" height="420" fill="white"/>
<path d="M241.69 34.4399L163.99 129.78" stroke="black" stroke-width="1.98" stroke-miterlimit="10" stroke-linecap="round" stroke-linejoin="round"/>
<path d="M277.81 30.4502L163.99 177.24" stroke="black" stroke-width="1.98" stroke-miterlimit="10" stroke-linecap="round" stroke-linejoin="round"/>
<path d="M304.06 36.75L173.44 205.17" stroke="black" stroke-width="1.98" stroke-miterlimit="10" stroke-linecap="round" stroke-linejoin="round"/>
<path d="M324.01 47.25L192.13 223.02" stroke="black" stroke-width="1.98" stroke-miterlimit="10" stroke-linecap="round" stroke-linejoin="round"/>
<path d="M343.54 68.46L217.12 234.57" stroke="black" stroke-width="1.98" stroke-miterlimit="10" stroke-linecap="round" stroke-linejoin="round"/>
<path d="M247.15 234.57L355.51 101.01" stroke="black" stroke-width="1.98" stroke-miterlimit="10" stroke-linecap="round" stroke-linejoin="round"/>
<path d="M355.51 135.03L287.89 223.02" stroke="black" stroke-width="1.98" stroke-miterlimit="10" stroke-linecap="round" stroke-linejoin="round"/>
<path d="M274.24 30.0298L353.2 90.0898" stroke="black" stroke-width="1.98" stroke-miterlimit="10" stroke-linecap="round" stroke-linejoin="round"/>
<path d="M355.51 130.62L241.69 34.4399" stroke="black" stroke-width="1.98" stroke-miterlimit="10" stroke-linecap="round" stroke-linejoin="round"/>
<path d="M211.03 51.6602L346.9 164.64" stroke="black" stroke-width="1.98" stroke-miterlimit="10" stroke-linecap="round" stroke-linejoin="round"/>
<path d="M334.72 189L186.04 78.1201" stroke="black" stroke-width="1.98" stroke-miterlimit="10" stroke-linecap="round" stroke-linejoin="round"/>
<path d="M173.44 101.01L313.72 209.37" stroke="black" stroke-width="1.98" stroke-miterlimit="10" stroke-linecap="round" stroke-linejoin="round"/>
<path d="M167.56 125.58L287.89 225.33" stroke="black" stroke-width="1.98" stroke-miterlimit="10" stroke-linecap="round" stroke-linejoin="round"/>
<path d="M160.42 158.97L249.25 237.09" stroke="black" stroke-width="1.98" stroke-miterlimit="10" stroke-linecap="round" stroke-linejoin="round"/>
<path d="M99.3101 289.17C99.3101 289.17 111.7 280.56 115.48 289.17C119.26 297.78 132.28 313.11 149.92 314.58C149.92 314.58 155.17 320.88 149.92 327.6C144.67 334.32 98.8901 410.13 86.5001 414.54C76.2101 418.11 29.1701 394.8 40.0901 372.96C51.0101 351.12 99.3101 289.17 99.3101 289.17Z" fill="#0068A1" stroke="black" stroke-width="1.98" stroke-miterlimit="10" stroke-linecap="round" stroke-linejoin="round"/>
<path d="M124.09 301.35C124.09 301.35 125.35 332.01 135.22 350.07" stroke="black" stroke-width="1.98" stroke-miterlimit="10" stroke-linecap="round" stroke-linejoin="round"/>
<path d="M95.3203 294.42C95.3203 294.42 108.13 354.69 119.26 374.43" stroke="black" stroke-width="1.98" stroke-miterlimit="10" stroke-linecap="round" stroke-linejoin="round"/>
<path d="M82.3003 311.64C82.3003 311.64 90.7003 381.99 103.09 397.32" stroke="black" stroke-width="1.98" stroke-miterlimit="10" stroke-linecap="round" stroke-linejoin="round"/>
<path d="M64.8701 337.68C64.8701 337.68 78.3101 403.2 82.3001 415.17" stroke="black" stroke-width="1.98" stroke-miterlimit="10" stroke-linecap="round" stroke-linejoin="round"/>
<path d="M49.54 358.89L57.94 404.88" stroke="black" stroke-width="1.98" stroke-miterlimit="10" stroke-linecap="round" stroke-linejoin="round"/>
<path d="M332.62 22.05C332.62 22.05 231.19 -46.2 153.49 78.33C153.49 78.33 120.73 119.49 142.99 215.25C142.99 215.25 144.04 260.61 114.85 287.07C114.85 287.07 118 311.01 148.24 314.58C148.24 314.58 187.3 265.23 216.91 264.18C246.52 263.13 318.34 259.56 362.65 191.73C406.96 124.11 374.41 47.25 332.62 22.05ZM158.53 267.75C158.53 267.75 161.26 247.8 166.09 234.57C166.09 234.57 179.32 249.27 188.35 250.53C188.35 250.53 166.09 260.82 158.53 267.75ZM337.87 184.38C326.32 204.75 255.13 265.02 192.13 222.81C129.13 180.6 179.74 86.94 179.74 86.94C246.94 -13.02 326.11 48.51 326.11 48.51C378.82 92.4 349.21 164.22 337.87 184.38Z" fill="#AFC5D8" stroke="black" stroke-width="1.98" stroke-miterlimit="10" stroke-linecap="round" stroke-linejoin="round"/>
<path d="M158.74 225.33C158.74 225.33 177.22 250.53 195.28 251.16Z" fill="#AFC5D8"/>
<path d="M158.74 225.33C158.74 225.33 177.22 250.53 195.28 251.16" stroke="black" stroke-width="1.98" stroke-miterlimit="10" stroke-linecap="round" stroke-linejoin="round"/>
</svg>
