<?xml version="1.0" encoding="utf-8"?>
<!-- Generator: Adobe Illustrator 16.0.0, SVG Export Plug-In . SVG Version: 6.00 Build 0)  -->
<!DOCTYPE svg PUBLIC "-//W3C//DTD SVG 1.1//EN" "http://www.w3.org/Graphics/SVG/1.1/DTD/svg11.dtd">
<svg version="1.1" id="Layer_1" xmlns="http://www.w3.org/2000/svg" xmlns:xlink="http://www.w3.org/1999/xlink" x="0px" y="0px"
	 width="168px" height="200px" viewBox="0 0 168 200" style="enable-background:new 0 0 168 200;" xml:space="preserve">
<style type="text/css">
<![CDATA[
	.st0{fill:none;stroke:#000000;stroke-width:1.98;stroke-linecap:round;stroke-linejoin:round;stroke-miterlimit:10;}
	.st1{fill:#AFC5D8;stroke:#000000;stroke-width:1.98;stroke-linecap:round;stroke-linejoin:round;stroke-miterlimit:10;}
	.st2{fill:#0068A1;stroke:#000000;stroke-width:1.98;stroke-linecap:round;stroke-linejoin:round;stroke-miterlimit:10;}
	.st3{fill:none;}
	.st4{stroke:#000000;stroke-width:1.98;stroke-linecap:round;stroke-linejoin:round;stroke-miterlimit:10;}
]]>
</style>
<g>
	<line class="st4" x1="98.9" y1="16.4" x2="61.9" y2="61.8"/>
	<line class="st4" x1="116.1" y1="14.5" x2="61.9" y2="84.4"/>
	<line class="st4" x1="128.6" y1="17.5" x2="66.4" y2="97.7"/>
	<line class="st4" x1="138.1" y1="22.5" x2="75.3" y2="106.2"/>
	<line class="st4" x1="147.4" y1="32.6" x2="87.2" y2="111.7"/>
	<line class="st4" x1="101.5" y1="111.7" x2="153.1" y2="48.1"/>
	<line class="st4" x1="153.1" y1="64.3" x2="120.9" y2="106.2"/>
	<line class="st4" x1="114.4" y1="14.3" x2="152" y2="42.9"/>
	<line class="st4" x1="153.1" y1="62.2" x2="98.9" y2="16.4"/>
	<line class="st4" x1="84.3" y1="24.6" x2="149" y2="78.4"/>
	<line class="st4" x1="143.2" y1="90" x2="72.4" y2="37.2"/>
	<line class="st4" x1="66.4" y1="48.1" x2="133.2" y2="99.7"/>
	<line class="st4" x1="63.6" y1="59.8" x2="120.9" y2="107.3"/>
	<line class="st4" x1="60.2" y1="75.7" x2="102.5" y2="112.9"/>
	<path class="st2" d="M31.1,137.7c0,0,5.9-4.1,7.7,0c1.8,4.1,8,11.4,16.4,12.1c0,0,2.5,3,0,6.2s-24.3,39.3-30.2,41.4
		c-4.9,1.7-27.3-9.4-22.1-19.8C8.1,167.2,31.1,137.7,31.1,137.7z"/>
	<path class="st0" d="M42.9,143.5c0,0,0.6,14.6,5.3,23.2"/>
	<path class="st0" d="M29.2,140.2c0,0,6.1,28.7,11.4,38.1"/>
	<path class="st0" d="M23,148.4c0,0,4,33.5,9.9,40.8"/>
	<path class="st0" d="M14.7,160.8c0,0,6.4,31.2,8.3,36.9"/>
	<line class="st0" x1="7.4" y1="170.9" x2="11.4" y2="192.8"/>
	<path class="st3" d="M139,23.1c0,0-37.7-29.3-69.7,18.3c0,0-24,44.6,5.9,64.7c30,20.1,64-8.7,69.4-18.3
		C150.1,78.2,164.2,44,139,23.1z"/>
	<path class="st1" d="M142.2,10.5c0,0-48.3-32.5-85.3,26.8c0,0-15.6,19.6-5,65.2c0,0,0.5,21.6-13.4,34.2c0,0,1.5,11.4,15.9,13.1
		c0,0,18.6-23.5,32.7-24s48.3-2.2,69.4-34.5C177.6,59.1,162.1,22.5,142.2,10.5z M59.3,127.5c0,0,1.3-9.5,3.6-15.8
		c0,0,6.3,7,10.6,7.6C73.5,119.3,62.9,124.2,59.3,127.5z M144.7,87.8c-5.5,9.7-39.4,38.4-69.4,18.3c-30-20.1-5.9-64.7-5.9-64.7
		c32-47.6,69.7-18.3,69.7-18.3C164.2,44,150.1,78.2,144.7,87.8z"/>
	<path class="st1" d="M59.4,107.3c0,0,8.8,12,17.4,12.3"/>
</g>
</svg>
