<svg width="420" height="420" viewBox="0 0 420 420" fill="none" xmlns="http://www.w3.org/2000/svg">
<rect width="420" height="420" fill="white"/>
<g clip-path="url(#clip0_72_14)">
<path d="M145.98 348.249C176.038 318.191 181.186 279.498 160.428 258.739C139.836 238.147 116.586 227.519 70.9178 273.187C40.8597 303.245 24.253 353.398 45.0114 374.156C65.7697 394.914 115.922 378.308 145.98 348.249Z" fill="#AFAFAF"/>
<path d="M45.6757 373.492C66.6002 394.084 127.215 370.336 157.273 340.278C158.435 339.116 159.598 337.953 160.76 336.791C161.258 336.293 161.757 335.795 162.089 335.462C162.753 334.798 163.417 334.134 163.915 333.304C164.58 332.639 164.912 331.975 165.41 331.477C165.908 330.979 166.24 330.314 166.738 329.816C167.403 329.152 167.901 328.322 168.399 327.491C168.731 327.159 168.897 326.661 169.23 326.329C169.728 325.498 170.392 324.834 170.89 324.004C171.222 323.672 171.222 323.34 171.554 323.007C172.053 322.177 172.717 321.181 173.215 320.35C173.381 320.184 173.381 319.852 173.547 319.686C174.045 318.856 174.71 317.859 175.042 316.863C175.208 316.697 175.208 316.697 175.208 316.365C175.872 315.368 176.204 314.372 176.536 313.375L176.703 313.209C177.201 312.047 177.533 311.051 178.031 310.22C184.176 294.112 181.02 280.66 174.544 269.866C174.378 269.7 174.544 269.534 174.378 269.368C171.887 263.223 175.706 257.079 178.861 253.591L200.616 234.826L184.508 219.382L168.731 237.151C168.731 237.151 159.265 248.942 149.634 244.956C149.468 244.79 149.301 244.956 149.135 244.79C138.341 238.313 124.89 235.158 108.781 241.302C107.785 241.635 106.622 242.133 105.792 242.631L105.626 242.797C104.629 243.129 103.633 243.793 102.637 244.126C102.471 244.292 102.471 244.292 102.138 244.292C101.308 244.79 100.146 245.288 99.3153 245.786C99.1493 245.952 98.8172 245.952 98.6511 246.118C97.8208 246.617 96.9904 247.115 95.994 247.779C95.6619 248.111 95.3298 248.111 94.9976 248.443C94.1673 248.942 93.337 249.44 92.6727 250.104C92.3405 250.436 91.8423 250.602 91.5102 250.934C90.6799 251.433 90.0156 252.097 89.1853 252.595C88.6871 253.093 88.0228 253.425 87.5246 253.924C87.0264 254.422 86.1961 254.92 85.6979 255.418C85.0336 256.082 84.3693 256.747 83.539 257.245C83.0408 257.743 82.7087 258.075 82.2105 258.573C81.048 259.736 79.8855 260.898 78.7231 262.061C48.9971 292.119 25.0835 352.567 45.6757 373.492Z" fill="#AFAFAF"/>
<path d="M45.6757 373.492C46.1739 373.99 46.5061 374.322 46.8382 374.654C28.2387 352.733 49.4953 296.27 79.0552 266.71C80.2176 265.548 81.3801 264.386 82.5426 263.223C83.0408 262.725 83.539 262.227 83.8711 261.895C84.5354 261.23 85.1997 260.566 86.03 260.068C86.6943 259.404 87.3585 259.071 87.8567 258.573C88.3549 258.075 89.0192 257.743 89.5174 257.245C90.1817 256.58 91.012 256.082 91.8423 255.584C92.1745 255.252 92.6727 255.086 93.0048 254.754C93.8351 254.255 94.4994 253.591 95.3297 253.093C95.6619 252.761 95.994 252.761 96.3261 252.429C97.1565 251.931 98.1529 251.266 98.9832 250.768C99.1493 250.602 99.4814 250.602 99.6475 250.436C100.478 249.938 101.474 249.273 102.471 248.941C102.637 248.775 102.637 248.775 102.969 248.775C103.965 248.111 104.962 247.779 105.958 247.447L106.124 247.281C107.287 246.782 108.283 246.45 109.113 245.952C125.222 239.808 138.673 242.963 149.468 249.44C149.634 249.606 149.8 249.44 149.966 249.606C157.937 252.927 165.576 245.62 167.735 242.465L206.595 204.269L184.84 219.381L166.24 239.974C162.753 243.129 156.442 247.447 150.132 244.79C149.966 244.624 149.8 244.79 149.634 244.624C138.839 238.147 125.388 234.992 109.279 241.136C108.283 241.468 107.12 241.967 106.29 242.465L106.124 242.631C105.128 242.963 104.131 243.627 103.135 243.959C102.969 244.125 102.969 244.125 102.637 244.125C101.806 244.624 100.644 245.122 99.8135 245.62C99.6475 245.786 99.3153 245.786 99.1493 245.952C98.3189 246.45 97.4886 246.949 96.4922 247.613C96.1601 247.945 95.8279 247.945 95.4958 248.277C94.6655 248.775 93.8351 249.273 93.1709 249.938C92.8387 250.27 92.3405 250.436 92.0084 250.768C91.1781 251.266 90.5138 251.931 89.6835 252.429C89.1853 252.927 88.521 253.259 88.0228 253.757C87.5246 254.255 86.6943 254.754 86.1961 255.252C85.5318 255.916 84.8675 256.58 84.0372 257.079C83.539 257.577 83.2069 257.909 82.7087 258.407C81.5462 259.57 80.3837 260.732 79.2212 261.895C48.9971 292.119 25.0834 352.567 45.6757 373.492Z" fill="#999999"/>
<path d="M198.457 236.985L372.329 73.7409C379.636 66.4339 379.47 54.6432 372.329 47.5023C365.022 40.1954 353.232 40.3614 346.091 47.5023L182.847 221.374L198.457 236.985Z" fill="#FFB000"/>
<path opacity="0.7" d="M219.714 192.478C221.873 190.319 225.194 190.319 227.353 192.478C229.512 194.637 229.512 197.959 227.353 200.117C225.194 202.276 221.873 202.276 219.714 200.117C217.389 198.125 217.555 194.637 219.714 192.478Z" fill="#F88138"/>
<path opacity="0.7" d="M335.462 76.7298C337.621 74.5709 340.942 74.5709 343.101 76.7298C345.26 78.8886 345.26 82.21 343.101 84.3689C340.942 86.5277 337.621 86.5277 335.462 84.3689C333.303 82.21 333.303 78.8886 335.462 76.7298Z" fill="#F88138"/>
<path d="M182.681 221.208L185.504 224.031L348.084 53.8125C355.39 46.5056 367.181 46.6717 374.322 53.8125C375.651 55.1411 376.647 56.4696 377.643 58.1303C377.145 53.9786 375.485 50.3251 372.329 47.1699C365.022 39.8629 353.232 40.029 346.091 47.1699L182.681 221.208Z" fill="#FFA138"/>
<path d="M196.963 238.479L201.945 233.497L186.168 217.721L181.186 222.703L196.963 238.479Z" fill="#F8A138"/>
<path d="M218.053 197.461C218.385 196.464 218.717 195.468 219.548 194.637C221.707 192.479 225.028 192.479 227.187 194.637C228.017 195.468 228.515 196.298 228.681 197.461C229.013 195.8 228.681 193.807 227.353 192.479C225.194 190.32 221.873 190.32 219.714 192.479C218.219 193.973 217.721 195.8 218.053 197.461Z" fill="#F88138"/>
<path d="M333.968 81.546C334.3 80.5496 334.632 79.5532 335.462 78.7228C337.621 76.564 340.943 76.564 343.102 78.7228C343.932 79.5532 344.43 80.3835 344.596 81.546C344.928 79.8853 344.596 77.8925 343.268 76.564C341.109 74.4051 337.787 74.4051 335.629 76.564C334.134 78.0586 333.636 79.8853 333.968 81.546Z" fill="#F88138"/>
</g>
<defs>
<clipPath id="clip0_72_14">
<rect width="469.708" height="117.427" fill="white" transform="translate(417.167 85.0332) rotate(135)"/>
</clipPath>
</defs>
</svg>
