<svg width="420" height="420" viewBox="0 0 420 420" fill="none" xmlns="http://www.w3.org/2000/svg">
<g clip-path="url(#clip0_72_15)">
<rect width="420" height="420" fill="white"/>
<g clip-path="url(#clip1_72_15)">
<path d="M60.632 350.422C60.632 350.422 67.1735 354.834 71.8895 351.335C76.6054 347.836 198.612 226.742 198.612 226.742C198.612 226.742 204.545 219.288 204.545 216.854L188.724 219.592L60.632 350.422Z" fill="#C3C7C8" stroke="black" stroke-width="2" stroke-miterlimit="10" stroke-linecap="round" stroke-linejoin="round"/>
<path d="M246.076 209.4C246.076 209.4 237.405 234.805 232.689 244.998C227.973 255.19 220.518 264.774 200.59 277.401C180.813 290.18 90.4491 353.769 81.7778 354.53C73.1065 355.29 70.9767 352.552 70.9767 352.552L82.0821 347.836C82.0821 347.836 198.764 266.448 204.697 261.123C210.63 255.799 218.693 250.17 223.561 238C228.581 225.982 236.036 211.225 236.036 211.225L246.076 209.4Z" fill="#C3C7C8" stroke="black" stroke-width="2" stroke-miterlimit="10" stroke-linecap="round" stroke-linejoin="round"/>
<path d="M129.698 315.129C162.862 287.746 211.087 262.949 218.845 247.28C223.409 238.152 232.232 219.288 232.232 219.288C232.232 219.288 248.967 185.82 256.573 177.605C256.573 177.605 320.923 110.821 326.4 98.9548C332.028 87.241 335.679 65.6388 306.471 56.2069C277.11 46.6228 263.114 49.0569 251.705 61.075C236.948 76.4399 226.908 98.3463 227.669 121.926C228.277 140.486 227.669 163.305 224.322 172.128C220.975 180.952 205.458 219.897 199.981 225.677C194.353 231.61 71.129 352.704 71.129 352.704C71.129 352.704 96.5343 342.816 129.698 315.129ZM245.62 132.575C244.098 126.49 244.859 94.391 253.682 85.8718C262.506 77.3527 280.457 76.1357 293.54 81.0037C306.623 85.8718 300.842 100.78 297.343 105.801C293.996 110.669 279.392 127.099 269.656 136.835C259.92 146.571 258.246 144.593 258.246 144.593C253.835 144.441 247.141 138.66 245.62 132.575Z" fill="#DF4A5D" stroke="black" stroke-width="2" stroke-miterlimit="10" stroke-linecap="round" stroke-linejoin="round"/>
<path d="M189.028 219.592L236.036 210.921L257.486 206.509C257.486 206.509 268.287 206.965 290.65 214.724C313.012 222.482 342.677 218.983 370.973 194.947C399.269 170.911 389.381 142.463 384.36 130.749C371.734 100.476 342.221 112.037 340.547 113.407C338.722 114.928 329.594 108.234 320.771 113.102C312.1 118.123 304.189 127.25 307.536 137.595L266.157 178.061C266.157 178.061 180.357 177.148 169.099 191.144C157.994 205.292 53.4821 338.1 53.4821 338.1C53.4821 338.1 46.4842 344.489 49.3746 362.288L189.028 219.592ZM298.408 161.935L335.984 130.141C335.984 130.141 347.089 123.903 355.912 137.595C364.584 151.134 366.561 165.587 352.109 178.517C337.809 191.6 319.554 195.251 300.081 184.907C280.457 175.018 298.408 161.935 298.408 161.935Z" fill="#DF4A5D" stroke="black" stroke-width="2" stroke-miterlimit="10" stroke-linecap="round" stroke-linejoin="round"/>
<path d="M234.362 211.377C234.362 211.377 222.344 195.099 229.038 179.278" stroke="black" stroke-width="2" stroke-miterlimit="10"/>
<path d="M206.979 192.513C204.627 194.866 204.627 198.68 206.979 201.033C209.332 203.385 213.146 203.385 215.498 201.033C217.851 198.68 217.851 194.866 215.498 192.513C213.146 190.161 209.332 190.161 206.979 192.513Z" fill="#C3C7C8" stroke="black" stroke-miterlimit="10"/>
</g>
</g>
<defs>
<clipPath id="clip0_72_15">
<rect width="420" height="420" fill="white"/>
</clipPath>
<clipPath id="clip1_72_15">
<rect width="415.223" height="187.173" fill="white" transform="translate(419.958 152.352) rotate(135)"/>
</clipPath>
</defs>
</svg>
