<?xml version="1.0" encoding="utf-8"?>
<!-- Generator: Adobe Illustrator 16.0.0, SVG Export Plug-In . SVG Version: 6.00 Build 0)  -->
<!DOCTYPE svg PUBLIC "-//W3C//DTD SVG 1.1//EN" "http://www.w3.org/Graphics/SVG/1.1/DTD/svg11.dtd">
<svg version="1.1" id="레이어_1" xmlns="http://www.w3.org/2000/svg" xmlns:xlink="http://www.w3.org/1999/xlink" x="0px"
	 y="0px" width="200px" height="50px" viewBox="0 0 200 50" style="enable-background:new 0 0 200 50;" xml:space="preserve">
<style type="text/css">
<![CDATA[
	.st0{fill:#AFAFAF;}
	.st1{fill:#F88138;}
	.st2{fill:#F8A138;}
	.st3{opacity:0.7;fill:#F88138;}
	.st4{fill:#999999;}
	.st5{fill:#FFA138;}
	.st6{fill:#FFB000;}
]]>
</style>
<g>
	<path class="st0" d="M160.9,2.4c-18.1,0-31.3,10.1-31.3,22.6c0,12.4,3.8,22.6,31.3,22.6c18.1,0,38.2-10.1,38.2-22.6
		C199.1,12.5,179,2.4,160.9,2.4z"/>
</g>
<g>
	<path class="st0" d="M198.7,25L198.7,25C198.7,25,198.7,25,198.7,25C198.7,25,198.7,25,198.7,25C198.7,25,198.7,25,198.7,25
		C198.7,25,198.7,25,198.7,25C198.7,25,198.7,25,198.7,25C198.7,25,198.7,25,198.7,25L198.7,25c-0.1-12.5-25.5-23.6-43.6-23.6
		c-0.7,0-1.4,0-2.1,0c-0.3,0-0.6,0-0.8,0c-0.4,0-0.8,0-1.2,0.1c-0.4,0-0.7,0.1-1,0.1c-0.3,0-0.6,0.1-0.9,0.1c-0.4,0-0.8,0.1-1.2,0.2
		c-0.2,0-0.4,0.1-0.6,0.1c-0.4,0.1-0.8,0.1-1.2,0.2c-0.2,0-0.3,0.1-0.5,0.1c-0.4,0.1-0.9,0.2-1.3,0.3c-0.1,0-0.2,0.1-0.3,0.1
		c-0.4,0.1-0.9,0.2-1.3,0.4c-0.1,0-0.1,0-0.2,0.1c-0.5,0.1-0.9,0.3-1.3,0.5c0,0-0.1,0-0.1,0c-0.5,0.2-0.9,0.4-1.3,0.5c0,0,0,0,0,0
		c-6.7,3-9.8,8-11.1,13.2c0,0.1-0.1,0.1-0.1,0.2c-1.1,2.6-4.1,3.3-6.1,3.4l-12.2-0.9l0.2,9.5l10.1-0.6c0,0,0,0,0,0s6.4-0.7,8.1,3.4
		c0,0.1,0.1,0.1,0.1,0.2c1.3,5.2,4.4,10.2,11.1,13.2c0,0,0,0,0,0c0.4,0.2,0.9,0.4,1.3,0.5c0,0,0.1,0,0.1,0c0.4,0.2,0.9,0.3,1.3,0.5
		c0.1,0,0.1,0,0.2,0.1c0.4,0.1,0.9,0.3,1.3,0.4c0.1,0,0.2,0.1,0.3,0.1c0.4,0.1,0.8,0.2,1.3,0.3c0.2,0,0.3,0.1,0.5,0.1
		c0.4,0.1,0.8,0.2,1.2,0.2c0.2,0,0.4,0.1,0.6,0.1c0.4,0.1,0.8,0.1,1.2,0.2c0.3,0,0.6,0.1,0.9,0.1c0.3,0,0.7,0.1,1,0.1
		c0.4,0,0.8,0,1.2,0.1c0.3,0,0.5,0,0.8,0c0.7,0,1.4,0,2.1,0C173.2,48.5,198.6,37.5,198.7,25z"/>
	<path class="st4" d="M198.7,25L198.7,25C198.7,25,198.7,25,198.7,25C198.7,25,198.7,25,198.7,25C198.7,25,198.7,25,198.7,25
		C198.7,25,198.7,25,198.7,25C198.7,25,198.7,25,198.7,25C198.7,25,198.7,25,198.7,25L198.7,25c0-0.3,0-0.5,0-0.7
		c-1,12.2-24.4,22.8-42.2,22.8c-0.7,0-1.4,0-2.1,0c-0.3,0-0.6,0-0.8,0c-0.4,0-0.8,0-1.2-0.1c-0.4,0-0.7-0.1-1-0.1
		c-0.3,0-0.6-0.1-0.9-0.1c-0.4,0-0.8-0.1-1.2-0.2c-0.2,0-0.4-0.1-0.6-0.1c-0.4-0.1-0.8-0.1-1.2-0.2c-0.2,0-0.3-0.1-0.5-0.1
		c-0.4-0.1-0.9-0.2-1.3-0.3c-0.1,0-0.2-0.1-0.3-0.1c-0.4-0.1-0.9-0.2-1.3-0.4c-0.1,0-0.1,0-0.2-0.1c-0.5-0.1-0.9-0.3-1.3-0.5
		c0,0-0.1,0-0.1,0c-0.5-0.2-0.9-0.4-1.3-0.5c0,0,0,0,0,0c-6.7-3-9.8-8-11.1-13.2c0-0.1-0.1-0.1-0.1-0.2c-1.4-3.4-5.9-3.5-7.5-3.2
		l-23.2-0.2l11.1,2l11.8-0.6c2,0.1,5.2,0.7,6.3,3.4c0,0.1,0.1,0.1,0.1,0.2c1.3,5.2,4.4,10.2,11.1,13.2c0,0,0,0,0,0
		c0.4,0.2,0.9,0.4,1.3,0.5c0,0,0.1,0,0.1,0c0.4,0.2,0.9,0.3,1.3,0.5c0.1,0,0.1,0,0.2,0.1c0.4,0.1,0.9,0.3,1.3,0.4
		c0.1,0,0.2,0.1,0.3,0.1c0.4,0.1,0.8,0.2,1.3,0.3c0.2,0,0.3,0.1,0.5,0.1c0.4,0.1,0.8,0.2,1.2,0.2c0.2,0,0.4,0.1,0.6,0.1
		c0.4,0.1,0.8,0.1,1.2,0.2c0.3,0,0.6,0.1,0.9,0.1c0.3,0,0.7,0.1,1,0.1c0.4,0,0.8,0,1.2,0.1c0.3,0,0.5,0,0.8,0c0.7,0,1.4,0,2.1,0
		C173.2,48.5,198.6,37.5,198.7,25z"/>
</g>
<path class="st6" d="M111.6,20.1L10.1,16.9c-4.4,0-7.9,3.6-7.9,7.9l0,0c0,4.4,3.6,7.9,7.9,7.9l101.5-3.2V20.1z"/>
<path class="st3" d="M91.8,27.1c-1.3,0-2.3-1-2.3-2.3c0-1.3,1-2.3,2.3-2.3c1.3,0,2.3,1,2.3,2.3C94.2,26.1,93.1,27.1,91.8,27.1z"/>
<path class="st3" d="M22.1,27.1c-1.3,0-2.3-1-2.3-2.3c0-1.3,1-2.3,2.3-2.3c1.3,0,2.3,1,2.3,2.3C24.4,26.1,23.4,27.1,22.1,27.1z"/>
<path class="st5" d="M111.6,29.6v-1.7L11.4,30.2c-4.4,0-7.9-3.6-7.9-7.9c0-0.8,0.1-1.5,0.3-2.3c-1.1,1.4-1.7,3-1.7,4.9
	c0,4.4,3.6,7.9,7.9,7.9L111.6,29.6z"/>
<rect x="109.5" y="20.1" class="st2" width="3" height="9.5"/>
<path class="st1" d="M93.8,26.1c-0.4,0.2-0.8,0.4-1.3,0.4c-1.3,0-2.3-1-2.3-2.3c0-0.5,0.1-0.9,0.4-1.3c-0.6,0.4-1.1,1.1-1.1,1.9
	c0,1.3,1,2.3,2.3,2.3C92.7,27.1,93.4,26.7,93.8,26.1z"/>
<path class="st1" d="M24,26.1c-0.4,0.2-0.8,0.4-1.3,0.4c-1.3,0-2.3-1-2.3-2.3c0-0.5,0.1-0.9,0.4-1.3c-0.6,0.4-1.1,1.1-1.1,1.9
	c0,1.3,1,2.3,2.3,2.3C22.9,27.1,23.6,26.7,24,26.1z"/>
</svg>
