<?xml version="1.0" encoding="utf-8"?>
<!-- Generator: Adobe Illustrator 16.0.0, SVG Export Plug-In . SVG Version: 6.00 Build 0)  -->
<!DOCTYPE svg PUBLIC "-//W3C//DTD SVG 1.1//EN" "http://www.w3.org/Graphics/SVG/1.1/DTD/svg11.dtd">
<svg version="1.1" id="레이어_1" xmlns="http://www.w3.org/2000/svg" xmlns:xlink="http://www.w3.org/1999/xlink" x="0px"
	 y="0px" width="193px" height="87px" viewBox="0 0 193 87" style="enable-background:new 0 0 193 87;" xml:space="preserve">
<style type="text/css">
<![CDATA[
	.st0{fill:#C3C7C8;stroke:#000000;stroke-miterlimit:10;}
	.st1{fill:#C3C7C8;stroke:#000000;stroke-width:2;stroke-linecap:round;stroke-linejoin:round;stroke-miterlimit:10;}
	.st2{fill:#DF4A5D;stroke:#000000;stroke-width:2;stroke-linecap:round;stroke-linejoin:round;stroke-miterlimit:10;}
	.st3{fill:none;stroke:#000000;stroke-width:2;stroke-miterlimit:10;}
]]>
</style>
<path class="st1" d="M183.2,53c0,0-0.7-3.6-3.4-4c-2.7-0.4-82.6-0.7-82.6-0.7s-4.4,0.5-5.2,1.3l6.1,4.3L183.2,53z"/>
<path class="st1" d="M75.9,38.4c0,0,11.2-5.5,16.1-7.3c4.9-1.8,10.5-2.5,21.2-0.1c10.7,2.3,61.3,11.1,64.4,13.7
	c3.1,2.6,2.9,4.2,2.9,4.2l-5.2-2.1c0,0-65.1-11.6-68.8-11.8c-3.7-0.2-8.2-1-13.8,1.4c-5.6,2.3-12.9,4.7-12.9,4.7L75.9,38.4z"/>
<path class="st2" d="M148.9,41.9C129,40,105,32.3,97.3,34.9c-4.5,1.5-13.6,4.8-13.6,4.8S67.2,45.2,62,45.4c0,0-43.1,0.8-48.8,2.9
	c-5.7,2-14,7.9-7.5,20.6c6.5,12.8,11.9,16.6,19.6,16.4c9.9-0.2,20.4-4.1,27.9-12.1c5.9-6.3,13.6-13.6,17.6-15.4
	c4-1.8,21.9-9.5,25.6-9.6c3.8-0.1,84.1,0.6,84.1,0.6S168.9,43.7,148.9,41.9z M50.8,63.8c-1.5,2.5-12.3,12.8-18,12.7
	c-5.7-0.1-12-5.6-14.7-11.5c-2.7-5.9,4.1-8.9,6.9-9.4c2.7-0.5,12.9-1.1,19.3-1.1c6.4,0,6.3,1.2,6.3,1.2C52,57.2,52.3,61.3,50.8,63.8
	z"/>
<path class="st2" d="M98,53.8L79.7,41.2l-8.5-5.6c0,0-3.4-3.7-8.2-13.6C58.2,12.1,47.3,3.5,30.1,2.1C12.9,0.7,6.8,13.3,4.6,18.8
	c-5.8,14.1,7.7,20,8.7,20.1c1.1,0.1,1.9,5.3,6.4,6.6c4.5,1.2,10.1,0.8,12.4-3.7l26.9,0.3c0,0,27.9,28.5,36.2,27.6
	c8.3-1,86.3-10.3,86.3-10.3s4.4,0.2,9.3-6.6L98,53.8z M43.1,36.8l-22.8-1.9c0,0-5.7-1.6-4.1-9c1.6-7.3,5.7-12.7,14.7-12.2
	c9,0.4,16.2,5.2,19.2,15C53.3,38.4,43.1,36.8,43.1,36.8z"/>
<path class="st3" d="M80.4,41.6c0,0-1.4,9.3-8.8,12.3"/>
<ellipse class="st0" cx="83.2" cy="54" rx="2.8" ry="2.8"/>
</svg>
