<?xml version="1.0" encoding="utf-8"?>
<!-- Generator: Adobe Illustrator 16.0.0, SVG Export Plug-In . SVG Version: 6.00 Build 0)  -->
<!DOCTYPE svg PUBLIC "-//W3C//DTD SVG 1.1//EN" "http://www.w3.org/Graphics/SVG/1.1/DTD/svg11.dtd">
<svg version="1.1" id="레이어_1" xmlns="http://www.w3.org/2000/svg" xmlns:xlink="http://www.w3.org/1999/xlink" x="0px"
	 y="0px" width="146px" height="200px" viewBox="0 0 146 200" style="enable-background:new 0 0 146 200;" xml:space="preserve">
<style type="text/css">
<![CDATA[
	.st0{fill:#B75B00;}
	.st1{fill:#8C4015;}
	.st2{fill:#F26623;}
	.st3{opacity:0.3;}
	.st4{fill:#FFB000;}
	.st5{fill:#DB511B;}
]]>
</style>
<path class="st3" d="M126.4,72.7c0.8-1.2,1.4-2.4,1.7-3.7l0.2-0.3l-0.1,0c0.2-1,0.3-1.9,0.3-2.9c-0.9-14.1-32.8-24.1-71.2-22.4
	c-21.3,1-40.2,5.4-52.6,11.5C13.8,44.7,40,37.3,70.9,37.3c38.4,0,69.6,11.5,69.6,25.6c0,1-0.2,2-0.5,2.9h0.1l-0.2,0.3
	c-0.4,1.2-1.1,2.4-1.9,3.6"/>
<path class="st5" d="M76.9,194.5c0,1.7-1.4,3.1-3.1,3.1l0,0c-1.7,0-3.1-1.4-3.1-3.1v-62.2c0-1.7,1.4-3.1,3.1-3.1l0,0
	c1.7,0,3.1,1.4,3.1,3.1V194.5z"/>
<path class="st2" d="M141.9,65.8L141.9,65.8l-0.1,0.3c-0.4,1.2-1.1,2.4-1.9,3.6l-31.6,58l-74-6L5.8,69.8c-0.9-1.2-1.6-2.5-2.1-3.7
	l-0.2-0.3h0.1c-0.3-1-0.5-1.9-0.5-2.9c0-14.1,31.2-25.6,69.6-25.6c38.4,0,69.6,11.5,69.6,25.6C142.4,63.9,142.2,64.8,141.9,65.8z"/>
<path class="st4" d="M116,108.6c-0.2,0.1-0.5,0.1-0.7,0.2c-1.2,0.3-2.3,0.6-3.6,0.9c-0.1,0-0.2,0-0.3,0.1c-1.2,0.3-2.4,0.5-3.7,0.8
	c-0.2,0-0.3,0.1-0.4,0.1c-1.3,0.3-2.7,0.5-4.1,0.8c-0.1,0-0.2,0-0.3,0c-2.9,0.5-5.9,0.9-9.1,1.3c0,0-0.1,0-0.1,0
	c-3.2,0.4-6.4,0.6-9.8,0.8h0h0c-3.7,0.2-7.5,0.3-11.4,0.3c-5,0-9.8-0.2-14.5-0.5c-0.2,0-0.4,0-0.6,0c-1.5-0.1-3-0.3-4.4-0.4
	c-0.2,0-0.4,0-0.6-0.1c-1.4-0.2-2.9-0.3-4.2-0.5c-0.1,0-0.1,0-0.2,0c-1.4-0.2-2.8-0.4-4.2-0.6c-0.3,0-0.5-0.1-0.8-0.1
	c-1.3-0.2-2.7-0.5-4-0.7c-0.1,0-0.3-0.1-0.4-0.1c-1.2-0.2-2.4-0.5-3.5-0.7c-0.2,0-0.4-0.1-0.6-0.1c-1.2-0.3-2.4-0.6-3.5-0.9
	c-0.2-0.1-0.5-0.1-0.7-0.2c-1.2-0.3-2.3-0.6-3.4-1l39.5,71.7c0.6,1.4,1.3,2.7,2,3.7c1.6,2.3,3.3,3.5,5.1,3.5c1.7,0,3.4-1.2,4.9-3.3
	c0.9-1.2,1.7-2.8,2.5-4.6l38.6-71.3C118.3,108,117.2,108.3,116,108.6z"/>
<path class="st3" d="M142.4,62.9c0-14.1-31.2-25.6-69.6-25.6c-30.9,0-57,7.4-66.1,17.6c12.4-6.1,31.2-10.6,52.6-11.5
	c38.4-1.8,70.2,8.3,71.2,22.4c0.1,1,0,2-0.3,2.9l0.1,0L130,69c-0.3,1.2-0.9,2.5-1.7,3.7L111,109.9l-35.5,76.4c1-0.6,1.9-1.5,2.7-2.7
	c0,0,0,0,0,0l2.5-4.6l0.9-1.7l37.7-69.6l20.5-38c0.9-1.2,1.5-2.3,1.9-3.6l0.2-0.3h-0.1C142.2,64.8,142.4,63.9,142.4,62.9z"/>
<ellipse class="st5" cx="72.6" cy="62.2" rx="70.3" ry="24.9"/>
<ellipse class="st2" cx="72.6" cy="57.3" rx="33.1" ry="11.7"/>
<path class="st1" d="M94.1,54.5L94.1,54.5l0-12.5H51v12.5h0c0,0.1,0,0.2,0,0.3c0,4.2,9.7,7.6,21.6,7.6c11.9,0,21.6-3.4,21.6-7.6
	C94.2,54.6,94.2,54.6,94.1,54.5z"/>
<path class="st0" d="M94.2,42.2c0,4.2-9.7,7.6-21.6,7.6c-11.9,0-21.6-3.4-21.6-7.6c0-4.2,9.7-7.6,21.6-7.6
	C84.5,34.6,94.2,38,94.2,42.2z"/>
<g>
	<path class="st1" d="M80.6,42.4L80.6,42.4l0-37.2H64.5v37.2h0c0,0,0,0.1,0,0.1c0,1.6,3.6,2.8,8,2.8C77,45.4,80.6,44.1,80.6,42.4
		C80.6,42.5,80.6,42.5,80.6,42.4z"/>
	<ellipse class="st0" cx="72.6" cy="5.3" rx="8" ry="2.8"/>
</g>
</svg>
