<?xml version="1.0" encoding="utf-8"?>
<!-- Generator: Adobe Illustrator 16.0.0, SVG Export Plug-In . SVG Version: 6.00 Build 0)  -->
<!DOCTYPE svg PUBLIC "-//W3C//DTD SVG 1.1//EN" "http://www.w3.org/Graphics/SVG/1.1/DTD/svg11.dtd">
<svg version="1.1" id="레이어_1" xmlns="http://www.w3.org/2000/svg" xmlns:xlink="http://www.w3.org/1999/xlink" x="0px"
	 y="0px" width="200px" height="127px" viewBox="0 0 200 127" style="enable-background:new 0 0 200 127;" xml:space="preserve">
<style type="text/css">
<![CDATA[
	.st0{fill:#FBB03B;stroke:#000000;stroke-width:2;stroke-linecap:round;stroke-linejoin:round;stroke-miterlimit:10;}
	.st1{fill:#443E3D;stroke:#000000;stroke-width:2;stroke-linecap:round;stroke-linejoin:round;stroke-miterlimit:10;}
	.st2{fill:#FFE600;stroke:#000000;stroke-width:2;stroke-linecap:round;stroke-linejoin:round;stroke-miterlimit:10;}
	.st3{fill:none;stroke:#000000;stroke-width:1.5;stroke-linecap:round;stroke-linejoin:round;stroke-miterlimit:10;}
	.st4{fill:#FBB03B;stroke:#000000;stroke-width:0.4394;stroke-linecap:round;stroke-linejoin:round;stroke-miterlimit:10;}
	.st5{fill:#FC0000;stroke:#000000;stroke-width:1.5;stroke-linecap:round;stroke-linejoin:round;stroke-miterlimit:10;}
	.st6{fill:#FBB03B;stroke:#000000;stroke-width:0.3941;stroke-linecap:round;stroke-linejoin:round;stroke-miterlimit:10;}
	.st7{fill:#FC0000;stroke:#000000;stroke-width:2;stroke-linecap:round;stroke-linejoin:round;stroke-miterlimit:10;}
	.st8{fill:#FC0000;stroke:#000000;stroke-width:0.5;stroke-linecap:round;stroke-linejoin:round;stroke-miterlimit:10;}
	.st9{fill:#00BAF3;stroke:#000000;stroke-width:2;stroke-linecap:round;stroke-linejoin:round;stroke-miterlimit:10;}
	.st10{fill:#FBB03B;stroke:#000000;stroke-width:0.5;stroke-linecap:round;stroke-linejoin:round;stroke-miterlimit:10;}
	.st11{fill:#FBB03B;stroke:#000000;stroke-width:0.4307;stroke-linecap:round;stroke-linejoin:round;stroke-miterlimit:10;}
]]>
</style>
<g>
	<line class="st3" x1="75.4" y1="97.7" x2="6.4" y2="76.4"/>
	<line class="st3" x1="69.8" y1="108.7" x2="12" y2="65.4"/>
	<line class="st3" x1="61" y1="117.1" x2="20.8" y2="57.1"/>
	<line class="st3" x1="49.5" y1="122.2" x2="32.3" y2="52"/>
	<line class="st3" x1="36.4" y1="122.9" x2="45.4" y2="51.2"/>
	<line class="st3" x1="24.7" y1="119.3" x2="57.1" y2="54.8"/>
	<line class="st3" x1="14.7" y1="111.9" x2="67.1" y2="62.2"/>
	<line class="st3" x1="7.7" y1="101.3" x2="74.1" y2="72.8"/>
	<line class="st3" x1="4.9" y1="89.5" x2="76.9" y2="84.6"/>
</g>
<g>
	<line class="st3" x1="193.4" y1="91.6" x2="124.3" y2="70.4"/>
	<line class="st3" x1="187.8" y1="102.7" x2="129.9" y2="59.3"/>
	<line class="st3" x1="179" y1="111" x2="138.7" y2="51"/>
	<line class="st3" x1="167.4" y1="116.1" x2="150.3" y2="45.9"/>
	<line class="st3" x1="154.4" y1="116.8" x2="163.3" y2="45.2"/>
	<line class="st3" x1="142.6" y1="113.3" x2="175.1" y2="48.7"/>
	<line class="st3" x1="132.6" y1="105.9" x2="185.1" y2="56.1"/>
	<line class="st3" x1="125.6" y1="95.3" x2="192" y2="66.7"/>
	<line class="st3" x1="122.8" y1="83.5" x2="194.9" y2="78.5"/>
</g>
<path class="st1" d="M43,124.8C21.7,126,3,109.9,1.7,88.7c-1.2-21.3,14.9-40,36.2-41.2c21.2-1.3,39.9,14.9,41.2,36.1
	C80.3,104.8,64.6,123.5,43,124.8L43,124.8z M38.3,53C20,54.2,6,70,7.3,88.7c1.3,18.3,17,32.3,35.7,31s32.3-17,31-35.7
	C72.7,65.7,56.5,51.7,38.3,53L38.3,53z"/>
<path class="st2" d="M62.1,44.5c-0.4,0-1.3,0-2.1,0c-1.3,0-1.7-0.4-2.5-0.4c-0.9,5.5-4.7,18.7-16.1,39.1c-2.1,0-4.2,2.1-4.2,4.2
	c0,2.5,2.1,4.2,4.2,4.2s4.2-2.1,4.2-4.2c0-0.4,0-1.3-0.4-1.7C57.4,64,61.2,50,62.1,44.5z"/>
<rect x="98.2" y="58" transform="matrix(0.9995 3.060457e-02 -3.060457e-02 0.9995 1.8967 -3.1713)" class="st2" width="12.7" height="4.7"/>
<path class="st5" d="M107.6,60.6c0-1.7-1.4-3.1-3.1-3.1s-3.1,1.4-3.1,3.1c0,1,0.5,2,1.3,2.5L99,78.9l2.5,0.4l3.7-15.7
	C106.6,63.3,107.6,62.1,107.6,60.6z"/>
<g>
	<path class="st1" d="M160.6,118.4c-21.2,1.3-39.5-15.3-40.8-36.5c-1.3-21.2,15.3-39.5,36.5-40.8c21.2-1.3,39.5,15.3,40.8,36.5
		C198.4,98.9,181.9,117.1,160.6,118.4L160.6,118.4z M156.8,46.2c-18.3,0.9-32.7,16.6-31.4,35.3c0.9,18.3,16.6,32.7,35.3,31.4
		c18.3-0.9,32.7-16.6,31.4-35.3C190.8,59.3,175.1,45.3,156.8,46.2L156.8,46.2z"/>
</g>
<polygon class="st0" points="99,98.4 158.5,84.8 158.5,78.5 106.2,72.1 98.6,81 "/>
<path class="st2" d="M122.8,37.7c-1.7,0-3.4-1.3-3.4-3.4V22.8c0-1.7,1.3-3.4,3.4-3.4c2.1,0,3.4,1.3,3.4,3.4v11.9
	C125.8,36.4,124.5,37.7,122.8,37.7L122.8,37.7z"/>
<path class="st2" d="M44.2,31.3c-4.2,0-9.3-0.9-12.7-3.4c-2.5-2.1-4.2-5.5-4.2-8.9s1.3-6.8,3.4-9.3C37,3.3,49.7,2,59.5,2
	c3,0,16.2,0.2,17.4,4.9c0.4,1.3-5.6,4.4-6.4,2.7c-2.1-0.8-6.8-1.7-11-1.7c-11.9,0-20.8,2.1-24.2,5.9c-1.3,1.3-2.1,2.5-2.1,4.7
	s0.9,3.4,2.1,4.2c3.8,3,11.5,2.1,14.4,1.7c1.7-0.4,3.4,0.9,3.8,2.5c0.4,1.7-0.9,3.4-2.5,3.8C50.6,30.9,47.6,31.3,44.2,31.3
	L44.2,31.3z"/>
<path class="st9" d="M138.5,20.7c0,0,0,6.8-7.6,7.2c-7.6,0.4-17,0.8-22.1,0c-5.1-0.9-8.5-2.5-7.6-5.5c0.4-3,2.6-4.2,9.8-5.1
	c7.2-0.9,14.4-5.5,19.5-5.1C135.6,13,138.5,16.4,138.5,20.7z"/>
<path class="st7" d="M159.4,76.8c-8.1-10.2-33.1-40.8-33.6-41.6c-0.8-0.8-2.1-1.3-3.8-0.8l-57,1.2L64.2,36
	c0.4-6.8,0.4-17.7-1.3-33.9C61.2,2.1,60,2,59.1,2c-1.3,0-2.5,0.1-3.4,0.1c2.5,28.5,0,41.1,0,41.1s0.8,1.3,3.8,1.3s3.8-0.4,3.8-0.4
	s0-0.9,0.4-2.5l37.8,45l53.5-2.5c0.9,0.8,2.1,1.7,3.4,1.7c2.6,0,4.2-2.1,4.2-4.2C162.7,78.9,161.5,77.2,159.4,76.8z M100.3,78.5
	L68,39.8l51-1.3L100.3,78.5z M123.2,39l31.9,39.5c-0.4,0.4-0.4,0.9-0.9,1.3l-51,2.5L123.2,39z"/>
<path class="st2" d="M77.8,30c-7.6,0-24.2,0-24.2-10.6c0-8.1,11-11.5,16.6-13.6c0.8-0.4,5.6-2.3,6.7,1.1s-3.4,4.9-4.6,5.3
	c-8.1,3-12.3,4.7-12.3,7.2c0,3,5.9,4.2,17.8,4.2c1.7,0,3,1.3,3,3C80.8,28.3,79.5,30,77.8,30L77.8,30z"/>
<path class="st8" d="M37.9,30.6c5.9,1.3,12.7,0.2,13.2,0.2c1.7-0.4,3-2.1,2.5-3.8c-0.4-1.7-2.1-3-3.8-2.5c-2.1,0.4-7.2,1.2-11-0.1
	C38.8,24.4,39.6,27.7,37.9,30.6z"/>
<path class="st10" d="M41.3,24.9c0,0,1.4,2.8-0.3,6.2c0.4,0,0.8,0.1,1.2,0.1c1.3-3,0.8-5.4,0.4-6.3C42.1,24.9,41.7,24.9,41.3,24.9
	L41.3,24.9z"/>
<path class="st10" d="M45.9,31.3c1.3-3,0.4-5.5,0-6.4c-0.4,0-0.8,0-1.3,0l0,0c0,0,1.3,3,0,6.4C45.5,31.3,45.9,31.3,45.9,31.3z"/>
<path class="st10" d="M48.5,24.5L48.5,24.5c0,0,1.7,2.5,0.4,6.4c0.4,0,0.8,0,1.3,0c0.9-3,0-5.5-0.4-6.4
	C49.3,24.5,48.9,24.5,48.5,24.5z"/>
<circle class="st2" cx="99" cy="85.7" r="12.7"/>
<rect x="87.6" y="106" transform="matrix(0.9995 3.059995e-02 -3.059995e-02 0.9995 3.3877 -2.9265)" class="st2" width="19.5" height="6.4"/>
<path class="st5" d="M104.2,86.5c0-3-2.5-5.5-5.5-5.5s-5.5,2.5-5.5,5.5c0,2.4,1.5,4.4,3.6,5.2L96,105.1c-0.8,0.3-1.4,0.8-1.9,1.4
	c-0.1,0.1-0.2,0.2-0.3,0.3l0,0c-0.5,0.7-0.8,1.5-0.8,2.3c0,0.1,0,0.1,0,0.2l0,0c0,0.1,0,0.3,0,0.4c0,0.1,0,0.2,0,0.3
	c0.3,2.1,2.2,3.8,4.4,3.8c2.5,0,4.5-2,4.5-4.5c0-2-1.3-3.6-3-4.2L99.7,92C102.3,91.4,104.2,89.2,104.2,86.5z"/>
<path class="st7" d="M77.4,23.7c-5.1,0-9.8-0.4-12.3-0.9c0.6,0.9,0.5,4.3-0.4,6.4C68.9,30,74.4,30,77.4,30c1.7,0,3.4-1.3,3.4-3.4
	S79.1,23.7,77.4,23.7z"/>
<path class="st11" d="M72.9,24.1c0,0,1.1,2.6-0.3,5.5l0,0c0.3,0,0.8,0,1.1,0c1.1-2.6,0.3-4.7,0.3-5.5C73.6,24.1,73.2,24.1,72.9,24.1
	L72.9,24.1z"/>
<path class="st6" d="M76.6,24.4c0,0,1,2.4-0.3,5l0,0c0.3,0,0.6,0,1,0c1-2.4,0.3-4.3,0.3-5C77.3,24.4,76.9,24.4,76.6,24.4L76.6,24.4z
	"/>
<path class="st4" d="M69,23.6c0,0,1.1,2.6-0.4,5.6l0,0c0.4,0,0.7,0,1.1,0c1.5-2.6,0.7-4.8,0.4-5.6C69.7,23.6,69.3,23.6,69,23.6
	L69,23.6z"/>
</svg>
