<svg width="420" height="420" viewBox="0 0 420 420" fill="none" xmlns="http://www.w3.org/2000/svg">
<rect width="420" height="420" fill="white"/>
<path d="M81.6899 194.93C124.32 194.93 158.97 229.58 158.97 272.21C158.97 314.84 124.32 349.49 81.6899 349.49C39.0599 349.49 4.40991 315.05 4.40991 272.42C4.40991 229.58 39.0599 194.93 81.6899 194.93Z" fill="#56463D" stroke="black" stroke-width="2" stroke-miterlimit="10" stroke-linecap="round" stroke-linejoin="round"/>
<path d="M81.69 313.37C104.306 313.37 122.64 295.036 122.64 272.42C122.64 249.804 104.306 231.47 81.69 231.47C59.0739 231.47 40.74 249.804 40.74 272.42C40.74 295.036 59.0739 313.37 81.69 313.37Z" fill="white" stroke="black" stroke-miterlimit="10" stroke-linecap="round" stroke-linejoin="round"/>
<path d="M81.69 308.12C101.407 308.12 117.39 292.137 117.39 272.42C117.39 252.704 101.407 236.72 81.69 236.72C61.9734 236.72 45.99 252.704 45.99 272.42C45.99 292.137 61.9734 308.12 81.69 308.12Z" fill="#4C97C8" stroke="black" stroke-miterlimit="10" stroke-linecap="round" stroke-linejoin="round"/>
<path d="M17.8501 283.55C15.1201 283.55 12.8101 281.45 12.8101 278.51C11.7601 244.28 31.0801 226.64 31.9201 225.8C34.0201 223.91 37.3801 224.12 39.2701 226.22C41.1601 228.32 40.9501 231.47 38.8501 233.57C38.0101 234.2 22.0501 249.11 23.1001 278.3C23.1001 281.03 21.0001 283.55 17.8501 283.55Z" fill="white" stroke="black" stroke-miterlimit="10" stroke-linecap="round" stroke-linejoin="round"/>
<path d="M20.37 298.25C23.5014 298.25 26.0399 295.712 26.0399 292.58C26.0399 289.449 23.5014 286.91 20.37 286.91C17.2385 286.91 14.7 289.449 14.7 292.58C14.7 295.712 17.2385 298.25 20.37 298.25Z" fill="white" stroke="black" stroke-miterlimit="10" stroke-linecap="round" stroke-linejoin="round"/>
<path d="M253.05 339.41C290.048 339.41 320.04 309.418 320.04 272.42C320.04 235.423 290.048 205.43 253.05 205.43C216.053 205.43 186.06 235.423 186.06 272.42C186.06 309.418 216.053 339.41 253.05 339.41Z" fill="#473B35" stroke="black" stroke-width="2" stroke-miterlimit="10" stroke-linecap="round" stroke-linejoin="round"/>
<path d="M274.68 239.24H238.14C234.57 239.24 232.05 240.92 232.05 243.65C231.84 248.69 238.14 249.74 238.14 249.74C234.78 249.74 232.05 251.42 232.05 254.15C232.05 258.98 238.14 260.24 238.14 260.24C234.78 260.24 232.05 261.92 232.05 264.65C232.05 269.06 237.51 269.9 237.51 269.9C234.78 270.32 232.89 272 232.89 274.1C232.05 276.62 234.57 279.35 237.3 279.35L273 283.76C276.57 283.76 277.41 239.24 274.68 239.24Z" fill="#CA8066" stroke="black" stroke-width="2" stroke-miterlimit="10" stroke-linecap="round" stroke-linejoin="round"/>
<path d="M273 297.62C273 297.62 272.16 297.62 271.32 297.62C253.89 295.1 240.03 293.21 230.37 292.37C195.51 288.8 192.99 287.12 179.13 254.15C177.45 249.74 175.56 245.54 173.04 241.13C150.36 189.68 94.7101 182.75 93.8701 182.75C89.4601 181.91 86.1001 177.5 86.1001 173.09C86.1001 168.68 91.3501 165.32 95.7601 165.32C98.2801 165.32 161.91 173.93 187.95 233.99C190.47 239.24 192.36 243.65 194.04 247.85C205.38 273.05 205.38 273.05 231.42 275.57C241.08 276.41 254.94 278.09 273.21 280.82C277.62 281.66 280.98 286.07 280.14 290.48C281.82 294.89 277.41 297.62 273 297.62Z" fill="#8FCA93" stroke="black" stroke-width="2" stroke-miterlimit="10" stroke-linecap="round" stroke-linejoin="round"/>
<path d="M35.7001 211.52C40.9501 216.77 45.3601 220.13 56.4901 214.04C56.4901 214.04 67.8301 207.95 81.6901 207.95C115.5 207.95 143.43 235.67 143.43 269.69C143.43 278.3 142.59 281.03 142.59 281.03C138.18 294.89 144.27 294.89 151.2 296.78C165.06 298.46 165.06 294.26 167.79 287.12C167.79 287.12 169.47 280.19 169.47 268.85C169.47 220.13 130.41 181.07 81.6901 181.07C60.9001 181.07 37.3801 194.93 37.3801 194.93C27.0901 203.75 29.6101 207.11 35.7001 211.52Z" fill="#CA8066" stroke="black" stroke-width="2" stroke-miterlimit="10" stroke-linecap="round" stroke-linejoin="round"/>
<path d="M82.5301 278.51C81.6901 278.51 81.6901 278.51 80.8501 278.51C77.2801 277.67 75.6001 274.1 76.4401 270.74L87.7801 227.27V188C87.7801 184.43 90.3001 181.07 94.7101 181.07C99.1201 181.07 100.8 183.59 100.8 187.16V227.06C100.8 227.9 100.8 227.9 100.8 228.74L89.4601 273.05C88.6201 275.78 86.1001 278.51 82.5301 278.51Z" fill="#75B0E0" stroke="black" stroke-width="2" stroke-miterlimit="10" stroke-linecap="round" stroke-linejoin="round"/>
<path d="M128.73 128.99C125.16 134.24 117.39 136.76 112.14 132.56L85.26 114.29C80.01 110.72 79.17 103.79 82.74 97.7001C86.31 92.4501 94.08 89.9301 99.33 93.2901L127.05 112.4C131.25 115.97 133.14 123.74 128.73 128.99Z" fill="#CA8066" stroke="black" stroke-width="2" stroke-miterlimit="10" stroke-linecap="round" stroke-linejoin="round"/>
<path d="M86.7301 92.2402C85.8901 91.6102 85.0501 91.1902 84.2101 90.7702C79.3801 88.0402 73.7101 87.2002 73.7101 87.2002C67.6201 87.2002 65.9401 89.7202 66.7801 93.2902C68.0401 97.4902 71.1901 101.9 75.6001 104.42L93.8701 102.11C91.3501 96.4402 89.2501 93.9202 86.7301 92.2402Z" fill="#4C7698" stroke="black" stroke-width="2" stroke-miterlimit="10" stroke-linecap="round" stroke-linejoin="round"/>
<path d="M94.0801 102.11C94.2901 102.74 94.5001 103.16 94.9201 103.79L97.4401 101.69L94.0801 102.11Z" fill="#4C7698" stroke="black" stroke-width="2" stroke-miterlimit="10" stroke-linecap="round" stroke-linejoin="round"/>
<path d="M217.35 113.24C213.78 120.17 206.01 123.74 200.76 121.01L171.15 106.31C165.9 103.79 164.22 94.9701 167.58 88.0401C171.15 81.1101 175.35 75.8601 181.44 78.3801L213.57 94.9701C220.08 98.5401 221.76 106.31 217.35 113.24Z" fill="#CA8066" stroke="black" stroke-width="2" stroke-miterlimit="10" stroke-linecap="round" stroke-linejoin="round"/>
<path d="M183.54 71.8702C188.16 74.3902 187.11 85.3102 181.23 96.2302C175.35 107.15 166.74 114.08 162.12 111.56C157.5 109.04 158.55 98.1202 164.43 87.2002C170.31 76.0702 178.92 69.3502 183.54 71.8702Z" fill="#8FCA93" stroke="black" stroke-width="2" stroke-miterlimit="10" stroke-linecap="round" stroke-linejoin="round"/>
<path d="M74.7599 118.49L73.9199 104.63C73.9199 104.63 87.7799 102.95 89.6699 94.9702L96.5999 101.9C96.5999 101.9 94.7099 116.81 74.7599 118.49Z" fill="#8FCA93" stroke="black" stroke-width="2" stroke-miterlimit="10" stroke-linecap="round" stroke-linejoin="round"/>
<path d="M175.56 75.8602C174.09 75.8602 138.39 63.0502 110.04 80.0602C91.56 67.0402 76.86 63.0502 66.78 71.6602C59.01 78.5902 63.21 97.7002 73.71 104.63L75.6 104.42C71.4 101.9 68.04 97.4902 66.78 93.2902C65.94 89.7202 67.62 87.2002 73.71 87.2002C73.71 87.2002 79.59 87.6202 84.21 90.7702C94.5 97.4902 94.29 102.11 94.29 102.11C93.24 110.09 91.56 124.37 87.57 151.67L113.61 153.35C115.29 122.06 117.18 110.72 118.02 106.31C135.45 89.7202 164.01 100.22 164.01 100.22C164.01 100.22 167.58 101.06 171.78 92.4502C179.13 78.5902 174.72 76.7002 175.56 75.8602Z" fill="#70AADC" stroke="black" stroke-width="2" stroke-miterlimit="10" stroke-linecap="round" stroke-linejoin="round"/>
<path d="M76.6499 182.75L81.8999 150.62C81.8999 150.62 87.9899 161.12 117.6 157.55C117.6 157.55 114.03 174.98 112.35 188.84C111.51 192.41 101.85 191.36 93.2399 189.68C83.5799 188 76.6499 182.75 76.6499 182.75Z" fill="#70AADC" stroke="black" stroke-width="2" stroke-miterlimit="10" stroke-linecap="round" stroke-linejoin="round"/>
<path d="M81.6899 150.62C84.2099 156.71 93.0299 160.28 104.37 160.28C107.94 160.28 114.87 159.44 117.39 156.71L112.98 147.05C110.46 147.89 107.73 148.73 104.37 148.73C97.4399 148.73 89.6699 146.21 87.7799 142.64L81.6899 150.62Z" fill="#8FCA93" stroke="black" stroke-width="2" stroke-miterlimit="10" stroke-linecap="round" stroke-linejoin="round"/>
<path d="M123.06 253.52L120.33 248.06L91.56 262.76C89.46 260.66 86.73 259.4 83.58 259.4C77.28 259.4 72.24 264.44 72.24 270.74C72.24 277.04 77.28 282.08 83.58 282.08C89.88 282.08 94.92 277.04 94.92 270.74C94.92 269.9 94.71 269.06 94.71 268.22L123.06 253.52Z" fill="#D3181A" stroke="black" stroke-width="2" stroke-miterlimit="10" stroke-linecap="round" stroke-linejoin="round"/>
<path d="M145.38 247.437L107.399 235.212L102.059 251.804L140.04 264.029L145.38 247.437Z" fill="#0F9143" stroke="black" stroke-width="2" stroke-miterlimit="10" stroke-linecap="round" stroke-linejoin="round"/>
<path d="M83.5801 265.49C86.5201 265.49 88.8301 267.8 88.8301 270.74C88.8301 273.68 86.5201 275.99 83.5801 275.99C80.6401 275.99 78.3301 273.68 78.3301 270.74C78.3301 267.8 80.6401 265.49 83.5801 265.49Z" fill="#0F9143" stroke="black" stroke-miterlimit="10" stroke-linecap="round" stroke-linejoin="round"/>
<path d="M122.64 244.49C125.58 244.49 127.89 246.8 127.89 249.74C127.89 252.68 125.58 254.99 122.64 254.99C119.7 254.99 117.39 252.68 117.39 249.74C117.39 246.8 119.7 244.49 122.64 244.49Z" fill="#D3181A" stroke="black" stroke-miterlimit="10" stroke-linecap="round" stroke-linejoin="round"/>
<path d="M334.74 116.81C320.04 116.81 302.61 141.17 302.61 173.3C302.61 205.43 314.79 231.47 328.65 231.47C342.51 231.47 353.85 205.43 357.42 173.3C361.62 141.17 361.62 116.81 334.74 116.81ZM336.42 173.3C334.74 189.89 329.49 203.75 322.56 203.75C314.79 203.75 316.47 189.89 316.47 173.3C316.47 156.71 322.56 143.69 333.06 143.69C339.99 144.53 338.31 156.71 336.42 173.3Z" fill="#CA8066" stroke="black" stroke-width="2" stroke-miterlimit="10" stroke-linecap="round" stroke-linejoin="round"/>
<path d="M200.97 216.77C200.97 216.77 200.97 199.34 221.76 196.82C243.39 194.3 282.66 189.05 291.27 182.12C299.04 175.19 318.15 164.69 328.65 186.53C339.15 208.16 333.9 219.5 326.97 224.75C320.04 230 278.25 243.86 253.05 242.18C228.69 240.5 216.51 236.93 208.74 231.68C201.81 226.22 200.97 225.38 200.97 216.77Z" fill="#68956C" stroke="black" stroke-width="2" stroke-miterlimit="10" stroke-linecap="round" stroke-linejoin="round"/>
<path d="M256.41 221.18C292.11 221.18 321.72 206.48 321.72 188.21C321.72 182.96 319.2 178.55 315.63 174.35C305.97 171.83 296.52 177.92 291.27 182.12C283.5 189.05 243.39 194.3 221.76 196.82C211.26 198.5 201.81 206.48 212.1 211.52C224.28 218.45 234.78 221.18 256.41 221.18Z" fill="#8FCA93" stroke="black" stroke-width="2" stroke-miterlimit="10" stroke-linecap="round" stroke-linejoin="round"/>
<path d="M237.93 249.95L275.94 252.89" stroke="black" stroke-width="2" stroke-miterlimit="10" stroke-linecap="round" stroke-linejoin="round"/>
<path d="M237.51 260.03L275.31 262.97" stroke="black" stroke-width="2" stroke-miterlimit="10" stroke-linecap="round" stroke-linejoin="round"/>
<path d="M237.51 269.9L275.31 272.84" stroke="black" stroke-width="2" stroke-miterlimit="10" stroke-linecap="round" stroke-linejoin="round"/>
<path d="M338.31 354.95C380.991 354.95 415.59 320.351 415.59 277.67C415.59 234.99 380.991 200.39 338.31 200.39C295.629 200.39 261.03 234.99 261.03 277.67C261.03 320.351 295.629 354.95 338.31 354.95Z" fill="#56463D" stroke="black" stroke-width="2" stroke-miterlimit="10" stroke-linecap="round" stroke-linejoin="round"/>
<path d="M338.31 318.62C360.926 318.62 379.26 300.286 379.26 277.67C379.26 255.054 360.926 236.72 338.31 236.72C315.694 236.72 297.36 255.054 297.36 277.67C297.36 300.286 315.694 318.62 338.31 318.62Z" fill="white" stroke="black" stroke-miterlimit="10" stroke-linecap="round" stroke-linejoin="round"/>
<path d="M338.31 313.37C358.027 313.37 374.01 297.387 374.01 277.67C374.01 257.954 358.027 241.97 338.31 241.97C318.594 241.97 302.61 257.954 302.61 277.67C302.61 297.387 318.594 313.37 338.31 313.37Z" fill="#4C97C8" stroke="black" stroke-miterlimit="10" stroke-linecap="round" stroke-linejoin="round"/>
<path d="M338.31 291.53C345.965 291.53 352.17 285.325 352.17 277.67C352.17 270.015 345.965 263.81 338.31 263.81C330.655 263.81 324.45 270.015 324.45 277.67C324.45 285.325 330.655 291.53 338.31 291.53Z" fill="white" stroke="black" stroke-miterlimit="10" stroke-linecap="round" stroke-linejoin="round"/>
<path d="M275.94 288.8C273.21 288.8 270.9 286.7 270.9 283.76C269.85 249.53 289.17 231.89 290.01 231.05C292.11 229.16 295.47 229.37 297.36 231.47C299.25 233.57 299.04 236.72 296.94 238.82C296.31 239.45 280.35 254.36 281.19 283.55C281.19 286.28 278.88 288.59 275.94 288.8Z" fill="white" stroke="black" stroke-miterlimit="10" stroke-linecap="round" stroke-linejoin="round"/>
<path d="M278.25 303.29C281.382 303.29 283.92 300.752 283.92 297.62C283.92 294.489 281.382 291.95 278.25 291.95C275.119 291.95 272.58 294.489 272.58 297.62C272.58 300.752 275.119 303.29 278.25 303.29Z" fill="white" stroke="black" stroke-miterlimit="10" stroke-linecap="round" stroke-linejoin="round"/>
</svg>
