<?xml version="1.0" encoding="utf-8"?>
<!-- Generator: Adobe Illustrator 16.0.0, SVG Export Plug-In . SVG Version: 6.00 Build 0)  -->
<!DOCTYPE svg PUBLIC "-//W3C//DTD SVG 1.1//EN" "http://www.w3.org/Graphics/SVG/1.1/DTD/svg11.dtd">
<svg version="1.1" id="레이어_1" xmlns="http://www.w3.org/2000/svg" xmlns:xlink="http://www.w3.org/1999/xlink" x="0px"
	 y="0px" width="200px" height="141px" viewBox="0 0 200 141" style="enable-background:new 0 0 200 141;" xml:space="preserve">
<style type="text/css">
<![CDATA[
	.st0{fill:none;stroke:#000000;stroke-width:2;stroke-linecap:round;stroke-linejoin:round;stroke-miterlimit:10;}
	.st1{fill:#70AADC;stroke:#000000;stroke-width:2;stroke-linecap:round;stroke-linejoin:round;stroke-miterlimit:10;}
	.st2{fill:#473B35;stroke:#000000;stroke-width:2;stroke-linecap:round;stroke-linejoin:round;stroke-miterlimit:10;}
	.st3{fill:#8FCA93;stroke:#000000;stroke-width:2;stroke-linecap:round;stroke-linejoin:round;stroke-miterlimit:10;}
	.st4{fill:#0F9143;stroke:#000000;stroke-linecap:round;stroke-linejoin:round;stroke-miterlimit:10;}
	.st5{fill:#4C97C8;stroke:#000000;stroke-linecap:round;stroke-linejoin:round;stroke-miterlimit:10;}
	.st6{fill:#68956C;stroke:#000000;stroke-width:2;stroke-linecap:round;stroke-linejoin:round;stroke-miterlimit:10;}
	.st7{fill:#FFFFFF;stroke:#000000;stroke-linecap:round;stroke-linejoin:round;stroke-miterlimit:10;}
	.st8{fill:#75B0E0;stroke:#000000;stroke-width:2;stroke-linecap:round;stroke-linejoin:round;stroke-miterlimit:10;}
	.st9{fill:#56463D;stroke:#000000;stroke-width:2;stroke-linecap:round;stroke-linejoin:round;stroke-miterlimit:10;}
	.st10{fill:#D3181A;stroke:#000000;stroke-linecap:round;stroke-linejoin:round;stroke-miterlimit:10;}
	.st11{fill:#CA8066;stroke:#000000;stroke-width:2;stroke-linecap:round;stroke-linejoin:round;stroke-miterlimit:10;}
	.st12{fill:#0F9143;stroke:#000000;stroke-width:2;stroke-linecap:round;stroke-linejoin:round;stroke-miterlimit:10;}
	.st13{fill:#D3181A;stroke:#000000;stroke-width:2;stroke-linecap:round;stroke-linejoin:round;stroke-miterlimit:10;}
	.st14{fill:#4C7698;stroke:#000000;stroke-width:2;stroke-linecap:round;stroke-linejoin:round;stroke-miterlimit:10;}
]]>
</style>
<path class="st9" d="M38.9,63.3c20.3,0,36.8,16.5,36.8,36.8c0,20.3-16.5,36.8-36.8,36.8S2.1,120.5,2.1,100.2
	C2.1,79.8,18.6,63.3,38.9,63.3z"/>
<circle class="st7" cx="38.9" cy="100.2" r="19.5"/>
<circle class="st5" cx="38.9" cy="100.2" r="17"/>
<path class="st7" d="M8.5,105.5c-1.3,0-2.4-1-2.4-2.4C5.6,86.8,14.8,78.4,15.2,78c1-0.9,2.6-0.8,3.5,0.2c0.9,1,0.8,2.5-0.2,3.5
	c-0.4,0.3-8,7.4-7.5,21.3C11,104.3,10,105.5,8.5,105.5C8.6,105.5,8.5,105.5,8.5,105.5z"/>
<circle class="st7" cx="9.7" cy="109.8" r="2.7"/>
<circle class="st2" cx="120.5" cy="100.2" r="31.9"/>
<path class="st11" d="M130.8,84.4h-17.4c-1.7,0-2.9,0.8-2.9,2.1c-0.1,2.4,2.9,2.9,2.9,2.9c-1.6,0-2.9,0.8-2.9,2.1
	c0,2.3,2.9,2.9,2.9,2.9c-1.6,0-2.9,0.8-2.9,2.1c0,2.1,2.6,2.5,2.6,2.5c-1.3,0.2-2.2,1-2.2,2c-0.4,1.2,0.8,2.5,2.1,2.5l17,2.1
	C131.7,105.6,132.1,84.4,130.8,84.4z"/>
<path class="st3" d="M130,112.2c0,0-0.4,0-0.8,0c-8.3-1.2-14.9-2.1-19.5-2.5c-16.6-1.7-17.8-2.5-24.4-18.2c-0.8-2.1-1.7-4.1-2.9-6.2
	C71.6,60.8,45.1,57.5,44.7,57.5C42.6,57.1,41,55,41,52.9s2.5-3.7,4.6-3.7c1.2,0,31.5,4.1,43.9,32.7c1.2,2.5,2.1,4.6,2.9,6.6
	c5.4,12,5.4,12,17.8,13.2c4.6,0.4,11.2,1.2,19.9,2.5c2.1,0.4,3.7,2.5,3.3,4.6C134.2,110.9,132.1,112.2,130,112.2z"/>
<path class="st11" d="M17,71.2c2.5,2.5,4.6,4.1,9.9,1.2c0,0,5.4-2.9,12-2.9c16.1,0,29.4,13.2,29.4,29.4c0,4.1-0.4,5.4-0.4,5.4
	c-2.1,6.6,0.8,6.6,4.1,7.5l0,0c6.6,0.8,6.6-1.2,7.9-4.6c0,0,0.8-3.3,0.8-8.7c0-23.2-18.6-41.8-41.8-41.8c-9.9,0-21.1,6.6-21.1,6.6
	C12.9,67.5,14.1,69.1,17,71.2L17,71.2z"/>
<path class="st8" d="M39.3,103.1c-0.4,0-0.4,0-0.8,0c-1.7-0.4-2.5-2.1-2.1-3.7l5.4-20.7V60c0-1.7,1.2-3.3,3.3-3.3s2.9,1.2,2.9,2.9
	v19c0,0.4,0,0.4,0,0.8l-5.4,21.1C42.2,101.8,41,103.1,39.3,103.1z"/>
<path class="st11" d="M61.3,31.9c-1.7,2.5-5.4,3.7-7.9,1.7l-12.8-8.7c-2.5-1.7-2.9-5-1.2-7.9l0,0c1.7-2.5,5.4-3.7,7.9-2.1L60.5,24
	C62.5,25.7,63.4,29.4,61.3,31.9L61.3,31.9z"/>
<g>
	<path class="st14" d="M41.3,14.4c-0.4-0.3-0.8-0.5-1.2-0.7c-2.3-1.3-5-1.7-5-1.7c-2.9,0-3.7,1.2-3.3,2.9c0.6,2,2.1,4.1,4.2,5.3
		l8.7-1.1C43.5,16.4,42.5,15.2,41.3,14.4z"/>
	<path class="st14" d="M44.8,19.1c0.1,0.3,0.2,0.5,0.4,0.8l1.2-1L44.8,19.1z"/>
</g>
<path class="st11" d="M103.5,24.4c-1.7,3.3-5.4,5-7.9,3.7l-14.1-7c-2.5-1.2-3.3-5.4-1.7-8.7l0,0c1.7-3.3,3.7-5.8,6.6-4.6l15.3,7.9
	C104.8,17.4,105.6,21.1,103.5,24.4L103.5,24.4z"/>
<path class="st3" d="M87.4,4.7c2.2,1.2,1.7,6.4-1.1,11.6c-2.8,5.2-6.9,8.5-9.1,7.3c-2.2-1.2-1.7-6.4,1.1-11.6
	C81.1,6.7,85.2,3.5,87.4,4.7z"/>
<path class="st3" d="M35.6,26.9l-0.4-6.6c0,0,6.6-0.8,7.5-4.6L46,19C46,19,45.1,26.1,35.6,26.9z"/>
<path class="st1" d="M83.6,6.6c-0.7,0-17.7-6.1-31.2,2c-8.8-6.2-15.8-8.1-20.6-4c-3.7,3.3-1.7,12.4,3.3,15.7l0.9-0.1
	c-2-1.2-3.6-3.3-4.2-5.3c-0.4-1.7,0.4-2.9,3.3-2.9c0,0,2.8,0.2,5,1.7c4.9,3.2,4.8,5.4,4.8,5.4c-0.5,3.8-1.3,10.6-3.2,23.6l12.4,0.8
	c0.8-14.9,1.7-20.3,2.1-22.4c8.3-7.9,21.9-2.9,21.9-2.9s1.7,0.4,3.7-3.7C85.3,7.9,83.2,7,83.6,6.6z"/>
<path class="st1" d="M36.5,57.5L39,42.2c0,0,2.9,5,17,3.3c0,0-1.7,8.3-2.5,14.9c-0.4,1.7-5,1.2-9.1,0.4C39.8,60,36.5,57.5,36.5,57.5
	z"/>
<path class="st3" d="M38.9,42.2c1.2,2.9,5.4,4.6,10.8,4.6c1.7,0,5-0.4,6.2-1.7l-2.1-4.6c-1.2,0.4-2.5,0.8-4.1,0.8
	c-3.3,0-7-1.2-7.9-2.9L38.9,42.2z"/>
<path class="st13" d="M58.6,91.2l-1.3-2.6l-13.7,7c-1-1-2.3-1.6-3.8-1.6c-3,0-5.4,2.4-5.4,5.4s2.4,5.4,5.4,5.4s5.4-2.4,5.4-5.4
	c0-0.4-0.1-0.8-0.1-1.2L58.6,91.2z"/>
<rect x="49.4" y="85.2" transform="matrix(0.9519 0.3064 -0.3064 0.9519 30.224 -13.7561)" class="st12" width="19" height="8.3"/>
<path class="st4" d="M39.8,96.9c1.4,0,2.5,1.1,2.5,2.5c0,1.4-1.1,2.5-2.5,2.5c-1.4,0-2.5-1.1-2.5-2.5C37.3,98,38.4,96.9,39.8,96.9z"
	/>
<path class="st10" d="M58.4,86.9c1.4,0,2.5,1.1,2.5,2.5c0,1.4-1.1,2.5-2.5,2.5c-1.4,0-2.5-1.1-2.5-2.5C55.9,88,57,86.9,58.4,86.9z"
	/>
<path class="st11" d="M159.4,26.1c-7,0-15.3,11.6-15.3,26.9s5.8,27.7,12.4,27.7s12-12.4,13.7-27.7C172.2,37.7,172.2,26.1,159.4,26.1
	z M160.2,53c-0.8,7.9-3.3,14.5-6.6,14.5c-3.7,0-2.9-6.6-2.9-14.5s2.9-14.1,7.9-14.1C161.9,39.3,161.1,45.1,160.2,53z"/>
<path class="st6" d="M95.7,73.7c0,0,0-8.3,9.9-9.5c10.3-1.2,29-3.7,33.1-7c3.7-3.3,12.8-8.3,17.8,2.1c5,10.3,2.5,15.7-0.8,18.2
	c-3.3,2.5-23.2,9.1-35.2,8.3c-11.6-0.8-17.4-2.5-21.1-5C96.1,78.2,95.7,77.8,95.7,73.7z"/>
<path class="st3" d="M122.1,75.8c17,0,31.1-7,31.1-15.7c0-2.5-1.2-4.6-2.9-6.6c-4.6-1.2-9.1,1.7-11.6,3.7c-3.7,3.3-22.8,5.8-33.1,7
	c-5,0.8-9.5,4.6-4.6,7C106.8,74.5,111.8,75.8,122.1,75.8z"/>
<line class="st0" x1="113.3" y1="89.5" x2="131.4" y2="90.9"/>
<line class="st0" x1="113.1" y1="94.3" x2="131.1" y2="95.7"/>
<line class="st0" x1="113.1" y1="99" x2="131.1" y2="100.4"/>
<circle class="st9" cx="161.1" cy="102.7" r="36.8"/>
<circle class="st7" cx="161.1" cy="102.7" r="19.5"/>
<circle class="st5" cx="161.1" cy="102.7" r="17"/>
<circle class="st7" cx="161.1" cy="102.7" r="6.6"/>
<path class="st7" d="M131.4,108c-1.3,0-2.4-1-2.4-2.4c-0.5-16.3,8.7-24.7,9.1-25.1c1-0.9,2.6-0.8,3.5,0.2s0.8,2.5-0.2,3.5
	c-0.3,0.3-7.9,7.4-7.5,21.3C133.9,106.8,132.8,107.9,131.4,108L131.4,108z"/>
<circle class="st7" cx="132.5" cy="112.2" r="2.7"/>
</svg>
