<svg width="420" height="420" viewBox="0 0 420 420" fill="none" xmlns="http://www.w3.org/2000/svg">
<rect width="420" height="420" fill="white"/>
<path d="M158.34 282.17L13.4399 237.44" stroke="black" stroke-width="1.5" stroke-miterlimit="10" stroke-linecap="round" stroke-linejoin="round"/>
<path d="M146.58 305.27L25.2 214.34" stroke="black" stroke-width="1.5" stroke-miterlimit="10" stroke-linecap="round" stroke-linejoin="round"/>
<path d="M128.1 322.91L43.6799 196.91" stroke="black" stroke-width="1.5" stroke-miterlimit="10" stroke-linecap="round" stroke-linejoin="round"/>
<path d="M103.95 333.62L67.8301 186.2" stroke="black" stroke-width="1.5" stroke-miterlimit="10" stroke-linecap="round" stroke-linejoin="round"/>
<path d="M76.4399 335.09L95.3399 184.52" stroke="black" stroke-width="1.5" stroke-miterlimit="10" stroke-linecap="round" stroke-linejoin="round"/>
<path d="M51.8701 327.53L119.91 192.08" stroke="black" stroke-width="1.5" stroke-miterlimit="10" stroke-linecap="round" stroke-linejoin="round"/>
<path d="M30.8701 311.99L140.91 207.62" stroke="black" stroke-width="1.5" stroke-miterlimit="10" stroke-linecap="round" stroke-linejoin="round"/>
<path d="M16.1699 289.73L155.61 229.88" stroke="black" stroke-width="1.5" stroke-miterlimit="10" stroke-linecap="round" stroke-linejoin="round"/>
<path d="M10.29 264.95L161.49 254.66" stroke="black" stroke-width="1.5" stroke-miterlimit="10" stroke-linecap="round" stroke-linejoin="round"/>
<path d="M406.14 269.36L261.03 224.84" stroke="black" stroke-width="1.5" stroke-miterlimit="10" stroke-linecap="round" stroke-linejoin="round"/>
<path d="M394.38 292.67L272.79 201.53" stroke="black" stroke-width="1.5" stroke-miterlimit="10" stroke-linecap="round" stroke-linejoin="round"/>
<path d="M375.9 310.1L291.27 184.1" stroke="black" stroke-width="1.5" stroke-miterlimit="10" stroke-linecap="round" stroke-linejoin="round"/>
<path d="M351.54 320.81L315.63 173.39" stroke="black" stroke-width="1.5" stroke-miterlimit="10" stroke-linecap="round" stroke-linejoin="round"/>
<path d="M324.24 322.28L342.93 171.92" stroke="black" stroke-width="1.5" stroke-miterlimit="10" stroke-linecap="round" stroke-linejoin="round"/>
<path d="M299.46 314.93L367.71 179.27" stroke="black" stroke-width="1.5" stroke-miterlimit="10" stroke-linecap="round" stroke-linejoin="round"/>
<path d="M278.46 299.39L388.71 194.81" stroke="black" stroke-width="1.5" stroke-miterlimit="10" stroke-linecap="round" stroke-linejoin="round"/>
<path d="M263.76 277.13L403.2 217.07" stroke="black" stroke-width="1.5" stroke-miterlimit="10" stroke-linecap="round" stroke-linejoin="round"/>
<path d="M257.88 252.35L409.29 241.85" stroke="black" stroke-width="1.5" stroke-miterlimit="10" stroke-linecap="round" stroke-linejoin="round"/>
<path d="M90.2999 339.08C45.5699 341.6 6.29992 307.79 3.56992 263.27C1.04992 218.54 34.8599 179.27 79.5899 176.75C124.11 174.02 163.38 208.04 166.11 252.56C168.63 297.08 135.66 336.35 90.2999 339.08ZM80.4299 188.3C41.9999 190.82 12.5999 224 15.3299 263.27C18.0599 301.7 51.0299 331.1 90.2999 328.37C129.57 325.64 158.13 292.67 155.4 253.4C152.67 214.97 118.65 185.57 80.4299 188.3Z" fill="#443E3D" stroke="black" stroke-width="2" stroke-miterlimit="10" stroke-linecap="round" stroke-linejoin="round"/>
<path d="M130.41 170.45C129.57 170.45 127.68 170.45 126 170.45C123.27 170.45 122.43 169.61 120.75 169.61C118.86 181.16 110.88 208.88 86.9401 251.72C82.5301 251.72 78.1201 256.13 78.1201 260.54C78.1201 265.79 82.5301 269.36 86.9401 269.36C91.3501 269.36 95.7601 264.95 95.7601 260.54C95.7601 259.7 95.7601 257.81 94.9201 256.97C120.54 211.4 128.52 182 130.41 170.45Z" fill="#FFE600" stroke="black" stroke-width="2" stroke-miterlimit="10" stroke-linecap="round" stroke-linejoin="round"/>
<path d="M233.029 199.207L206.372 198.391L206.07 208.256L232.727 209.072L233.029 199.207Z" fill="#FFE600" stroke="black" stroke-width="2" stroke-miterlimit="10" stroke-linecap="round" stroke-linejoin="round"/>
<path d="M225.96 204.26C225.96 200.69 223.02 197.75 219.45 197.75C215.88 197.75 212.94 200.69 212.94 204.26C212.94 206.36 213.99 208.46 215.67 209.51L207.9 242.69L213.15 243.53L220.92 210.56C223.86 209.93 225.96 207.41 225.96 204.26Z" fill="#FC0000" stroke="black" stroke-width="1.5" stroke-miterlimit="10" stroke-linecap="round" stroke-linejoin="round"/>
<path d="M337.26 325.64C292.74 328.37 254.31 293.51 251.58 248.99C248.85 204.47 283.71 166.04 328.23 163.31C372.75 160.58 411.18 195.44 413.91 239.96C416.64 284.69 381.99 322.91 337.26 325.64ZM329.28 174.02C290.85 175.91 260.61 208.88 263.34 248.15C265.23 286.58 298.2 316.82 337.47 314.09C375.9 312.2 406.14 279.23 403.41 239.96C400.68 201.53 367.71 172.13 329.28 174.02Z" fill="#443E3D" stroke="black" stroke-width="2" stroke-miterlimit="10" stroke-linecap="round" stroke-linejoin="round"/>
<path d="M207.9 283.64L332.85 255.08V241.85L223.02 228.41L207.06 247.1L207.9 283.64Z" fill="#FBB03B" stroke="black" stroke-width="2" stroke-miterlimit="10" stroke-linecap="round" stroke-linejoin="round"/>
<path d="M257.88 156.17C254.31 156.17 250.74 153.44 250.74 149.03V124.88C250.74 121.31 253.47 117.74 257.88 117.74C262.29 117.74 265.02 120.47 265.02 124.88V149.87C264.18 153.44 261.45 156.17 257.88 156.17Z" fill="#FFE600" stroke="black" stroke-width="2" stroke-miterlimit="10" stroke-linecap="round" stroke-linejoin="round"/>
<path d="M92.8201 142.73C84.0001 142.73 73.2901 140.84 66.1501 135.59C60.9001 131.18 57.3301 124.04 57.3301 116.9C57.3301 109.76 60.0601 102.62 64.4701 97.3702C77.7001 83.9302 104.37 81.2002 124.95 81.2002C131.25 81.2002 158.97 81.6202 161.49 91.4902C162.33 94.2202 149.73 100.73 148.05 97.1602C143.64 95.4802 133.77 93.5902 124.95 93.5902C99.9601 93.5902 81.2701 98.0002 74.1301 105.98C71.4001 108.71 69.7201 111.23 69.7201 115.85C69.7201 120.47 71.6101 122.99 74.1301 124.67C82.1101 130.97 98.2801 129.08 104.37 128.24C107.94 127.4 111.51 130.13 112.35 133.49C113.19 137.06 110.46 140.63 107.1 141.47C106.26 141.89 99.9601 142.73 92.8201 142.73Z" fill="#FFE600" stroke="black" stroke-width="2" stroke-miterlimit="10" stroke-linecap="round" stroke-linejoin="round"/>
<path d="M290.85 120.47C290.85 120.47 290.85 134.75 274.89 135.59C258.93 136.43 239.19 137.27 228.48 135.59C217.77 133.7 210.63 130.34 212.52 124.04C213.36 117.74 217.98 115.22 233.1 113.33C248.22 111.44 263.34 101.78 274.05 102.62C284.76 104.3 290.85 111.44 290.85 120.47Z" fill="#00BAF3" stroke="black" stroke-width="2" stroke-miterlimit="10" stroke-linecap="round" stroke-linejoin="round"/>
<path d="M334.74 238.28C317.73 216.86 265.23 152.6 264.18 150.92C262.5 149.24 259.77 148.19 256.2 149.24L136.5 151.76L134.82 152.6C135.66 138.32 135.66 115.43 132.09 81.4102C128.52 81.4102 126 81.2002 124.11 81.2002C121.38 81.2002 118.86 81.4102 116.97 81.4102C122.22 141.26 116.97 167.72 116.97 167.72C116.97 167.72 118.65 170.45 124.95 170.45C131.25 170.45 132.93 169.61 132.93 169.61C132.93 169.61 132.93 167.72 133.77 164.36L213.15 258.86L325.5 253.61C327.39 255.29 329.91 257.18 332.64 257.18C338.1 257.18 341.46 252.77 341.46 248.36C341.67 242.69 339.15 239.12 334.74 238.28ZM210.63 241.85L142.8 160.58L249.9 157.85L210.63 241.85ZM258.72 158.9L325.71 241.85C324.87 242.69 324.87 243.74 323.82 244.58L216.72 249.83L258.72 158.9Z" fill="#FC0000" stroke="black" stroke-width="2" stroke-miterlimit="10" stroke-linecap="round" stroke-linejoin="round"/>
<path d="M163.38 140C147.42 140 112.56 140 112.56 117.74C112.56 100.73 135.66 93.5899 147.42 89.1799C149.1 88.3399 159.18 84.3499 161.49 91.4899C163.8 98.6299 154.35 101.78 151.83 102.62C134.82 108.92 126 112.49 126 117.74C126 124.04 138.39 126.56 163.38 126.56C166.95 126.56 169.68 129.29 169.68 132.86C169.68 136.43 166.95 140 163.38 140Z" fill="#FFE600" stroke="black" stroke-width="2" stroke-miterlimit="10" stroke-linecap="round" stroke-linejoin="round"/>
<path d="M79.5901 141.26C91.9801 143.99 106.26 141.68 107.31 141.68C110.88 140.84 113.61 137.27 112.56 133.7C111.72 130.13 108.15 127.4 104.58 128.45C100.17 129.29 89.4601 130.97 81.4801 128.24C81.4801 128.24 83.1601 135.17 79.5901 141.26Z" fill="#FC0000" stroke="black" stroke-width="0.5" stroke-miterlimit="10" stroke-linecap="round" stroke-linejoin="round"/>
<path d="M86.7301 129.29C86.7301 129.29 89.6701 135.17 86.1001 142.31C86.9401 142.31 87.7801 142.52 88.6201 142.52C91.3501 136.22 90.3001 131.18 89.4601 129.29C88.4101 129.29 87.5701 129.29 86.7301 129.29Z" fill="#FBB03B" stroke="black" stroke-width="0.5" stroke-miterlimit="10" stroke-linecap="round" stroke-linejoin="round"/>
<path d="M96.3899 142.73C99.1199 136.43 97.2299 131.18 96.3899 129.29C95.5499 129.29 94.7099 129.29 93.6599 129.29C93.6599 129.29 96.3899 135.59 93.6599 142.73C95.5499 142.73 96.3899 142.73 96.3899 142.73Z" fill="#FBB03B" stroke="black" stroke-width="0.5" stroke-miterlimit="10" stroke-linecap="round" stroke-linejoin="round"/>
<path d="M101.85 128.45C101.85 128.45 105.42 133.7 102.69 141.89C103.53 141.89 104.37 141.89 105.42 141.89C107.31 135.59 105.42 130.34 104.58 128.45C103.53 128.45 102.69 128.45 101.85 128.45Z" fill="#FBB03B" stroke="black" stroke-width="0.5" stroke-miterlimit="10" stroke-linecap="round" stroke-linejoin="round"/>
<path d="M207.9 283.64C222.629 283.64 234.57 271.699 234.57 256.97C234.57 242.24 222.629 230.3 207.9 230.3C193.171 230.3 181.23 242.24 181.23 256.97C181.23 271.699 193.171 283.64 207.9 283.64Z" fill="#FFE600" stroke="black" stroke-width="2" stroke-miterlimit="10" stroke-linecap="round" stroke-linejoin="round"/>
<path d="M225.1 300.225L184.171 298.972L183.759 312.405L224.689 313.659L225.1 300.225Z" fill="#FFE600" stroke="black" stroke-width="2" stroke-miterlimit="10" stroke-linecap="round" stroke-linejoin="round"/>
<path d="M218.82 258.65C218.82 252.35 213.57 247.1 207.27 247.1C200.97 247.1 195.72 252.35 195.72 258.65C195.72 263.69 198.87 267.89 203.28 269.57L201.6 297.71C199.92 298.34 198.66 299.39 197.61 300.65C197.4 300.86 197.19 301.07 196.98 301.28C195.93 302.75 195.3 304.43 195.3 306.11C195.3 306.32 195.3 306.32 195.3 306.53C195.3 306.74 195.3 307.16 195.3 307.37C195.3 307.58 195.3 307.79 195.3 308C195.93 312.41 199.92 315.98 204.54 315.98C209.79 315.98 213.99 311.78 213.99 306.53C213.99 302.33 211.26 298.97 207.69 297.71L209.37 270.2C214.83 268.94 218.82 264.32 218.82 258.65Z" fill="#FC0000" stroke="black" stroke-width="1.5" stroke-miterlimit="10" stroke-linecap="round" stroke-linejoin="round"/>
<path d="M162.54 126.77C151.83 126.77 141.96 125.93 136.71 124.88C137.97 126.77 137.76 133.91 135.87 138.32C144.69 140 156.24 140 162.54 140C166.11 140 169.68 137.27 169.68 132.86C169.68 128.45 166.11 126.77 162.54 126.77Z" fill="#FC0000" stroke="black" stroke-width="2" stroke-miterlimit="10" stroke-linecap="round" stroke-linejoin="round"/>
<path d="M153.09 127.61C153.09 127.61 155.4 133.07 152.46 139.16C153.09 139.16 154.14 139.16 154.77 139.16C157.08 133.7 155.4 129.29 155.4 127.61C154.56 127.61 153.72 127.61 153.09 127.61Z" fill="#FBB03B" stroke="black" stroke-width="0.4307" stroke-miterlimit="10" stroke-linecap="round" stroke-linejoin="round"/>
<path d="M160.86 128.24C160.86 128.24 162.96 133.28 160.23 138.74C160.86 138.74 161.49 138.74 162.33 138.74C164.43 133.7 162.96 129.71 162.96 128.24C162.33 128.24 161.49 128.24 160.86 128.24Z" fill="#FBB03B" stroke="black" stroke-width="0.3941" stroke-miterlimit="10" stroke-linecap="round" stroke-linejoin="round"/>
<path d="M144.9 126.56C144.9 126.56 147.21 132.02 144.06 138.32C144.9 138.32 145.53 138.32 146.37 138.32C149.52 132.86 147.84 128.24 147.21 126.56C146.37 126.56 145.53 126.56 144.9 126.56Z" fill="#FBB03B" stroke="black" stroke-width="0.4394" stroke-miterlimit="10" stroke-linecap="round" stroke-linejoin="round"/>
</svg>
