<?xml version="1.0" encoding="utf-8"?>
<!-- Generator: Adobe Illustrator 16.0.0, SVG Export Plug-In . SVG Version: 6.00 Build 0)  -->
<!DOCTYPE svg PUBLIC "-//W3C//DTD SVG 1.1//EN" "http://www.w3.org/Graphics/SVG/1.1/DTD/svg11.dtd">
<svg version="1.1" id="레이어_1" xmlns="http://www.w3.org/2000/svg" xmlns:xlink="http://www.w3.org/1999/xlink" x="0px"
	 y="0px" width="200px" height="169px" viewBox="0 0 200 169" style="enable-background:new 0 0 200 169;" xml:space="preserve">
<style type="text/css">
<![CDATA[
	.st0{fill:#FCEE21;stroke:#000000;stroke-width:1.8495;stroke-linecap:round;stroke-linejoin:round;stroke-miterlimit:10;}
	.st1{fill:#E6E6E6;stroke:#000000;stroke-width:1.8495;stroke-linecap:round;stroke-linejoin:round;stroke-miterlimit:10;}
	.st2{fill:#97ABFF;stroke:#000000;stroke-width:1.8495;stroke-linecap:round;stroke-linejoin:round;stroke-miterlimit:10;}
	.st3{fill:#B3D7FF;stroke:#000000;stroke-width:1.8495;stroke-linecap:round;stroke-linejoin:round;stroke-miterlimit:10;}
	.st4{fill:#F15A24;stroke:#000000;stroke-width:1.8495;stroke-linecap:round;stroke-linejoin:round;stroke-miterlimit:10;}
	.st5{fill:#FBB03B;stroke:#000000;stroke-width:1.8495;stroke-linecap:round;stroke-linejoin:round;stroke-miterlimit:10;}
	.st6{fill:none;stroke:#000000;stroke-width:1.8495;stroke-linecap:round;stroke-linejoin:round;stroke-miterlimit:10;}
	.st7{fill:#FFFAC7;stroke:#000000;stroke-width:1.8495;stroke-linecap:round;stroke-linejoin:round;stroke-miterlimit:10;}
	.st8{fill:#FFFFFF;stroke:#000000;stroke-width:1.8495;stroke-linecap:round;stroke-linejoin:round;stroke-miterlimit:10;}
	.st9{fill:#FBB03B;stroke:#000000;stroke-width:3.6991;stroke-linecap:round;stroke-linejoin:round;stroke-miterlimit:10;}
]]>
</style>
<title>D034b_04</title>
<path class="st1" d="M61.2,145.7l-3.3,11.5c0,0-9.6,3-17-4.4c0,0-5.2-4.4-7.4-0.7c0,0-2.6,4.4,1.5,7.8l10.4,6.3c0,0,5.5,3.3,14.1,0
	l15.2-4.4l5.2,3.3c0,0,6.7,3.7,15.2,2.2l57.3-18.1c0,0,3.3-2.6,1.5-6.7c0,0-3.7-1.8-8.1,0l-5.9,0.7l-6.7-10l-8.1,4.1l4.8,9.6
	l-14.4,3.7c0,0,0.7-6.7-2.2-7.4l-0.7-1.5l-27,1.5l-1.1,6.7l-17,3l1.8-8.5L61.2,145.7z"/>
<path class="st1" d="M74.9,162c0,0-3-2.6-0.7-5.5c0,0,1.8-2.2,6.3,0.7l4.8,2.2c0,0,5.9,3,14.8-3c0,0,11.5-5.2,14.8-5.9"/>
<line class="st6" x1="103" y1="143.1" x2="108.9" y2="152"/>
<line class="st6" x1="94.5" y1="144.6" x2="99.3" y2="156.4"/>
<line class="st6" x1="57.9" y1="156.8" x2="67.9" y2="152.7"/>
<path class="st9" d="M71.9,37.3c0,0-49.2,8.9-45.5,66.6c0,0,0,35.9,34.8,41.8c0,0,68.8,10.4,107.6-45.1c0,0,11.8-15.2,17-29.2
	l-7-6.7c0,0-6.7,23.7-32.2,21.8c0,0-8.5-7.8-12.2-18.9C134.4,67.3,119.6,28.1,71.9,37.3z"/>
<polygon class="st1" points="80.8,28.8 80.8,36.2 71.6,37.3 71.6,28.8 "/>
<path class="st3" d="M71.9,36.9c0,0,23.3,9.2,23.3,47.7c0,0,3.7,18.1-19.2,21.5c0,0-34.4,3.3-49.6-2.6
	C26.4,103.9,19.8,52.1,71.9,36.9z"/>
<path class="st4" d="M170.7,98.7c0,0-77.3,33.7-118.7,26.3c0,0-20.3-2.6-23.3-7.4l5.9,12.2c0,0,21.1,7,52.5,2.6
	c0,0,53.6-10.4,72.9-21.5L170.7,98.7z"/>
<path class="st2" d="M37.8,115.3c2.5-1.7,7.8,1.7,11.8,7.6c4,5.9,5.2,12.1,2.7,13.8c-2.5,1.7-7.8-1.7-11.8-7.6
	C36.4,123.3,35.2,117.1,37.8,115.3z"/>
<path class="st4" d="M41.2,115c0,0-1.5,3,3.7,11.5c0,0,4.8,7,8.5,7C53.4,133.8,54.2,123.5,41.2,115z"/>
<line class="st6" x1="128.5" y1="146.4" x2="139.2" y2="143.1"/>
<path class="st8" d="M62.7,51.4c0,0-3.3-3.3-7.4,0c0,0-11.5,8.5-14.4,22.6c0,0-1.1,3.3,4.1,5.2c0,0,4.1,1.5,4.8-3
	c0,0,5.9-15.5,12.2-18.1C61.9,58,66,55.1,62.7,51.4z"/>
<circle class="st8" cx="42.3" cy="88.3" r="4.8"/>
<ellipse transform="matrix(-9.620206e-002 -0.9954 0.9954 -9.620206e-002 68.7901 94.8825)" class="st2" cx="77.5" cy="16.2" rx="12.2" ry="75.8"/>
<ellipse class="st2" cx="185.1" cy="50.2" rx="13.7" ry="23.3"/>
<path class="st7" d="M16.4,29.2c-6.3-3.3,17.4-11.5,17.4-11.5c10.4-3.7,5.5,1.1,5.5,1.1c-3,2.2,3,0.7,3,0.7c3-2.2,7-3.3,7-3.3
	c3.3-0.7,1.8,1.5,1.8,1.5c-0.4,1.5,3.3-0.7,3.3-0.7c6.7-3.3,6.3-0.7,6.3-0.7c-1.5,1.8,3,1.5,3,1.5c2.2-1.8,9.6-3,9.6-3
	c-8.1,0.7-4.8-1.9-4.8-1.9c3.7-3-3.3-1.1-3.3-1.1c-15.5,2.6-2.6-5.9-2.6-5.9C67.1,4,91.5,3.3,91.5,3.3c58.1-3.7,61,5.9,61,5.9
	c-0.7,5.2-11.8,7.8-11.8,7.8c-5.5,0,0.7-5.2,0.7-5.2c5.2-5.5-4.8,0.4-4.8,0.4c-5.9,4.4-17.4,4.1-17.4,4.1c-8.5,0.4-3-3.3-3-3.3
	c3-2.2-5.2,0.7-5.2,0.7c-3.3,1.8-5.2,1.5-5.2,1.5c-4.8,0-2.6-3-2.6-3c1.1-1.5-7.4,1.5-7.4,1.5c-4.4,1.1-3.7-1.8-3.7-1.8
	c0-4.1-15.2,3.3-15.2,3.3s-2.6,1.5,0,1.5c0,0,12.9-0.7,11.1,0.7c0,0-5.2,3.3-2.2,3c0,0,16.3-2.2,13.7,0c0,0-12.6,2.6-11.1,3.3
	c0,0-4.4,5.2-7.8,5.2C80.8,28.8,20.5,31.4,16.4,29.2z"/>
<path class="st7" d="M185.1,27.3c0,0-5.9,12.2-3.3,11.8c0,0,3-0.4,2.2,0.7c0,0-1.1,4.1,1.1,4.4c0,0,2.2,0,1.8,1.8
	c0,0-0.7,5.9,2.2,5.5c0,0,0.7-1.5,1.8-0.4c0,0,1.5,0.7,1.1-3c0,0-0.4-4.4,1.1-2.6c0,0,1.1,3,0.7,4.1c0,0,0,4.1,1.1,3.3
	c0,0,1.1-1.1,1.5-2.6c0,0,1.5-1.1,1.8,3C198.4,52.5,200.6,31,185.1,27.3z"/>
<path class="st7" d="M171.4,55.4c0,0,0.7-3.7,3-0.4c0,0,2.2,6.7,4.1,1.8c0,0,0.7-5.9,1.8-6.3c0,0,1.5,0,1.5,2.6c0,0,0.7,3.3,1.5,2.6
	c0,0,1.8-3.3,3-2.6c0,0,1.5,0.7,1.5,1.8c0,0-0.4,1.8,1.1,1.1c0,0,2.6-0.7,1.5,3.3c0,0-0.7,3,0.4,3c0,0,2.2,0,1.1,3l-3,7.4
	C188.8,72.8,175.1,77.6,171.4,55.4z"/>
<path class="st5" d="M113.7,81.7c-1.9,0-3.3,1.8-3.3,3.7c0,1.9,1.5,3.7,3.3,3.7h1.5C115.2,89.1,113.7,85.4,113.7,81.7"/>
<path class="st9" d="M120.4,70.2H140c0,0,6.7-0.7,8.9,6.7c0,0,1.5,7.8-2.2,10.7l-20.3,9.6c0,0-10.4,0-11.5-13.7
	C114.8,83.9,113,70.2,120.4,70.2z"/>
<path class="st2" d="M120.4,70.2c0,0,5.5,2.2,7.4,11.5c0,0,1.9,12.9-4.1,15.9h2.6l4.8-2.2c0,0,3-7,1.1-16.3c0,0-1.8-5.9-5.5-8.9
	H120.4z"/>
<ellipse transform="matrix(-0.1517 -0.9884 0.9884 -0.1517 56.1273 216.024)" class="st0" cx="120.8" cy="83.9" rx="13.7" ry="7"/>
</svg>
