<svg width="420" height="420" viewBox="0 0 420 420" fill="none" xmlns="http://www.w3.org/2000/svg">
<rect width="420" height="420" fill="white"/>
<g clip-path="url(#clip0_72_12)">
<path d="M128.52 338.97L121.59 363.12C121.59 363.12 101.43 369.42 85.8901 353.88C85.8901 353.88 74.9701 344.64 70.3501 352.41C70.3501 352.41 64.8901 361.65 73.5001 368.79L95.3401 382.02C95.3401 382.02 106.89 388.95 124.95 382.02L156.87 372.78L167.79 379.71C167.79 379.71 181.86 387.48 199.71 384.33L320.04 346.32C320.04 346.32 326.97 340.86 323.19 332.25C323.19 332.25 315.42 328.47 306.18 332.25L293.79 333.72L279.72 312.72L262.71 321.33L272.79 341.49L242.55 349.26C242.55 349.26 244.02 335.19 237.93 333.72L236.46 330.57L179.76 333.72L177.45 347.79L141.75 354.09L145.53 336.24L128.52 338.97Z" fill="#E6E6E6" stroke="black" stroke-width="1.8495" stroke-miterlimit="10" stroke-linecap="round" stroke-linejoin="round"/>
<path d="M157.29 373.2C157.29 373.2 150.99 367.74 155.82 361.65C155.82 361.65 159.6 357.03 169.05 363.12L179.13 367.74C179.13 367.74 191.52 374.04 210.21 361.44C210.21 361.44 234.36 350.52 241.29 349.05" fill="#E6E6E6"/>
<path d="M157.29 373.2C157.29 373.2 150.99 367.74 155.82 361.65C155.82 361.65 159.6 357.03 169.05 363.12L179.13 367.74C179.13 367.74 191.52 374.04 210.21 361.44C210.21 361.44 234.36 350.52 241.29 349.05" stroke="black" stroke-width="1.8495" stroke-miterlimit="10" stroke-linecap="round" stroke-linejoin="round"/>
<path d="M216.3 333.51L228.69 352.2" stroke="black" stroke-width="1.8495" stroke-miterlimit="10" stroke-linecap="round" stroke-linejoin="round"/>
<path d="M198.45 336.66L208.53 361.44" stroke="black" stroke-width="1.8495" stroke-miterlimit="10" stroke-linecap="round" stroke-linejoin="round"/>
<path d="M121.59 362.28L142.59 353.67" stroke="black" stroke-width="1.8495" stroke-miterlimit="10" stroke-linecap="round" stroke-linejoin="round"/>
<path d="M150.99 111.33C150.99 111.33 47.6702 130.02 55.4402 251.19C55.4402 251.19 55.4402 326.58 128.52 338.97C128.52 338.97 273 360.81 354.48 244.26C354.48 244.26 379.26 212.34 390.18 182.94L375.48 168.87C375.48 168.87 361.41 218.64 307.86 214.65C307.86 214.65 290.01 198.27 282.24 174.96C282.24 174.33 251.16 92.0098 150.99 111.33Z" fill="#FBB03B" stroke="black" stroke-width="3.6991" stroke-miterlimit="10" stroke-linecap="round" stroke-linejoin="round"/>
<path d="M169.68 93.48V109.02L150.36 111.33V93.48H169.68Z" fill="#E6E6E6" stroke="black" stroke-width="1.8495" stroke-miterlimit="10" stroke-linecap="round" stroke-linejoin="round"/>
<path d="M150.99 110.49C150.99 110.49 199.92 129.81 199.92 210.66C199.92 210.66 207.69 248.67 159.6 255.81C159.6 255.81 87.3599 262.74 55.4399 250.35C55.4399 251.19 41.5799 142.41 150.99 110.49Z" fill="#B3D7FF" stroke="black" stroke-width="1.8495" stroke-miterlimit="10" stroke-linecap="round" stroke-linejoin="round"/>
<path d="M358.47 240.27C358.47 240.27 196.14 311.04 109.2 295.5C109.2 295.5 66.57 290.04 60.27 279.96L72.66 305.58C72.66 305.58 116.97 320.28 182.91 311.04C182.91 311.04 295.47 289.2 336 265.89L358.47 240.27Z" fill="#F15A24" stroke="black" stroke-width="1.8495" stroke-miterlimit="10" stroke-linecap="round" stroke-linejoin="round"/>
<path d="M79.3801 275.13C84.6301 271.56 95.7601 278.7 104.16 291.09C112.56 303.48 115.08 316.5 109.83 320.07C104.58 323.64 93.4501 316.5 85.0501 304.11C76.4401 291.93 73.9201 278.91 79.3801 275.13Z" fill="#97ABFF" stroke="black" stroke-width="1.8495" stroke-miterlimit="10" stroke-linecap="round" stroke-linejoin="round"/>
<path d="M86.5198 274.5C86.5198 274.5 83.3698 280.8 94.2898 298.65C94.2898 298.65 104.37 313.35 112.14 313.35C112.14 313.98 113.82 292.35 86.5198 274.5Z" fill="#F15A24" stroke="black" stroke-width="1.8495" stroke-miterlimit="10" stroke-linecap="round" stroke-linejoin="round"/>
<path d="M269.85 340.44L292.32 333.51" stroke="black" stroke-width="1.8495" stroke-miterlimit="10" stroke-linecap="round" stroke-linejoin="round"/>
<path d="M131.67 140.94C131.67 140.94 124.74 134.01 116.13 140.94C116.13 140.94 91.9802 158.79 85.8902 188.4C85.8902 188.4 83.5802 195.33 94.5002 199.32C94.5002 199.32 103.11 202.47 104.58 193.02C104.58 193.02 116.97 160.47 130.2 155.01C129.99 154.8 138.6 148.71 131.67 140.94Z" fill="white" stroke="black" stroke-width="1.8495" stroke-miterlimit="10" stroke-linecap="round" stroke-linejoin="round"/>
<path d="M88.83 228.51C94.397 228.51 98.91 223.997 98.91 218.43C98.91 212.863 94.397 208.35 88.83 208.35C83.263 208.35 78.75 212.863 78.75 218.43C78.75 223.997 83.263 228.51 88.83 228.51Z" fill="white" stroke="black" stroke-width="1.8495" stroke-miterlimit="10" stroke-linecap="round" stroke-linejoin="round"/>
<path d="M321.113 51.6659C319.752 37.5814 247.709 33.0198 160.201 41.4772C72.6927 49.9346 2.85671 68.2083 4.21792 82.2928C5.57914 96.3772 77.6221 100.939 165.13 92.4815C252.639 84.0241 322.475 65.7503 321.113 51.6659Z" fill="#97ABFF" stroke="black" stroke-width="1.8495" stroke-miterlimit="10" stroke-linecap="round" stroke-linejoin="round"/>
<path d="M388.71 187.35C404.599 187.35 417.48 165.444 417.48 138.42C417.48 111.397 404.599 89.4902 388.71 89.4902C372.821 89.4902 359.94 111.397 359.94 138.42C359.94 165.444 372.821 187.35 388.71 187.35Z" fill="#97ABFF" stroke="black" stroke-width="1.8495" stroke-miterlimit="10" stroke-linecap="round" stroke-linejoin="round"/>
<path d="M34.4398 94.3201C21.2098 87.3901 70.9798 70.1701 70.9798 70.1701C92.8198 62.4001 82.5298 72.4801 82.5298 72.4801C76.2298 77.1001 88.8298 73.9501 88.8298 73.9501C95.1298 69.3301 103.53 67.0201 103.53 67.0201C110.46 65.5501 107.31 70.1701 107.31 70.1701C106.47 73.3201 114.24 68.7001 114.24 68.7001C128.31 61.7701 127.47 67.2301 127.47 67.2301C124.32 71.0101 133.77 70.3801 133.77 70.3801C138.39 66.6001 153.93 64.0801 153.93 64.0801C136.92 65.5501 143.85 60.0901 143.85 60.0901C151.62 53.7901 136.92 57.7801 136.92 57.7801C104.37 63.2401 131.46 45.3901 131.46 45.3901C140.91 41.4001 192.15 39.9301 192.15 39.9301C314.16 32.1601 320.25 52.3201 320.25 52.3201C318.78 63.2401 295.47 68.7001 295.47 68.7001C283.92 68.7001 296.94 57.7801 296.94 57.7801C307.86 46.2301 286.86 58.6201 286.86 58.6201C274.47 67.8601 250.32 67.2301 250.32 67.2301C232.47 68.0701 244.02 60.3001 244.02 60.3001C250.32 55.6801 233.1 61.7701 233.1 61.7701C226.17 65.5501 222.18 64.9201 222.18 64.9201C212.1 64.9201 216.72 58.6201 216.72 58.6201C219.03 55.4701 201.18 61.7701 201.18 61.7701C191.94 64.0801 193.41 57.9901 193.41 57.9901C193.41 49.3801 161.49 64.9201 161.49 64.9201C161.49 64.9201 156.03 68.0701 161.49 68.0701C161.49 68.0701 188.58 66.6001 184.8 69.5401C184.8 69.5401 173.88 76.4701 180.18 75.8401C180.18 75.8401 214.41 71.2201 208.95 75.8401C208.95 75.8401 182.49 81.3001 185.64 82.7701C185.64 82.7701 176.4 93.6901 169.26 93.6901C169.68 93.4801 43.0498 98.9401 34.4398 94.3201Z" fill="#FFFAC7" stroke="black" stroke-width="1.8495" stroke-miterlimit="10" stroke-linecap="round" stroke-linejoin="round"/>
<path d="M388.71 90.3301C388.71 90.3301 376.32 115.95 381.78 115.11C381.78 115.11 388.08 114.27 386.4 116.58C386.4 116.58 384.09 125.19 388.71 125.82C388.71 125.82 393.33 125.82 392.49 129.6C392.49 129.6 391.02 141.99 397.11 141.15C397.11 141.15 398.58 138 400.89 140.31C400.89 140.31 404.04 141.78 403.2 134.01C403.2 134.01 402.36 124.77 405.51 128.55C405.51 128.55 407.82 134.85 406.98 137.16C406.98 137.16 406.98 145.77 409.29 144.09C409.29 144.09 411.6 141.78 412.44 138.63C412.44 138.63 415.59 136.32 416.22 144.93C416.64 143.25 421.26 98.1001 388.71 90.3301Z" fill="#FFFAC7" stroke="black" stroke-width="1.8495" stroke-miterlimit="10" stroke-linecap="round" stroke-linejoin="round"/>
<path d="M359.94 149.34C359.94 149.34 361.41 141.57 366.24 148.5C366.24 148.5 370.86 162.57 374.85 152.28C374.85 152.28 376.32 139.89 378.63 139.05C378.63 139.05 381.78 139.05 381.78 144.51C381.78 144.51 383.25 151.44 384.93 149.97C384.93 149.97 388.71 143.04 391.23 144.51C391.23 144.51 394.38 145.98 394.38 148.29C394.38 148.29 393.54 152.07 396.69 150.6C396.69 150.6 402.15 149.13 399.84 157.53C399.84 157.53 398.37 163.83 400.68 163.83C400.68 163.83 405.3 163.83 402.99 170.13L396.69 185.67C396.48 185.88 367.71 195.96 359.94 149.34Z" fill="#FFFAC7" stroke="black" stroke-width="1.8495" stroke-miterlimit="10" stroke-linecap="round" stroke-linejoin="round"/>
<path d="M238.77 204.57C234.78 204.57 231.84 208.35 231.84 212.34C231.84 216.33 234.99 220.11 238.77 220.11H241.92C241.92 220.11 238.77 212.34 238.77 204.57Z" fill="#FBB03B" stroke="black" stroke-width="1.8495" stroke-miterlimit="10" stroke-linecap="round" stroke-linejoin="round"/>
<path d="M252.84 180.42H294C294 180.42 308.07 178.95 312.69 194.49C312.69 194.49 315.84 210.87 308.07 216.96L265.44 237.12C265.44 237.12 243.6 237.12 241.29 208.35C241.08 209.19 237.3 180.42 252.84 180.42Z" fill="#FBB03B" stroke="black" stroke-width="3.6991" stroke-miterlimit="10" stroke-linecap="round" stroke-linejoin="round"/>
<path d="M252.84 180.42C252.84 180.42 264.39 185.04 268.38 204.57C268.38 204.57 272.37 231.66 259.77 237.96H265.23L275.31 233.34C275.31 233.34 281.61 218.64 277.62 199.11C277.62 199.11 273.84 186.72 266.07 180.42H252.84Z" fill="#97ABFF" stroke="black" stroke-width="1.8495" stroke-miterlimit="10" stroke-linecap="round" stroke-linejoin="round"/>
<path d="M268.06 206.955C265.649 191.25 257.19 179.517 249.166 180.749C241.141 181.981 236.59 195.71 239.001 211.415C241.411 227.12 249.87 238.853 257.895 237.622C265.919 236.39 270.47 222.66 268.06 206.955Z" fill="#FCEE21" stroke="black" stroke-width="1.8495" stroke-miterlimit="10" stroke-linecap="round" stroke-linejoin="round"/>
</g>
<defs>
<clipPath id="clip0_72_12">
<rect width="420" height="354.9" fill="white" transform="translate(0 33)"/>
</clipPath>
</defs>
</svg>
