<?xml version="1.0" encoding="utf-8"?>
<!-- Generator: Adobe Illustrator 16.0.0, SVG Export Plug-In . SVG Version: 6.00 Build 0)  -->
<!DOCTYPE svg PUBLIC "-//W3C//DTD SVG 1.1//EN" "http://www.w3.org/Graphics/SVG/1.1/DTD/svg11.dtd">
<svg version="1.1" id="레이어_1" xmlns="http://www.w3.org/2000/svg" xmlns:xlink="http://www.w3.org/1999/xlink" x="0px"
	 y="0px" width="200px" height="148px" viewBox="0 0 200 148" style="enable-background:new 0 0 200 148;" xml:space="preserve">
<style type="text/css">
<![CDATA[
	.st0{fill:none;stroke:#000000;stroke-width:2;stroke-linecap:round;stroke-linejoin:round;stroke-miterlimit:10;}
	.st1{fill:#FFFFFF;stroke:#000000;stroke-width:2;stroke-miterlimit:10;}
	.st2{fill:#0059AA;stroke:#000000;stroke-width:2;stroke-linecap:round;stroke-linejoin:round;stroke-miterlimit:10;}
	.st3{fill:#FEEC89;stroke:#000000;stroke-width:2;stroke-linecap:round;stroke-linejoin:round;stroke-miterlimit:10;}
	.st4{fill:#29ABE2;stroke:#000000;stroke-width:2;stroke-linecap:round;stroke-linejoin:round;stroke-miterlimit:10;}
]]>
</style>
<path class="st3" d="M60.5,25.8c0,0-18.4-21.1-32.6-12.4c0,0-14.2,8.3,0.9,43.2"/>
<path class="st3" d="M23.7,41.5c0,0-6.4,1.4-6.9,11.9c0,0,0,8.7,5.1,12l9.7-8.7L23.7,41.5z"/>
<path class="st3" d="M137.2,37.3c0,0,0.5-6-1.4-12.9c0,0-2.8-11.5,7.4-13.3c0,0,4.1-0.9,8.3,2.8C151.9,13.9,145,35.9,137.2,37.3z"/>
<path class="st3" d="M83.9,21.2c0,0-21.6-2.3-40.4,16.5c0,0-12,13.3-18.4,23.9c0,0-19.8,15.6-21.1,26.7c0,0-5.1,18.8,8.7,26.7
	c0,0,20.2,15.6,75.8,0.9c0,0,84.6-28.5,87.3-66.2c0,0,7.8-48.7-12.4-47.8c0,0-10.6-1.8-16.1,19.8c0,0-4.6,15.6-11.9,16.1
	c0,0-7.4,0.5-14.7-5.1C120.7,32.7,104.1,22.6,83.9,21.2z"/>
<path class="st3" d="M116.1,104.9l-42.3,14.7c0,0-3.2,14.7,11,18.4c0,0,8.3,2.3,14.2,0c0,0,4.1,9.7,17,7.8c0,0,16.1-1.8,27.1-17.9
	L116.1,104.9z"/>
<path class="st0" d="M99.5,138c0,0-4.6-11,2.3-14.7"/>
<path d="M82.5,115.9c2.3,0,4.1,3.3,4.1,7.4c0,4.1-1.9,7.4-4.1,7.4s-4.1-3.3-4.1-7.4C78.4,119.2,80.2,115.9,82.5,115.9z"/>
<path d="M110.1,124.7c3.6,0,6.4,3.5,6.4,7.8c0,4.3-2.9,7.8-6.4,7.8s-6.4-3.5-6.4-7.8C103.7,128.2,106.5,124.7,110.1,124.7z"/>
<path class="st3" d="M158.8,46.1c0,0-8.3-4.6,2.3-11c0,0,12.4-6.9,20.2-6.4c0,0,10.1,0,14.7,5.1c0,0,7.8,8.7-11.9,14.7
	C183.6,48.4,168.9,52,158.8,46.1z"/>
<path class="st4" d="M43.4,37.8c0,0,10.6,5.1,20.2,6.9c0,0,12.4,1.4,11.5,12.9c0,0-0.9,17.9-23.4,16.1c0,0-21.6-1.8-26.7-11.5
	C25.1,62.1,39.3,41.9,43.4,37.8z"/>
<path class="st4" d="M92.6,48.4c4.3,0,7.8,3.1,7.8,6.9c0,3.8-3.5,6.9-7.8,6.9s-7.8-3.1-7.8-6.9C84.8,51.4,88.3,48.4,92.6,48.4z"/>
<ellipse class="st4" cx="111.9" cy="48.4" rx="5.5" ry="4.6"/>
<path class="st1" d="M34.7,64c-0.5,0-0.9,0-1.4-0.5c-1.4-0.9-1.8-2.3-0.9-3.7L43,43.3c0.9-1.4,2.3-1.8,3.7-0.9
	c1.4,0.9,1.8,2.3,0.9,3.7L37,62.6C36.5,63.5,35.6,64,34.7,64z"/>
<path d="M33.8,102.6c0,0,50.1,3.7,95.6-24.8c0,0,31.3-17.9,37.2-29.9l4.1,1.4c0,0-7.8,18.4-34.9,32.2c0,0-36.8,34-104.8,28.5
	L33.8,102.6z"/>
<path class="st3" d="M75.6,105.4c0,0-9.2-13.3,19.3-26.7c0,0,18.4-10.1,32.6-1.8c0,0,36.8,20.7,41.4,26.2c0,0,11.9,10.6-5.1,19.3
	c0,0-11.9,8.7-46.4,4.1C117.9,126.5,91.7,125.1,75.6,105.4z"/>
<path class="st2" d="M11.3,77.3c0,0-12,6.4-8.7,24.4c0,0,4.6,19.8,21.6,16.5c0,0,15.6-6,7.8-26.7C32,91.1,25.1,72.3,11.3,77.3z"/>
<path class="st1" d="M12.6,88.3c-0.5,0-1.4,0-1.8-0.5C9.4,87,9,84.7,10.4,83.3c1.4-1.8,2.8-3.2,3.2-3.2c1.4-0.9,3.2-0.9,4.6,0.5
	c1.4,1.4,0.9,3.2-0.5,4.6c0,0-0.9,0.9-1.8,2.3C14.5,87.9,13.6,88.3,12.6,88.3z"/>
<path class="st1" d="M9.4,107.7c-1.4,0-2.8-0.9-3.2-2.3c-1.4-5.1,0-11,0-11.5c0.5-1.8,1.8-2.8,3.7-2.8c1.8,0.5,2.8,2.3,2.3,4.1
	c0,0-0.9,5.1,0,8.7c0.5,1.8-0.5,3.2-2.3,3.7H9.4z"/>
</svg>
