<svg width="420" height="420" viewBox="0 0 420 420" fill="none" xmlns="http://www.w3.org/2000/svg">
<rect width="420" height="420" fill="white"/>
<path d="M127.05 109.18C127.05 109.18 88.41 64.8699 58.59 83.1399C58.59 83.1399 28.77 100.57 60.48 173.86" fill="#FEEC89"/>
<path d="M127.05 109.18C127.05 109.18 88.41 64.8699 58.59 83.1399C58.59 83.1399 28.77 100.57 60.48 173.86" stroke="black" stroke-width="2" stroke-miterlimit="10" stroke-linecap="round" stroke-linejoin="round"/>
<path d="M49.77 142.15C49.77 142.15 36.33 145.09 35.28 167.14C35.28 167.14 35.28 185.41 45.99 192.34L66.36 174.07L49.77 142.15Z" fill="#FEEC89" stroke="black" stroke-width="2" stroke-miterlimit="10" stroke-linecap="round" stroke-linejoin="round"/>
<path d="M288.12 133.33C288.12 133.33 289.17 120.73 285.18 106.24C285.18 106.24 279.3 82.0899 300.72 78.3099C300.72 78.3099 309.33 76.4199 318.15 84.1899C318.99 84.1899 304.5 130.39 288.12 133.33Z" fill="#FEEC89" stroke="black" stroke-width="2" stroke-miterlimit="10" stroke-linecap="round" stroke-linejoin="round"/>
<path d="M176.19 99.5202C176.19 99.5202 130.83 94.6902 91.3501 134.17C91.3501 134.17 66.1501 162.1 52.7101 184.36C52.7101 184.36 11.1301 217.12 8.40007 240.43C8.40007 240.43 -2.30993 279.91 26.6701 296.5C26.6701 296.5 69.0901 329.26 185.85 298.39C185.85 298.39 363.51 238.54 369.18 159.37C369.18 159.37 385.56 57.1002 343.14 58.9902C343.14 58.9902 320.88 55.2102 309.33 100.57C309.33 100.57 299.67 133.33 284.34 134.38C284.34 134.38 268.8 135.43 253.47 123.67C253.47 123.67 218.61 102.46 176.19 99.5202Z" fill="#FEEC89" stroke="black" stroke-width="2" stroke-miterlimit="10" stroke-linecap="round" stroke-linejoin="round"/>
<path d="M243.81 275.29L154.98 306.16C154.98 306.16 148.26 337.03 178.08 344.8C178.08 344.8 195.51 349.63 207.9 344.8C207.9 344.8 216.51 365.17 243.6 361.18C243.6 361.18 277.41 357.4 300.51 323.59L243.81 275.29Z" fill="#FEEC89" stroke="black" stroke-width="2" stroke-miterlimit="10" stroke-linecap="round" stroke-linejoin="round"/>
<path d="M208.95 344.8C208.95 344.8 199.29 321.7 213.78 313.93" stroke="black" stroke-width="2" stroke-miterlimit="10" stroke-linecap="round" stroke-linejoin="round"/>
<path d="M173.25 298.39C178.08 298.39 181.86 305.32 181.86 313.93C181.86 322.54 177.87 329.47 173.25 329.47C168.63 329.47 164.64 322.54 164.64 313.93C164.64 305.32 168.42 298.39 173.25 298.39Z" fill="black"/>
<path d="M231.21 316.87C238.77 316.87 244.65 324.22 244.65 333.25C244.65 342.28 238.56 349.63 231.21 349.63C223.86 349.63 217.77 342.28 217.77 333.25C217.77 324.22 223.65 316.87 231.21 316.87Z" fill="black"/>
<path d="M333.48 151.81C333.48 151.81 316.05 142.15 338.31 128.71C338.31 128.71 364.35 114.22 380.73 115.27C380.73 115.27 401.94 115.27 411.6 125.98C411.6 125.98 427.98 144.25 386.61 156.85C385.56 156.64 354.69 164.2 333.48 151.81Z" fill="#FEEC89" stroke="black" stroke-width="2" stroke-miterlimit="10" stroke-linecap="round" stroke-linejoin="round"/>
<path d="M91.14 134.38C91.14 134.38 113.4 145.09 133.56 148.87C133.56 148.87 159.6 151.81 157.71 175.96C157.71 175.96 155.82 213.55 108.57 209.77C108.57 209.77 63.21 205.99 52.5 185.62C52.71 185.41 82.53 142.99 91.14 134.38Z" fill="#29ABE2" stroke="black" stroke-width="2" stroke-miterlimit="10" stroke-linecap="round" stroke-linejoin="round"/>
<path d="M194.46 156.64C203.49 156.64 210.84 163.15 210.84 171.13C210.84 179.11 203.49 185.62 194.46 185.62C185.43 185.62 178.08 179.11 178.08 171.13C178.08 162.94 185.43 156.64 194.46 156.64Z" fill="#29ABE2" stroke="black" stroke-width="2" stroke-miterlimit="10" stroke-linecap="round" stroke-linejoin="round"/>
<path d="M234.99 166.3C241.369 166.3 246.54 161.975 246.54 156.64C246.54 151.305 241.369 146.98 234.99 146.98C228.611 146.98 223.44 151.305 223.44 156.64C223.44 161.975 228.611 166.3 234.99 166.3Z" fill="#29ABE2" stroke="black" stroke-width="2" stroke-miterlimit="10" stroke-linecap="round" stroke-linejoin="round"/>
<path d="M72.8699 189.4C71.8199 189.4 70.9799 189.4 69.9299 188.35C66.9899 186.46 66.1499 183.52 68.0399 180.58L90.2999 145.93C92.1899 142.99 95.1299 142.15 98.0699 144.04C101.01 145.93 101.85 148.87 99.9599 151.81L77.6999 186.46C76.6499 188.35 74.7599 189.4 72.8699 189.4Z" fill="white" stroke="black" stroke-width="2" stroke-miterlimit="10"/>
<path d="M70.9801 270.46C70.9801 270.46 176.19 278.23 271.74 218.38C271.74 218.38 337.47 180.79 349.86 155.59L358.47 158.53C358.47 158.53 342.09 197.17 285.18 226.15C285.18 226.15 207.9 297.55 65.1001 286L70.9801 270.46Z" fill="black"/>
<path d="M158.76 276.34C158.76 276.34 139.44 248.41 199.29 220.27C199.29 220.27 237.93 199.06 267.75 216.49C267.75 216.49 345.03 259.96 354.69 271.51C354.69 271.51 379.68 293.77 343.98 312.04C343.98 312.04 318.99 330.31 246.54 320.65C247.59 320.65 192.57 317.71 158.76 276.34Z" fill="#FEEC89" stroke="black" stroke-width="2" stroke-miterlimit="10" stroke-linecap="round" stroke-linejoin="round"/>
<path d="M23.7301 217.33C23.7301 217.33 -1.46994 230.77 5.46006 268.57C5.46006 268.57 15.1201 310.15 50.8201 303.22C50.8201 303.22 83.5801 290.62 67.2001 247.15C67.2001 246.31 52.7101 206.83 23.7301 217.33Z" fill="#0059AA" stroke="black" stroke-width="2" stroke-miterlimit="10" stroke-linecap="round" stroke-linejoin="round"/>
<path d="M26.4599 240.43C25.4099 240.43 23.5199 240.43 22.6799 239.38C19.7399 237.7 18.8999 232.87 21.8399 229.93C24.7799 226.15 27.7199 223.21 28.5599 223.21C31.4999 221.32 35.2799 221.32 38.2199 224.26C41.1599 227.2 40.1099 230.98 37.1699 233.92C37.1699 233.92 35.2799 235.81 33.3899 238.75C30.4499 239.59 28.5599 240.43 26.4599 240.43Z" fill="white" stroke="black" stroke-width="2" stroke-miterlimit="10"/>
<path d="M19.74 281.17C16.8 281.17 13.86 279.28 13.02 276.34C10.08 265.63 13.02 253.24 13.02 252.19C14.07 248.41 16.8 246.31 20.79 246.31C24.57 247.36 26.67 251.14 25.62 254.92C25.62 254.92 23.73 265.63 25.62 273.19C26.67 276.97 24.57 279.91 20.79 280.96H19.74V281.17Z" fill="white" stroke="black" stroke-width="2" stroke-miterlimit="10"/>
</svg>
