<svg width="420" height="420" viewBox="0 0 420 420" fill="none" xmlns="http://www.w3.org/2000/svg">
<rect width="420" height="420" fill="white"/>
<path d="M4.19995 61.5501C4.19995 57.7701 7.13995 54.8301 10.92 54.8301H232.68C236.46 54.8301 239.4 58.6101 239.4 61.5501V236.69C239.4 240.47 236.46 243.41 232.68 243.41H11.13C7.34995 243.41 4.40995 239.63 4.40995 236.69L4.19995 61.5501Z" fill="#83DFFF" stroke="black" stroke-width="2" stroke-miterlimit="10" stroke-linecap="round" stroke-linejoin="round"/>
<path d="M389.55 234.59V312.5H28.5601V245.3H232.89C236.67 239.42 249.48 236.69 249.48 236.69V134.42C249.48 118.88 263.13 119.72 263.13 119.72C292.32 115.94 323.4 117.83 323.4 117.83C370.23 120.77 369.18 128.54 369.18 128.54C368.13 138.41 356.58 138.41 356.58 138.41L389.55 234.59Z" fill="#E0E0B1" stroke="black" stroke-width="2" stroke-miterlimit="10" stroke-linecap="round" stroke-linejoin="round"/>
<path d="M412.86 177.26C424.62 205.4 404.25 210.44 404.25 210.44C395.43 211.49 389.55 201.83 389.55 201.83V157.73C393.33 149.12 412.86 177.26 412.86 177.26Z" fill="#E0E0B1" stroke="black" stroke-width="2" stroke-miterlimit="10" stroke-linecap="round" stroke-linejoin="round"/>
<path d="M391.44 204.56L389.55 218.21L378.84 223.04C376.95 227.87 382.62 236.69 382.62 236.69C393.33 234.8 398.16 228.08 398.16 228.08V210.65L391.44 204.56Z" fill="#E0E0B1" stroke="black" stroke-width="2" stroke-miterlimit="10" stroke-linecap="round" stroke-linejoin="round"/>
<path d="M356.37 137.36H294.21C279.51 138.41 279.51 152.06 279.51 152.06V197.84C280.56 210.44 293.16 208.55 293.16 208.55H380.73L356.37 137.36Z" fill="#83DFFF" stroke="black" stroke-width="2" stroke-miterlimit="10" stroke-linecap="round" stroke-linejoin="round"/>
<path d="M389.55 287.3H369.18C365.4 286.25 362.46 281.42 362.46 281.42V271.55C362.46 265.67 370.23 263.78 370.23 263.78H389.76V287.3H389.55Z" fill="#E0E0B1" stroke="black" stroke-width="2" stroke-miterlimit="10" stroke-linecap="round" stroke-linejoin="round"/>
<path d="M231.84 245.3C231.84 245.3 231.84 261.89 245.49 260H317.52L345.87 312.5L362.46 287.3L331.38 236.69H248.64C248.43 236.69 236.88 240.47 231.84 245.3Z" fill="#A5AF5A" stroke="black" stroke-width="2" stroke-miterlimit="10" stroke-linecap="round" stroke-linejoin="round"/>
<path d="M33.39 245.3L14.91 265.67C11.13 269.45 14.91 274.28 14.91 274.28C20.79 278.06 24.78 275.33 24.78 275.33L43.26 261.68H105.42L122.01 275.33C127.89 283.1 135.66 278.27 135.66 278.27C139.44 273.44 135.66 266.51 135.66 266.51L116.97 245.3H33.39Z" fill="#A5AF5A" stroke="black" stroke-width="2" stroke-miterlimit="10" stroke-linecap="round" stroke-linejoin="round"/>
<path d="M156.03 270.71C156.03 266.93 158.97 264.83 161.91 264.83H222.18C225.96 264.83 228.06 267.77 228.06 270.71V324.26C228.06 328.04 225.12 330.14 222.18 330.14H161.7C157.92 330.14 155.82 327.2 155.82 324.26V270.71H156.03Z" fill="#A5AF5A" stroke="black" stroke-width="2" stroke-miterlimit="10" stroke-linecap="round" stroke-linejoin="round"/>
<path d="M216.3 318.38C216.3 312.5 201.6 298.85 201.6 298.85C210.21 294.02 216.3 280.37 216.3 280.37" stroke="black" stroke-width="2" stroke-miterlimit="10" stroke-linecap="round" stroke-linejoin="round"/>
<path d="M190.05 292.13C186.27 281.21 163.8 272.6 163.8 272.6" stroke="black" stroke-width="2" stroke-miterlimit="10" stroke-linecap="round" stroke-linejoin="round"/>
<path d="M169.68 321.32C179.55 318.38 191.1 306.62 191.1 306.62" stroke="black" stroke-width="2" stroke-miterlimit="10" stroke-linecap="round" stroke-linejoin="round"/>
<path d="M327.18 138.41L340.83 172.43L351.54 171.38L338.94 138.41H327.18Z" fill="white" stroke="black" stroke-width="2" stroke-miterlimit="10" stroke-linecap="round" stroke-linejoin="round"/>
<path d="M343.77 181.04L347.55 192.8H358.26L353.43 178.31L343.77 181.04Z" fill="white" stroke="black" stroke-width="2" stroke-miterlimit="10" stroke-linecap="round" stroke-linejoin="round"/>
<path d="M176.4 220.1V84.8599" stroke="black" stroke-width="2" stroke-miterlimit="10" stroke-linecap="round" stroke-linejoin="round"/>
<path d="M176.4 73.3102V67.2202" stroke="black" stroke-width="2" stroke-miterlimit="10" stroke-linecap="round" stroke-linejoin="round"/>
<path d="M115.08 220.1V84.8599" stroke="black" stroke-width="2" stroke-miterlimit="10" stroke-linecap="round" stroke-linejoin="round"/>
<path d="M115.08 73.3102V67.2202" stroke="black" stroke-width="2" stroke-miterlimit="10" stroke-linecap="round" stroke-linejoin="round"/>
<path d="M55.8601 220.1V84.8599" stroke="black" stroke-width="2" stroke-miterlimit="10" stroke-linecap="round" stroke-linejoin="round"/>
<path d="M55.8601 73.3102V67.2202" stroke="black" stroke-width="2" stroke-miterlimit="10" stroke-linecap="round" stroke-linejoin="round"/>
<path d="M289.17 276.59C313.95 276.59 333.9 296.54 333.9 321.32C333.9 346.1 313.95 366.05 289.17 366.05C264.39 366.05 244.44 346.1 244.44 321.32C244.44 296.54 264.6 276.59 289.17 276.59Z" fill="#534741" stroke="black" stroke-width="2" stroke-miterlimit="10" stroke-linecap="round" stroke-linejoin="round"/>
<path d="M289.17 307.67C296.73 307.67 302.82 313.76 302.82 321.32C302.82 328.88 296.73 334.97 289.17 334.97C281.61 334.97 275.52 328.88 275.52 321.32C275.73 313.76 281.82 307.67 289.17 307.67Z" fill="#999999" stroke="black" stroke-width="2" stroke-miterlimit="10" stroke-linecap="round" stroke-linejoin="round"/>
<path d="M77.2801 276.59C102.06 276.59 122.01 296.54 122.01 321.32C122.01 346.1 102.06 366.05 77.2801 366.05C52.5 366.05 32.55 346.1 32.55 321.32C32.55 296.54 52.5 276.59 77.2801 276.59Z" fill="#534741" stroke="black" stroke-width="2" stroke-miterlimit="10" stroke-linecap="round" stroke-linejoin="round"/>
<path d="M77.2799 307.67C84.8399 307.67 90.9299 313.76 90.9299 321.32C90.9299 328.88 84.8399 334.97 77.2799 334.97C69.7199 334.97 63.6299 328.88 63.6299 321.32C63.6299 313.76 69.7199 307.67 77.2799 307.67Z" fill="#999999" stroke="black" stroke-width="2" stroke-miterlimit="10" stroke-linecap="round" stroke-linejoin="round"/>
<path d="M361.2 287.3C347.55 287.3 347.55 298.01 347.55 298.01V308.72C347.55 320.48 356.37 321.32 356.37 321.32H386.61C397.32 320.27 397.32 312.71 397.32 312.71V296.12C397.32 290.24 389.55 289.4 389.55 289.4L361.2 287.3Z" fill="#A5AF5A" stroke="black" stroke-width="2" stroke-miterlimit="10" stroke-linecap="round" stroke-linejoin="round"/>
</svg>
