<?xml version="1.0" encoding="utf-8"?>
<!-- Generator: Adobe Illustrator 16.0.0, SVG Export Plug-In . SVG Version: 6.00 Build 0)  -->
<!DOCTYPE svg PUBLIC "-//W3C//DTD SVG 1.1//EN" "http://www.w3.org/Graphics/SVG/1.1/DTD/svg11.dtd">
<svg version="1.1" id="레이어_1" xmlns="http://www.w3.org/2000/svg" xmlns:xlink="http://www.w3.org/1999/xlink" x="0px"
	 y="0px" width="200px" height="152px" viewBox="0 0 200 152" style="enable-background:new 0 0 200 152;" xml:space="preserve">
<style type="text/css">
<![CDATA[
	.st0{fill:none;stroke:#000000;stroke-width:2;stroke-linecap:round;stroke-linejoin:round;stroke-miterlimit:10;}
	.st1{fill:#FFFFFF;stroke:#000000;stroke-width:2;stroke-linecap:round;stroke-linejoin:round;stroke-miterlimit:10;}
	.st2{fill:#83DFFF;stroke:#000000;stroke-width:2;stroke-linecap:round;stroke-linejoin:round;stroke-miterlimit:10;}
	.st3{fill:#E0E0B1;stroke:#000000;stroke-width:2;stroke-linecap:round;stroke-linejoin:round;stroke-miterlimit:10;}
	.st4{fill:#A5AF5A;stroke:#000000;stroke-width:2;stroke-linecap:round;stroke-linejoin:round;stroke-miterlimit:10;}
	.st5{fill:#999999;stroke:#000000;stroke-width:2;stroke-linecap:round;stroke-linejoin:round;stroke-miterlimit:10;}
	.st6{fill:#534741;stroke:#000000;stroke-width:2;stroke-linecap:round;stroke-linejoin:round;stroke-miterlimit:10;}
]]>
</style>
<path class="st2" d="M2,5.5c0-1.8,1.4-3.2,3.2-3.2h105.6c1.8,0,3.2,1.8,3.2,3.2v83.4c0,1.8-1.4,3.2-3.2,3.2H5.3
	c-1.8,0-3.2-1.8-3.2-3.2L2,5.5L2,5.5z"/>
<path class="st3" d="M185.5,87.9V125H13.6V93h97.3c1.8-2.8,7.9-4.1,7.9-4.1V40.2c0-7.4,6.5-7,6.5-7c13.9-1.8,28.7-0.9,28.7-0.9
	c22.3,1.4,21.8,5.1,21.8,5.1c-0.5,4.7-6,4.7-6,4.7L185.5,87.9z"/>
<path class="st3" d="M196.6,60.6c5.6,13.4-4.1,15.8-4.1,15.8c-4.2,0.5-7-4.1-7-4.1V51.3C187.3,47.2,196.6,60.6,196.6,60.6z"/>
<path class="st3" d="M186.4,73.6l-0.9,6.5l-5.1,2.3c-0.9,2.3,1.8,6.5,1.8,6.5c5.1-0.9,7.4-4.1,7.4-4.1v-8.3L186.4,73.6z"/>
<path class="st2" d="M169.7,41.6h-29.6c-7,0.5-7,7-7,7v21.8c0.5,6,6.5,5.1,6.5,5.1h41.7L169.7,41.6z"/>
<path class="st3" d="M185.5,113h-9.7c-1.8-0.5-3.2-2.8-3.2-2.8v-4.7c0-2.8,3.7-3.7,3.7-3.7h9.3V113L185.5,113z"/>
<path class="st4" d="M110.4,93c0,0,0,7.9,6.5,7h34.3l13.5,25l7.9-12l-14.8-24.1h-39.4C118.3,88.9,112.8,90.7,110.4,93z"/>
<path class="st4" d="M15.9,93l-8.8,9.7c-1.8,1.8,0,4.1,0,4.1c2.8,1.8,4.7,0.5,4.7,0.5l8.8-6.5h29.6l7.9,6.5c2.8,3.7,6.5,1.4,6.5,1.4
	c1.8-2.3,0-5.6,0-5.6L55.7,93H15.9z"/>
<path class="st4" d="M74.3,105.1c0-1.8,1.4-2.8,2.8-2.8h28.7c1.8,0,2.8,1.4,2.8,2.8v25.5c0,1.8-1.4,2.8-2.8,2.8H77
	c-1.8,0-2.8-1.4-2.8-2.8V105.1L74.3,105.1z"/>
<path class="st0" d="M103,127.8c0-2.8-7-9.3-7-9.3c4.1-2.3,7-8.8,7-8.8"/>
<path class="st0" d="M90.5,115.3C88.7,110.1,78,106,78,106"/>
<path class="st0" d="M80.8,129.2c4.7-1.4,10.2-7,10.2-7"/>
<polygon class="st1" points="155.8,42.1 162.3,58.3 167.4,57.8 161.4,42.1 "/>
<polygon class="st1" points="163.7,62.4 165.5,68 170.6,68 168.3,61.1 "/>
<line class="st0" x1="84" y1="81" x2="84" y2="16.6"/>
<line class="st0" x1="84" y1="11.1" x2="84" y2="8.2"/>
<line class="st0" x1="54.8" y1="81" x2="54.8" y2="16.6"/>
<line class="st0" x1="54.8" y1="11.1" x2="54.8" y2="8.2"/>
<line class="st0" x1="26.6" y1="81" x2="26.6" y2="16.6"/>
<line class="st0" x1="26.6" y1="11.1" x2="26.6" y2="8.2"/>
<path class="st6" d="M137.7,107.9c11.8,0,21.3,9.5,21.3,21.3c0,11.8-9.5,21.3-21.3,21.3c-11.8,0-21.3-9.5-21.3-21.3
	C116.4,117.4,126,107.9,137.7,107.9z"/>
<path class="st5" d="M137.7,122.7c3.6,0,6.5,2.9,6.5,6.5s-2.9,6.5-6.5,6.5s-6.5-2.9-6.5-6.5C131.3,125.6,134.2,122.7,137.7,122.7z"
	/>
<path class="st6" d="M36.8,107.9c11.8,0,21.3,9.5,21.3,21.3c0,11.8-9.5,21.3-21.3,21.3c-11.8,0-21.3-9.5-21.3-21.3
	C15.5,117.4,25,107.9,36.8,107.9z"/>
<path class="st5" d="M36.8,122.7c3.6,0,6.5,2.9,6.5,6.5s-2.9,6.5-6.5,6.5c-3.6,0-6.5-2.9-6.5-6.5S33.2,122.7,36.8,122.7z"/>
<path class="st4" d="M172,113c-6.5,0-6.5,5.1-6.5,5.1v5.1c0,5.6,4.2,6,4.2,6h14.4c5.1-0.5,5.1-4.1,5.1-4.1v-7.9
	c0-2.8-3.7-3.2-3.7-3.2L172,113z"/>
</svg>
