<svg id="e9v8UzAfPH61" xmlns="http://www.w3.org/2000/svg" xmlns:xlink="http://www.w3.org/1999/xlink" viewBox="0 0 500 399" shape-rendering="geometricPrecision" text-rendering="geometricPrecision">
<style><![CDATA[
#e9v8UzAfPH687_to {animation: e9v8UzAfPH687_to__to 3000ms linear infinite normal forwards}@keyframes e9v8UzAfPH687_to__to { 0% {transform: translate(868.012222px,985.553085px)} 26.666667% {transform: translate(868.012222px,1029.812092px)} 56.666667% {transform: translate(868.012222px,985.553085px)} 76.666667% {transform: translate(868.012222px,1001.27668px)} 100% {transform: translate(868.012222px,985.553085px)}} #e9v8UzAfPH688_to {animation: e9v8UzAfPH688_to__to 3000ms linear infinite normal forwards}@keyframes e9v8UzAfPH688_to__to { 0% {transform: translate(122.346067px,162.435005px)} 20% {transform: translate(122.029857px,176.70785px)} 36.666667% {transform: translate(122.346067px,162.435005px)} 63.333333% {transform: translate(122.346067px,162.435005px)} 83.333333% {transform: translate(122.029857px,176.70785px)} 100% {transform: translate(122.346067px,162.435005px)}} #e9v8UzAfPH693_to {animation: e9v8UzAfPH693_to__to 3000ms linear infinite normal forwards}@keyframes e9v8UzAfPH693_to__to { 0% {transform: translate(388.482452px,162.435005px)} 20% {transform: translate(388.166242px,176.712839px)} 36.666667% {transform: translate(388.482452px,162.435005px)} 63.333333% {transform: translate(388.482452px,162.435005px)} 83.333333% {transform: translate(388.166242px,176.712839px)} 100% {transform: translate(388.482452px,162.435005px)}} #e9v8UzAfPH6122_ts {animation: e9v8UzAfPH6122_ts__ts 3000ms linear infinite normal forwards}@keyframes e9v8UzAfPH6122_ts__ts { 0% {transform: translate(214.475008px,193.200002px) scale(1,1)} 16.666667% {transform: translate(214.475008px,193.200002px) scale(1,0.295269)} 83.333333% {transform: translate(214.475008px,193.200002px) scale(1,0.295269)} 100% {transform: translate(214.475008px,193.200002px) scale(1,1)}} #e9v8UzAfPH6122 {animation: e9v8UzAfPH6122_c_o 3000ms linear infinite normal forwards}@keyframes e9v8UzAfPH6122_c_o { 0% {opacity: 1} 13.333333% {opacity: 1} 20% {opacity: 0} 80% {opacity: 0} 86.666667% {opacity: 1} 100% {opacity: 1}} #e9v8UzAfPH6124_ts {animation: e9v8UzAfPH6124_ts__ts 3000ms linear infinite normal forwards}@keyframes e9v8UzAfPH6124_ts__ts { 0% {transform: translate(295.902518px,193.200003px) scale(1,1)} 16.666667% {transform: translate(295.902518px,193.200003px) scale(1,0.295269)} 83.333333% {transform: translate(295.902518px,193.200003px) scale(1,0.295269)} 100% {transform: translate(295.902518px,193.200003px) scale(1,1)}} #e9v8UzAfPH6124 {animation: e9v8UzAfPH6124_c_o 3000ms linear infinite normal forwards}@keyframes e9v8UzAfPH6124_c_o { 0% {opacity: 1} 13.333333% {opacity: 1} 20% {opacity: 0} 80% {opacity: 0} 86.666667% {opacity: 1} 100% {opacity: 1}} #e9v8UzAfPH6127_ts {animation: e9v8UzAfPH6127_ts__ts 3000ms linear infinite normal forwards}@keyframes e9v8UzAfPH6127_ts__ts { 0% {transform: translate(214.474998px,194.355003px) scale(1,1)} 16.666667% {transform: translate(214.474998px,194.355003px) scale(1,1)} 33.333333% {transform: translate(214.474998px,194.355003px) scale(1,4.459908)} 66.666667% {transform: translate(214.474998px,194.355003px) scale(1,4.459908)} 83.333333% {transform: translate(214.474998px,194.355003px) scale(1,1)} 100% {transform: translate(214.474998px,194.355003px) scale(1,1)}} #e9v8UzAfPH6129_ts {animation: e9v8UzAfPH6129_ts__ts 3000ms linear infinite normal forwards}@keyframes e9v8UzAfPH6129_ts__ts { 0% {transform: translate(214.474998px,194.355003px) scale(1,1)} 16.666667% {transform: translate(214.474998px,194.355003px) scale(1,1)} 33.333333% {transform: translate(214.474998px,194.355003px) scale(1,4.459908)} 66.666667% {transform: translate(214.474998px,194.355003px) scale(1,4.459908)} 83.333333% {transform: translate(214.474998px,194.355003px) scale(1,1)} 100% {transform: translate(214.474998px,194.355003px) scale(1,1)}} #e9v8UzAfPH6131_ts {animation: e9v8UzAfPH6131_ts__ts 3000ms linear infinite normal forwards}@keyframes e9v8UzAfPH6131_ts__ts { 0% {transform: translate(254.995px,219.67px) scale(1,1)} 6.666667% {transform: translate(254.995px,219.67px) scale(1,1)} 23.333333% {transform: translate(254.995px,219.67px) scale(1,0.439248)} 40% {transform: translate(254.995px,219.67px) scale(1,1)} 56.666667% {transform: translate(254.995px,219.67px) scale(1,0.439248)} 73.333333% {transform: translate(254.995px,219.67px) scale(1,1)} 100% {transform: translate(254.995px,219.67px) scale(1,1)}} #e9v8UzAfPH6133 {animation: e9v8UzAfPH6133_c_o 3000ms linear infinite normal forwards}@keyframes e9v8UzAfPH6133_c_o { 0% {opacity: 0} 16.666667% {opacity: 1} 83.333333% {opacity: 1} 100% {opacity: 0}} #e9v8UzAfPH6138 {animation: e9v8UzAfPH6138_c_o 3000ms linear infinite normal forwards}@keyframes e9v8UzAfPH6138_c_o { 0% {opacity: 0} 16.666667% {opacity: 1} 83.333333% {opacity: 1} 100% {opacity: 0}}
]]></style>
<defs><circle id="e9v8UzAfPH62" r="233.05"/><linearGradient id="e9v8UzAfPH675-fill" x1="140.516228" y1="409.714275" x2="252.406895" y2="246.853912" spreadMethod="pad" gradientUnits="userSpaceOnUse" gradientTransform="translate(0 0)"><stop id="e9v8UzAfPH675-fill-0" offset="0%" stop-color="rgba(255,255,255,0)"/><stop id="e9v8UzAfPH675-fill-1" offset="10.69%" stop-color="rgba(246,255,255,0.1369)"/><stop id="e9v8UzAfPH675-fill-2" offset="28.39%" stop-color="rgba(221,255,255,0.3634)"/><stop id="e9v8UzAfPH675-fill-3" offset="50.9%" stop-color="rgba(180,255,255,0.6516)"/><stop id="e9v8UzAfPH675-fill-4" offset="77.1%" stop-color="rgba(123,255,255,0.9871)"/><stop id="e9v8UzAfPH675-fill-5" offset="78.11%" stop-color="#79ffff"/></linearGradient><linearGradient id="e9v8UzAfPH676-fill" x1="62.661215" y1="361.766552" x2="212.4154" y2="265.055885" spreadMethod="pad" gradientUnits="userSpaceOnUse" gradientTransform="translate(0 0)"><stop id="e9v8UzAfPH676-fill-0" offset="0%" stop-color="rgba(255,255,255,0)"/><stop id="e9v8UzAfPH676-fill-1" offset="10.45%" stop-color="rgba(246,255,255,0.1369)"/><stop id="e9v8UzAfPH676-fill-2" offset="27.75%" stop-color="rgba(221,255,255,0.3634)"/><stop id="e9v8UzAfPH676-fill-3" offset="49.75%" stop-color="rgba(180,255,255,0.6516)"/><stop id="e9v8UzAfPH676-fill-4" offset="75.37%" stop-color="rgba(123,255,255,0.9871)"/><stop id="e9v8UzAfPH676-fill-5" offset="76.35%" stop-color="#79ffff"/></linearGradient><linearGradient id="e9v8UzAfPH677-fill" x1="9.024661" y1="231.540512" x2="189.164831" y2="221.554792" spreadMethod="pad" gradientUnits="userSpaceOnUse" gradientTransform="translate(0 0)"><stop id="e9v8UzAfPH677-fill-0" offset="15.28%" stop-color="rgba(255,255,255,0)"/><stop id="e9v8UzAfPH677-fill-1" offset="23.96%" stop-color="rgba(246,255,255,0.1369)"/><stop id="e9v8UzAfPH677-fill-2" offset="38.32%" stop-color="rgba(221,255,255,0.3634)"/><stop id="e9v8UzAfPH677-fill-3" offset="56.59%" stop-color="rgba(180,255,255,0.6516)"/><stop id="e9v8UzAfPH677-fill-4" offset="77.87%" stop-color="rgba(123,255,255,0.9871)"/><stop id="e9v8UzAfPH677-fill-5" offset="78.68%" stop-color="#79ffff"/></linearGradient><linearGradient id="e9v8UzAfPH678-fill" x1="45.709904" y1="23.289275" x2="204.14027" y2="167.113202" spreadMethod="pad" gradientUnits="userSpaceOnUse" gradientTransform="translate(0 0)"><stop id="e9v8UzAfPH678-fill-0" offset="15.34%" stop-color="rgba(255,255,255,0)"/><stop id="e9v8UzAfPH678-fill-1" offset="24.43%" stop-color="rgba(246,255,255,0.1369)"/><stop id="e9v8UzAfPH678-fill-2" offset="39.46%" stop-color="rgba(221,255,255,0.3634)"/><stop id="e9v8UzAfPH678-fill-3" offset="58.59%" stop-color="rgba(180,255,255,0.6516)"/><stop id="e9v8UzAfPH678-fill-4" offset="80.87%" stop-color="rgba(123,255,255,0.9871)"/><stop id="e9v8UzAfPH678-fill-5" offset="81.72%" stop-color="#79ffff"/></linearGradient><linearGradient id="e9v8UzAfPH679-fill" x1="205.034702" y1="-78.352382" x2="216.306895" y2="141.94675" spreadMethod="pad" gradientUnits="userSpaceOnUse" gradientTransform="translate(0 0)"><stop id="e9v8UzAfPH679-fill-0" offset="23.63%" stop-color="rgba(255,255,255,0)"/><stop id="e9v8UzAfPH679-fill-1" offset="34.01%" stop-color="rgba(246,255,255,0.1369)"/><stop id="e9v8UzAfPH679-fill-2" offset="51.18%" stop-color="rgba(221,255,255,0.3634)"/><stop id="e9v8UzAfPH679-fill-3" offset="73.03%" stop-color="rgba(180,255,255,0.6516)"/><stop id="e9v8UzAfPH679-fill-4" offset="98.46%" stop-color="rgba(123,255,255,0.9871)"/><stop id="e9v8UzAfPH679-fill-5" offset="99.44%" stop-color="#79ffff"/></linearGradient><linearGradient id="e9v8UzAfPH680-fill" x1="379.450918" y1="-68.818091" x2="297.101641" y2="133.509177" spreadMethod="pad" gradientUnits="userSpaceOnUse" gradientTransform="translate(0 0)"><stop id="e9v8UzAfPH680-fill-0" offset="37.36%" stop-color="rgba(255,255,255,0)"/><stop id="e9v8UzAfPH680-fill-1" offset="44.64%" stop-color="rgba(246,255,255,0.1369)"/><stop id="e9v8UzAfPH680-fill-2" offset="56.67%" stop-color="rgba(221,255,255,0.3634)"/><stop id="e9v8UzAfPH680-fill-3" offset="71.98%" stop-color="rgba(180,255,255,0.6516)"/><stop id="e9v8UzAfPH680-fill-4" offset="89.81%" stop-color="rgba(123,255,255,0.9871)"/><stop id="e9v8UzAfPH680-fill-5" offset="90.5%" stop-color="#79ffff"/></linearGradient><linearGradient id="e9v8UzAfPH681-fill" x1="443.732115" y1="321.087225" x2="311.964191" y2="236.370726" spreadMethod="pad" gradientUnits="userSpaceOnUse" gradientTransform="translate(0 0)"><stop id="e9v8UzAfPH681-fill-0" offset="7.94%" stop-color="rgba(255,255,255,0)"/><stop id="e9v8UzAfPH681-fill-1" offset="15.79%" stop-color="rgba(246,255,255,0.1369)"/><stop id="e9v8UzAfPH681-fill-2" offset="28.77%" stop-color="rgba(221,255,255,0.3634)"/><stop id="e9v8UzAfPH681-fill-3" offset="45.29%" stop-color="rgba(180,255,255,0.6516)"/><stop id="e9v8UzAfPH681-fill-4" offset="64.51%" stop-color="rgba(123,255,255,0.9871)"/><stop id="e9v8UzAfPH681-fill-5" offset="65.25%" stop-color="#79ffff"/></linearGradient><linearGradient id="e9v8UzAfPH682-fill" x1="452.230356" y1="43.340516" x2="301.390582" y2="166.661642" spreadMethod="pad" gradientUnits="userSpaceOnUse" gradientTransform="translate(0 0)"><stop id="e9v8UzAfPH682-fill-0" offset="14.35%" stop-color="rgba(255,255,255,0)"/><stop id="e9v8UzAfPH682-fill-1" offset="24.11%" stop-color="rgba(246,255,255,0.1369)"/><stop id="e9v8UzAfPH682-fill-2" offset="40.26%" stop-color="rgba(221,255,255,0.3634)"/><stop id="e9v8UzAfPH682-fill-3" offset="60.81%" stop-color="rgba(180,255,255,0.6516)"/><stop id="e9v8UzAfPH682-fill-4" offset="84.73%" stop-color="rgba(123,255,255,0.9871)"/><stop id="e9v8UzAfPH682-fill-5" offset="85.65%" stop-color="#79ffff"/></linearGradient><linearGradient id="e9v8UzAfPH683-fill" x1="501.200238" y1="190.653059" x2="309.23757" y2="204.936306" spreadMethod="pad" gradientUnits="userSpaceOnUse" gradientTransform="translate(0 0)"><stop id="e9v8UzAfPH683-fill-0" offset="17.72%" stop-color="rgba(255,255,255,0)"/><stop id="e9v8UzAfPH683-fill-1" offset="26.58%" stop-color="rgba(246,255,255,0.1369)"/><stop id="e9v8UzAfPH683-fill-2" offset="41.24%" stop-color="rgba(221,255,255,0.3634)"/><stop id="e9v8UzAfPH683-fill-3" offset="59.9%" stop-color="rgba(180,255,255,0.6516)"/><stop id="e9v8UzAfPH683-fill-4" offset="81.61%" stop-color="rgba(123,255,255,0.9871)"/><stop id="e9v8UzAfPH683-fill-5" offset="82.45%" stop-color="#79ffff"/></linearGradient><linearGradient id="e9v8UzAfPH684-fill" x1="293.548998" y1="405.524418" x2="255.641784" y2="258.036995" spreadMethod="pad" gradientUnits="userSpaceOnUse" gradientTransform="translate(0 0)"><stop id="e9v8UzAfPH684-fill-0" offset="0%" stop-color="rgba(255,255,255,0)"/><stop id="e9v8UzAfPH684-fill-1" offset="13.35%" stop-color="rgba(240,255,255,0.1633)"/><stop id="e9v8UzAfPH684-fill-2" offset="39.2%" stop-color="rgba(199,255,255,0.4797)"/><stop id="e9v8UzAfPH684-fill-3" offset="74.68%" stop-color="rgba(135,255,255,0.9139)"/><stop id="e9v8UzAfPH684-fill-4" offset="81.71%" stop-color="#79ffff"/></linearGradient></defs><g display="none" transform="translate(-5.17094 10.8007)"><g><g transform="translate(0 0.000001)" clip-path="url(#e9v8UzAfPH685)"><polygon points="271.44,164.9 82.83,417.51 114.08,463.41 140.21,485.51" fill="url(#e9v8UzAfPH675-fill)"/><polygon points="252.67,197.35 11.61,343.66 22.77,398.06 38.36,428.53" fill="url(#e9v8UzAfPH676-fill)"/><polygon points="259.39,200.14 -32.26,152.55 -42.26,281.59 -43.79,315.78" fill="url(#e9v8UzAfPH677-fill)"/><polygon points="272.37,217.89 83.47,-80.6 -47.74,30.14 -73.16,53.06" fill="url(#e9v8UzAfPH678-fill)"/><polygon points="262.48,226.9 260.35,-151.43 177.37,-128.21 143.19,-129.89" fill="url(#e9v8UzAfPH679-fill)"/><polygon points="256.24,210.2 499.02,-87.11 339.96,-156.13 309.71,-172.14" fill="url(#e9v8UzAfPH680-fill)"/><path d="M260.78,219.86l180.3,148.22l48.86-26.4l24.66-23.73L270.03,193.31c-5.66-2.63-13.93,22.41-9.25,26.55Z" fill="url(#e9v8UzAfPH681-fill)"/><polygon points="243.61,217.45 509.48,64.8 485.67,-8.46 466.77,-36.99" fill="url(#e9v8UzAfPH682-fill)"/><polygon points="232.96,204.06 552.62,273.04 561.03,168.48 553.31,100.66" fill="url(#e9v8UzAfPH683-fill)"/><path d="M254.65,183.82c1.59,2.28-5.25,18.91-5.96,21.49-4.89,17.67-9.78,35.33-14.68,53-11.58,41.83-23.17,83.66-34.75,125.49-3.89,14.03-14.74,35.5-1.68,47.73c27.09,25.37,71.52,8.48,100.94-3.47c28.29-11.49,55.86-25.05,85.34-33.24c3.71-1.03,7.89-2.39,9.45-5.91c3.18-7.14-7.1-15.12-10.62-20.37-4.98-7.43-22.99-35.24-28.1-42.58-13.81-19.85-14.5-19.39-28.32-39.24-22.82-32.79-45.65-65.58-68.47-98.37-1.05-1.51-2.1-3.02-3.15-4.53Z" fill="url(#e9v8UzAfPH684-fill)"/><clipPath id="e9v8UzAfPH685"><use width="466.100006" height="466.100006" xlink:href="#e9v8UzAfPH62" transform="translate(253.52 195.6)"/></clipPath></g></g></g><g id="e9v8UzAfPH687_to" transform="translate(868.012222,985.553085)"><g transform="translate(-868.012222,-998.947258)"><g id="e9v8UzAfPH688_to" transform="translate(122.346067,162.435005)"><g transform="translate(-124.887009,-162.439995)"><g><circle r="23.55" transform="translate(106.09 120.12)" fill="#fff" stroke="#39d3cc" stroke-width="3.6542" stroke-miterlimit="10"/><g><path d="M132.74,226.28c-18.43-3.24-32.08-9.86-40.57-19.67-8.15-9.41-11.21-21.61-8.86-35.28c3.91-22.73,6.22-35.31,9.26-40.75c2.87-5.14,9.36-6.98,14.5-4.11c4.87,2.72,6.78,8.68,4.53,13.67-.38,1.07-1.97,6.06-7.28,34.81-1.38,7.45-.03,13.09,3.95,17.7c10.76,12.46,38.33,14.57,48.03,14.34v0c5.9-.15,10.77,4.49,10.93,10.37s-4.48,10.78-10.37,10.94c-.09,0-.59.01-1.42.01-3.39-.01-12.34-.2-22.7-2.03Z" transform="translate(.049587 0)" fill="#fff" stroke="#39d3cc" stroke-width="3.6542" stroke-miterlimit="10"/></g></g></g></g><g id="e9v8UzAfPH693_to" transform="translate(388.482452,162.435005)"><g transform="translate(-388.482452,-162.435005)"><g><circle r="23.55" transform="translate(407.27 120.12)" fill="#fff" stroke="#39d3cc" stroke-width="3.6542" stroke-miterlimit="10"/><g><path d="M357.93,228.3c-.84,0-1.33-.01-1.42-.01-5.88-.16-10.53-5.06-10.37-10.94s5.03-10.51,10.93-10.37v0c9.7.22,37.27-1.89,48.03-14.34c3.98-4.61,5.33-10.25,3.95-17.7-5.32-28.75-6.9-33.74-7.28-34.81-2.25-4.99-.34-10.95,4.53-13.67c5.14-2.87,11.63-1.03,14.5,4.11c3.04,5.44,5.35,18.02,9.26,40.75c2.35,13.67-.71,25.87-8.86,35.28-8.49,9.81-22.14,16.43-40.57,19.67-10.37,1.84-19.32,2.03-22.7,2.03Zm45.317706-87.339997c0,0-1.067706-.000003-1.067706-.000003-.01,0,1.067706.000003,1.067706.000003Z" transform="translate(-.005531-.000003)" fill="#fff" stroke="#39d3cc" stroke-width="3.6542" stroke-miterlimit="10"/></g></g></g></g><g><text dx="0" dy="0" font-family="&quot;AdobeMyungjoStd-Medium-KSCpc-EUC-H&quot;" font-size="12" font-weight="400" transform="translate(1621 1920)"><![CDATA[
구름01
]]></text><path d="" fill="none" stroke="#5da6fe" stroke-width="3.8098" stroke-linecap="round" stroke-miterlimit="10"/><path d="" fill="none" stroke="#5da6fe" stroke-width="3.8098" stroke-linecap="round" stroke-miterlimit="10"/><path d="" fill="none" stroke="#5da6fe" stroke-width="3.8098" stroke-linecap="round" stroke-miterlimit="10"/><path d="" fill="none" stroke="#5da6fe" stroke-width="3.8098" stroke-linecap="round" stroke-miterlimit="10"/><g><g><g><path d="" fill="none" stroke="#fff" stroke-width="15.2393" stroke-miterlimit="10"/></g><g><path d="" fill="none" stroke="#fff" stroke-width="15.2393" stroke-miterlimit="10"/></g><g><path d="M294.38,122.55L283.61,89.19c-.45-1.78-2.84-2.12-3.76-.53l-10.48,16.19-12.71-28.9c-.45-1.78-2.84-2.12-3.76-.53l-13.62,29.41-8.96-16.16c-.92-1.59-3.31-1.26-3.76.53l-10.75,33.37c-.32,1.29.65,2.54,1.98,2.54h17.63h9.96h19.42h6.76h20.83c1.34-.02,2.31-1.27,1.99-2.56Z" fill="#fff" stroke="#39d3cc" stroke-width="3.6542" stroke-linejoin="round" stroke-miterlimit="10"/></g><polygon points="254.33,114.59 247.99,103.65 254.33,92.71 260.65,103.65" fill="#79ffff"/><polygon points="277.56,115.38 271.22,115.38 278.68,104.43 283.87,115.38" fill="#79ffff"/><polygon points="232.2,115.38 238.54,115.38 231.08,104.43 225.89,115.38" fill="#79ffff"/></g><path d="M357.95,156.77c-.43-.22-.88-.42-1.34-.59-24.2-10.39-58.32-17.1-101.54-17.09s-77.34,6.74-101.54,17.14c-.46.17-.91.36-1.34.59-3.52,1.83-5.93,5.51-5.93,9.75l-1.82,38.07-2.33,63.67l3.56,17.55c1.32,5.21,3.03,8.82,7.28,10.34c0,0,0,0,0,0c24.2,10.39,58.93,17.18,102.15,17.17c40.03-.01,80.54-8.08,101.93-17.14c4.35-1.46,5.76-3.62,7.49-10.42l3.36-16.44-2.16-64.79-1.84-38.07c0-4.23-2.4-7.91-5.93-9.74Z" fill="#79ffff" stroke="#39d3cc" stroke-width="3.6542" stroke-miterlimit="10"/><path d="M357.95,137.8c-.43-.22-.88-.42-1.34-.59-24.2-10.39-58.32-17.1-101.54-17.09s-77.34,6.74-101.54,17.14c-.46.17-.91.36-1.34.59-3.52,1.83-5.93,5.51-5.93,9.75l-1.82,38.07-2.42,81.22c0,4.76,3.03,8.82,7.28,10.34c0,0,0,0,0,0c24.2,10.39,62.59,17.18,105.81,17.17c40.03-.01,84.2-8.08,105.58-17.14c4.35-1.46,7.49-5.57,7.49-10.42l-2.45-81.22-1.84-38.07c-.01-4.24-2.41-7.92-5.94-9.75ZM150.16,277.5c.01,0,.02.01.04.01-.01,0-.03-.01-.04-.01Z" fill="#79ffff" stroke="#39d3cc" stroke-width="3.6542" stroke-miterlimit="10"/><path d="M341.29,149.53c-.36-.18-.74-.34-1.13-.47-20.43-8.36-48.58-13.76-85.08-13.75s-64.64,5.42-85.08,13.79c-.39.13-.77.29-1.13.47-2.97,1.47-5.01,4.43-5.01,7.85l-1.82,30.63-2.42,65.36c0,3.83,2.56,7.1,6.14,8.32c0,0,0,0,0,0c20.43,8.36,52.85,13.82,89.34,13.82c33.8-.01,71.1-6.5,89.15-13.8c3.67-1.18,6.32-4.48,6.32-8.38l-2.45-65.36-1.83-30.63c0-3.41-2.03-6.37-5-7.85ZM166.49,261.96c.01,0,.02.01.03.01-.01-.01-.02-.01-.03-.01Zm.74.16c.03.01.07.01.1.02-.03-.01-.07-.02-.1-.02Zm.81.1c.04,0,.07.01.11.01-.04,0-.07,0-.11-.01Z" transform="translate(.125123 0)" fill="#fff"/></g></g><g><path d="M309.72,163.37c0,0-15.53-10.31-28.13-4.63" fill="none" stroke="#3d9bf9" stroke-width="4.2632" stroke-linecap="round" stroke-miterlimit="10"/></g><g><path d="M228.39,157.24c0,0-18.3-3.55-27.75,6.53" fill="none" stroke="#3d9bf9" stroke-width="4.2632" stroke-linecap="round" stroke-miterlimit="10"/></g><g id="e9v8UzAfPH6122_ts" transform="translate(214.475008,193.200002) scale(1,1)"><g id="e9v8UzAfPH6122" transform="translate(-214.524986,-199.505005)"><path d="M210.82,213.56h7.4c3.14,0,5.68-2.55,5.68-5.68l-.69-16.75c0-3.14-2.55-5.68-5.68-5.68h-6.01c-3.14,0-5.68,2.55-5.68,5.68l-.69,16.75c-.01,3.13,2.54,5.68,5.67,5.68Z" fill="#3d9bf9"/></g></g><g id="e9v8UzAfPH6124_ts" transform="translate(295.902518,193.200003) scale(1,1)"><g id="e9v8UzAfPH6124" transform="translate(-214.524986,-199.505005)"><path d="M210.82,213.56h7.4c3.14,0,5.68-2.55,5.68-5.68l-.69-16.75c0-3.14-2.55-5.68-5.68-5.68h-6.01c-3.14,0-5.68,2.55-5.68,5.68l-.69,16.75c-.01,3.13,2.54,5.68,5.67,5.68Z" fill="#3d9bf9"/></g></g><g transform="matrix(1 0 0 0.238782 81.427511 147.946528)"><g id="e9v8UzAfPH6127_ts" transform="translate(214.474998,194.355003) scale(1,1)"><path d="M221.75,201.33l-.54-9.26c0-2.59-1.97-4.69-4.41-4.69h-4.66c-2.43,0-4.41,2.1-4.41,4.69l-.53,9.26" transform="translate(-214.474998,-194.355003)" fill="none" stroke="#3d9bf9" stroke-width="3.869" stroke-linecap="round" stroke-miterlimit="10"/></g></g><g transform="matrix(1 0 0 0.238782 0 147.946527)"><g id="e9v8UzAfPH6129_ts" transform="translate(214.474998,194.355003) scale(1,1)"><path d="M221.75,201.33l-.54-9.26c0-2.59-1.97-4.69-4.41-4.69h-4.66c-2.43,0-4.41,2.1-4.41,4.69l-.53,9.26" transform="translate(-214.474998,-194.355003)" fill="none" stroke="#3d9bf9" stroke-width="3.869" stroke-linecap="round" stroke-miterlimit="10"/></g></g><g><g id="e9v8UzAfPH6131_ts" transform="translate(254.995,219.67) scale(1,1)"><g transform="translate(-254.995,-219.67)"><path d="M222.82,217.26c0,17.83,14.45,22.08,32.28,22.08v0c17.83,0,32.28-4.25,32.28-22.08" fill="#3d9bf9"/></g></g></g><g id="e9v8UzAfPH6133" opacity="0"><g><line x1="193.4" y1="219.67" x2="187.19" y2="230.71" fill="none" stroke="#ff847b" stroke-width="4.2632" stroke-linecap="round" stroke-miterlimit="10"/><line x1="203.44" y1="219.67" x2="197.23" y2="230.71" fill="none" stroke="#ff847b" stroke-width="4.2632" stroke-linecap="round" stroke-miterlimit="10"/><line x1="214.09" y1="219.67" x2="207.88" y2="230.71" fill="none" stroke="#ff847b" stroke-width="4.2632" stroke-linecap="round" stroke-miterlimit="10"/></g></g><g id="e9v8UzAfPH6138" opacity="0"><g><line x1="305.89" y1="219.67" x2="299.68" y2="230.71" fill="none" stroke="#ff847b" stroke-width="4.2632" stroke-linecap="round" stroke-miterlimit="10"/><line x1="315.93" y1="219.67" x2="309.72" y2="230.71" fill="none" stroke="#ff847b" stroke-width="4.2632" stroke-linecap="round" stroke-miterlimit="10"/><line x1="326.57" y1="219.67" x2="320.37" y2="230.71" fill="none" stroke="#ff847b" stroke-width="4.2632" stroke-linecap="round" stroke-miterlimit="10"/></g></g></g></g></svg>
