<svg width="164" height="20" viewBox="0 0 164 20" fill="none" xmlns="http://www.w3.org/2000/svg">
<g clip-path="url(#clip0_242_573)">
<path d="M23.9541 0.84668V4.27253H17.3505V7.14864H23.7262V10.5812H17.3505V13.531H23.9541V16.9837H13.1805V0.84668H23.9541Z" fill="#ED1B23"/>
<path d="M25.9117 0.84668H30.0818V16.9904H25.9117V0.84668Z" fill="#ED1B23"/>
<mask id="mask0_242_573" style="mask-type:luminance" maskUnits="userSpaceOnUse" x="0" y="0" width="100" height="19">
<path d="M0 0.00195312H100V18.0899H0V0.00195312Z" fill="white"/>
</mask>
<g mask="url(#mask0_242_573)">
<path d="M7.05953 0.84668V12.3109C7.03942 13.102 6.38911 13.7255 5.60472 13.7054C5.23693 13.6988 4.88602 13.5498 4.62591 13.2897C4.3658 13.0296 4.21679 12.6787 4.21024 12.3109V10.9231H0V12.3176C0 15.1199 2.15876 17.3994 5.61813 17.3994C9.0775 17.3994 11.2296 15.1266 11.2296 12.3176V0.84668H7.05953Z" fill="#ED1B23"/>
<path d="M100 10.246V7.97995H97.4591C98.023 7.13921 98.3241 6.14972 98.3239 5.13737C98.3373 2.28808 96.0378 -0.0315772 93.1818 -0.0449856C90.3325 -0.058394 88.0129 2.24115 87.9994 5.09714C87.9994 6.12289 88.2944 7.12852 88.8643 7.97995H86.3435V10.246H88.9783V12.0896H86.7994V14.2685H96.8624V17.4865H99.4838V12.0896H97.3652V10.246H99.9933H100ZM93.1684 2.36183C93.7207 2.36116 94.2607 2.52428 94.7203 2.83055C95.1798 3.13682 95.5383 3.57249 95.7502 4.08246C95.9622 4.59244 96.0181 5.15381 95.9111 5.69559C95.804 6.23737 95.5386 6.73523 95.1486 7.12621C94.7585 7.51719 94.2613 7.78373 93.7198 7.89212C93.1783 8.00051 92.6168 7.94589 92.1063 7.73516C91.5958 7.52443 91.1593 7.16706 90.8519 6.70824C90.5445 6.24941 90.3801 5.70975 90.3794 5.15748C90.3794 3.61551 91.6264 2.36183 93.1684 2.36183ZM94.7305 12.0896H91.5929V10.246H94.7305V12.0896Z" fill="#191717"/>
<path d="M82.3277 1.25562H70.8098V3.44119H79.6929V14.6841H78.3722V7.50394H75.7508V14.6841H74.5173V7.50394H71.9295V14.6841H69.9852V16.9904H83.635V14.6841H82.321V1.25562H82.3277Z" fill="#191717"/>
<path d="M47.7809 4.91615H46.7016V0.860107H44.2545V11.7008L41.7136 3.44793H43.5372V1.19532H37.3559V3.44793H39.1593L36.5849 11.8349H39.0319L40.4331 6.71288L41.841 11.8349H44.2478V16.9837H46.6948V7.16877H47.7742V16.9837H50.2213V0.860107H47.7742V4.92286L47.7809 4.91615Z" fill="#191717"/>
<path d="M66.4991 5.88826V3.63565H57.0997V0.860107H54.6527V5.88826H66.4923H66.4991Z" fill="#191717"/>
<path d="M67.3706 7.45032H53.7946V9.70293H56.4762C54.7063 11.9757 55.1086 15.254 57.3813 17.0306C59.654 18.8073 62.9324 18.3983 64.709 16.1256C66.1839 14.235 66.1839 11.5935 64.709 9.70293H67.3706V7.45032ZM60.5993 15.6965C59.0641 15.6965 57.8171 14.4562 57.8171 12.921C57.8171 11.3857 59.0574 10.1387 60.5926 10.1387C62.1279 10.1387 63.3749 11.379 63.3749 12.9142V12.921C63.3749 14.4562 62.1279 15.6965 60.5993 15.6965Z" fill="#191717"/>
</g>
</g>
<path d="M110.608 7.592H112V8.396C112 10.808 110.284 12.944 107.404 13.508L106.72 12.188C109.228 11.756 110.608 9.992 110.608 8.396V7.592ZM110.932 7.592H112.312V8.396C112.312 10.028 113.68 11.756 116.2 12.188L115.516 13.508C112.636 12.944 110.932 10.844 110.932 8.396V7.592ZM106.492 15.416H116.548V16.712H106.492V15.416ZM121.647 7.592H123.039V8.396C123.039 10.808 121.323 12.944 118.443 13.508L117.759 12.188C120.267 11.756 121.647 9.992 121.647 8.396V7.592ZM121.971 7.592H123.351V8.396C123.351 10.028 124.719 11.756 127.239 12.188L126.555 13.508C123.675 12.944 121.971 10.844 121.971 8.396V7.592ZM117.531 15.416H127.587V16.712H117.531V15.416ZM128.57 15.548H138.626V16.844H128.57V15.548ZM132.782 13.448H134.378V16.076H132.782V13.448ZM129.698 7.676H137.498V11.372H131.306V13.244H129.722V10.124H135.914V8.936H129.698V7.676ZM129.722 12.608H137.75V13.892H129.722V12.608ZM145.016 8.192H146.336V9.128C146.336 11.228 145.316 13.124 143.18 13.82L142.364 12.572C144.212 11.972 145.016 10.532 145.016 9.128V8.192ZM145.34 8.192H146.648V9.128C146.648 10.448 147.44 11.804 149.252 12.38L148.436 13.616C146.348 12.956 145.34 11.144 145.34 9.128V8.192ZM142.784 7.748H148.832V9.008H142.784V7.748ZM149.948 6.968H151.556V14.984H149.948V6.968ZM144.152 16.604H151.832V17.876H144.152V16.604ZM144.152 14.264H145.748V17.24H144.152V14.264ZM160.507 6.956H162.103V14.984H160.507V6.956ZM161.647 9.98H163.579V11.288H161.647V9.98ZM153.775 11.888H154.699C157.111 11.888 158.311 11.84 159.643 11.552L159.799 12.812C158.443 13.112 157.171 13.172 154.699 13.172H153.775V11.888ZM153.775 7.832H158.743V9.116H155.359V12.572H153.775V7.832ZM154.939 16.604H162.499V17.876H154.939V16.604ZM154.939 14.144H156.535V17.252H154.939V14.144Z" fill="black"/>
<defs>
<clipPath id="clip0_242_573">
<rect width="100" height="18.092" fill="white"/>
</clipPath>
</defs>
</svg>
