<svg xmlns="http://www.w3.org/2000/svg" id="_레이어_2" width="52.62mm" height="9.52mm" viewBox="0 0 149.16 26.98"><defs><clipPath id="clippath"><path d="M0 0h149.16v26.98H0z" style="stroke-width:0;fill:none"/></clipPath><style>.cls-3,.cls-4{stroke-width:0}.cls-3{fill:#191717}.cls-4{fill:#ed1b23}</style></defs><g id="_레이어_1-2"><g id="_그룹_4"><path id="_패스_495" d="M35.73 1.26v5.11h-9.85v4.29h9.51v5.12h-9.51v4.4h9.85v5.15H19.66V1.26h16.07Z" class="cls-4"/><path id="_사각형_13407" d="M38.65 1.26h6.22v24.08h-6.22z" class="cls-4"/><g id="_그룹_3" style="clip-path:url(#clippath)"><g id="_그룹_2"><path id="_패스_496" d="M10.53 1.26v17.1c-.03 1.18-1 2.11-2.17 2.08a2.118 2.118 0 0 1-2.08-2.08v-2.07H0v2.08c0 4.18 3.22 7.58 8.38 7.58s8.37-3.39 8.37-7.58V1.26h-6.22Z" class="cls-4"/><path id="_패스_497" d="M149.16 15.28V11.9h-3.79a7.61 7.61 0 0 0 1.29-4.24c.02-4.25-3.41-7.71-7.67-7.73-4.25-.02-7.71 3.41-7.73 7.67 0 1.53.44 3.03 1.29 4.3h-3.76v3.38h3.93v2.75h-3.25v3.25h15.01v4.8h3.91v-8.05h-3.16v-2.75h3.92ZM138.97 3.52a4.165 4.165 0 1 1-4.16 4.17c0-2.3 1.86-4.17 4.16-4.17m2.33 14.51h-4.68v-2.75h4.68v2.75Z" class="cls-3"/><path id="_패스_498" d="M122.8 1.87h-17.18v3.26h13.25V21.9h-1.97V11.19h-3.91V21.9h-1.84V11.19h-3.86V21.9h-2.9v3.44h20.36V21.9h-1.96V1.87Z" class="cls-3"/><path id="_패스_499" d="M71.27 7.33h-1.61V1.28h-3.65v16.17L62.22 5.14h2.72V1.78h-9.22v3.36h2.69l-3.84 12.51h3.65l2.09-7.64 2.1 7.64H66v7.68h3.65V10.69h1.61v14.64h3.65V1.28h-3.65v6.06Z" class="cls-3"/><path id="_패스_500" d="M99.19 8.78V5.42H85.17V1.28h-3.65v7.5h17.66Z" class="cls-3"/><path id="_패스_501" d="M100.49 11.11H80.24v3.36h4c-2.64 3.39-2.04 8.28 1.35 10.93s8.28 2.04 10.93-1.35c2.2-2.82 2.2-6.76 0-9.58h3.97v-3.36Zm-10.1 12.3c-2.29 0-4.15-1.85-4.15-4.14 0-2.29 1.85-4.15 4.14-4.15s4.15 1.85 4.15 4.14v.01c0 2.29-1.86 4.14-4.14 4.14" class="cls-3"/></g></g></g></g></svg>