<svg width="420" height="420" viewBox="0 0 420 420" fill="none" xmlns="http://www.w3.org/2000/svg">
<rect width="420" height="420" fill="white"/>
<path d="M225.47 380.31C224.63 380.31 223.79 380.31 222.95 379.89C169.61 363.3 133.49 329.7 115.64 279.93C95.4799 223.23 106.61 162.75 109.55 158.76C112.07 154.98 116.9 154.14 120.68 156.66C124.04 158.76 125.3 162.75 123.62 166.11C122.36 171.78 91.9099 322.98 227.57 364.56C231.77 365.82 234.08 370.23 232.82 374.43C231.98 378.21 228.83 380.31 225.47 380.31Z" fill="#AE702F"/>
<path d="M222.53 78.54C179.9 79.8 144.83 231.42 144.83 320.88C144.83 410.34 189.98 400.26 221.69 400.26C253.4 400.26 297.71 410.13 297.71 320.88C297.71 231.63 264.53 81.48 222.53 78.54Z" fill="#D0914C"/>
<path d="M204.47 388.5C204.47 396.27 197.96 402.78 190.19 402.78H161.42C153.65 402.78 147.14 396.27 147.14 388.5C147.14 380.73 153.65 374.22 161.42 374.22H190.19C198.38 374.01 204.47 380.52 204.47 388.5Z" fill="#AE702F"/>
<path d="M301.07 388.5C301.07 396.27 294.56 402.78 286.79 402.78H258.02C250.25 402.78 243.74 396.27 243.74 388.5C243.74 380.73 250.25 374.22 258.02 374.22H286.79C294.98 374.01 301.07 380.52 301.07 388.5Z" fill="#AE702F"/>
<path d="M269.36 279.93L262.43 132.51L174.44 145.32L184.73 282.24C184.73 282.24 174.86 389.97 225.89 389.97C272.3 389.76 269.36 279.93 269.36 279.93Z" fill="#ECBC6E"/>
<g opacity="0.05">
<path d="M221.69 245.49C221.69 245.49 235.34 347.76 243.95 388.5C238.7 390.6 271.46 389.76 271.46 389.76C271.46 389.76 291.2 244.23 280.7 223.65C270.2 203.07 221.69 245.49 221.69 245.49Z" fill="black"/>
</g>
<path d="M265.79 389.34L279.02 242.76C264.32 227.64 243.32 243.18 243.32 243.18C243.32 243.18 247.52 386.19 242.06 388.71C236.81 390.81 265.79 389.34 265.79 389.34Z" fill="#D0914C"/>
<g opacity="0.05">
<path d="M227.15 245.49C227.15 245.49 176.33 213.15 161 228.48L176.96 389.76C176.96 389.76 210.14 391.02 204.47 388.5C213.92 347.76 227.15 245.49 227.15 245.49Z" fill="black"/>
</g>
<path d="M206.15 388.08C200.9 385.98 204.89 242.97 204.89 242.97C204.89 242.97 184.31 227.85 169.19 242.55L182.42 389.13C182.42 389.13 170.03 392.07 171.29 402.78C171.29 402.78 182.42 405.72 193.13 405.3C203 404.88 212.87 401.1 212.87 401.1C212.87 401.1 211.4 390.39 206.15 388.08Z" fill="#D0914C"/>
<path d="M280.91 397.11C280.91 403.2 276.08 408.66 269.36 408.66H246.68C240.59 408.66 235.13 403.83 235.13 397.11C235.13 391.02 239.96 385.56 246.68 385.56H269.36C276.08 385.56 280.91 390.81 280.91 397.11Z" fill="#ECBC6E"/>
<path d="M213.92 397.11C213.92 403.2 209.09 408.66 202.37 408.66H179.9C173.81 408.66 168.35 403.83 168.35 397.11C168.35 391.02 173.18 385.56 179.9 385.56H202.58C209.09 385.56 213.92 390.81 213.92 397.11Z" fill="#ECBC6E"/>
<g opacity="0.1">
<path d="M269.36 400.05H246.68C241.85 400.05 237.65 397.11 235.97 393.12C235.55 394.38 235.13 396.06 235.13 397.32C235.13 403.41 239.96 408.87 246.68 408.87H269.36C275.45 408.87 280.91 404.04 280.91 397.32C280.91 395.64 280.49 394.38 280.07 393.12C277.97 397.32 273.98 400.05 269.36 400.05Z" fill="black"/>
<path d="M202.16 399.84H179.69C174.86 399.84 170.66 396.9 168.98 392.91C168.56 394.17 168.14 395.85 168.14 397.11C168.14 403.2 172.97 408.66 179.69 408.66H202.37C208.46 408.66 213.92 403.83 213.92 397.11C213.92 395.43 213.5 394.17 213.08 392.91C210.77 397.11 206.78 399.84 202.16 399.84Z" fill="black"/>
</g>
<g opacity="0.1">
<path d="M224.42 329.91C228.2 297.57 281.33 283.71 279.44 236.25C275.66 196.35 267.68 173.88 255.29 142.38C245.84 133.14 199.43 134.82 187.46 146.58C175.28 178.08 166.46 203.91 162.47 241.92C167.09 279.09 211.4 288.33 224.42 329.91Z" fill="black"/>
</g>
<path d="M223.58 138.81C196.91 138.81 161.63 179.13 161.63 228.69C161.63 278.25 208.46 269.43 223.58 318.57C227.78 282.03 279.86 280.14 279.86 228.69C279.86 179.13 250.67 138.81 223.58 138.81Z" fill="#ECBC6E"/>
<g opacity="0.1">
<path d="M225.05 122.64C204.47 122.64 174.86 139.44 165.41 175.14C189.14 192.36 217.28 201.39 226.94 201.39C235.55 201.39 258.65 194.46 279.02 180.81C269.36 140.7 246.89 122.64 225.05 122.64Z" fill="black"/>
</g>
<path d="M225.47 38.8501C160.16 38.8501 137.06 75.3901 138.32 121.38C139.58 167.37 213.08 194.46 229.04 194.46C245.42 194.46 313.67 167.37 312.41 121.38C311.78 75.3901 294.56 38.8501 225.47 38.8501Z" fill="#D0914C"/>
<path d="M226.73 113.61C206.99 113.61 191.45 139.02 191.45 183.12C226.73 210.21 262.22 183.96 262.22 183.12C262.01 139.44 246.47 113.61 226.73 113.61Z" fill="#ECBC6E"/>
<path d="M306.74 11.55C287.84 4.62 245.21 54.6 245.21 54.6C245.21 54.6 280.49 84.21 298.55 89.88C298.55 90.51 325.64 18.69 306.74 11.55Z" fill="#D0914C"/>
<path d="M298.97 30.8701C290.78 27.5101 271.88 50.1901 271.88 50.1901C271.88 50.1901 287.42 63.4201 295.61 65.7301C295.61 65.9401 307.58 33.8101 298.97 30.8701Z" fill="#F1D08E"/>
<path d="M143.78 10.92C125.3 17.85 151.55 90.72 151.55 90.72C169.19 85.05 203.63 55.02 203.63 55.02C203.63 55.02 161.84 3.77999 143.78 10.92Z" fill="#D0914C"/>
<path d="M287.84 108.15C287.84 118.02 279.65 126.21 269.78 126.21C259.91 126.21 251.72 118.02 251.72 108.15C251.72 98.2801 259.91 90.0901 269.78 90.0901C279.65 90.0901 287.84 98.2801 287.84 108.15Z" fill="white"/>
<path d="M280.91 107.73C280.91 113.4 276.08 118.44 270.2 118.44C264.53 118.44 259.49 113.61 259.49 107.73C259.49 102.06 264.32 97.02 270.2 97.02C276.08 97.02 280.91 101.64 280.91 107.73Z" fill="#231F20"/>
<path d="M267.05 104.58C267.05 105.84 266.21 106.68 264.95 106.68C263.69 106.68 262.85 105.84 262.85 104.58C262.85 103.32 263.69 102.48 264.95 102.48C266.21 102.48 267.05 103.32 267.05 104.58Z" fill="white"/>
<path d="M201.95 109.83C201.95 119.7 193.76 127.89 183.89 127.89C174.02 127.89 165.83 119.7 165.83 109.83C165.83 99.96 174.02 91.77 183.89 91.77C194.18 91.77 201.95 99.54 201.95 109.83Z" fill="white"/>
<path d="M195.02 109.41C195.02 115.08 190.19 120.12 184.31 120.12C178.22 120.12 173.6 115.29 173.6 109.41C173.6 103.53 178.43 98.7 184.31 98.7C190.19 98.28 195.02 103.32 195.02 109.41Z" fill="#231F20"/>
<path d="M181.58 106.05C181.58 107.31 180.74 108.15 179.48 108.15C178.22 108.15 177.38 107.31 177.38 106.05C177.38 104.79 178.22 103.95 179.48 103.95C180.32 104.16 181.58 105 181.58 106.05Z" fill="white"/>
<path d="M151.13 28.98C142.94 32.13 154.7 63.84 154.7 63.84C162.47 61.32 178.43 48.3 178.43 48.3C178.43 48.3 159.32 25.62 151.13 28.98Z" fill="#F1D08E"/>
<path d="M235.173 141.08L271.054 136.934L270.765 134.43L234.883 138.577L235.173 141.08Z" fill="#4F4B4B"/>
<path d="M268.603 158.367L269.452 155.994L235.445 143.826L234.596 146.198L268.603 158.367Z" fill="#4F4B4B"/>
<path d="M217.086 141.279L217.385 138.777L180.688 134.386L180.388 136.888L217.086 141.279Z" fill="#4F4B4B"/>
<path d="M185.642 156.649L220.455 144.231L219.608 141.857L184.796 154.276L185.642 156.649Z" fill="#4F4B4B"/>
<path d="M226.73 132.09C196.7 132.09 220.01 152.25 227.15 152.25C234.92 152.25 256.76 132.09 226.73 132.09Z" fill="#4F4B4B"/>
<g opacity="0.1">
<path d="M212.03 136.08C208.88 141.75 221.9 152.25 227.15 152.25C232.4 152.25 244.16 143.01 241.22 136.71C239.12 143.85 214.76 145.95 212.03 136.08Z" fill="black"/>
</g>
</svg>
