<?xml version="1.0" encoding="utf-8"?>
<!-- Generator: Adobe Illustrator 16.0.0, SVG Export Plug-In . SVG Version: 6.00 Build 0)  -->
<!DOCTYPE svg PUBLIC "-//W3C//DTD SVG 1.1//EN" "http://www.w3.org/Graphics/SVG/1.1/DTD/svg11.dtd">
<svg version="1.1" id="레이어_1" xmlns="http://www.w3.org/2000/svg" xmlns:xlink="http://www.w3.org/1999/xlink" x="0px"
	 y="0px" width="107px" height="200px" viewBox="0 0 107 200" style="enable-background:new 0.1 0 107 200;" xml:space="preserve"
	>
<style type="text/css">
<![CDATA[
	.st0{fill:#AE702F;}
	.st1{fill:#4F4B4B;}
	.st2{fill:#ECBC6E;}
	.st3{fill:#231F20;}
	.st4{fill:#F1D08E;}
	.st5{opacity:0.1;}
	.st6{fill:#FFFFFF;}
	.st7{opacity:0.05;}
	.st8{fill:#D0914C;}
]]>
</style>
<path class="st0" d="M60.7,181.1c-0.4,0-0.8,0-1.2-0.2C34.1,173,16.9,157,8.4,133.3c-9.6-27-4.3-55.8-2.9-57.7
	c1.2-1.8,3.5-2.2,5.3-1c1.6,1,2.2,2.9,1.4,4.5c-0.6,2.7-15.1,74.7,49.5,94.5c2,0.6,3.1,2.7,2.5,4.7
	C63.8,180.1,62.3,181.1,60.7,181.1z"/>
<g id="Ellipse_39_4_">
	<g>
		<path class="st8" d="M59.3,37.4c-20.3,0.6-37,72.8-37,115.4c0,42.6,21.5,37.8,36.6,37.8s36.2,4.7,36.2-37.8S79.3,38.8,59.3,37.4z"
			/>
	</g>
</g>
<path class="st0" d="M50.7,185c0,3.7-3.1,6.8-6.8,6.8H30.2c-3.7,0-6.8-3.1-6.8-6.8l0,0c0-3.7,3.1-6.8,6.8-6.8h13.7
	C47.8,178.1,50.7,181.2,50.7,185L50.7,185z"/>
<path class="st0" d="M96.7,185c0,3.7-3.1,6.8-6.8,6.8H76.2c-3.7,0-6.8-3.1-6.8-6.8l0,0c0-3.7,3.1-6.8,6.8-6.8h13.7
	C93.8,178.1,96.7,181.2,96.7,185L96.7,185z"/>
<g id="Color_Fill_118_3_">
	<g>
		<path class="st2" d="M81.6,133.3l-3.3-70.2l-41.9,6.1l4.9,65.2c0,0-4.7,51.3,19.6,51.3C83,185.6,81.6,133.3,81.6,133.3z"/>
	</g>
</g>
<g id="Color_Fill_120_14_" class="st7">
	<g>
		<path d="M58.9,116.9c0,0,6.5,48.7,10.6,68.1c-2.5,1,13.1,0.6,13.1,0.6s9.4-69.3,4.4-79.1S58.9,116.9,58.9,116.9z"/>
	</g>
</g>
<g id="Color_Fill_120_7_">
	<g>
		<path class="st8" d="M79.9,185.4l6.3-69.8c-7-7.2-17,0.2-17,0.2s2,68.1-0.6,69.3C66.1,186.1,79.9,185.4,79.9,185.4z"/>
	</g>
</g>
<g id="Color_Fill_120_12_" class="st7">
	<g>
		<path d="M61.5,116.9c0,0-24.2-15.4-31.5-8.1l7.6,76.8c0,0,15.8,0.6,13.1-0.6C55.2,165.6,61.5,116.9,61.5,116.9z"/>
	</g>
</g>
<g id="Color_Fill_120_4_">
	<g>
		<path class="st8" d="M51.5,184.8c-2.5-1-0.6-69.1-0.6-69.1s-9.8-7.2-17-0.2l6.3,69.8c0,0-5.9,1.4-5.3,6.5c0,0,5.3,1.4,10.4,1.2
			c4.7-0.2,9.4-2,9.4-2S54,185.9,51.5,184.8z"/>
	</g>
</g>
<path class="st2" d="M87.1,189.1c0,2.9-2.3,5.5-5.5,5.5H70.8c-2.9,0-5.5-2.3-5.5-5.5l0,0c0-2.9,2.3-5.5,5.5-5.5h10.8
	C84.8,183.6,87.1,186.1,87.1,189.1L87.1,189.1z"/>
<path class="st2" d="M55.2,189.1c0,2.9-2.3,5.5-5.5,5.5H39c-2.9,0-5.5-2.3-5.5-5.5l0,0c0-2.9,2.3-5.5,5.5-5.5h10.8
	C52.9,183.6,55.2,186.1,55.2,189.1L55.2,189.1z"/>
<g class="st5">
	<path d="M81.6,190.5H70.8c-2.3,0-4.3-1.4-5.1-3.3c-0.2,0.6-0.4,1.4-0.4,2c0,2.9,2.3,5.5,5.5,5.5h10.8c2.9,0,5.5-2.3,5.5-5.5
		c0-0.8-0.2-1.4-0.4-2C85.7,189.2,83.8,190.5,81.6,190.5z"/>
	<path d="M49.6,190.4H38.9c-2.3,0-4.3-1.4-5.1-3.3c-0.2,0.6-0.4,1.4-0.4,2c0,2.9,2.3,5.5,5.5,5.5h10.8c2.9,0,5.5-2.3,5.5-5.5
		c0-0.8-0.2-1.4-0.4-2C53.7,189.1,51.8,190.4,49.6,190.4z"/>
</g>
<g class="st5">
	<path d="M60.2,157.1c1.8-15.4,27.1-22,26.2-44.6c-1.8-19-5.6-29.7-11.5-44.7c-4.5-4.4-26.6-3.6-32.3,2c-5.8,15-10,27.3-11.9,45.4
		C32.9,132.9,54,137.3,60.2,157.1z"/>
</g>
<g id="Ellipse_40_3_">
	<g>
		<path class="st2" d="M59.8,66.1c-12.7,0-29.5,19.2-29.5,42.8c0,23.6,22.3,19.4,29.5,42.8c2-17.4,26.8-18.3,26.8-42.8
			C86.6,85.3,72.7,66.1,59.8,66.1z"/>
	</g>
</g>
<g class="st5">
	<path d="M60.5,58.4c-9.8,0-23.9,8-28.4,25c11.3,8.2,24.7,12.5,29.3,12.5c4.1,0,15.1-3.3,24.8-9.8C81.6,67,70.9,58.4,60.5,58.4z"/>
</g>
<g id="Ellipse_58_1_">
	<g>
		<path class="st8" d="M60.7,18.5c-31.1,0-42.1,17.4-41.5,39.3c0.6,21.9,35.6,34.8,43.2,34.8c7.8,0,40.3-12.9,39.7-34.8
			C101.8,35.9,93.6,18.5,60.7,18.5z"/>
	</g>
</g>
<g id="Ellipse_59">
	<g>
		<path class="st2" d="M61.3,54.1c-9.4,0-16.8,12.1-16.8,33.1c16.8,12.9,33.7,0.4,33.7,0C78.1,66.4,70.7,54.1,61.3,54.1z"/>
	</g>
</g>
<g id="Color_Fill_174_2_">
	<g>
		<path class="st8" d="M99.4,5.5C90.4,2.2,70.1,26,70.1,26s16.8,14.1,25.4,16.8C95.5,43.1,108.4,8.9,99.4,5.5z"/>
	</g>
</g>
<g id="Color_Fill_174_8_">
	<g>
		<path class="st4" d="M95.7,14.7c-3.9-1.6-12.9,9.2-12.9,9.2s7.4,6.3,11.3,7.4C94.1,31.4,99.8,16.1,95.7,14.7z"/>
	</g>
</g>
<g id="Color_Fill_174_3_">
	<g>
		<path class="st8" d="M21.8,5.2c-8.8,3.3,3.7,38,3.7,38c8.4-2.7,24.8-17,24.8-17S30.4,1.8,21.8,5.2z"/>
	</g>
</g>
<g>
	<g>
		<g>
			<path class="st6" d="M90.4,51.5c0,4.7-3.9,8.6-8.6,8.6s-8.6-3.9-8.6-8.6s3.9-8.6,8.6-8.6S90.4,46.8,90.4,51.5z"/>
		</g>
	</g>
	<path class="st3" d="M87.1,51.3c0,2.7-2.3,5.1-5.1,5.1c-2.7,0-5.1-2.3-5.1-5.1c0-2.7,2.3-5.1,5.1-5.1S87.1,48.4,87.1,51.3z"/>
	<path class="st6" d="M80.5,49.8c0,0.6-0.4,1-1,1s-1-0.4-1-1c0-0.6,0.4-1,1-1S80.5,49.2,80.5,49.8z"/>
</g>
<g>
	<g>
		<g>
			<path class="st6" d="M49.5,52.3c0,4.7-3.9,8.6-8.6,8.6c-4.7,0-8.6-3.9-8.6-8.6c0-4.7,3.9-8.6,8.6-8.6
				C45.8,43.7,49.5,47.4,49.5,52.3z"/>
		</g>
	</g>
	<path class="st3" d="M46.2,52.1c0,2.7-2.3,5.1-5.1,5.1c-2.9,0-5.1-2.3-5.1-5.1c0-2.8,2.3-5.1,5.1-5.1
		C43.9,46.8,46.2,49.2,46.2,52.1z"/>
	<path class="st6" d="M39.8,50.5c0,0.6-0.4,1-1,1c-0.6,0-1-0.4-1-1s0.4-1,1-1C39.2,49.6,39.8,50,39.8,50.5z"/>
</g>
<g id="Color_Fill_174_10_">
	<g>
		<path class="st4" d="M25.3,13.8C21.4,15.3,27,30.4,27,30.4c3.7-1.2,11.3-7.4,11.3-7.4S29.2,12.2,25.3,13.8z"/>
	</g>
</g>
<g id="Shape_53_2_">
	<g>

			<rect x="65.2" y="65" transform="matrix(-0.9934 0.1148 -0.1148 -0.9934 154.6385 122.2926)" class="st1" width="17.2" height="1.2"/>
	</g>
</g>
<g id="Shape_53_copy_2_">
	<g>

			<rect x="72.8" y="63.3" transform="matrix(-0.3369 0.9415 -0.9415 -0.3369 165.7669 27.0676)" class="st1" width="1.2" height="17.2"/>
	</g>
</g>
<g id="Shape_53_3_">
	<g>

			<rect x="47.4" y="56.8" transform="matrix(-0.1188 0.9929 -0.9929 -0.1188 118.878 25.7687)" class="st1" width="1.2" height="17.6"/>
	</g>
</g>
<g id="Shape_53_copy_3_">
	<g>

			<rect x="41" y="70.5" transform="matrix(-0.9419 0.336 -0.336 -0.9419 120.6179 121.3093)" class="st1" width="17.6" height="1.2"/>
	</g>
</g>
<g id="Color_Fill_4_copy_12_1_">
	<g>
		<path class="st1" d="M61.3,62.9c-14.3,0-3.2,9.6,0.2,9.6C65.2,72.5,75.6,62.9,61.3,62.9z"/>
	</g>
</g>
<g class="st5">
	<path d="M54.3,64.8c-1.5,2.7,4.7,7.7,7.2,7.7s8.1-4.4,6.7-7.4C67.2,68.5,55.6,69.5,54.3,64.8z"/>
</g>
</svg>
