<?xml version="1.0" encoding="utf-8"?>
<!-- Generator: Adobe Illustrator 16.0.0, SVG Export Plug-In . SVG Version: 6.00 Build 0)  -->
<!DOCTYPE svg PUBLIC "-//W3C//DTD SVG 1.1//EN" "http://www.w3.org/Graphics/SVG/1.1/DTD/svg11.dtd">
<svg version="1.1" id="레이어_1" xmlns="http://www.w3.org/2000/svg" xmlns:xlink="http://www.w3.org/1999/xlink" x="0px"
	 y="0px" width="142px" height="200px" viewBox="0 0 142 200" style="enable-background:new -0.4 0 142 200;"
	 xml:space="preserve">
<style type="text/css">
<![CDATA[
	.st0{fill:#1C1C1C;}
	.st1{fill:#BCBBB1;}
	.st2{fill:#231F20;}
	.st3{opacity:0.1;}
	.st4{fill:#FFFFFF;}
	.st5{opacity:0.05;}
	.st6{fill:#D1CFC1;}
	.st7{fill:#3A3A3A;}
]]>
</style>
<g id="Color_Fill_7_25_">
	<g>
		<path class="st6" d="M88.7,73.8C82,61.7,59.5,61.3,51.9,74.5c0,0-22.8,75,2.7,109.2c0,0,18.2,8.8,33.3-0.7
			C88,183,122.5,150.6,88.7,73.8z"/>
	</g>
</g>
<g id="Ellipse_16_19_">
	<g>
		<path class="st1" d="M120.7,117.9c-10,0-18.1,16.4-18.1,28.2c0,11.8,8.1,21.4,18.1,21.4s18.1-5.5,18.1-17.3
			C138.8,138.3,130.7,117.9,120.7,117.9z"/>
	</g>
</g>
<path class="st1" d="M105.8,174.7c0,5.4,6.3,5.9,14.1,5.9c7.8,0,14.1-0.5,14.1-5.9c0-5.4-6.3-13.5-14.1-13.5
	C112,161.1,105.8,169.3,105.8,174.7z"/>
<g id="Ellipse_16_17_">
	<g>
		<path class="st1" d="M21.6,117.9c-10,0-18.1,20.5-18.1,32.3s8.1,17.3,18.1,17.3s18.1-9.6,18.1-21.4
			C39.8,134.3,31.6,117.9,21.6,117.9z"/>
	</g>
</g>
<path class="st1" d="M36.5,174.7c0,5.4-6.3,5.9-14.1,5.9c-7.8,0-14.1-0.5-14.1-5.9c0-5.4,6.3-13.5,14.1-13.5
	C30.2,161.1,36.5,169.3,36.5,174.7z"/>
<g id="Color_Fill_9_17_" class="st3">
	<g>
		<path d="M12,166.4c0,0,7.3-2.7,16.1,0.6C28.2,167,20.4,160.3,12,166.4z"/>
	</g>
</g>
<g id="Color_Fill_9_14_" class="st3">
	<g>
		<path d="M114,166.4c0,0,7.3-2.7,16.1,0.6C130,167,122.2,160.3,114,166.4z"/>
	</g>
</g>
<g id="Color_Fill_5_22_">
	<g>
		<path class="st6" d="M55.2,123c16.3-17-15.8-43-15.8-43s-6.6-1.9-14.2,7.2c-7.6,9.2-8.2,43.9-8.2,43.9S15,167,25.9,179.6
			c0,0-7.4,9.1,0,13.2c0,0,25.6,11.1,29.3-5.9c0,0,1.6-1.5-6.1-14C49.1,173,39,140.1,55.2,123z"/>
	</g>
</g>
<g id="Color_Fill_5_copy_2_2_">
	<g>
		<path class="st6" d="M124.8,131.2c0,0-2.1-31.7-12.9-45C101,72.9,96.3,75.9,96.3,75.9s-26.4,30.2-10,47.2c16.4,17,6.2,50,6.2,50
			c-7.8,12.5-6.2,14-6.2,14c3.7,17,29.5,5.9,29.5,5.9c7.4-4.1,0-13.2,0-13.2C126.8,167.1,124.8,131.2,124.8,131.2z"/>
	</g>
</g>
<g class="st5">
	<path d="M52.4,93.9c19,11.4,30.1,3.6,33.8,0c12,7.9,18.1-0.7,18.2-0.8c3.4-0.7,8.3-5.8,7.8-6.4c-20.3-26.3-71.5-17.4-86.6,0.1
		c-0.5,0.6,5.1,5.7,7.5,6.3C37,97.5,44.1,98.7,52.4,93.9z"/>
</g>
<g id="Color_Fill_11">
	<g>
		<path class="st6" d="M118.2,65.3c-2-11.5,8-60.4-47.7-62.3C14.9,1.1,22.4,65,22.4,65C18.5,89.2,38.2,90.7,39,90.4
			c31-22.6,48.6,0.3,59,0C111.2,90.2,120.2,76.8,118.2,65.3z"/>
	</g>
</g>
<g id="Color_Fill_12">
	<g>
		<path class="st7" d="M41.4,11.1c0,0-4-10.1-33.3,16.6c0,0-10.5,7.9,1.8,14.9c0,0,12.5,7.7,14.7,7.2c1.7-0.4,2.9-2.5,2-9
			C26.5,40.9,23,24.1,41.4,11.1z"/>
	</g>
</g>
<g id="Color_Fill_12_2_">
	<g>
		<path class="st7" d="M132.5,27.6C103.2,0.9,99.2,11,99.2,11C118,23.6,114,40.7,114,40.7c-1,6.4,0.3,8.6,2,9
			c2.1,0.5,14.7-7.2,14.7-7.2C143,35.6,132.5,27.6,132.5,27.6z"/>
	</g>
</g>
<g id="Color_Fill_13">
	<g>
		<path class="st7" d="M69.7,37.9c-16,0.8-39.4,48.2-32.4,53.4c7,5.2,14.9-1.8,14.9-1.8c23,15.2,34.1-0.3,34.1-0.3
			c3.6,4.9,11.9,5.6,15.2,0.9C107,84.1,83.8,37.3,69.7,37.9z"/>
	</g>
</g>
<g id="Color_Fill_4_copy">
	<g>
		<path class="st0" d="M69,52.9c-20.6,0-4.7,14,0.5,14C74.8,66.9,89.5,52.9,69,52.9z"/>
	</g>
</g>
<g>
	<g>
		<g>
			<path class="st4" d="M52.6,47.9c0,4.6-3.7,8.4-8.4,8.4c-4.6,0-8.4-3.8-8.4-8.4s3.8-8.4,8.4-8.4C49,39.5,52.6,43.3,52.6,47.9z"/>
		</g>
	</g>
	<path class="st2" d="M49.5,47.7c0,2.7-2.2,5-5,5c-2.7,0-5-2.2-5-5c0-2.7,2.2-5,5-5C47.1,42.7,49.5,44.9,49.5,47.7z"/>
	<path class="st4" d="M43.4,46.2c0,0.5-0.5,1-1,1s-1-0.4-1-1c0-0.5,0.4-1,1-1C42.9,45.2,43.4,45.7,43.4,46.2z"/>
</g>
<g>
	<g>
		<g>
			<path class="st4" d="M102.8,47.9c0,4.6-3.8,8.4-8.4,8.4c-4.6,0-8.4-3.8-8.4-8.4s3.7-8.4,8.4-8.4S102.8,43.3,102.8,47.9z"/>
		</g>
	</g>
	<path class="st2" d="M99.7,47.7c0,2.7-2.3,5-5,5c-2.7,0-5-2.2-5-5c0-2.7,2.3-5,5-5C97.3,42.7,99.7,44.9,99.7,47.7z"/>
	<path class="st4" d="M93.5,46.2c0,0.5-0.5,1-1,1c-0.6,0-1-0.4-1-1c0-0.5,0.4-1,1-1C93,45.2,93.5,45.7,93.5,46.2z"/>
</g>
<g class="st5">
	<path d="M93,124.7c1.1,4.7,1.5,9.9,1.5,15.3c0,9.9-2.1,28.1-8.6,36.9c-14.4,7.8-28.9,0.2-28.9,0.2c-6-3.2-10.4-27.8-10.4-37.1
		c-0.1-4.8,0.4-9.8,1.5-14.6c-2,6.2-2.8,13.1-2.7,19.7c0,9.8,2.8,31.1,9.4,38.8c0,0,17.2,8.1,32.1-0.3c6.8-9.2,8.8-28.1,8.8-38.5
		C95.8,137.7,95,130.7,93,124.7z"/>
</g>
<g id="Color_Fill_9_3_" class="st3">
	<g>
		<path d="M27,180.6c0,0,11.1-4,24.5,0.9C51.5,181.5,39.5,171.4,27,180.6z"/>
	</g>
</g>
<g id="Color_Fill_9_1_" class="st3">
	<g>
		<path d="M89.5,181.5c13.3-4.9,24.5-0.9,24.5-0.9C101.5,171.4,89.5,181.5,89.5,181.5z"/>
	</g>
</g>
</svg>
