<svg width="420" height="420" viewBox="0 0 420 420" fill="none" xmlns="http://www.w3.org/2000/svg">
<rect width="420" height="420" fill="white"/>
<path d="M247.27 154.98C233.2 129.57 185.95 128.73 169.99 156.45C169.99 156.45 122.11 313.95 175.66 385.77C175.66 385.77 213.88 404.25 245.59 384.3C245.8 384.3 318.25 316.26 247.27 154.98Z" fill="#D1CFC1"/>
<path d="M314.47 247.59C293.47 247.59 276.46 282.03 276.46 306.81C276.46 331.59 293.47 351.75 314.47 351.75C335.47 351.75 352.48 340.2 352.48 315.42C352.48 290.43 335.47 247.59 314.47 247.59Z" fill="#BCBBB1"/>
<path d="M283.18 366.87C283.18 378.21 296.41 379.26 312.79 379.26C329.17 379.26 342.4 378.21 342.4 366.87C342.4 355.53 329.17 338.52 312.79 338.52C296.2 338.31 283.18 355.53 283.18 366.87Z" fill="#BCBBB1"/>
<path d="M106.36 247.59C85.3601 247.59 68.3501 290.64 68.3501 315.42C68.3501 340.2 85.3601 351.75 106.36 351.75C127.36 351.75 144.37 331.59 144.37 306.81C144.58 282.03 127.36 247.59 106.36 247.59Z" fill="#BCBBB1"/>
<path d="M137.65 366.87C137.65 378.21 124.42 379.26 108.04 379.26C91.6599 379.26 78.4299 378.21 78.4299 366.87C78.4299 355.53 91.6599 338.52 108.04 338.52C124.42 338.31 137.65 355.53 137.65 366.87Z" fill="#BCBBB1"/>
<g opacity="0.1">
<path d="M86.2 349.44C86.2 349.44 101.53 343.77 120.01 350.7C120.22 350.7 103.84 336.63 86.2 349.44Z" fill="black"/>
</g>
<g opacity="0.1">
<path d="M300.4 349.44C300.4 349.44 315.73 343.77 334.21 350.7C334 350.7 317.62 336.63 300.4 349.44Z" fill="black"/>
</g>
<path d="M176.92 258.3C211.15 222.6 143.74 168 143.74 168C143.74 168 129.88 164.01 113.92 183.12C97.9599 202.44 96.6999 275.31 96.6999 275.31C96.6999 275.31 92.4999 350.7 115.39 377.16C115.39 377.16 99.8499 396.27 115.39 404.88C115.39 404.88 169.15 428.19 176.92 392.49C176.92 392.49 180.28 389.34 164.11 363.09C164.11 363.3 142.9 294.21 176.92 258.3Z" fill="#D1CFC1"/>
<path d="M323.08 275.52C323.08 275.52 318.67 208.95 295.99 181.02C273.1 153.09 263.23 159.39 263.23 159.39C263.23 159.39 207.79 222.81 242.23 258.51C276.67 294.21 255.25 363.51 255.25 363.51C238.87 389.76 242.23 392.91 242.23 392.91C250 428.61 304.18 405.3 304.18 405.3C319.72 396.69 304.18 377.58 304.18 377.58C327.28 350.91 323.08 275.52 323.08 275.52Z" fill="#D1CFC1"/>
<g opacity="0.05">
<path d="M171.04 197.19C210.94 221.13 234.25 204.75 242.02 197.19C267.22 213.78 280.03 195.72 280.24 195.51C287.38 194.04 297.67 183.33 296.62 182.07C253.99 126.84 146.47 145.53 114.76 182.28C113.71 183.54 125.47 194.25 130.51 195.51C138.7 204.75 153.61 207.27 171.04 197.19Z" fill="black"/>
</g>
<path d="M309.22 137.13C305.02 112.98 326.02 10.2899 209.05 6.29989C92.2901 2.30989 108.04 136.5 108.04 136.5C99.8501 187.32 141.22 190.47 142.9 189.84C208 142.38 244.96 190.47 266.8 189.84C294.52 189.42 313.42 161.28 309.22 137.13Z" fill="#D1CFC1"/>
<path d="M147.94 23.3101C147.94 23.3101 139.54 2.10006 78.0099 58.1701C78.0099 58.1701 55.9599 74.7601 81.7899 89.4601C81.7899 89.4601 108.04 105.63 112.66 104.58C116.23 103.74 118.75 99.3301 116.86 85.6801C116.65 85.8901 109.3 50.6101 147.94 23.3101Z" fill="#3A3A3A"/>
<path d="M339.25 57.9601C277.72 1.8901 269.32 23.1001 269.32 23.1001C308.8 49.5601 300.4 85.4701 300.4 85.4701C298.3 98.9101 301.03 103.53 304.6 104.37C309.01 105.42 335.47 89.2501 335.47 89.2501C361.3 74.7601 339.25 57.9601 339.25 57.9601Z" fill="#3A3A3A"/>
<path d="M207.37 79.5899C173.77 81.2699 124.63 180.81 139.33 191.73C154.03 202.65 170.62 187.95 170.62 187.95C218.92 219.87 242.23 187.32 242.23 187.32C249.79 197.61 267.22 199.08 274.15 189.21C285.7 176.61 236.98 78.3299 207.37 79.5899Z" fill="#3A3A3A"/>
<path d="M205.9 111.09C162.64 111.09 196.03 140.49 206.95 140.49C218.08 140.49 248.95 111.09 205.9 111.09Z" fill="#1C1C1C"/>
<path d="M171.46 100.59C171.46 110.25 163.69 118.23 153.82 118.23C144.16 118.23 136.18 110.25 136.18 100.59C136.18 90.93 144.16 82.95 153.82 82.95C163.9 82.95 171.46 90.93 171.46 100.59Z" fill="white"/>
<path d="M164.95 100.17C164.95 105.84 160.33 110.67 154.45 110.67C148.78 110.67 143.95 106.05 143.95 100.17C143.95 94.4999 148.57 89.6699 154.45 89.6699C159.91 89.6699 164.95 94.2899 164.95 100.17Z" fill="#231F20"/>
<path d="M152.14 97.0199C152.14 98.0699 151.09 99.1199 150.04 99.1199C148.99 99.1199 147.94 98.2799 147.94 97.0199C147.94 95.9699 148.78 94.9199 150.04 94.9199C151.09 94.9199 152.14 95.9699 152.14 97.0199Z" fill="white"/>
<path d="M276.88 100.59C276.88 110.25 268.9 118.23 259.24 118.23C249.58 118.23 241.6 110.25 241.6 100.59C241.6 90.93 249.37 82.95 259.24 82.95C269.11 82.95 276.88 90.93 276.88 100.59Z" fill="white"/>
<path d="M270.37 100.17C270.37 105.84 265.54 110.67 259.87 110.67C254.2 110.67 249.37 106.05 249.37 100.17C249.37 94.4999 254.2 89.6699 259.87 89.6699C265.33 89.6699 270.37 94.2899 270.37 100.17Z" fill="#231F20"/>
<path d="M257.35 97.0199C257.35 98.0699 256.3 99.1199 255.25 99.1199C253.99 99.1199 253.15 98.2799 253.15 97.0199C253.15 95.9699 253.99 94.9199 255.25 94.9199C256.3 94.9199 257.35 95.9699 257.35 97.0199Z" fill="white"/>
<g opacity="0.05">
<path d="M256.3 261.87C258.61 271.74 259.45 282.66 259.45 294C259.45 314.79 255.04 353.01 241.39 371.49C211.15 387.87 180.7 371.91 180.7 371.91C168.1 365.19 158.86 313.53 158.86 294C158.65 283.92 159.7 273.42 162.01 263.34C157.81 276.36 156.13 290.85 156.34 304.71C156.34 325.29 162.22 370.02 176.08 386.19C176.08 386.19 212.2 403.2 243.49 385.56C257.77 366.24 261.97 326.55 261.97 304.71C262.18 289.17 260.5 274.47 256.3 261.87Z" fill="black"/>
</g>
<g opacity="0.1">
<path d="M117.7 379.26C117.7 379.26 141.01 370.86 169.15 381.15C169.15 381.15 143.95 359.94 117.7 379.26Z" fill="black"/>
</g>
<g opacity="0.1">
<path d="M248.95 381.15C276.88 370.86 300.4 379.26 300.4 379.26C274.15 359.94 248.95 381.15 248.95 381.15Z" fill="black"/>
</g>
</svg>
