<?xml version="1.0" encoding="utf-8"?>
<!-- Generator: Adobe Illustrator 16.0.0, SVG Export Plug-In . SVG Version: 6.00 Build 0)  -->
<!DOCTYPE svg PUBLIC "-//W3C//DTD SVG 1.1//EN" "http://www.w3.org/Graphics/SVG/1.1/DTD/svg11.dtd">
<svg version="1.1" id="레이어_1" xmlns="http://www.w3.org/2000/svg" xmlns:xlink="http://www.w3.org/1999/xlink" x="0px"
	 y="0px" width="132px" height="200px" viewBox="0 0 132 200" style="enable-background:new 0 0 132 200;" xml:space="preserve">
<style type="text/css">
<![CDATA[
	.st0{fill:#E0DBD5;}
	.st1{fill:#4F4A4A;}
	.st2{fill:#BB7B4B;}
	.st3{fill:#231F20;}
	.st4{fill:#5B3216;}
	.st5{fill:#C18049;}
	.st6{fill:#C9C5C1;}
	.st7{opacity:0.1;}
	.st8{opacity:0.3;}
	.st9{fill:#FFFFFF;}
	.st10{fill:#CF894E;}
]]>
</style>
<path class="st5" d="M104.3,166.7c-4.9-3.5-8.4-9.8-8.4-17.2c0-11.1,7.6-26.6,17-26.6c9.4,0,17,19.2,17,30.5
	c0,7.6-3.5,12.3-8.8,14.5c2.5,2.7,4.1,5.9,4.1,8.6c0,5.1-5.9,5.5-13.3,5.5c-7.4,0-13.3-0.4-13.3-5.5
	C98.8,173.3,101,169.4,104.3,166.7z"/>
<g>
	<path class="st6" d="M116.8,152.6c6.1-0.6,10.4,0.6,13.1,2c-0.2,6.8-3.5,11.3-8.6,13.5c2.5,2.7,4.1,6.1,4.1,8.8
		c-0.2,7-15.6,5.1-16.8,5.1C108.2,181.4,116.2,162.8,116.8,152.6z"/>
</g>
<path class="st5" d="M29.1,166.7c4.9-3.5,8.4-9.8,8.4-17.2c0-11.1-7.6-26.6-17-26.6c-9.4,0-17,19.2-17,30.5c0,7.6,3.5,12.3,8.8,14.5
	c-2.5,2.7-4.1,5.9-4.1,8.6c0,5.1,5.9,5.5,13.3,5.5c7.4,0,13.3-0.4,13.3-5.5C34.5,173.3,32.5,169.4,29.1,166.7z"/>
<g>
	<path class="st6" d="M16.6,152.4c-6.1-0.6-10.4,0.6-13.1,2c0.2,6.8,3.5,11.3,8.6,13.5C9.6,170.6,8,174,8,176.7
		c0.2,7.4,15.6,5.1,16.8,5.1C25.2,181.2,17.5,162.6,16.6,152.4z"/>
</g>
<g id="Color_Fill_9_13_" class="st7">
	<g>
		<path d="M12.9,167.9c0,0,7.8-2.9,17,0.6C29.9,168.5,21.5,161.6,12.9,167.9z"/>
	</g>
</g>
<g id="Color_Fill_9_15_" class="st7">
	<g>
		<path d="M103.8,167.9c0,0,7.8-2.9,17,0.6C120.8,168.5,112.5,161.6,103.8,167.9z"/>
	</g>
</g>
<g id="Color_Fill_7_30_">
	<g>
		<path class="st10" d="M99,81.3c-6.3-11.5-62.2-11.7-69.4,0.6c0,0,38.9,82.7,53.4,75.5C83.2,157.7,131.2,153.6,99,81.3z"/>
	</g>
</g>
<g id="Color_Fill_5_30_">
	<g>
		<path class="st10" d="M35.8,87.3c0,0-6.1-1.8-13.3,6.8c-7,8.6-7.6,41.4-7.6,41.4s-2,33.8,8.2,45.7c0,0-7,8.6,0,12.5
			c0,0,24.2,10.4,27.6-5.5c0,0-3.9-4.3-5.7-13.1c0,0-9.6-30.9,5.7-47.1C66,111.6,35.8,87.3,35.8,87.3z"/>
	</g>
</g>
<g id="Color_Fill_5_copy_2_8_">
	<g>
		<path class="st10" d="M117.5,135.4c0,0-2-29.9-12.3-42.4C95,80.5,90.7,83.4,90.7,83.4s-24.6,28.5-9.2,44.4
			c15.4,16,5.7,47.1,5.7,47.1c-7.4,11.7-5.7,13.1-5.7,13.1c3.5,16,27.6,5.5,27.6,5.5c7-3.9,0-12.5,0-12.5
			C119.5,169.2,117.5,135.4,117.5,135.4z"/>
	</g>
</g>
<g id="Color_Fill_9_5_">
	<g>
		<path class="st2" d="M83.5,181.4c10.6-6.8,23.7-0.8,23.7-0.8C92,170.2,83.5,181.4,83.5,181.4z"/>
	</g>
</g>
<g id="Color_Fill_1_22_" class="st7">
	<g>
		<path d="M111.2,51c-1-18.2-87.4-25.2-91.9,1.6c-1.6,23.7,24.8,48.7,47.1,48.7C88.5,101.2,112.8,75,111.2,51z"/>
	</g>
</g>
<g id="Color_Fill_1_20_">
	<g>
		<path class="st0" d="M111.2,45.9c-1-18.2-6.3-30.7-24.2-36.6C81.3,7.5,75,1.7,66.3,1.9c-11.9,0.4-20.9,5.3-27,7.6
			C27.5,13.6,23.8,20.8,19,47.6c-1.6,23.7,25,48.7,47.1,48.7C88.5,96.3,112.8,69.9,111.2,45.9z"/>
	</g>
</g>
<g id="Color_Fill_2_copy">
	<g>
		<path class="st10" d="M68.8,1.9c19.7,14.7-17,45.2,11.7,55.7C98.7,66.4,102,84,103.8,91l17.4-11.1C121.2,79.9,125.8,9.7,68.8,1.9z
			"/>
	</g>
</g>
<g id="Color_Fill_2_22_">
	<g>
		<path class="st10" d="M63.5,1.9C-4,9.9,11,79.9,11,79.9L28.5,91c1.6-7,5.1-24.6,23.3-33.4C79.3,45.3,43.5,17.1,63.5,1.9z"/>
	</g>
</g>
<g id="Color_Fill_3_copy">
	<g>
		<path class="st4" d="M126.7,56.9C124.7,16.6,93.2,11,93.2,11c10.9,18.4,8.6,35,8.6,35C97.2,62.6,99,86.5,99,86.5
			c1.8,15.2,17.4,14.7,17.4,14.7C137,101.3,126.7,56.9,126.7,56.9z"/>
	</g>
</g>
<g id="Color_Fill_3_14_">
	<g>
		<path class="st4" d="M38.5,8.9c0,0-29.9,7.8-31.9,48.1c0,0-10.6,50.6,10.2,44.4c0,0,15.8,0.2,17.6-14.7c0,0,1.6-24-2.9-40.5
			C31.5,46.1,27.5,27.3,38.5,8.9z"/>
	</g>
</g>
<g id="Color_Fill_4_16_">
	<g>
		<path class="st1" d="M65.7,53.7c-21.3,0-4.9,16,0.6,16C71.5,69.5,87,53.7,65.7,53.7z"/>
	</g>
</g>
<g class="st8">
	<path d="M66,66.4c-3.1,0-9.4-4.9-10.9-9.2c-2,4.7,7.2,12.5,10.9,12.5c3.7,0,12.1-7.6,10.2-12.3C74.8,61.7,69.2,66.4,66,66.4z"/>
</g>
<g>
	<g>
		<g>
			<path class="st9" d="M50.9,45.1c0,3.7-3.1,6.8-6.8,6.8c-3.7,0-6.8-3.1-6.8-6.8c0-3.7,3.1-6.8,6.8-6.8
				C47.8,38.3,50.9,41.2,50.9,45.1z"/>
		</g>
	</g>
	<path class="st3" d="M48.2,44.9c0,2.3-1.8,4.1-4.1,4.1c-2.3,0-4.1-1.8-4.1-4.1c0-2.3,1.8-4.1,4.1-4.1
		C46.5,40.8,48.2,42.6,48.2,44.9z"/>
	<circle class="st9" cx="42.5" cy="43.7" r="0.8"/>
</g>
<g>
	<g>
		<g>
			<path class="st9" d="M92.5,45.1c0,3.7-3.1,6.8-6.8,6.8c-3.7,0-6.8-3.1-6.8-6.8c0-3.7,3.1-6.8,6.8-6.8
				C89.3,38.3,92.5,41.2,92.5,45.1z"/>
		</g>
	</g>
	<path class="st3" d="M89.8,44.9c0,2.3-1.8,4.1-4.1,4.1c-2.3,0-4.1-1.8-4.1-4.1c0-2.3,1.8-4.1,4.1-4.1C88,40.8,89.8,42.6,89.8,44.9z
		"/>
	<path class="st9" d="M84.8,43.7c0,0.4-0.4,0.8-0.8,0.8c-0.4,0-0.8-0.4-0.8-0.8c0-0.4,0.4-0.8,0.8-0.8
		C84.5,42.8,84.8,43.3,84.8,43.7z"/>
</g>
<g>
	<path class="st0" d="M52.1,184.9c0,0,14.9,7.8,29.7-0.2c6.6-9,8.8-27.6,8.8-37.9c0.2-20.7-7-38.5-24.8-38.5
		c-17.8,0-24.6,20.7-24.4,38.5C41.5,156.5,46,181.7,52.1,184.9z"/>
</g>
<g class="st7">
	<path d="M88.2,127.3c1,4.6,1.2,9.7,1.2,15c0,9.6-2,27.4-8.4,36c-14.1,7.6-28.3,0.2-28.3,0.2c-5.7-3.1-10-27-10-36.2
		c0-4.7,0.4-9.6,1.4-14.3c-1.8,6.1-2.7,12.9-2.7,19.2c0,9.6,2.3,29.7,8.8,37.1c0,0,17.1,8.3,31.8,0.3c6.6-9,8.8-27.2,8.8-37.3
		C91,140.2,90,133,88.2,127.3z"/>
</g>
<g>
	<path class="st0" d="M117.7,152.2c-4.9-6.6-15.4-9.6-27-5.5c0,0.2-2.1,28.8-8.7,37.8c0,0-3.7,6.3,5.3,11.2c8.2,3.9,22-2.1,22-2.1
		c5.7-3.3,2-9.8,0-12.7C109.5,181,116,174.7,117.7,152.2z"/>
	<path class="st0" d="M50.2,183.9c-5.7-8.4-8.6-31.7-8.8-37.5C23.2,141.7,15,153,15,153c0.2,11.3,3.1,23.4,7.9,28.1
		c-2.8,2.7-5.8,9.8,0.4,12.8c0,0,17.4,7.4,24.8-0.2C48,193.7,52.4,189.4,50.2,183.9z"/>
</g>
<g id="Color_Fill_9_9_" class="st7">
	<g>
		<path d="M23.9,181.4c0,0,11.1-4.1,24.4,0.8C48.2,182.3,36.4,172.2,23.9,181.4z"/>
	</g>
</g>
<g id="Color_Fill_9_11_" class="st7">
	<g>
		<path d="M84.5,182.3c13.3-4.9,24.4-0.8,24.4-0.8C96.3,172.2,84.5,182.3,84.5,182.3z"/>
	</g>
</g>
</svg>
