<svg width="420" height="420" viewBox="0 0 420 420" fill="none" xmlns="http://www.w3.org/2000/svg">
<rect width="420" height="420" fill="white"/>
<path d="M290.03 350.07C279.74 342.72 272.39 329.49 272.39 313.95C272.39 290.64 288.35 258.09 308.09 258.09C327.83 258.09 343.79 298.41 343.79 322.14C343.79 338.1 336.44 347.97 325.31 352.59C330.56 358.26 333.92 364.98 333.92 370.65C333.92 381.36 321.53 382.2 305.99 382.2C290.45 382.2 278.06 381.36 278.06 370.65C278.48 363.93 283.1 355.74 290.03 350.07Z" fill="#C18049"/>
<path d="M316.28 320.46C329.09 319.2 338.12 321.72 343.79 324.66C343.37 338.94 336.44 348.39 325.73 353.01C330.98 358.68 334.34 365.82 334.34 371.49C333.92 386.19 301.58 382.2 299.06 382.2C298.22 380.94 315.02 341.88 316.28 320.46Z" fill="#C9C5C1"/>
<path d="M132.11 350.07C142.4 342.72 149.75 329.49 149.75 313.95C149.75 290.64 133.79 258.09 114.05 258.09C94.3101 258.09 78.3501 298.41 78.3501 322.14C78.3501 338.1 85.7001 347.97 96.8301 352.59C91.5801 358.26 88.2201 364.98 88.2201 370.65C88.2201 381.36 100.61 382.2 116.15 382.2C131.69 382.2 144.08 381.36 144.08 370.65C143.45 363.93 139.25 355.74 132.11 350.07Z" fill="#C18049"/>
<path d="M105.86 320.04C93.0501 318.78 84.0201 321.3 78.3501 324.24C78.7701 338.52 85.7001 347.97 96.4101 352.59C91.1601 358.26 87.8001 365.4 87.8001 371.07C88.2201 386.61 120.56 381.78 123.08 381.78C123.92 380.52 107.75 341.46 105.86 320.04Z" fill="#C9C5C1"/>
<g opacity="0.1">
<path d="M98.0901 352.59C98.0901 352.59 114.47 346.5 133.79 353.85C133.79 353.85 116.15 339.36 98.0901 352.59Z" fill="black"/>
</g>
<g opacity="0.1">
<path d="M288.98 352.59C288.98 352.59 305.36 346.5 324.68 353.85C324.68 353.85 307.25 339.36 288.98 352.59Z" fill="black"/>
</g>
<path d="M278.9 170.73C265.67 146.58 148.28 146.16 133.16 171.99C133.16 171.99 214.85 345.66 245.3 330.54C245.72 331.17 346.52 322.56 278.9 170.73Z" fill="#CF894E"/>
<path d="M146.18 183.33C146.18 183.33 133.37 179.55 118.25 197.61C103.55 215.67 102.29 284.55 102.29 284.55C102.29 284.55 98.0901 355.53 119.51 380.52C119.51 380.52 104.81 398.58 119.51 406.77C119.51 406.77 170.33 428.61 177.47 395.22C177.47 395.22 169.28 386.19 165.5 367.71C165.5 367.71 145.34 302.82 177.47 268.8C209.6 234.36 146.18 183.33 146.18 183.33Z" fill="#CF894E"/>
<path d="M317.75 284.34C317.75 284.34 313.55 221.55 291.92 195.3C270.5 169.05 261.47 175.14 261.47 175.14C261.47 175.14 209.81 234.99 242.15 268.38C274.49 301.98 254.12 367.29 254.12 367.29C238.58 391.86 242.15 394.8 242.15 394.8C249.5 428.4 300.11 406.35 300.11 406.35C314.81 398.16 300.11 380.1 300.11 380.1C321.95 355.32 317.75 284.34 317.75 284.34Z" fill="#CF894E"/>
<path d="M246.35 380.94C268.61 366.66 296.12 379.26 296.12 379.26C264.2 357.42 246.35 380.94 246.35 380.94Z" fill="#BB7B4B"/>
<g opacity="0.1">
<path d="M304.52 107.1C302.42 68.8799 120.98 54.1799 111.53 110.46C108.17 160.23 163.61 212.73 210.44 212.73C256.85 212.52 307.88 157.5 304.52 107.1Z" fill="black"/>
</g>
<path d="M304.52 96.3901C302.42 58.1701 291.29 31.9201 253.7 19.5301C241.73 15.7501 228.5 3.57009 210.23 3.99009C185.24 4.83009 166.34 15.1201 153.53 19.9501C128.75 28.5601 120.98 43.6801 110.9 99.9601C107.54 149.73 163.4 202.23 209.81 202.23C256.85 202.23 307.88 146.79 304.52 96.3901Z" fill="#E0DBD5"/>
<path d="M215.48 3.98999C256.85 34.86 179.78 98.91 240.05 120.96C278.27 139.44 285.2 176.4 288.98 191.1L325.52 167.79C325.52 167.79 335.18 20.37 215.48 3.98999Z" fill="#CF894E"/>
<path d="M204.35 3.98999C62.5999 20.79 94.0999 167.79 94.0999 167.79L130.85 191.1C134.21 176.4 141.56 139.44 179.78 120.96C237.53 95.13 162.35 35.91 204.35 3.98999Z" fill="#CF894E"/>
<path d="M337.07 119.49C332.87 34.8601 266.72 23.1001 266.72 23.1001C289.61 61.7401 284.78 96.6001 284.78 96.6001C275.12 131.46 278.9 181.65 278.9 181.65C282.68 213.57 315.44 212.52 315.44 212.52C358.7 212.73 337.07 119.49 337.07 119.49Z" fill="#5B3216"/>
<path d="M151.85 18.6899C151.85 18.6899 89.06 35.0699 84.86 119.7C84.86 119.7 62.6 225.96 106.28 212.94C106.28 212.94 139.46 213.36 143.24 182.07C143.24 182.07 146.6 131.67 137.15 97.02C137.15 96.81 128.75 57.3299 151.85 18.6899Z" fill="#5B3216"/>
<path d="M208.97 112.77C164.24 112.77 198.68 146.37 210.23 146.37C221.15 145.95 253.7 112.77 208.97 112.77Z" fill="#4F4A4A"/>
<g opacity="0.3">
<path d="M209.6 139.44C203.09 139.44 189.86 129.15 186.71 120.12C182.51 129.99 201.83 146.37 209.6 146.37C217.37 146.37 235.01 130.41 231.02 120.54C228.08 129.57 216.32 139.44 209.6 139.44Z" fill="black"/>
</g>
<path d="M177.89 94.7099C177.89 102.48 171.38 108.99 163.61 108.99C155.84 108.99 149.33 102.48 149.33 94.7099C149.33 86.9399 155.84 80.4299 163.61 80.4299C171.38 80.4299 177.89 86.5199 177.89 94.7099Z" fill="white"/>
<path d="M172.22 94.2899C172.22 99.1199 168.44 102.9 163.61 102.9C158.78 102.9 155 99.1199 155 94.2899C155 89.4599 158.78 85.6799 163.61 85.6799C168.65 85.6799 172.22 89.4599 172.22 94.2899Z" fill="#231F20"/>
<path d="M160.25 93.4498C161.178 93.4498 161.93 92.6977 161.93 91.7698C161.93 90.842 161.178 90.0898 160.25 90.0898C159.322 90.0898 158.57 90.842 158.57 91.7698C158.57 92.6977 159.322 93.4498 160.25 93.4498Z" fill="white"/>
<path d="M265.25 94.7099C265.25 102.48 258.74 108.99 250.97 108.99C243.2 108.99 236.69 102.48 236.69 94.7099C236.69 86.9399 243.2 80.4299 250.97 80.4299C258.53 80.4299 265.25 86.5199 265.25 94.7099Z" fill="white"/>
<path d="M259.58 94.2899C259.58 99.1199 255.8 102.9 250.97 102.9C246.14 102.9 242.36 99.1199 242.36 94.2899C242.36 89.4599 246.14 85.6799 250.97 85.6799C255.8 85.6799 259.58 89.4599 259.58 94.2899Z" fill="#231F20"/>
<path d="M249.08 91.7699C249.08 92.6099 248.24 93.4499 247.4 93.4499C246.56 93.4499 245.72 92.6099 245.72 91.7699C245.72 90.9299 246.56 90.0899 247.4 90.0899C248.45 89.8799 249.08 90.9299 249.08 91.7699Z" fill="white"/>
<path d="M180.41 388.29C180.41 388.29 211.7 404.67 242.78 387.87C256.64 368.97 261.26 329.91 261.26 308.28C261.68 264.81 246.56 227.43 209.18 227.43C171.8 227.43 157.52 270.9 157.94 308.28C158.15 328.65 167.6 381.57 180.41 388.29Z" fill="#E0DBD5"/>
<g opacity="0.1">
<path d="M256.22 267.33C258.32 276.99 258.74 287.7 258.74 298.83C258.74 318.99 254.54 356.37 241.1 374.43C211.49 390.39 181.67 374.85 181.67 374.85C169.7 368.34 160.67 318.15 160.67 298.83C160.67 288.96 161.51 278.67 163.61 268.8C159.83 281.61 157.94 295.89 157.94 309.12C157.94 329.28 162.77 371.49 176.42 387.03C176.42 387.03 212.33 404.46 243.2 387.66C257.06 368.76 261.68 330.54 261.68 309.33C262.1 294.42 260 279.3 256.22 267.33Z" fill="black"/>
</g>
<path d="M318.17 319.62C307.88 305.76 285.83 299.46 261.47 308.07C261.47 308.49 257.06 368.55 243.2 387.45C243.2 387.45 235.43 400.68 254.33 410.97C271.55 419.16 300.53 406.56 300.53 406.56C312.5 399.63 304.73 385.98 300.53 379.89C300.95 380.1 314.6 366.87 318.17 319.62Z" fill="#E0DBD5"/>
<path d="M176.42 386.19C164.45 368.55 158.36 319.62 157.94 307.44C119.72 297.57 102.5 321.3 102.5 321.3C102.92 345.03 109.01 370.44 119.09 380.31C113.21 385.98 106.91 400.89 119.93 407.19C119.93 407.19 156.47 422.73 172.01 406.77C171.8 406.77 181.04 397.74 176.42 386.19Z" fill="#E0DBD5"/>
<g opacity="0.1">
<path d="M121.19 380.94C121.19 380.94 144.5 372.33 172.43 382.62C172.22 382.83 147.44 361.62 121.19 380.94Z" fill="black"/>
</g>
<g opacity="0.1">
<path d="M248.45 382.83C276.38 372.54 299.69 381.15 299.69 381.15C273.23 361.62 248.45 382.83 248.45 382.83Z" fill="black"/>
</g>
</svg>
