<?xml version="1.0" encoding="utf-8"?>
<!-- Generator: Adobe Illustrator 16.0.0, SVG Export Plug-In . SVG Version: 6.00 Build 0)  -->
<!DOCTYPE svg PUBLIC "-//W3C//DTD SVG 1.1//EN" "http://www.w3.org/Graphics/SVG/1.1/DTD/svg11.dtd">
<svg version="1.1" id="레이어_1" xmlns="http://www.w3.org/2000/svg" xmlns:xlink="http://www.w3.org/1999/xlink" x="0px"
	 y="0px" width="159px" height="200px" viewBox="0 0 159 200" style="enable-background:new 0 0 159 200;" xml:space="preserve">
<style type="text/css">
<![CDATA[
	.st0{fill:#827B77;}
	.st1{fill:#B2A79D;}
	.st2{fill:#231F20;}
	.st3{fill:#F1F1F1;}
	.st4{opacity:0.1;}
	.st5{fill:#FFFFFF;}
	.st6{fill:#9B928C;}
	.st7{fill:#CEC2B7;}
	.st8{fill:#333333;}
]]>
</style>
<path class="st1" d="M103.2,15.9c30.3,18.6,37.4-0.4,37.4-0.4C146-11.6,103.2,15.9,103.2,15.9z"/>
<path class="st1" d="M15.6,15.5c0,0,7.1,19.2,37.4,0.4C53,15.9,10.1-11.6,15.6,15.5z"/>
<path class="st0" d="M60.7,161.2h-15c-7.5,0-13.3,6.1-13.3,13.3c0,7.3,6.1,13.4,13.3,13.4h15c7.5,0,13.3-6.1,13.3-13.4
	S68,161.2,60.7,161.2z"/>
<path class="st0" d="M54,103.3h-0.6c-10.3,0-19.8,8.3-19.8,18.6v49.4c0,10.3,39.2,10.3,39.2,0v-49.4C72.6,111.6,64.3,103.3,54,103.3
	z"/>
<path class="st6" d="M41.3,169.3h-15c-7.5,0-13.3,6.1-13.3,13.3c0,7.5,6.1,13.4,13.3,13.4h15c7.5,0,13.3-6.1,13.3-13.4
	C54.6,175.1,48.7,169.3,41.3,169.3z"/>
<path class="st6" d="M36,111.4h-0.6c-10.3,0-19.8,8.3-19.8,18.6v49c0,10.3,39.2,10.3,39.2,0v-49C54.6,119.7,46.3,111.4,36,111.4z"/>
<path class="st0" d="M115.9,162.2h-15c-7.5,0-13.4,6.1-13.4,13.3c0,7.5,6.1,13.3,13.4,13.3h15c7.3,0,13.3-6.1,13.3-13.3
	C129.2,168.2,123.4,162.2,115.9,162.2z"/>
<path class="st0" d="M109.4,104.3h-0.6c-10.3,0-19.8,8.3-19.8,18.6v50.2c0,10.3,39.2,10.3,39.2,0v-50.2
	C128,112.6,119.7,104.3,109.4,104.3z"/>
<path class="st6" d="M133.9,169.3h-15c-7.5,0-13.3,6.1-13.3,13.3c0,7.5,6.1,13.4,13.3,13.4h15c7.5,0,13.3-6.1,13.3-13.4
	C147.5,175.3,141.4,169.3,133.9,169.3z"/>
<path class="st6" d="M127.4,112.4h-0.6c-10.3,0-19.8,8.3-19.8,18.6v49.2c0,10.3,39.2,10.3,39.2,0V131
	C146,120.7,137.7,112.4,127.4,112.4z"/>
<path class="st6" d="M78.5,9.3C37.6,9.3,4,61,4,101.9c0,40.9,33.6,55,74.4,55c40.9,0,76.7-14.2,76.7-55C154.9,61,119.1,9.3,78.5,9.3
	z"/>
<g class="st4">
	<path class="st8" d="M16.4,71.6c-5.7,6.9-8.5,12.9-9.7,18.6c-1,2.8-1.4,5.9-1.4,8.9c0,9.1,4.4,17,12.3,23.5
		c7.1,15.2,30.7,24.9,61.1,24.9c34.2,0,62.3-12.1,65.9-30.7c4.5-5.3,7.1-11.1,7.1-17.6c0-4.2-1.2-8.5-3.2-12.5
		c-2.4-8.7-7.5-15-7.5-15c-0.6-9.3-2.2-17.4-4.5-24.3c-14.3-22-35.6-38.5-58.4-38.5C53,8.9,30.7,28.9,17.2,54
		C15.6,64.1,16.4,71.6,16.4,71.6z"/>
</g>
<path class="st1" d="M78.9,69.9c-34.6,0-60.1,18.4-60.1,37.6s25.3,32,60.1,32c34.6,0,62.7-12.7,62.7-32
	C141.6,88.3,113.5,69.9,78.9,69.9z"/>
<path class="st1" d="M137.9,69.9c-5-66.1-61.4-63.1-61.4-63.1C14,12.1,19.8,70.1,19.8,70.1c-28.9,34.2,15.8,52.2,15.8,52.2
	c29.9,11.7,84.9,0,84.9,0C165.2,103.5,137.9,69.9,137.9,69.9z"/>
<ellipse class="st7" cx="38.6" cy="62.9" rx="12.5" ry="12.7"/>
<ellipse class="st7" cx="122" cy="62.9" rx="12.5" ry="12.7"/>
<g>
	<g>
		<g>
			<path class="st5" d="M58.3,42.2c0,4.2-3.4,7.7-7.7,7.7c-4.2,0-7.7-3.4-7.7-7.7c0-4.2,3.4-7.7,7.7-7.7
				C54.8,34.5,58.3,38,58.3,42.2z"/>
		</g>
	</g>
	<path class="st2" d="M55.2,42c0,2.4-2,4.7-4.7,4.7c-2.6,0-4.7-2-4.7-4.7c0-2.4,2-4.7,4.7-4.7C53.2,37.6,55.2,39.6,55.2,42z"/>
	<path class="st5" d="M49.8,40.8c0,0.4-0.4,0.8-0.8,0.8c-0.6,0-0.8-0.4-0.8-0.8c0-0.4,0.4-0.8,0.8-0.8
		C49.4,39.8,49.8,40.2,49.8,40.8z"/>
</g>
<g>
	<g>
		<g>
			<path class="st5" d="M111.4,42.2c0,4.2-3.4,7.7-7.7,7.7c-4.2,0-7.7-3.4-7.7-7.7c0-4.2,3.4-7.7,7.7-7.7S111.4,38,111.4,42.2z"/>
		</g>
	</g>
	<path class="st2" d="M108.4,42c0,2.4-2,4.7-4.5,4.7c-2.4,0-4.7-2-4.7-4.7c0-2.4,2-4.7,4.7-4.7C106.6,37.3,108.4,39.6,108.4,42z"/>
	<path class="st5" d="M102.8,40.8c0,0.4-0.4,0.8-0.8,0.8c-0.6,0-0.8-0.4-0.8-0.8c0-0.4,0.4-0.8,0.8-0.8
		C102.3,39.8,102.8,40.2,102.8,40.8z"/>
</g>
<path class="st3" d="M121.4,126.2c0,6.1-4.9,11.1-11.1,11.1l0,0c-6.1,0-11.1-4.9-11.1-11.1v-12.5c0-6.1,4.9-11.1,11.1-11.1l0,0
	c6.1,0,11.1,4.9,11.1,11.1V126.2z"/>
<path class="st3" d="M59.1,126.2c0,6.1-4.9,11.1-11.1,11.1l0,0c-6.1,0-11.1-4.9-11.1-11.1v-12.5c0-6.1,4.9-11.1,11.1-11.1l0,0
	c6.1,0,11.1,4.9,11.1,11.1V126.2z"/>
<path class="st7" d="M77.1,52.5c-39,0-67.8,20.8-67.8,42.7c0,21.8,28.5,36.4,67.8,36.4c39,0,70.8-14.6,70.8-36.4
	C147.9,73.4,116.1,52.5,77.1,52.5z"/>
<ellipse class="st0" cx="119.5" cy="65.3" rx="7.9" ry="7.9"/>
<path class="st0" d="M39.2,57.4c-4.2,0-7.9,3.4-7.9,7.9s3.4,7.9,7.9,7.9c4.2,0,7.9-3.4,7.9-7.9S43.7,57.4,39.2,57.4z"/>
<g class="st4">
	<path class="st8" d="M41.3,188.9h-15c-6.1,0-11.3-4.2-12.9-9.9c-0.4,1.2-0.6,2.2-0.6,3.4c0,7.5,6.1,13.3,13.3,13.3h15
		c7.5,0,13.3-6.1,13.3-13.3c0-1.2-0.2-2.4-0.6-3.4C52.6,184.6,47.5,188.9,41.3,188.9z"/>
</g>
<g class="st4">
	<path class="st8" d="M134.1,188.9h-15c-6.1,0-11.3-4.2-12.9-9.9c-0.4,1.2-0.6,2.2-0.6,3.4c0,7.5,6.1,13.3,13.3,13.3h15
		c7.5,0,13.3-6.1,13.3-13.3c0-1.2-0.2-2.4-0.6-3.4C145.2,184.6,140.2,188.9,134.1,188.9z"/>
</g>
</svg>
