<svg width="420" height="420" viewBox="0 0 420 420" fill="none" xmlns="http://www.w3.org/2000/svg">
<rect width="420" height="420" fill="white"/>
<path d="M259.72 33.39C323.35 72.45 338.26 32.55 338.26 32.55C349.6 -24.36 259.72 33.39 259.72 33.39Z" fill="#B2A79D"/>
<path d="M75.76 32.55C75.76 32.55 90.67 72.87 154.3 33.39C154.3 33.39 64.21 -24.36 75.76 32.55Z" fill="#B2A79D"/>
<path d="M170.47 338.52H138.97C123.22 338.52 111.04 351.33 111.04 366.45C111.04 381.78 123.85 394.59 138.97 394.59H170.47C186.22 394.59 198.4 381.78 198.4 366.45C198.4 351.12 185.8 338.52 170.47 338.52Z" fill="#827B77"/>
<path d="M156.4 216.93H155.14C133.51 216.93 113.56 234.36 113.56 255.99V359.73C113.56 381.36 195.88 381.36 195.88 359.73V255.99C195.46 234.36 178.03 216.93 156.4 216.93Z" fill="#827B77"/>
<path d="M129.73 355.53H98.23C82.48 355.53 70.3 368.34 70.3 383.46C70.3 399.21 83.11 411.6 98.23 411.6H129.73C145.48 411.6 157.66 398.79 157.66 383.46C157.66 367.71 145.27 355.53 129.73 355.53Z" fill="#9B928C"/>
<path d="M118.6 233.94H117.34C95.71 233.94 75.76 251.37 75.76 273V375.9C75.76 397.53 158.08 397.53 158.08 375.9V273C157.66 251.37 140.23 233.94 118.6 233.94Z" fill="#9B928C"/>
<path d="M286.39 340.62H254.89C239.14 340.62 226.75 353.43 226.75 368.55C226.75 384.3 239.56 396.48 254.89 396.48H286.39C301.72 396.48 314.32 383.67 314.32 368.55C314.32 353.22 302.14 340.62 286.39 340.62Z" fill="#827B77"/>
<path d="M272.74 219.03H271.48C249.85 219.03 229.9 236.46 229.9 258.09V363.51C229.9 385.14 312.22 385.14 312.22 363.51V258.09C311.8 236.46 294.37 219.03 272.74 219.03Z" fill="#827B77"/>
<path d="M324.19 355.53H292.69C276.94 355.53 264.76 368.34 264.76 383.46C264.76 399.21 277.57 411.6 292.69 411.6H324.19C339.94 411.6 352.12 398.79 352.12 383.46C352.75 368.13 339.94 355.53 324.19 355.53Z" fill="#9B928C"/>
<path d="M310.54 236.04H309.28C287.65 236.04 267.7 253.47 267.7 275.1V378.42C267.7 400.05 350.02 400.05 350.02 378.42V275.1C349.6 253.47 332.17 236.04 310.54 236.04Z" fill="#9B928C"/>
<path d="M207.85 19.53C121.96 19.53 51.3999 128.1 51.3999 213.99C51.3999 299.88 121.96 329.49 207.64 329.49C293.53 329.49 368.71 299.67 368.71 213.99C368.29 128.1 293.11 19.53 207.85 19.53Z" fill="#9B928C"/>
<g opacity="0.1">
<path d="M77.4399 150.36C65.4699 164.85 59.5899 177.45 57.0699 189.42C54.9699 195.3 54.1299 201.81 54.1299 208.11C54.1299 227.22 63.3699 243.81 79.9599 257.46C94.8699 289.38 144.43 309.75 208.27 309.75C280.09 309.75 339.1 284.34 346.66 245.28C356.11 234.15 361.57 221.97 361.57 208.32C361.57 199.5 359.05 190.47 354.85 182.07C349.81 163.8 339.1 150.57 339.1 150.57C337.84 131.04 334.48 114.03 329.65 99.5399C299.62 53.3399 254.89 18.6899 207.01 18.6899C154.3 18.6899 107.47 60.6899 79.1199 113.4C75.7599 134.61 77.4399 150.36 77.4399 150.36Z" fill="#333333"/>
</g>
<path d="M208.69 146.79C136.03 146.79 82.48 185.43 82.48 225.75C82.48 266.07 135.61 292.95 208.69 292.95C281.35 292.95 340.36 266.28 340.36 225.75C340.36 185.43 281.35 146.79 208.69 146.79Z" fill="#B2A79D"/>
<path d="M332.59 146.79C322.09 7.97996 203.65 14.28 203.65 14.28C72.4 25.41 84.58 147.21 84.58 147.21C23.89 219.03 117.76 256.83 117.76 256.83C180.55 281.4 296.05 256.83 296.05 256.83C389.92 217.35 332.59 146.79 332.59 146.79Z" fill="#B2A79D"/>
<path d="M124.06 158.76C138.558 158.76 150.31 146.819 150.31 132.09C150.31 117.36 138.558 105.42 124.06 105.42C109.563 105.42 97.8101 117.36 97.8101 132.09C97.8101 146.819 109.563 158.76 124.06 158.76Z" fill="#CEC2B7"/>
<path d="M299.2 158.76C313.697 158.76 325.45 146.819 325.45 132.09C325.45 117.36 313.697 105.42 299.2 105.42C284.702 105.42 272.95 117.36 272.95 132.09C272.95 146.819 284.702 158.76 299.2 158.76Z" fill="#CEC2B7"/>
<path d="M165.43 88.62C165.43 97.44 158.29 104.79 149.26 104.79C140.44 104.79 133.09 97.65 133.09 88.62C133.09 79.8 140.23 72.45 149.26 72.45C158.08 72.45 165.43 79.8 165.43 88.62Z" fill="white"/>
<path d="M158.92 88.1998C158.92 93.2398 154.72 98.0698 149.05 98.0698C143.59 98.0698 139.18 93.8698 139.18 88.1998C139.18 83.1598 143.38 78.3298 149.05 78.3298C154.72 78.9598 158.92 83.1598 158.92 88.1998Z" fill="#231F20"/>
<path d="M147.58 85.6799C147.58 86.5199 146.74 87.3599 145.9 87.3599C144.64 87.3599 144.22 86.5199 144.22 85.6799C144.22 84.8399 145.06 83.9999 145.9 83.9999C146.74 83.5799 147.58 84.4199 147.58 85.6799Z" fill="white"/>
<path d="M276.94 88.62C276.94 97.44 269.8 104.79 260.77 104.79C251.95 104.79 244.6 97.65 244.6 88.62C244.6 79.8 251.74 72.45 260.77 72.45C269.8 72.45 276.94 79.8 276.94 88.62Z" fill="white"/>
<path d="M270.64 88.1998C270.64 93.2398 266.44 98.0698 261.19 98.0698C256.15 98.0698 251.32 93.8698 251.32 88.1998C251.32 83.1598 255.52 78.3298 261.19 78.3298C266.86 78.3298 270.64 83.1598 270.64 88.1998Z" fill="#231F20"/>
<path d="M258.88 85.6799C258.88 86.5199 258.04 87.3599 257.2 87.3599C255.94 87.3599 255.52 86.5199 255.52 85.6799C255.52 84.8399 256.36 83.9999 257.2 83.9999C257.83 83.5799 258.88 84.4199 258.88 85.6799Z" fill="white"/>
<path d="M297.94 265.02C297.94 277.83 287.65 288.33 274.63 288.33C261.82 288.33 251.32 278.04 251.32 265.02V238.77C251.32 225.96 261.61 215.46 274.63 215.46C287.44 215.46 297.94 225.75 297.94 238.77V265.02Z" fill="#F1F1F1"/>
<path d="M167.11 265.02C167.11 277.83 156.82 288.33 143.8 288.33C130.99 288.33 120.49 278.04 120.49 265.02V238.77C120.49 225.96 130.78 215.46 143.8 215.46C156.61 215.46 167.11 225.75 167.11 238.77V265.02Z" fill="#F1F1F1"/>
<path d="M204.91 110.25C123.01 110.25 62.53 153.93 62.53 199.92C62.53 245.7 122.38 276.36 204.91 276.36C286.81 276.36 353.59 245.7 353.59 199.92C353.59 154.14 286.81 110.25 204.91 110.25Z" fill="#CEC2B7"/>
<path d="M293.95 153.72C303.112 153.72 310.54 146.292 310.54 137.13C310.54 127.968 303.112 120.54 293.95 120.54C284.787 120.54 277.36 127.968 277.36 137.13C277.36 146.292 284.787 153.72 293.95 153.72Z" fill="#827B77"/>
<path d="M125.32 120.54C116.5 120.54 108.73 127.68 108.73 137.13C108.73 146.58 115.87 153.72 125.32 153.72C134.14 153.72 141.91 146.58 141.91 137.13C141.91 127.68 134.77 120.54 125.32 120.54Z" fill="#827B77"/>
<g opacity="0.1">
<path d="M129.73 396.69H98.2299C85.4199 396.69 74.4999 387.87 71.1399 375.9C70.2999 378.42 69.8799 380.52 69.8799 383.04C69.8799 398.79 82.6899 410.97 97.8099 410.97H129.31C145.06 410.97 157.24 398.16 157.24 383.04C157.24 380.52 156.82 378 155.98 375.9C153.46 387.66 142.75 396.69 129.73 396.69Z" fill="#333333"/>
</g>
<g opacity="0.1">
<path d="M324.61 396.69H293.11C280.3 396.69 269.38 387.87 266.02 375.9C265.18 378.42 264.76 380.52 264.76 383.04C264.76 398.79 277.57 410.97 292.69 410.97H324.19C339.94 410.97 352.12 398.16 352.12 383.04C352.12 380.52 351.7 378 350.86 375.9C347.92 387.66 337.42 396.69 324.61 396.69Z" fill="#333333"/>
</g>
</svg>
