<svg width="420" height="420" viewBox="0 0 420 420" fill="none" xmlns="http://www.w3.org/2000/svg">
<rect width="420" height="420" fill="white"/>
<path d="M379.47 84.9899C316.05 74.4899 284.76 133.71 284.76 133.71C266.91 170.04 239.19 176.97 239.19 176.97L258.51 197.76C326.13 219.39 363.93 164.16 363.93 164.16C411.39 181.59 414.96 137.07 414.96 137.07C423.15 93.8099 379.47 84.9899 379.47 84.9899Z" fill="#BA9159" stroke="black" stroke-width="2" stroke-miterlimit="10" stroke-linecap="round" stroke-linejoin="round"/>
<path d="M363.72 164.16C363.72 164.16 370.65 146.73 386.19 140.64" stroke="black" stroke-miterlimit="10" stroke-linecap="round" stroke-linejoin="round"/>
<path d="M407.4 102C407.4 102 385.35 90.8701 353.01 122.79C353.01 122.79 339.57 138.54 332.22 147.57C332.22 147.57 296.73 187.05 260.4 187.68L258.09 185.79C258.09 185.79 298.62 179.28 332.64 134.76C332.64 134.76 362.46 87.3001 396.69 92.3401C396.9 92.3401 404.25 97.3801 407.4 102Z" fill="#534741" stroke="black" stroke-width="0.8" stroke-miterlimit="10" stroke-linecap="round" stroke-linejoin="round"/>
<path d="M372.12 84.5699C372.12 84.5699 347.76 82.6799 316.05 132.45C316.05 132.45 295.26 166.47 247.38 179.49L245.07 178.02C245.07 178.02 282.45 163.74 300.72 138.96C300.72 138.96 333.9 88.7699 347.76 86.8799C348.18 86.8799 360.99 83.0999 372.12 84.5699Z" fill="#534741" stroke="black" stroke-width="0.8" stroke-miterlimit="10" stroke-linecap="round" stroke-linejoin="round"/>
<path d="M94.0801 161.85C94.0801 161.85 98.2801 138.33 69.7201 138.75C69.7201 138.75 38.8501 139.59 41.1601 169.62C41.1601 169.62 43.0501 181.17 55.0201 183.48C55.0201 183.9 70.5601 165 94.0801 161.85Z" fill="#BA9159" stroke="black" stroke-width="2" stroke-miterlimit="10" stroke-linecap="round" stroke-linejoin="round"/>
<path d="M60.9001 175.29C60.9001 175.29 49.7701 160.59 64.0501 154.08C64.0501 154.08 80.2201 149.04 82.9501 162.27C83.1601 161.85 66.9901 166.47 60.9001 175.29Z" fill="#F8EFD1" stroke="black" stroke-width="0.8" stroke-miterlimit="10" stroke-linecap="round" stroke-linejoin="round"/>
<path d="M23.73 266.85C23.73 266.85 0.210005 281.97 5.25 288.9C5.25 288.9 3.36001 295.41 11.13 294.78C11.13 294.78 21.21 300.66 40.95 290.16L44.1 288.27L23.73 266.85Z" fill="#BA9159" stroke="black" stroke-width="2" stroke-miterlimit="10" stroke-linecap="round" stroke-linejoin="round"/>
<path d="M308.49 243.75C308.49 243.75 297.99 238.29 292.74 229.47C292.74 229.47 283.92 219.81 279.93 233.25C279.93 233.25 279.93 186.21 239.4 177.18C239.4 177.18 208.53 168.99 176.4 192.3L73.71 301.29C73.71 301.29 51.24 317.46 54.81 327.96C54.81 327.96 56.7 334.89 64.05 334.47C64.05 334.47 68.25 338.67 82.95 330.69C82.95 330.69 137.76 308.22 152.88 304.44C152.88 304.44 233.31 287.01 245.91 273.57C245.91 273.57 263.34 284.07 296.94 258.87C296.94 258.87 326.76 267.06 330.54 252.36C330.75 253.41 332.43 244.17 308.49 243.75Z" fill="#BA9159" stroke="black" stroke-width="2" stroke-miterlimit="10" stroke-linecap="round" stroke-linejoin="round"/>
<path d="M274.89 209.31C274.89 209.31 250.95 197.76 213.78 221.28C213.78 221.28 175.56 251.1 138.81 249.42L145.74 243.96C145.74 243.96 182.91 234.3 203.28 218.55C203.28 218.55 241.92 187.68 268.59 197.34C269.01 196.92 274.47 205.11 274.89 209.31Z" fill="#534741" stroke="black" stroke-width="0.8" stroke-miterlimit="10" stroke-linecap="round" stroke-linejoin="round"/>
<path d="M255.57 183.9C255.57 183.9 221.97 180.75 185.22 210.15L187.53 200.07C187.53 200.07 219.66 178.02 243.6 178.44C243.6 178.44 253.89 181.17 255.57 183.9Z" fill="#534741" stroke="black" stroke-width="0.8" stroke-miterlimit="10" stroke-linecap="round" stroke-linejoin="round"/>
<path d="M94.08 161.85C94.08 161.85 44.3101 159.12 31.5001 232.62C31.5001 232.62 5.67006 266.22 42.0001 287.85C42.0001 287.85 90.72 318.3 127.68 287.85C127.68 287.85 168.21 258.45 164.85 223.38C164.85 223.38 202.65 216.03 181.86 176.34C181.86 176.34 161.7 143.16 133.98 175.5C133.77 175.71 125.79 162.27 94.08 161.85Z" fill="#BA9159" stroke="black" stroke-width="2" stroke-miterlimit="10" stroke-linecap="round" stroke-linejoin="round"/>
<path d="M148.89 183.9C148.89 183.9 156.24 189.36 158.97 210.15C158.97 210.15 178.71 205.95 171.78 186.63C171.99 186.63 166.32 172.98 148.89 183.9Z" fill="#F8EFD1" stroke="black" stroke-width="0.8" stroke-miterlimit="10" stroke-linecap="round" stroke-linejoin="round"/>
<path d="M30.6601 233.67C30.6601 233.67 48.5101 227.79 73.0801 235.14C73.0801 235.14 132.09 250.26 124.11 290.37C124.11 290.37 93.6601 314.73 50.4001 292.68C50.8201 292.47 2.94009 276.51 30.6601 233.67Z" fill="#F8EFD1" stroke="black" stroke-miterlimit="10" stroke-linecap="round" stroke-linejoin="round"/>
<path d="M48.0901 266.85C48.0901 266.85 53.1301 288.48 67.8301 271.47" stroke="black" stroke-miterlimit="10" stroke-linecap="round" stroke-linejoin="round"/>
<path d="M54.6001 221.28C54.6001 221.28 69.7201 199.65 68.0401 226.74" stroke="black" stroke-miterlimit="10" stroke-linecap="round" stroke-linejoin="round"/>
<path d="M79.8 229.89C79.8 229.89 84.8401 217.92 92.1901 219.81C92.1901 219.81 100.38 224.01 94.9201 236.82" stroke="black" stroke-miterlimit="10" stroke-linecap="round" stroke-linejoin="round"/>
<path d="M64.0934 238.835C57.9409 237.151 52.0846 238.96 51.013 242.875C49.9413 246.79 54.0601 251.33 60.2126 253.014C66.365 254.698 72.2213 252.889 73.2929 248.974C74.3646 245.058 70.2458 240.519 64.0934 238.835Z" fill="black"/>
<path d="M55.8599 242.07C56.2799 240.81 59.2199 240.6 62.5799 241.65C65.9399 242.49 68.4599 244.38 68.2499 245.64C67.8299 246.9 64.8899 247.11 61.5299 246.06C58.1699 245.01 55.6499 243.12 55.8599 242.07Z" fill="white"/>
<path d="M88.62 161.43C88.62 161.43 82.11 166.89 83.16 179.28C83.16 179.28 104.79 162.27 107.1 162.69C107.1 162.69 99.12 159.12 88.62 161.43Z" fill="#534741" stroke="black" stroke-width="0.8" stroke-miterlimit="10" stroke-linecap="round" stroke-linejoin="round"/>
<path d="M55.02 328.38C55.02 328.38 63.21 320.61 67.41 319.14" stroke="black" stroke-width="0.5" stroke-miterlimit="10" stroke-linecap="round" stroke-linejoin="round"/>
<path d="M64.26 334.89C64.26 334.89 70.77 326.07 73.92 324.39" stroke="black" stroke-width="0.5" stroke-miterlimit="10" stroke-linecap="round" stroke-linejoin="round"/>
<path d="M5.25 289.32C5.25 289.32 7.98 286.17 12.6 284.28" stroke="black" stroke-width="0.5" stroke-miterlimit="10" stroke-linecap="round" stroke-linejoin="round"/>
<path d="M11.3401 295.2C11.3401 295.2 15.1201 290.16 17.8501 288.69" stroke="black" stroke-width="0.5" stroke-miterlimit="10" stroke-linecap="round" stroke-linejoin="round"/>
<path d="M113.4 164.16C113.4 164.16 103.74 173.82 100.59 187.68C100.59 187.68 122.22 174.24 130.41 172.56C131.04 172.35 122.64 165.63 113.4 164.16Z" fill="#534741" stroke="black" stroke-width="0.8" stroke-miterlimit="10" stroke-linecap="round" stroke-linejoin="round"/>
</svg>
