<?xml version="1.0" encoding="utf-8"?>
<!-- Generator: Adobe Illustrator 16.0.0, SVG Export Plug-In . SVG Version: 6.00 Build 0)  -->
<!DOCTYPE svg PUBLIC "-//W3C//DTD SVG 1.1//EN" "http://www.w3.org/Graphics/SVG/1.1/DTD/svg11.dtd">
<svg version="1.1" id="레이어_1" xmlns="http://www.w3.org/2000/svg" xmlns:xlink="http://www.w3.org/1999/xlink" x="0px"
	 y="0px" width="200px" height="123px" viewBox="0 0 200 123" style="enable-background:new 0 0 200 123;" xml:space="preserve">
<style type="text/css">
<![CDATA[
	.st0{fill:none;stroke:#000000;stroke-linecap:round;stroke-linejoin:round;stroke-miterlimit:10;}
	.st1{fill:none;stroke:#000000;stroke-width:0.5;stroke-linecap:round;stroke-linejoin:round;stroke-miterlimit:10;}
	.st2{fill:#BA9159;stroke:#000000;stroke-width:2;stroke-linecap:round;stroke-linejoin:round;stroke-miterlimit:10;}
	.st3{fill:#FFFFFF;}
	.st4{fill:#534741;stroke:#000000;stroke-width:0.8;stroke-linecap:round;stroke-linejoin:round;stroke-miterlimit:10;}
	.st5{fill:#F8EFD1;stroke:#000000;stroke-linecap:round;stroke-linejoin:round;stroke-miterlimit:10;}
	.st6{fill:#F8EFD1;stroke:#000000;stroke-width:0.8;stroke-linecap:round;stroke-linejoin:round;stroke-miterlimit:10;}
]]>
</style>
<path class="st2" d="M180.7,1.9c-30.2-5-45.1,23.2-45.1,23.2c-8.5,17.3-21.7,20.6-21.7,20.6l9.2,9.9c32.2,10.3,50.2-16,50.2-16
	c22.6,8.3,24.3-12.9,24.3-12.9C201.5,6.1,180.7,1.9,180.7,1.9z"/>
<path class="st0" d="M173.2,39.6c0,0,3.3-8.3,10.7-11.2"/>
<path class="st4" d="M194,10c0,0-10.5-5.3-25.9,9.9c0,0-6.4,7.5-9.9,11.8c0,0-16.9,18.8-34.2,19.1l-1.1-0.9c0,0,19.3-3.1,35.5-24.3
	c0,0,14.2-22.6,30.5-20.2C189,5.4,192.5,7.8,194,10z"/>
<path class="st4" d="M177.2,1.7c0,0-11.6-0.9-26.7,22.8c0,0-9.9,16.2-32.7,22.4l-1.1-0.7c0,0,17.8-6.8,26.5-18.6
	c0,0,15.8-23.9,22.4-24.8C165.8,2.8,171.9,1,177.2,1.7z"/>
<path class="st2" d="M44.8,38.5c0,0,2-11.2-11.6-11c0,0-14.7,0.4-13.6,14.7c0,0,0.9,5.5,6.6,6.6C26.2,49,33.6,40,44.8,38.5z"/>
<path class="st6" d="M29,44.9c0,0-5.3-7,1.5-10.1c0,0,7.7-2.4,9,3.9C39.6,38.5,31.9,40.7,29,44.9z"/>
<path class="st2" d="M11.3,88.5c0,0-11.2,7.2-8.8,10.5c0,0-0.9,3.1,2.8,2.8c0,0,4.8,2.8,14.2-2.2l1.5-0.9L11.3,88.5z"/>
<path class="st2" d="M146.9,77.5c0,0-5-2.6-7.5-6.8c0,0-4.2-4.6-6.1,1.8c0,0,0-22.4-19.3-26.7c0,0-14.7-3.9-30,7.2l-48.9,51.9
	c0,0-10.7,7.7-9,12.7c0,0,0.9,3.3,4.4,3.1c0,0,2,2,9-1.8c0,0,26.1-10.7,33.3-12.5c0,0,38.3-8.3,44.3-14.7c0,0,8.3,5,24.3-7
	c0,0,14.2,3.9,16-3.1C157.5,82.1,158.3,77.7,146.9,77.5z"/>
<path class="st4" d="M130.9,61.1c0,0-11.4-5.5-29.1,5.7c0,0-18.2,14.2-35.7,13.4l3.3-2.6c0,0,17.7-4.6,27.4-12.1
	c0,0,18.4-14.7,31.1-10.1C128.1,55.2,130.7,59.1,130.9,61.1z"/>
<path class="st4" d="M121.7,49c0,0-16-1.5-33.5,12.5l1.1-4.8c0,0,15.3-10.5,26.7-10.3C116,46.4,120.9,47.7,121.7,49z"/>
<path class="st2" d="M44.8,38.5c0,0-23.7-1.3-29.8,33.7c0,0-12.3,16,5,26.3c0,0,23.2,14.5,40.8,0c0,0,19.3-14,17.7-30.7
	c0,0,18-3.5,8.1-22.4c0,0-9.6-15.8-22.8-0.4C63.7,45.1,59.9,38.7,44.8,38.5z"/>
<path class="st6" d="M70.9,49c0,0,3.5,2.6,4.8,12.5c0,0,9.4-2,6.1-11.2C81.9,50.3,79.2,43.8,70.9,49z"/>
<path class="st5" d="M14.6,72.7c0,0,8.5-2.8,20.2,0.7c0,0,28.1,7.2,24.3,26.3c0,0-14.5,11.6-35.1,1.1C24.2,100.7,1.4,93.1,14.6,72.7
	z"/>
<path class="st0" d="M22.9,88.5c0,0,2.4,10.3,9.4,2.2"/>
<path class="st0" d="M26,66.8c0,0,7.2-10.3,6.4,2.6"/>
<path class="st0" d="M38,70.9c0,0,2.4-5.7,5.9-4.8c0,0,3.9,2,1.3,8.1"/>
<ellipse transform="matrix(-0.9645 -0.264 0.264 -0.9645 37.3955 162.1595)" cx="29.6" cy="78.6" rx="5.5" ry="3.5"/>
<path class="st3" d="M26.6,76.7c0.2-0.6,1.6-0.7,3.2-0.2c1.6,0.4,2.8,1.3,2.7,1.9c-0.2,0.6-1.6,0.7-3.2,0.2
	C27.7,78.1,26.5,77.2,26.6,76.7z"/>
<path class="st4" d="M42.2,38.3c0,0-3.1,2.6-2.6,8.5c0,0,10.3-8.1,11.4-7.9C51,38.9,47.2,37.2,42.2,38.3z"/>
<path class="st1" d="M26.2,117.8c0,0,3.9-3.7,5.9-4.4"/>
<path class="st1" d="M30.6,120.9c0,0,3.1-4.2,4.6-5"/>
<path class="st1" d="M2.5,99.2c0,0,1.3-1.5,3.5-2.4"/>
<path class="st1" d="M5.4,102c0,0,1.8-2.4,3.1-3.1"/>
<path class="st4" d="M54,39.6c0,0-4.6,4.6-6.1,11.2c0,0,10.3-6.4,14.2-7.2C62.4,43.5,58.4,40.3,54,39.6z"/>
</svg>
