<svg width="20" height="20" viewBox="0 0 20 20" fill="none" xmlns="http://www.w3.org/2000/svg">
<path fill-rule="evenodd" clip-rule="evenodd" d="M9.98534 1.06227C10.0735 1.02125 10.1695 1 10.2667 1C10.3639 1 10.4599 1.02125 10.548 1.06227L18.548 4.7956C18.6631 4.84916 18.7604 4.93445 18.8287 5.04144C18.897 5.14843 18.9333 5.27269 18.9333 5.3996V14.5996C18.9333 14.7265 18.897 14.8508 18.8287 14.9578C18.7604 15.0648 18.6631 15.15 18.548 15.2036L10.548 18.9369C10.4599 18.978 10.3639 18.9992 10.2667 18.9992C10.1695 18.9992 10.0735 18.978 9.98534 18.9369L1.98534 15.2036C1.87028 15.15 1.7729 15.0648 1.70464 14.9578C1.63638 14.8508 1.60008 14.7265 1.60001 14.5996V5.3996C1.60008 5.27269 1.63638 5.14843 1.70464 5.04144C1.7729 4.93445 1.87028 4.84916 1.98534 4.7956L9.98534 1.06227ZM2.93334 5.7L10.548 10.3L10.2667 17.7L2.93334 14.1743V5.7ZM10.2667 17.7L17.6 14.1756V5.95L10.548 10.3L10.2667 17.7ZM10.548 10.3L17.6 5.95L10.2667 2.40227L2.93334 5.7L10.548 10.3Z" fill="#666666"/>
</svg>
