<?xml version="1.0" encoding="utf-8"?>
<!-- Generator: Adobe Illustrator 16.0.0, SVG Export Plug-In . SVG Version: 6.00 Build 0)  -->
<!DOCTYPE svg PUBLIC "-//W3C//DTD SVG 1.1//EN" "http://www.w3.org/Graphics/SVG/1.1/DTD/svg11.dtd">
<svg version="1.1" id="레이어_1" xmlns="http://www.w3.org/2000/svg" xmlns:xlink="http://www.w3.org/1999/xlink" x="0px"
	 y="0px" width="129px" height="200px" viewBox="0 0 129 200" style="enable-background:new 0 0 129 200;" xml:space="preserve">
<style type="text/css">
<![CDATA[
	.st0{fill:#86BC31;stroke:#000000;stroke-width:2;stroke-linecap:round;stroke-linejoin:round;stroke-miterlimit:10;}
	.st1{fill:#75236E;stroke:#000000;stroke-width:2;stroke-linecap:round;stroke-linejoin:round;stroke-miterlimit:10;}
]]>
</style>
<path class="st1" d="M71.9,65c0,0,9.3,9.8-25.7,31.1c0,0-46.4,18-44.3,67.2c0,0,4.4,41,55.7,33.3c0,0,74.9-13.7,56.8-128.4
	l-7.6-12.6L71.9,65z"/>
<path class="st0" d="M86.6,10.3c0,0,2.2,8.2,0,11.5c0,0-13.1,0.5-13.7,14.2c0,0,2.7,15.3-8.7,18.6c0,0-6,3.8,2.2,10.4
	c0,0,9.3,4.9,18-2.2c0,0,2.2-2.2,3.8,0.5c0,0,1.6,9.8,7.1,10.4c0,0,4.4,2.2,7.1-8.7c0,0,1.1-3.3,3.8-0.5c0,0,5.5,8.7,20.8,2.7
	c0,0-2.2-6-7.1-9.8c0,0-7.6-7.1-8.2-19.7c0,0,1.1-14.2-16.9-16.4c0,0,1.6-15.8-3.8-19.1c0,0-6.6-1.1-7.6,3.8
	C83.9,5.4,83.3,7.6,86.6,10.3z"/>
<path d="M71.9,180.8c-1.1,0-1.6-0.5-2.2-1.1c-1.1-1.1-0.5-2.7,0.5-3.8c0,0,20.2-15.3,28.4-36.1c0.5-1.6,2.2-2.2,3.3-1.6
	c1.6,0.5,2.2,2.2,1.6,3.3c-8.7,22.9-29.5,38.2-30.1,38.8C72.9,180.8,72.4,180.8,71.9,180.8z"/>
<circle cx="61.5" cy="184.1" r="3.8"/>
</svg>
