<svg width="420" height="420" viewBox="0 0 420 420" fill="none" xmlns="http://www.w3.org/2000/svg">
<rect width="420" height="420" fill="white"/>
<path d="M242.36 5.04004C200.78 31.92 200.78 130.62 200.78 131.67C200.78 134.4 214.01 134.19 213.8 131.25C213.8 131.04 212.54 36.75 249.08 13.02L242.36 5.04004Z" fill="#9E5400"/>
<path d="M249.29 15.1201C248.66 15.7501 247.61 15.7501 246.77 15.1201L239 7.77011C238.37 7.14011 238.37 6.09011 239 5.46011L241.73 2.52011C242.36 1.89011 243.41 1.89011 244.25 2.52011L252.02 9.87011C252.65 10.5001 252.86 11.5501 252.23 12.3901L249.29 15.1201Z" fill="#844300"/>
<path d="M174.32 102.9C163.82 101.43 154.37 98.91 145.97 95.34C135.26 90.51 126.65 83.79 120.56 75.18C109.85 60.06 107.12 39.69 112.37 14.7C112.79 12.6 114.68 10.92 116.78 10.71C117.2 10.71 127.28 9.45001 140.51 11.34C148.7 12.18 156.47 14.07 163.19 16.8C172.01 20.37 179.57 25.2 185.87 31.29C201.83 46.62 208.55 69.51 206.24 99.12C206.03 101.64 204.14 103.53 201.62 103.74C201.2 103.74 189.44 104.79 174.32 102.9Z" fill="#3AC018"/>
<path d="M182.93 93.66C172.43 92.19 162.98 89.67 154.58 86.1C143.87 81.27 135.26 74.55 129.38 65.94C119.3 51.87 116.36 33.18 120.35 10.29C118.25 10.5 116.99 10.5 116.99 10.5C114.89 10.71 113 12.39 112.58 14.49C107.33 39.48 110.06 59.85 120.77 74.97C126.86 83.37 135.26 90.3 146.18 95.13C154.37 98.91 164.03 101.43 174.53 102.69C189.65 104.58 201.41 103.53 202.04 103.32C204.56 103.11 206.45 101.01 206.66 98.7C206.66 97.23 206.87 95.76 206.87 94.5C201.83 94.92 193.22 95.13 182.93 93.66Z" fill="#2CAE00"/>
<path d="M300.32 106.89C291.92 104.58 283.31 103.32 274.7 103.32C254.54 103.32 234.59 109.62 216.32 121.8C211.07 124.74 206.03 123.9 203.72 122.01C185.24 109.62 165.08 103.11 144.92 103.11C136.31 103.11 127.7 104.37 119.3 106.68C50.0001 126.21 18.0801 188.37 35.9301 268.8C53.7801 349.23 106.7 411.18 143.03 416.64C148.49 417.48 153.95 417.9 158.99 417.9C184.82 417.9 199.94 407.82 208.76 400.89C209.18 400.68 210.23 400.47 210.86 400.89C219.68 407.82 235.01 417.9 260.63 417.9C265.88 417.9 271.13 417.48 276.59 416.64C312.92 411.39 365.84 349.23 383.69 268.8C401.33 188.37 369.41 126.21 300.32 106.89Z" fill="#B4230E"/>
<path d="M340.22 125.58C357.23 154.35 361.85 192.15 352.19 234.99C334.34 315.42 287.93 387.66 151.43 387.66C111.11 387.66 89.9001 375.48 78.5601 366.24C99.3501 395.22 123.29 413.91 142.61 416.85C148.07 417.69 153.53 418.11 158.57 418.11C184.4 418.11 199.52 408.03 208.34 401.1C208.76 400.89 209.81 400.68 210.44 401.1C219.26 408.03 234.59 418.11 260.21 418.11C265.46 418.11 270.71 417.69 276.17 416.85C312.5 411.6 365.42 349.44 383.27 269.01C397.55 206.01 381.17 154.35 340.22 125.58Z" fill="#9B190A"/>
<path opacity="0.6" d="M143.45 172.2C143.45 183.54 134.21 192.78 122.66 192.78C111.32 192.78 101.87 183.54 101.87 172.2C101.87 160.86 111.11 151.41 122.66 151.41C134.21 151.41 143.45 160.86 143.45 172.2Z" fill="white"/>
<path opacity="0.6" d="M105.65 198.03C105.65 203.49 101.24 207.9 95.7802 207.9C90.3202 207.9 85.9102 203.49 85.9102 198.03C85.9102 192.57 90.3202 188.16 95.7802 188.16C101.24 188.16 105.65 192.57 105.65 198.03Z" fill="white"/>
</svg>
