<?xml version="1.0" encoding="utf-8"?>
<!-- Generator: Adobe Illustrator 16.0.0, SVG Export Plug-In . SVG Version: 6.00 Build 0)  -->
<!DOCTYPE svg PUBLIC "-//W3C//DTD SVG 1.1//EN" "http://www.w3.org/Graphics/SVG/1.1/DTD/svg11.dtd">
<svg version="1.1" id="레이어_1" xmlns="http://www.w3.org/2000/svg" xmlns:xlink="http://www.w3.org/1999/xlink" x="0px"
	 y="0px" width="172px" height="200px" viewBox="0 0 172 200" style="enable-background:new 0 0 172 200;" xml:space="preserve">
<style type="text/css">
<![CDATA[
	.st0{opacity:0.6;fill:#FFFFFF;}
	.st1{fill:#844300;}
	.st2{fill:#B4230E;}
	.st3{fill:#2CAE00;}
	.st4{fill:#9B190A;}
	.st5{fill:#9E5400;}
	.st6{fill:#3AC018;}
]]>
</style>
<path class="st5" d="M101.6,2.4C81.8,15.2,81.8,62.2,81.8,62.7c0,1.3,6.3,1.2,6.2-0.2c0-0.1-0.6-45,16.8-56.3L101.6,2.4z"/>
<path class="st1" d="M104.9,7.2c-0.3,0.3-0.8,0.3-1.2,0L100,3.7c-0.3-0.3-0.3-0.8,0-1.1l1.3-1.4c0.3-0.3,0.8-0.3,1.2,0l3.7,3.5
	c0.3,0.3,0.4,0.8,0.1,1.2L104.9,7.2z"/>
<path class="st6" d="M69.2,49c-5-0.7-9.5-1.9-13.5-3.6c-5.1-2.3-9.2-5.5-12.1-9.6c-5.1-7.2-6.4-16.9-3.9-28.8c0.2-1,1.1-1.8,2.1-1.9
	c0.2,0,5-0.6,11.3,0.3C57,5.8,60.7,6.7,63.9,8c4.2,1.7,7.8,4,10.8,6.9c7.6,7.3,10.8,18.2,9.7,32.3c-0.1,1.2-1,2.1-2.2,2.2
	C82,49.4,76.4,49.9,69.2,49z"/>
<g>
	<path class="st3" d="M73.3,44.6c-5-0.7-9.5-1.9-13.5-3.6c-5.1-2.3-9.2-5.5-12-9.6c-4.8-6.7-6.2-15.6-4.3-26.5C42.5,5,41.9,5,41.9,5
		c-1,0.1-1.9,0.9-2.1,1.9c-2.5,11.9-1.2,21.6,3.9,28.8c2.9,4,6.9,7.3,12.1,9.6c3.9,1.8,8.5,3,13.5,3.6c7.2,0.9,12.8,0.4,13.1,0.3
		c1.2-0.1,2.1-1.1,2.2-2.2c0-0.7,0.1-1.4,0.1-2C82.3,45.2,78.2,45.3,73.3,44.6z"/>
</g>
<path class="st2" d="M129.2,50.9c-4-1.1-8.1-1.7-12.2-1.7c-9.6,0-19.1,3-27.8,8.8c-2.5,1.4-4.9,1-6,0.1c-8.8-5.9-18.4-9-28-9
	c-4.1,0-8.2,0.6-12.2,1.7c-33,9.3-48.2,38.9-39.7,77.2c8.5,38.3,33.7,67.8,51,70.4c2.6,0.4,5.2,0.6,7.6,0.6
	c12.3,0,19.5-4.8,23.7-8.1c0.2-0.1,0.7-0.2,1,0c4.2,3.3,11.5,8.1,23.7,8.1c2.5,0,5-0.2,7.6-0.6c17.3-2.5,42.5-32.1,51-70.4
	C177.3,89.7,162.1,60.1,129.2,50.9z"/>
<g>
	<path class="st4" d="M148.2,59.8c8.1,13.7,10.3,31.7,5.7,52.1c-8.5,38.3-30.6,72.7-95.6,72.7c-19.2,0-29.3-5.8-34.7-10.2
		c9.9,13.8,21.3,22.7,30.5,24.1c2.6,0.4,5.2,0.6,7.6,0.6c12.3,0,19.5-4.8,23.7-8.1c0.2-0.1,0.7-0.2,1,0c4.2,3.3,11.5,8.1,23.7,8.1
		c2.5,0,5-0.2,7.6-0.6c17.3-2.5,42.5-32.1,51-70.4C175.5,98.1,167.7,73.5,148.2,59.8z"/>
</g>
<path class="st0" d="M54.5,82c0,5.4-4.4,9.8-9.9,9.8c-5.4,0-9.9-4.4-9.9-9.8c0-5.4,4.4-9.9,9.9-9.9C50.1,72.1,54.5,76.6,54.5,82z"/>
<path class="st0" d="M36.5,94.3c0,2.6-2.1,4.7-4.7,4.7c-2.6,0-4.7-2.1-4.7-4.7c0-2.6,2.1-4.7,4.7-4.7C34.4,89.6,36.5,91.7,36.5,94.3
	z"/>
</svg>
