<?xml version="1.0" encoding="utf-8"?>
<!-- Generator: Adobe Illustrator 16.0.0, SVG Export Plug-In . SVG Version: 6.00 Build 0)  -->
<!DOCTYPE svg PUBLIC "-//W3C//DTD SVG 1.1//EN" "http://www.w3.org/Graphics/SVG/1.1/DTD/svg11.dtd">
<svg version="1.1" id="레이어_1" xmlns="http://www.w3.org/2000/svg" xmlns:xlink="http://www.w3.org/1999/xlink" x="0px"
	 y="0px" width="200px" height="200px" viewBox="0 0 200 200" style="enable-background:new 0 0 200 200;" xml:space="preserve">
<style type="text/css">
<![CDATA[
	.st0{fill:#EB5000;}
	.st1{fill:#F06100;}
	.st2{fill:#258900;}
	.st3{fill:#269300;}
	.st4{fill:#2CAE00;}
	.st5{fill:#FB6800;}
	.st6{fill:#3AC018;}
]]>
</style>
<g>
	<path class="st3" d="M183.9,16.1c0.7,0.7,0.1,2.5-0.1,3.6c-2.6,10.1-12.3,29.3-31.4,30.8c-0.8,0.1-1.6-0.2-2.2-0.7
		c-0.5-0.5-0.8-1.4-0.7-2.2c1.6-18.9,20.9-28.8,30.8-31.4C181.4,16,183.2,15.4,183.9,16.1z"/>
	<g>
		<path class="st2" d="M183.8,19.7c0.3-1,0.8-2.8,0.1-3.6c-0.6-0.6-2.5-0.1-3.6,0.1c-10.1,2.6-29.3,12.3-30.8,31.4
			c-0.1,0.8,0.2,1.6,0.7,2.2c0.5,0.5,1.4,0.8,2.2,0.7C171.4,48.9,181.1,29.6,183.8,19.7z M159.3,42.5c-0.5,0-1.1-0.2-1.5-0.5
			c-0.4-0.4-0.5-0.9-0.5-1.4c1.1-12.4,13.7-18.8,20.2-20.6c0.7-0.2,1.8-0.5,2.3-0.1c0.5,0.5,0.1,1.7-0.1,2.3
			C178.2,28.9,171.8,41.5,159.3,42.5z"/>
	</g>
</g>
<g>
	<path class="st6" d="M199,37.8c-0.4-0.9-2.3-1.2-3.4-1.4c-10.1-1.9-31.8-1.1-41.3,15.4c-0.4,0.7-0.5,1.6-0.3,2.3
		c0.2,0.7,0.9,1.3,1.6,1.6c17.9,6.6,34.9-6.8,41.4-14.7C198,40.2,199.2,38.8,199,37.8z"/>
	<g>
		<path class="st4" d="M197.2,41c0.6-0.8,1.9-2.3,1.6-3.1c-0.2-0.7-1.5-1.1-2.5-1.2c-0.3,0.5-0.7,0.9-1,1.2
			c-6.5,8-23.5,21.3-41.3,14.8c-0.1,0.5-0.1,1,0.1,1.6c0.2,0.7,0.9,1.3,1.6,1.6C173.6,62.4,190.7,48.9,197.2,41z"/>
	</g>
</g>
<g>
	<path class="st6" d="M162.2,1c0.9,0.4,1.2,2.3,1.4,3.4c1.9,10.1,1.1,31.8-15.4,41.3c-0.7,0.4-1.6,0.5-2.3,0.3
		c-0.7-0.2-1.3-0.9-1.6-1.6c-6.7-18,6.7-35.2,14.7-41.6C159.8,2,161.2,0.8,162.2,1z"/>
	<g>
		<path class="st4" d="M159,2.8c0.7-0.7,2.2-2,3.2-1.7c0.8,0.3,1.1,1.5,1.2,2.5c-0.5,0.4-0.9,0.7-1.3,1.1
			c-8,6.5-21.3,23.5-14.8,41.3c-0.5,0.1-1,0.1-1.6-0.1c-0.7-0.2-1.3-0.9-1.6-1.6C137.6,26.4,151,9.2,159,2.8z"/>
	</g>
</g>
<path class="st5" d="M156.4,89.5c-15.6,15.6-141,119.4-153.3,107c-12.2-12.3,91.4-137.7,107-153.3c15.6-15.6,31.4-9.8,43.6,2.5
	C166.2,58,172.1,73.8,156.4,89.5z"/>
<g>
	<path class="st1" d="M161.3,55.1c2.1,8.1,0.1,16.9-8.7,25.7c-14.7,14.7-126,107-149.7,108c-1.1,3.7-1.1,6.2,0.2,7.5
		c12.2,12.2,137.6-91.3,153.3-107C168.3,77.5,167.7,65.6,161.3,55.1z"/>
</g>
<g>
	<path class="st0" d="M135,60.3c0.9-0.9,0.9-2.4,0-3.3l-18.7-18.7c-1.3,0.9-2.6,1.8-3.8,2.9l19.1,19.1
		C132.5,61.1,134.1,61.2,135,60.3z"/>
	<path class="st0" d="M104.4,73c-0.9,0.9-0.9,2.4,0,3.3l31.4,31.4c1.2-1,2.5-2.1,3.7-3.1l-31.6-31.6C106.7,72.1,105.3,72.1,104.4,73
		z"/>
	<path class="st0" d="M109.4,91.3c-0.9-0.9-2.4-0.9-3.3,0c-0.9,0.9-0.9,2.4,0,3.3l20.6,20.6c1.2-1,2.5-2.1,3.6-3L109.4,91.3
		L109.4,91.3z"/>
	<path class="st0" d="M44.8,160.3c0.9-0.9,0.9-2.4,0-3.3l-14.4-14.4c-0.9,1.3-1.9,2.7-2.7,3.8l13.8,13.8
		C42.4,161.3,43.8,161.3,44.8,160.3z"/>
</g>
</svg>
