<svg width="420" height="420" viewBox="0 0 420 420" fill="none" xmlns="http://www.w3.org/2000/svg">
<rect width="420" height="420" fill="white"/>
<path d="M402.36 229.54C399.84 225.76 397.32 222.4 396.27 219.04C395.22 216.1 394.8 212.95 394.8 209.8C394.8 209.59 394.8 209.38 394.8 209.17C394.8 205.81 395.22 202.66 396.27 199.93C397.53 196.57 399.84 193.21 402.36 189.43C406.35 183.55 410.97 176.62 412.86 167.8C417.27 146.38 409.92 127.06 392.49 114.67C390.39 113.2 387.66 112.36 385.14 112.36C383.04 112.36 380.73 112.99 378.84 114.04L282.87 180.19C279.09 182.5 276.78 186.49 276.78 190.9V227.02C276.78 231.43 279.09 235.63 282.87 237.73L378.84 305.14C380.73 306.19 383.04 306.82 385.14 306.82C387.66 306.82 390.18 305.98 392.49 304.51C409.92 291.91 417.27 272.8 412.86 251.38C411.18 242.14 406.56 235.42 402.36 229.54Z" fill="#F89038"/>
<path d="M134.61 179.56L38.64 113.41C36.75 112.36 34.44 111.73 32.34 111.73C29.82 111.73 27.3 112.57 24.99 114.04C7.56002 126.64 0.210024 145.75 4.62002 167.17C6.51002 175.99 11.13 182.92 15.12 188.8C17.64 192.58 20.16 195.94 21.21 199.3C22.26 202.24 22.68 205.39 22.68 208.54C22.68 208.75 22.68 208.96 22.68 209.17C22.68 212.53 22.26 215.68 21.21 218.41C19.95 221.77 17.64 225.13 15.12 228.91C11.13 234.79 6.51002 241.72 4.62002 250.54C0.210024 271.96 7.56002 291.28 24.99 303.67C27.09 305.14 29.82 305.98 32.34 305.98C34.44 305.98 36.75 305.35 38.64 304.3L134.61 238.36C138.39 236.05 140.7 232.06 140.7 227.65V189.85C141.12 185.86 138.6 181.87 134.61 179.56Z" fill="#F89038"/>
<path d="M141.12 228.07V219.88L10.9201 128.95C4.20006 139.87 1.89006 153.1 4.83006 166.96C6.72006 175.78 11.3401 182.71 15.3301 188.59C17.8501 192.37 20.3701 195.73 21.4201 199.09C22.4701 202.03 22.8901 205.18 22.8901 208.54C22.8901 208.75 22.8901 208.96 22.8901 209.17C22.8901 212.53 22.4701 215.68 21.4201 218.41C20.1601 221.77 17.8501 225.13 15.3301 228.91C14.4901 230.17 13.6501 231.22 12.8101 232.48L74.3401 280.15L134.61 238.36C135.87 237.73 136.92 236.68 137.76 235.63C138.81 233.32 139.86 231.01 140.7 228.49C140.91 228.7 141.12 228.28 141.12 228.07Z" fill="#F26623"/>
<path d="M413.07 250.96C411.18 242.14 406.56 235.21 402.57 229.33C400.05 225.55 397.53 222.19 396.48 218.83C395.43 215.89 395.01 212.74 395.01 209.59C395.01 209.38 395.01 209.17 395.01 208.96C395.01 205.6 395.43 202.45 396.48 199.51C397.74 196.15 400.05 192.79 402.57 189.01C405.09 185.44 407.82 181.45 409.92 177.04L352.17 132.31L285.18 178.3C283.29 181.66 281.82 185.23 280.35 188.8L411.39 280.36C414.54 271.54 415.17 261.46 413.07 250.96Z" fill="#F26623"/>
<path d="M406.14 152.68C404.88 158.77 402.15 164.02 399.42 168.64L409.92 176.62C407.82 181.03 405.09 185.02 402.57 188.59C400.05 192.37 397.53 195.73 396.48 199.09C395.43 202.03 395.01 205.18 395.01 208.54C395.01 208.54 395.01 208.54 395.01 208.75C395.01 205.39 395.43 202.24 396.48 199.51C397.74 196.15 400.05 192.79 402.57 189.01C406.56 183.13 411.18 176.2 413.07 167.38C416.22 152.26 413.49 138.4 405.51 127.06C407.82 134.83 408.03 143.44 406.14 152.68Z" fill="#F26623"/>
<path d="M396.27 199.3C397.53 195.94 399.84 192.58 402.36 188.8C404.88 185.23 407.61 181.24 409.71 176.83L399.21 168.85C397.95 170.74 396.69 172.63 395.43 174.52C392.91 178.09 390.39 181.66 389.34 185.02C388.29 187.96 387.87 191.11 387.87 194.47C387.87 194.68 387.87 194.89 387.87 194.89C387.87 198.25 388.29 201.4 389.34 204.34C390.39 207.49 392.7 210.85 395.01 214.42C394.8 212.95 394.8 211.48 394.8 209.8C394.8 209.8 394.8 209.8 394.8 209.59C394.8 209.38 394.8 209.17 394.8 209.17C394.8 209.17 394.8 209.17 394.8 208.96C394.8 205.39 395.22 202.24 396.27 199.3Z" fill="#EE480E"/>
<path d="M411.18 280.36L401.1 272.59C397.53 279.1 392.49 284.77 385.56 289.6C383.46 291.07 380.73 291.91 378.21 291.91C376.11 291.91 373.8 291.28 371.91 290.23L276.78 223.24V226.6C276.78 231.01 279.09 235.21 282.87 237.31L378.84 304.72C380.73 305.77 383.04 306.4 385.14 306.4C387.66 306.4 390.18 305.56 392.49 304.09C406.77 293.8 414.12 279.1 414.12 262.3C414.33 268.81 413.28 274.9 411.18 280.36Z" fill="#FF6A20"/>
<path d="M405.51 234.16C405.72 234.79 405.93 235.63 406.14 236.26C406.77 238.99 406.98 241.51 407.19 244.24V244.45C407.19 245.5 407.4 246.76 407.4 247.81C407.4 256.63 405.3 265.03 401.31 272.38L411.39 280.15C413.49 274.69 414.54 268.81 414.33 262.3C414.33 261.25 414.33 259.99 414.12 258.94V258.73C413.91 256.21 413.49 253.48 413.07 250.96C411.6 244.24 408.66 238.78 405.51 234.16Z" fill="#EE480E"/>
<path d="M137.97 236.05C137.13 237.1 136.08 238.15 134.82 238.78L74.55 280.78L66.78 274.48L34.44 293.38C32.55 294.43 30.24 295.06 28.14 295.06C25.62 295.06 23.1 294.22 20.79 292.75C14.28 288.13 9.23996 282.46 5.45996 275.95C8.39996 287.08 15.12 296.95 25.41 304.3C27.51 305.77 30.24 306.61 32.76 306.61C34.86 306.61 37.17 305.98 39.06 304.93L135.03 238.99C138.81 236.68 141.12 232.69 141.12 228.28V228.07C141.12 228.49 141.12 228.7 141.12 229.12C140.07 231.43 139.23 233.74 137.97 236.05Z" fill="#F26623"/>
<path d="M136.29 216.31C136.29 220.93 133.98 224.92 130.2 227.23L66.3601 274.48L74.1301 280.78L134.61 238.99C135.87 238.36 136.92 237.31 137.76 236.26C138.81 233.95 139.86 231.64 140.7 229.12C140.7 228.7 140.7 228.49 140.7 228.07V219.88L136.29 216.31Z" fill="#EE480E"/>
<path d="M314.16 206.65C314.16 257.47 268.17 298.84 211.26 298.84C154.56 298.84 108.36 257.47 108.36 206.65C108.36 155.83 154.35 114.46 211.26 114.46C268.17 114.46 314.16 155.83 314.16 206.65Z" fill="#F8A138"/>
<path d="M310.17 229.33L172.2 122.65C144.06 132.52 122.01 153.1 112.56 178.93L256.62 290.44C283.08 278.47 303.03 256.21 310.17 229.33Z" fill="#F26623"/>
<path d="M192.78 281.62C168.63 281.62 146.37 274.27 128.73 261.46C147.63 283.93 177.45 298.63 211.26 298.63C227.22 298.63 242.13 295.48 255.57 289.81L234.57 273.64C221.76 278.68 207.48 281.62 192.78 281.62Z" fill="#F88043"/>
<path d="M275.31 134.41C288.12 149.74 295.68 168.64 295.68 189.43C295.68 198.25 294.21 206.86 291.69 215.05L310.38 229.54C307.65 240.46 302.61 250.75 295.68 259.78C307.44 244.66 314.37 226.6 314.37 206.86C314.16 177.46 298.83 151.42 275.31 134.41Z" fill="#F88043"/>
<path d="M291.48 215.05C288.33 224.92 283.29 234.37 276.78 242.35C267.12 255.58 253.68 266.08 237.72 273.22L236.88 272.59C236.04 273.01 235.41 273.22 234.57 273.64L255.57 289.81C271.74 283.09 285.18 272.38 295.47 259.57C302.19 250.54 307.23 240.25 310.17 229.33L291.48 215.05Z" fill="#EE480E"/>
</svg>
