<?xml version="1.0" encoding="utf-8"?>
<!-- Generator: Adobe Illustrator 16.0.0, SVG Export Plug-In . SVG Version: 6.00 Build 0)  -->
<!DOCTYPE svg PUBLIC "-//W3C//DTD SVG 1.1//EN" "http://www.w3.org/Graphics/SVG/1.1/DTD/svg11.dtd">
<svg version="1.1" id="레이어_1" xmlns="http://www.w3.org/2000/svg" xmlns:xlink="http://www.w3.org/1999/xlink" x="0px"
	 y="0px" width="200px" height="96px" viewBox="0 0 200 96" style="enable-background:new 0 0 200 96;" xml:space="preserve">
<style type="text/css">
<![CDATA[
	.st0{fill:#EE480E;}
	.st1{fill:#F26623;}
	.st2{fill:#F88043;}
	.st3{fill:#F89038;}
	.st4{fill:#F8A138;}
	.st5{fill:#FF6A20;}
]]>
</style>
<path class="st3" d="M191.6,57.4c-1.2-1.8-2.4-3.4-2.9-5c-0.5-1.4-0.7-2.9-0.7-4.4c0-0.1,0-0.2,0-0.3c0-1.6,0.2-3.1,0.7-4.4
	c0.6-1.6,1.7-3.2,2.9-5c1.9-2.8,4.1-6.1,5-10.3c2.1-10.2-1.4-19.4-9.7-25.3c-1-0.7-2.3-1.1-3.5-1.1c-1,0-2.1,0.3-3,0.8l-45.7,31.5
	c-1.8,1.1-2.9,3-2.9,5.1v17.2c0,2.1,1.1,4.1,2.9,5.1l45.7,32.1c0.9,0.5,2,0.8,3,0.8c1.2,0,2.4-0.4,3.5-1.1c8.3-6,11.8-15.1,9.7-25.3
	C195.8,63.4,193.6,60.2,191.6,57.4z"/>
<path class="st3" d="M64.1,33.6L18.4,2.1c-0.9-0.5-2-0.8-3-0.8c-1.2,0-2.4,0.4-3.5,1.1c-8.3,6-11.8,15.1-9.7,25.3
	c0.9,4.2,3.1,7.5,5,10.3c1.2,1.8,2.4,3.4,2.9,5c0.5,1.4,0.7,2.9,0.7,4.4c0,0.1,0,0.2,0,0.3c0,1.6-0.2,3.1-0.7,4.4
	c-0.6,1.6-1.7,3.2-2.9,5c-1.9,2.8-4.1,6.1-5,10.3c-2.1,10.2,1.4,19.4,9.7,25.3c1,0.7,2.3,1.1,3.5,1.1c1,0,2.1-0.3,3-0.8l45.7-31.4
	c1.8-1.1,2.9-3,2.9-5.1v-18C67.2,36.6,66,34.7,64.1,33.6z"/>
<path class="st1" d="M67.2,56.7v-3.9L5.2,9.5C2,14.7,0.9,21,2.3,27.6c0.9,4.2,3.1,7.5,5,10.3c1.2,1.8,2.4,3.4,2.9,5
	c0.5,1.4,0.7,2.9,0.7,4.5c0,0.1,0,0.2,0,0.3c0,1.6-0.2,3.1-0.7,4.4c-0.6,1.6-1.7,3.2-2.9,5c-0.4,0.6-0.8,1.1-1.2,1.7l29.3,22.7
	l28.7-19.9c0.6-0.3,1.1-0.8,1.5-1.3c0.5-1.1,1-2.2,1.4-3.4C67.1,57,67.2,56.8,67.2,56.7z"/>
<path class="st1" d="M196.7,67.6c-0.9-4.2-3.1-7.5-5-10.3c-1.2-1.8-2.4-3.4-2.9-5c-0.5-1.4-0.7-2.9-0.7-4.4c0-0.1,0-0.2,0-0.3
	c0-1.6,0.2-3.1,0.7-4.5c0.6-1.6,1.7-3.2,2.9-5c1.2-1.7,2.5-3.6,3.5-5.7l-27.5-21.3L135.8,33c-0.9,1.6-1.6,3.3-2.3,5l62.4,43.6
	C197.4,77.4,197.7,72.6,196.7,67.6z"/>
<path class="st1" d="M193.4,20.8c-0.6,2.9-1.9,5.4-3.2,7.6l5,3.8c-1,2.1-2.3,4-3.5,5.7c-1.2,1.8-2.4,3.4-2.9,5
	c-0.5,1.4-0.7,2.9-0.7,4.5c0,0,0,0,0,0.1c0-1.6,0.2-3.1,0.7-4.4c0.6-1.6,1.7-3.2,2.9-5c1.9-2.8,4.1-6.1,5-10.3
	c1.5-7.2,0.2-13.8-3.6-19.2C194.2,12.3,194.3,16.4,193.4,20.8z"/>
<path class="st0" d="M188.7,43c0.6-1.6,1.7-3.2,2.9-5c1.2-1.7,2.5-3.6,3.5-5.7l-5-3.8c-0.6,0.9-1.2,1.8-1.8,2.7
	c-1.2,1.7-2.4,3.4-2.9,5c-0.5,1.4-0.7,2.9-0.7,4.5c0,0.1,0,0.2,0,0.2c0,1.6,0.2,3.1,0.7,4.5c0.5,1.5,1.6,3.1,2.7,4.8
	c-0.1-0.7-0.1-1.4-0.1-2.2c0,0,0,0,0-0.1c0-0.1,0-0.2,0-0.2s0,0,0-0.1C188,45.9,188.2,44.4,188.7,43z"/>
<path class="st5" d="M195.8,81.6l-4.8-3.7c-1.7,3.1-4.1,5.8-7.4,8.1c-1,0.7-2.3,1.1-3.5,1.1c-1,0-2.1-0.3-3-0.8l-45.3-31.9V56
	c0,2.1,1.1,4.1,2.9,5.1l45.7,32.1c0.9,0.5,2,0.8,3,0.8c1.2,0,2.4-0.4,3.5-1.1C193.7,88,197.2,81,197.2,73
	C197.3,76.1,196.8,79,195.8,81.6z"/>
<path class="st0" d="M193.1,59.6c0.1,0.3,0.2,0.7,0.3,1c0.3,1.3,0.4,2.5,0.5,3.8v0.1c0,0.5,0.1,1.1,0.1,1.6c0,4.2-1,8.2-2.9,11.7
	l4.8,3.7c1-2.6,1.5-5.4,1.4-8.5c0-0.5,0-1.1-0.1-1.6v-0.1c-0.1-1.2-0.3-2.5-0.5-3.7C196,64.4,194.6,61.8,193.1,59.6z"/>
<path class="st1" d="M65.7,60.5c-0.4,0.5-0.9,1-1.5,1.3l-28.7,20l-3.7-3l-15.4,9c-0.9,0.5-2,0.8-3,0.8c-1.2,0-2.4-0.4-3.5-1.1
	c-3.1-2.2-5.5-4.9-7.3-8c1.4,5.3,4.6,10,9.5,13.5c1,0.7,2.3,1.1,3.5,1.1c1,0,2.1-0.3,3-0.8l45.7-31.4c1.8-1.1,2.9-3,2.9-5.1v-0.1
	c0,0.2,0,0.3,0,0.5C66.7,58.3,66.3,59.4,65.7,60.5z"/>
<path class="st0" d="M64.9,51.1L64.9,51.1c0,2.2-1.1,4.1-2.9,5.2L31.6,78.8l3.7,3l28.8-19.9c0.6-0.3,1.1-0.8,1.5-1.3
	c0.5-1.1,1-2.2,1.4-3.4c0-0.2,0-0.3,0-0.5v-3.9L64.9,51.1L64.9,51.1z"/>
<path class="st4" d="M149.6,46.5c0,24.2-21.9,43.9-49,43.9c-27,0-49-19.7-49-43.9c0-24.2,21.9-43.9,49-43.9S149.6,22.3,149.6,46.5z"
	/>
<path class="st1" d="M147.7,57.3L82,6.5c-13.4,4.7-23.9,14.5-28.4,26.8l68.6,53.1C134.8,80.7,144.3,70.1,147.7,57.3z"/>
<path class="st2" d="M91.8,82.2c-11.5,0-22.1-3.5-30.5-9.6c9,10.7,23.2,17.7,39.3,17.7c7.6,0,14.7-1.5,21.1-4.2l-10-7.7
	C105.6,80.8,98.8,82.2,91.8,82.2z"/>
<path class="st2" d="M131.1,12.1c6.1,7.3,9.7,16.3,9.7,26.2c0,4.2-0.7,8.3-1.9,12.2l8.9,6.9c-1.3,5.2-3.7,10.1-7,14.4
	c5.6-7.2,8.9-15.8,8.9-25.2C149.6,32.6,142.3,20.2,131.1,12.1z"/>
<path class="st0" d="M138.8,50.5c-1.5,4.7-3.9,9.2-7,13c-4.6,6.3-11,11.3-18.6,14.7l-0.4-0.3c-0.4,0.2-0.7,0.3-1.1,0.5l10,7.7
	c7.7-3.2,14.1-8.3,19-14.4c3.2-4.3,5.6-9.2,7-14.4L138.8,50.5z"/>
</svg>
