<svg width="420" height="420" viewBox="0 0 420 420" fill="none" xmlns="http://www.w3.org/2000/svg">
<rect width="420" height="420" fill="white"/>
<path d="M126.27 206.64L198.09 401.94C198.09 401.94 216.57 436.8 238.83 396.06C255.84 366.03 284.19 244.23 294.69 197.19L126.27 206.64Z" fill="#C69C6D" stroke="black" stroke-width="2.0726" stroke-miterlimit="10"/>
<path d="M133.41 225.54C133.41 225.54 180.03 296.52 256.05 347.76" stroke="black" stroke-width="2.2384" stroke-miterlimit="10" stroke-linejoin="round"/>
<path d="M174.99 338.94C174.99 338.94 207.12 380.94 238.2 392.91" stroke="black" stroke-width="2.2384" stroke-miterlimit="10" stroke-linejoin="round"/>
<path d="M143.07 252C171.63 221.97 169.95 222.6 193.26 195.72" stroke="black" stroke-width="2.2384" stroke-miterlimit="10" stroke-linejoin="round"/>
<path d="M160.08 299.46C160.08 299.46 226.23 235.83 248.7 197.61" stroke="black" stroke-width="2.2384" stroke-miterlimit="10" stroke-linejoin="round"/>
<path d="M182.13 357.84C182.13 357.84 250.38 288.54 286.5 231.63" stroke="black" stroke-width="2.2384" stroke-miterlimit="10" stroke-linejoin="round"/>
<path d="M187.38 206.64C187.38 206.64 232.53 265.02 271.8 293.37" stroke="black" stroke-width="2.2384" stroke-miterlimit="10" stroke-linejoin="round"/>
<path d="M198.3 402.99C198.3 402.99 236.73 370.44 261.72 331.38" stroke="black" stroke-width="2.2384" stroke-miterlimit="10" stroke-linejoin="round"/>
<path d="M282.09 252C282.09 252 250.8 221.76 238.2 188.58Z" fill="#C69C6D"/>
<path d="M282.09 252C282.09 252 250.8 221.76 238.2 188.58" stroke="black" stroke-width="2.0726" stroke-miterlimit="10"/>
<path d="M299.94 111.51L135.3 110.88C125.64 110.88 112.83 122.64 107.16 129.36C90.3599 149.73 87.8399 186.69 109.26 203.7C109.26 203.7 114.3 225.33 144.12 211.05C144.12 211.05 160.29 248.64 193.68 223.86C193.68 223.86 201.03 219.66 207.12 223.23C233.58 241.5 239.67 221.76 244.71 220.08C247.65 219.03 262.56 229.95 269.07 215.88C269.49 215.25 269.91 214.62 270.33 214.41C273.27 216.51 276.84 217.56 280.62 217.56C289.86 217.56 297.63 210.63 299.31 201.39C305.19 200.97 321.15 207.48 326.61 171.99C329.76 148.68 318 123.9 299.94 111.51Z" fill="#FFF48D" stroke="black" stroke-width="2.0726" stroke-miterlimit="10" stroke-linecap="round" stroke-linejoin="round"/>
<path d="M129.21 76.6499C125.01 103.32 138.24 147 173.1 129.15C173.1 129.15 180.24 142.8 203.76 133.98C203.76 133.98 224.76 152.67 247.86 130.83C247.86 130.83 258.78 139.23 270.54 131.04C270.54 131.04 277.68 128.52 277.26 122.22C277.68 127.47 290.49 118.86 291.96 117.81C301.83 110.46 301.41 93.6599 301.2 82.5299C300.78 66.7799 296.37 51.4499 287.34 38.4299C280.83 28.9799 270.54 20.7899 260.67 15.1199C205.23 -16.3801 137.4 25.4099 129.21 76.6499Z" fill="#FFA9CC" stroke="black" stroke-width="2.0726" stroke-miterlimit="10"/>
<path d="M154.83 83.1599C154.83 83.1599 153.99 99.5399 171 87.9899" stroke="#ED83B3" stroke-width="2.0726" stroke-miterlimit="10" stroke-linecap="round" stroke-linejoin="round"/>
<path d="M235.26 91.7701C235.26 91.7701 241.35 99.1201 247.23 91.5601" stroke="#ED83B3" stroke-width="2.0726" stroke-miterlimit="10" stroke-linecap="round" stroke-linejoin="round"/>
</svg>
