<?xml version="1.0" encoding="utf-8"?>
<!-- Generator: Adobe Illustrator 16.0.0, SVG Export Plug-In . SVG Version: 6.00 Build 0)  -->
<!DOCTYPE svg PUBLIC "-//W3C//DTD SVG 1.1//EN" "http://www.w3.org/Graphics/SVG/1.1/DTD/svg11.dtd">
<svg version="1.1" id="레이어_1" xmlns="http://www.w3.org/2000/svg" xmlns:xlink="http://www.w3.org/1999/xlink" x="0px"
	 y="0px" width="117px" height="200px" viewBox="0 0 117 200" style="enable-background:new 0 0 117 200;" xml:space="preserve">
<style type="text/css">
<![CDATA[
	.st0{fill:none;stroke:#000000;stroke-width:2.2384;stroke-linejoin:round;stroke-miterlimit:10;}
	.st1{fill:#C69C6D;stroke:#000000;stroke-width:2.0726;stroke-miterlimit:10;}
	.st2{fill:#FFF48D;stroke:#000000;stroke-width:2.0726;stroke-linecap:round;stroke-linejoin:round;stroke-miterlimit:10;}
	.st3{fill:none;stroke:#ED83B3;stroke-width:2.0726;stroke-linecap:round;stroke-linejoin:round;stroke-miterlimit:10;}
	.st4{fill:#FFA9CC;stroke:#000000;stroke-width:2.0726;stroke-miterlimit:10;}
]]>
</style>
<path class="st1" d="M18.7,98.4l34.2,93c0,0,8.8,16.6,19.4-2.8c8.1-14.3,21.6-72.3,26.6-94.7L18.7,98.4z"/>
<path class="st0" d="M22.1,107.4c0,0,22.2,33.8,58.4,58.2"/>
<path class="st0" d="M41.9,161.4c0,0,15.3,20,30.1,25.7"/>
<path class="st0" d="M26.7,120c13.6-14.3,12.8-14,23.9-26.8"/>
<path class="st0" d="M34.8,142.6c0,0,31.5-30.3,42.2-48.5"/>
<path class="st0" d="M45.3,170.4c0,0,32.5-33,49.7-60.1"/>
<path class="st0" d="M47.8,98.4c0,0,21.5,27.8,40.2,41.3"/>
<path class="st0" d="M53,191.9c0,0,18.3-15.5,30.2-34.1"/>
<path class="st1" d="M92.9,120c0,0-14.9-14.4-20.9-30.2"/>
<path class="st2" d="M101.4,53.1c0,0-78.4-0.3-78.4-0.3c-4.6,0-10.7,5.6-13.4,8.8c-8,9.7-9.2,27.3,1,35.4c0,0,2.4,10.3,16.6,3.5
	c0,0,7.7,17.9,23.6,6.1c0,0,3.5-2,6.4-0.3c12.6,8.7,15.5-0.7,17.9-1.5c1.4-0.5,8.5,4.7,11.6-2c0.2-0.3,0.4-0.6,0.6-0.7
	c1.4,1,3.1,1.5,4.9,1.5c4.4,0,8.1-3.3,8.9-7.7c2.8-0.2,10.4,2.9,13-14C115.6,70.8,110,59,101.4,53.1z"/>
<path class="st4" d="M20.1,36.5C18.1,49.2,24.4,70,41,61.5c0,0,3.4,6.5,14.6,2.3c0,0,10,8.9,21-1.5c0,0,5.2,4,10.8,0.1
	c0,0,3.4-1.2,3.2-4.2c0.2,2.5,6.3-1.6,7-2.1c4.7-3.5,4.5-11.5,4.4-16.8c-0.2-7.5-2.3-14.8-6.6-21c-3.1-4.5-8-8.4-12.7-11.1
	C56.3-7.8,24,12.1,20.1,36.5z"/>
<path class="st3" d="M32.3,39.6c0,0-0.4,7.8,7.7,2.3"/>
<path class="st3" d="M70.6,43.7c0,0,2.9,3.5,5.7-0.1"/>
</svg>
