<?xml version="1.0" encoding="utf-8"?>
<!-- Generator: Adobe Illustrator 16.0.0, SVG Export Plug-In . SVG Version: 6.00 Build 0)  -->
<!DOCTYPE svg PUBLIC "-//W3C//DTD SVG 1.1//EN" "http://www.w3.org/Graphics/SVG/1.1/DTD/svg11.dtd">
<svg version="1.1" id="레이어_1" xmlns="http://www.w3.org/2000/svg" xmlns:xlink="http://www.w3.org/1999/xlink" x="0px"
	 y="0px" width="165px" height="200px" viewBox="0 0 165 200" style="enable-background:new 0 0 165 200;" xml:space="preserve">
<style type="text/css">
<![CDATA[
	.st0{fill:#7E9B48;}
	.st1{fill:#E0EFA0;}
	.st2{opacity:0.3;fill:#9CAF27;}
	.st3{fill:#B3D43D;}
	.st4{fill:#A0BF1B;}
]]>
</style>
<g>
	<path class="st4" d="M149.1,32.5C117.9,5.4,83.6,3.1,81.9,2.9c-4-0.5-7.5,2.4-8,6.3c-0.5,4,2.4,7.5,6.3,8c0.2,0,11.1,1.4,25.4,6.3
		c-5.2,9.1-7.4,17.3-7.5,17.7l14,3.7c0-0.1,2.2-7.9,7.1-15.9c8.8,4.1,12.1,7.1,20.5,14.4c1.5,1.3,3.3,1.8,5.2,1.7
		c1.9-0.1,3.7-1,5-2.5C152.4,39.7,152.1,35.1,149.1,32.5z"/>
	<g>
		<path class="st0" d="M99.6,36.6c-1,2.7-1.4,4.4-1.5,4.6l14,3.7c0-0.1,1.3-4.9,4.3-10.8c-2.4,2.4-5.6,4-9.2,4.3
			C104.4,38.5,101.8,37.9,99.6,36.6z"/>
	</g>
	<g>
		<path class="st0" d="M129.9,35.3c2.9,2.1,5.7,4.6,9.7,8.1c1.5,1.3,3.3,1.8,5.2,1.7c1.9-0.1,3.7-1,5-2.5c1.2-1.4,1.7-3,1.7-4.7
			C145.5,40.4,137.4,39.5,129.9,35.3z"/>
	</g>
	<path class="st3" d="M81.6,38.3C38.2,38.3,3,73.5,3,116.9c0,43.4,35.2,78.6,78.6,78.6c43.4,0,78.6-35.2,78.6-78.6
		C160.3,73.5,125,38.3,81.6,38.3z"/>
	<path class="st1" d="M91,118.9c15,9.4,42.3,19.5,69,3.8c1-2.4,1.7-6.4-0.1-10.9c-9.5,5.6-34.1,16.6-61.2,1.3
		c12.8-8.6,33.1-17.9,58.9-16c0,0-1-2.7-2-6.3c-0.8-2.9-41.8-2.7-66.8,15.4c-3.9-4.9-10.8-15.9-10.7-32c16,2.3,35.8-0.5,51.6-19.4
		c-3.7-3.8-6.8-4.8-6.8-4.8s-13.7,21.2-44.2,16.4c1.1-8.3,4-17.4,9.9-27.8c0,0-1.9-0.4-6-0.3c-1.6,0-8.5,11.5-11.8,26.3
		c-3.6-1-7.4-2.4-11.3-4.2c2-5.7,2.8-12.2,1.6-19.3c-5.3,0.4-8.5,2.7-8.5,2.7S55.6,68.3,28,83.6c-1.6-6.7-4-12.3-7.3-16.2
		c-2.9,2.7-3.8,4.8-3.8,4.8s3.2,5.1,5.3,14.3c-4.4,1.9-9.3,3.6-15,5c0,0-1.8,3.3-2,6.8c1.4,0,8-0.5,18.2-4.9
		c0.8,6.9,0.7,15.1-1.4,24.4c-6.3-0.1-12.6,0.7-19.1,2.6c0.5,5.1,1.1,9.2,1.1,9.2s6-2.9,15.7-3.8c-2.3,6.8-5.7,14-10.6,21.6
		c0,0,1.2,3.4,2.8,6.5c1,2.3,8.3-11.1,13.2-28.3c1.7,0,3.5,0.1,5.4,0.2c4.3,3.5,18.6,17.3,15.4,47.1c-7.5,2.9-12,6.2-11.3,7
		c2.4,2.6,5.9,3.5,5.9,3.5c1.4-0.7,2.7-1.3,4-1.9c-0.3,1.5-0.6,3-1,4.6c0,0,4.5,2.8,7.4,3.1c1.3-1.4,2.6-5.5,3.4-11.2
		c5.9-1.7,11.2-2.6,16-2.7c2.2,6.9,5.9,13.7,11.5,20.2c2.6,0.5,6.4,0.2,11-1.2c-3.1-3.6-7.7-9.8-11.1-18.1
		c16.7,3.5,24.2,15.2,24.2,15.2s5.5-1.4,8.5-3.1c-10.6-12.8-23.3-18.3-35.3-19.8c-1.2-4.4-2-9.3-2.1-14.5c11-2.9,35.4-5.5,61.4,16.9
		c0,0,3.4-2.6,4.9-5.7c-2.1-5.7-34.2-24.8-65.7-20.1C78.7,131.7,84,121.6,91,118.9z M56.2,67.3c3.3,1.7,7.8,3.6,13.2,5.1
		c-1.6,13.7,0.5,28.9,12.3,40.1c-1.2,1.2-3.2,4.1-3.3,4.2C62,117.7,48,92.5,42.9,82.1C48.1,77.9,52.8,73,56.2,67.3z M29.3,90.7
		c1.7-0.9,3.4-1.8,5.1-2.8c11.9,27.6,34.3,36.1,39.4,37.7c-1.1,2.6-2.2,5.6-3.1,8.9c-6.8-5.9-23.9-14.8-43.5-16.4
		C28.1,113.9,29.8,95.4,29.3,90.7z M55,170.2c0.2-12.1-2.2-27.8-10.9-41.6c7.7,2.4,16.1,6.6,24.8,13.5c-1.5,8-2,16.9-0.2,26.1
		C63.8,168.4,59.2,169.2,55,170.2z"/>
	<path class="st2" d="M129.5,54.6c63.5,122.8-60.3,132-95.7,124.7c34.5,26.4,83.8,19.9,110.2-14.5C170.4,130.4,163.9,81,129.5,54.6z
		"/>
</g>
</svg>
