<?xml version="1.0" encoding="utf-8"?>
<!-- Generator: Adobe Illustrator 16.0.0, SVG Export Plug-In . SVG Version: 6.00 Build 0)  -->
<!DOCTYPE svg PUBLIC "-//W3C//DTD SVG 1.1//EN" "http://www.w3.org/Graphics/SVG/1.1/DTD/svg11.dtd">
<svg version="1.1" id="Layer_1" xmlns="http://www.w3.org/2000/svg" xmlns:xlink="http://www.w3.org/1999/xlink" x="0px" y="0px"
	 width="200px" height="137px" viewBox="0 0 200 137" style="enable-background:new 0 0 200 137;" xml:space="preserve">
<style type="text/css">
<![CDATA[
	.st0{fill:#E45827;}
	.st1{fill:#F29A5A;stroke:#040000;stroke-width:1.9721;stroke-linecap:round;stroke-linejoin:round;stroke-miterlimit:10;}
	.st2{fill:none;stroke:#040000;stroke-width:1.9721;stroke-linecap:round;stroke-linejoin:round;stroke-miterlimit:10;}
	.st3{fill:#F4BCD4;stroke:#040000;stroke-width:1.9721;stroke-linecap:round;stroke-linejoin:round;stroke-miterlimit:10;}
	.st4{fill:#FFFFFF;stroke:#040000;stroke-width:1.9721;stroke-linecap:round;stroke-linejoin:round;stroke-miterlimit:10;}
	.st5{fill:#86BC43;stroke:#040000;stroke-width:1.9721;stroke-linecap:round;stroke-linejoin:round;stroke-miterlimit:10;}
	.st6{fill:#EDC35E;stroke:#040000;stroke-width:1.9721;stroke-linecap:round;stroke-linejoin:round;stroke-miterlimit:10;}
	.st7{fill:#F6DF7C;stroke:#040000;stroke-width:1.9721;stroke-linecap:round;stroke-linejoin:round;stroke-miterlimit:10;}
]]>
</style>
<path class="st7" d="M80.2,27.2c0-0.4-2.6-22.9,15.5-25.8c0,0,7-1.1,9.2,2.2c0,0,3.7,3.3,9.2,2.2c0,0,10.3-2.6,14,1.5
	c0,0,7.7,7.7,8.8,10.7c0,0,1.8,1.8,4.8,1.8c0,0,10.3-1.8,16.2,1.5c0,0,12.2,7,15.5,10c0,0,2.6,1.8,4.4,1.8c0,0,20.3,9.2,19.9,19.2
	c0,0-0.7,7.7-2.6,7.7c0,0,4.4,9.2,0,19.2c0,0-4.8,7-5.9,12.2c0,0-3,11.1-12.9,10.7c0,0-30.6,4.8-35.4,7.4c0,0-5.5,1.5-12.2,1.5
	c0,0-7.7,1.5-10.3,3.3c0,0-18.1,5.5-29.5,5.5c0,0-3.7,0-8.5,2.6c0,0-8.5,2.9-21.4,4.8c0,0-16.2,3.7-23.2,6.6c0,0-27.3,3.7-32.4-1.1
	l-2.2-12.5c0,0,20.3-24.7,22.5-29.1c0,0,3.7-4.8,11.4-12.2c0,0,10.7-10.3,12.2-16.2c0,0,1.5-2.2,6.6-5.5
	C54.1,57.1,78.8,32.4,80.2,27.2z"/>
<path class="st6" d="M197.5,56c0.4-1.7-4.7-5.4-9.2-7.6s-13.6,0.1-13.6,0.1c-14.5,1.3-16.8,13.1-15.3,18.1c1.5,5,1,7.8,1,7.8
	s-21.3,7.7-23.5,9.9c0,0-40.2,12.5-48.7,17.3c0,0-18.4,8.5-36.5,8.5c0,0-10.3,1.5-13.6,2.9c0,0-4.4,2.1-8.5,4.1
	c-2.8,1.4-5.6,2.9-6.6,3.6c0,0-15.5,2.2-19.2,0L2,120l-0.4,0l2.2,12.5c0,0,3.1,1.5,8.7,2.3c7.4,0.5,17.1-0.4,21.5-0.9
	c1.4-0.3,2.7-0.6,4.2-1c7.7-2.8,21.3-5.9,21.3-5.9c1.3-0.2,2.5-0.4,3.7-0.6c9.9-2.4,16.8-3.9,16.8-3.9s1.7-0.9,3.9-1.6
	c3.2-1.2,5.5-1.2,5.5-1.2c4.3-0.2,22.4-3.6,22.5-3.6c0,0,0,0,0,0c0,0,9.2-3.7,14-4.5c1.9-0.5,3.3-0.7,3.3-0.7c3.3,0,6.4-0.4,8.6-0.7
	c1.5-0.4,3.1-0.8,4.8-1.2c3.3-1.2,10.6-2.7,17.6-4c0,0,0,0,0,0s0,0,0,0c6.2-1.1,12.1-2.1,14.9-2.6c1-0.2,1.7-0.3,1.7-0.3
	c0.3,0,0.6,0,0.9,0l0,0c0,0,0,0,0,0c9.2-0.3,12-10.7,12-10.7c1.1-5.2,5.9-12.2,5.9-12.2c3.4-7.7,1.6-14.9,0.5-17.8
	C195.7,60,197.1,57.7,197.5,56z"/>
<path class="st1" d="M80.2,27.2c0,0,12.2,19.9,38,17.7c0,0,4.1-2.2,7-0.4c0,0,3.3,3.3,12.2,4.4c0,0,3.3,7,5.9,7
	c0,0,12.2,5.5,15.9,10.7l2.2,7.4c0,0-22.5,8.1-24.7,10.3c0,0-40.2,12.5-48.7,17.3c0,0-18.4,8.5-36.5,8.5c0,0-10.3,1.5-13.6,2.9
	c0,0-12.5,5.9-15.1,7.7c0,0-15.5,2.2-19.2,0l-2.2-0.7l22.9-29.5c0,0,20.3-19.2,22.9-28l6.6-5.5l25.8-29.5"/>
<path class="st2" d="M157.7,65.5c0,0,0-15.9,17.3-17.3c0,0,15.9-4.8,22.1,8.8"/>
<path class="st2" d="M196.8,63.9c0,0-1.6-8.3-17.4-8.7c0,0-17,1.5-14.7,19.5h-4.8"/>
<path class="st5" d="M103.8,68.9c-1.1,0,4.4-4.4,5.2-7c0,0,5.9-3.7,9.2,0C118.2,61.9,125.6,70,103.8,68.9z"/>
<path class="st2" d="M143.6,92.8c0,0,1.5-5.2,5.5-3.3C149.2,89.9,151,94.7,143.6,92.8z"/>
<path class="st2" d="M180.5,74.4c0,0,1.1-4.8,4.1-3.7"/>
<path class="st2" d="M109,103.5c1.1,0,3.3-0.4,5.2-1.8"/>
<path class="st2" d="M85.4,109.8c0,0,3.3-1.8,6.3,0"/>
<line class="st2" x1="38.9" y1="128.2" x2="33.4" y2="133.7"/>
<path class="st0" d="M81,41.2c4.3,0,7.7,2.8,7.7,6.3c0,3.5-3.5,6.3-7.7,6.3c-4.3,0-7.7-2.8-7.7-6.3C73.2,44,76.7,41.2,81,41.2z"/>
<path class="st0" d="M34.9,103.5c2.2,0,4.1,1.5,4.1,3.3c0,1.8-1.8,3.3-4.1,3.3c-2.2,0-4.1-1.5-4.1-3.3
	C30.8,105,32.6,103.5,34.9,103.5z"/>
<path class="st0" d="M86.9,79.2c5.3,0,9.6,3.8,9.6,8.5c0,4.7-4.3,8.5-9.6,8.5c-5.3,0-9.6-3.8-9.6-8.5C77.3,83,81.6,79.2,86.9,79.2z"
	/>
<ellipse class="st0" cx="128.9" cy="73.3" rx="9.6" ry="8.5"/>
<path class="st0" d="M64.4,65.9c5.3,0,9.6,3.8,9.6,8.5c0,4.7-4.3,8.5-9.6,8.5c-5.3,0-9.6-3.8-9.6-8.5S59.1,65.9,64.4,65.9z"/>
<path class="st5" d="M81,47.5c0,0,5.9,4.1,8.1,1.8C89.5,48.9,90.9,42.7,81,47.5z"/>
<path class="st5" d="M96.5,81.4c-1.1,0-9.6,3-6.3,6.6l10.3,6.6l20.3-6.6C120.8,87.7,106.4,79.5,96.5,81.4z"/>
<path class="st4" d="M49.6,60.4c0,0,24.7-4.4,26.9,14c0,0,1.5,18.1-28,24.7c0,0-17.7,2.9-22.5-8.5l2.9-4.4c0,0,5.2,13.3,24,5.9
	c0,0,21.4-12.2,12.5-26.5c0,0-4.4-4.1-15.1-3.3L49.6,60.4z"/>
<path class="st5" d="M26.4,106.8c0,0-12.5,1.1-4.8,7l4.8,3.7l11.4-5.5C37.8,112,39.7,107.2,26.4,106.8z"/>
<path class="st3" d="M142.9,56.3c0,0-20.6,10.7-10.3,28.4l27.3-10l-0.7-6.3C159.1,68.5,147,55.2,142.9,56.3z"/>
</svg>
