<svg width="420" height="420" viewBox="0 0 420 420" fill="none" xmlns="http://www.w3.org/2000/svg">
<rect width="420" height="420" fill="white"/>
<path d="M208.28 3.1499C211.22 3.1499 213.95 8.3999 215.63 11.3399C231.8 38.6399 252.59 102.06 214.58 146.79C212.9 148.89 210.59 149.94 208.07 149.94C205.76 149.94 203.45 148.89 201.56 146.79C163.76 102.06 184.34 38.6399 200.51 11.3399C202.61 8.3999 205.34 3.1499 208.28 3.1499Z" fill="#3AC018"/>
<path d="M215.84 11.3399C214.16 8.3999 211.43 3.1499 208.49 3.1499C205.55 3.1499 202.82 8.3999 201.14 11.3399C184.97 38.6399 164.39 102.06 202.19 146.79C203.87 148.89 206.18 149.94 208.7 149.94C211.01 149.94 213.32 148.89 215.21 146.79C252.59 102.06 232.01 38.6399 215.84 11.3399ZM212.48 114.24C211.43 115.5 209.75 116.34 208.28 116.34C206.81 116.34 205.13 115.5 204.08 114.24C179.3 84.8399 192.74 43.2599 203.45 25.4099C204.5 23.5199 206.39 20.1599 208.28 20.1599C210.38 20.1599 212.06 23.5199 213.11 25.4099C223.82 43.2599 237.47 84.8399 212.48 114.24Z" fill="#2CAE00"/>
<path d="M278 17.64C275.27 16.38 270.65 19.95 267.92 21.84C241.46 39.69 196.1 88.62 211.43 145.11C212.06 147.63 213.74 149.73 215.84 150.57C217.94 151.62 220.46 151.62 222.98 150.57C276.32 126 284.51 59.85 281.15 28.14C280.94 24.78 280.73 18.9 278 17.64Z" fill="#269300"/>
<path d="M281.15 28.1401C280.94 24.7801 280.52 18.9001 277.79 17.6401C275.69 16.5901 272.33 18.6901 269.6 20.3701C269.81 22.0501 270.02 23.9401 270.23 25.2001C273.38 56.7001 265.4 122.85 212.27 147.42C213.11 148.68 214.16 149.94 215.63 150.57C217.73 151.62 220.25 151.62 222.77 150.57C276.32 126 284.51 59.8501 281.15 28.1401Z" fill="#258900"/>
<path d="M327.77 56.9101C325.67 54.6001 320 55.8601 316.64 56.4901C285.35 61.5301 223.4 86.5201 213.53 144.27C213.11 146.79 213.74 149.31 215.21 151.2C216.68 153.09 219.2 154.14 221.72 154.14C280.52 154.35 315.8 97.8601 326.3 67.8301C327.35 64.6801 329.66 59.2201 327.77 56.9101Z" fill="#3AC018"/>
<path d="M327.77 56.9099C326.3 55.0199 322.31 55.6499 318.95 56.0699C318.74 56.6999 318.53 57.1199 318.32 57.5399C307.82 87.5699 272.54 144.06 213.95 143.85C213.74 143.85 213.74 143.85 213.53 143.85C213.53 144.06 213.53 144.27 213.53 144.27C213.11 146.79 213.74 149.31 215.21 151.2C216.68 153.09 219.2 154.14 221.72 154.14C280.52 154.35 315.8 97.8599 326.3 67.8299C327.35 64.6799 329.66 59.2199 327.77 56.9099Z" fill="#2CAE00"/>
<path d="M141.92 17.64C144.65 16.38 149.27 19.95 152.21 21.84C178.46 39.69 224.03 88.62 208.49 145.11C207.86 147.63 206.18 149.73 204.08 150.57C201.98 151.62 199.25 151.62 196.94 150.57C143.39 126 135.41 59.85 138.56 28.14C138.77 24.78 139.19 18.9 141.92 17.64Z" fill="#269300"/>
<path d="M138.56 28.1401C138.98 24.7801 139.19 18.9001 141.92 17.6401C144.02 16.5901 147.38 18.6901 150.11 20.3701C149.9 22.0501 149.69 23.9401 149.48 25.2001C146.33 56.7001 154.31 122.85 207.44 147.42C206.6 148.68 205.34 149.94 204.08 150.57C201.98 151.62 199.25 151.62 196.94 150.57C143.39 126 135.41 59.8501 138.56 28.1401Z" fill="#258900"/>
<path d="M91.9399 56.9101C93.8299 54.6001 99.7099 55.8601 103.07 56.4901C134.36 61.5301 196.31 86.5201 206.18 144.27C206.6 147 205.97 149.31 204.5 151.2C202.82 153.09 200.51 154.14 197.99 154.14C139.19 154.35 103.91 97.8601 93.4099 67.8301C92.3599 64.6801 90.0499 59.2201 91.9399 56.9101Z" fill="#3AC018"/>
<path d="M91.9399 56.9099C93.4099 55.0199 97.3999 55.6499 100.76 56.0699C100.97 56.6999 101.18 57.1199 101.39 57.5399C111.89 87.5699 147.17 144.06 205.76 143.85C205.97 143.85 205.97 143.85 206.18 143.85C206.18 144.06 206.18 144.27 206.18 144.27C206.6 147 205.97 149.31 204.5 151.2C202.82 153.09 200.51 154.14 197.99 154.14C139.19 154.35 103.91 97.8599 93.4099 67.8299C92.3599 64.6799 90.0499 59.2199 91.9399 56.9099Z" fill="#2CAE00"/>
<path d="M303.41 344.4C303.41 386.61 261.62 417.9 209.96 417.9C158.3 417.9 116.3 386.82 116.3 344.4V213.57C116.3 171.36 158.3 146.58 209.75 146.58C261.41 146.58 303.2 171.36 303.2 213.57V344.4H303.41Z" fill="#F8C020"/>
<mask id="mask0_72_11" style="mask-type:luminance" maskUnits="userSpaceOnUse" x="116" y="146" width="188" height="272">
<path d="M303.41 344.4C303.41 386.61 261.62 417.9 209.96 417.9C158.3 417.9 116.3 386.82 116.3 344.4V213.57C116.3 171.36 158.3 146.58 209.75 146.58C261.41 146.58 303.2 171.36 303.2 213.57V344.4H303.41Z" fill="white"/>
</mask>
<g mask="url(#mask0_72_11)">
<path d="M125.33 243.6C127.85 243.6 130.37 244.65 132.05 246.12L136.04 249.9L153.26 233.1C156.41 229.95 156.41 225.33 153.26 222.18L132.05 201.6C130.37 199.92 127.85 199.08 125.33 199.08C122.81 199.08 120.29 200.13 118.61 201.6L97.4001 222.18C94.2501 225.33 94.2501 229.95 97.4001 233.1L114.83 249.9L118.82 246.12C120.29 244.44 122.81 243.6 125.33 243.6Z" fill="#F69D00"/>
<path d="M125.33 256.2C127.85 256.2 130.37 255.36 132.05 253.68L136.04 249.9L132.05 246.12C130.37 244.44 127.85 243.6 125.33 243.6C122.81 243.6 120.29 244.65 118.61 246.12L114.62 249.9L118.61 253.68C120.29 255.36 122.81 256.2 125.33 256.2Z" fill="#F67F00"/>
<path d="M186.02 243.6C188.54 243.6 191.06 244.65 192.74 246.12L196.73 249.9L213.95 233.1C217.1 229.95 217.1 225.33 213.95 222.18L192.74 201.6C191.06 199.92 188.54 199.08 186.02 199.08C183.5 199.08 180.98 200.13 179.3 201.6L158.09 222.18C154.94 225.33 154.94 229.95 158.09 233.1L175.31 249.9L179.3 246.12C181.19 244.44 183.5 243.6 186.02 243.6Z" fill="#F69D00"/>
<path d="M186.02 256.2C188.54 256.2 191.06 255.36 192.74 253.68L196.73 249.9L192.74 246.12C191.06 244.44 188.54 243.6 186.02 243.6C183.5 243.6 180.98 244.65 179.3 246.12L175.31 249.9L179.3 253.68C181.19 255.36 183.5 256.2 186.02 256.2Z" fill="#F67F00"/>
<path d="M246.71 243.6C249.23 243.6 251.75 244.65 253.43 246.12L257.42 249.9L274.64 233.1C277.79 229.95 277.79 225.33 274.64 222.18L253.43 201.6C251.75 199.92 249.23 199.08 246.71 199.08C244.19 199.08 241.67 200.13 239.99 201.6L218.78 222.18C215.63 225.33 215.63 229.95 218.78 233.1L236 249.9L239.99 246.12C241.88 244.44 244.19 243.6 246.71 243.6Z" fill="#F69D00"/>
<path d="M246.71 256.2C249.23 256.2 251.75 255.36 253.43 253.68L257.42 249.9L253.43 246.12C251.75 244.44 249.23 243.6 246.71 243.6C244.19 243.6 241.67 244.65 239.99 246.12L236 249.9L239.99 253.68C241.88 255.36 244.19 256.2 246.71 256.2Z" fill="#F67F00"/>
<path d="M307.4 243.6C309.92 243.6 312.44 244.65 314.12 246.12L318.11 249.9L335.33 233.1C338.48 229.95 338.48 225.33 335.33 222.18L314.12 201.6C312.44 199.92 309.92 199.08 307.4 199.08C304.88 199.08 302.36 200.13 300.68 201.6L279.47 222.18C276.32 225.33 276.32 229.95 279.47 233.1L296.9 249.9L300.68 246.12C302.36 244.44 304.88 243.6 307.4 243.6Z" fill="#F69D00"/>
<path d="M307.4 256.2C309.92 256.2 312.44 255.36 314.12 253.68L318.11 249.9L314.12 246.12C312.44 244.44 309.92 243.6 307.4 243.6C304.88 243.6 302.36 244.65 300.68 246.12L296.9 249.9L300.68 253.68C302.36 255.36 304.88 256.2 307.4 256.2Z" fill="#F67F00"/>
<path d="M155.78 188.79C158.3 188.79 160.82 189.63 162.5 191.31L166.49 195.09L183.71 178.29C186.86 175.14 186.86 170.52 183.71 167.37L162.5 147C160.82 145.32 158.3 144.48 155.78 144.48C153.26 144.48 150.74 145.32 149.06 147L127.85 167.58C124.7 170.73 124.7 175.35 127.85 178.5L145.07 195.3L149.06 191.52C150.74 189.63 153.26 188.79 155.78 188.79Z" fill="#F69D00"/>
<path d="M155.78 201.39C158.3 201.39 160.82 200.55 162.5 198.87L166.49 195.09L162.5 191.31C160.82 189.63 158.3 188.79 155.78 188.79C153.26 188.79 150.74 189.63 149.06 191.31L145.07 195.09L149.06 198.87C150.74 200.55 153.26 201.39 155.78 201.39Z" fill="#F67F00"/>
<path d="M216.47 188.79C218.99 188.79 221.51 189.63 223.19 191.31L227.18 195.09L244.4 178.29C247.76 175.14 247.76 170.52 244.4 167.37L222.98 147C221.3 145.32 218.78 144.48 216.26 144.48C213.74 144.48 211.22 145.32 209.54 147L188.33 167.58C185.18 170.73 185.18 175.35 188.33 178.5L205.55 195.3L209.54 191.52C211.43 189.63 213.74 188.79 216.47 188.79Z" fill="#F69D00"/>
<path d="M216.47 201.39C218.99 201.39 221.51 200.55 223.19 198.87L227.18 195.09L223.19 191.31C221.51 189.63 218.99 188.79 216.47 188.79C213.95 188.79 211.43 189.63 209.75 191.31L205.76 195.09L209.75 198.87C211.43 200.55 213.74 201.39 216.47 201.39Z" fill="#F67F00"/>
<path d="M277.16 188.79C279.68 188.79 281.99 189.63 283.88 191.31L287.87 195.09L305.3 178.29C308.45 175.14 308.45 170.52 305.3 167.37L283.67 147C281.99 145.32 279.47 144.48 276.95 144.48C274.43 144.48 271.91 145.32 270.23 147L249.02 167.58C245.87 170.73 245.87 175.35 249.02 178.5L266.24 195.3L270.23 191.52C272.12 189.63 274.43 188.79 277.16 188.79Z" fill="#F69D00"/>
<path d="M277.16 201.39C279.68 201.39 281.99 200.55 283.88 198.87L287.87 195.09L283.88 191.31C282.2 189.63 279.68 188.79 277.16 188.79C274.64 188.79 272.12 189.63 270.44 191.31L266.45 195.09L270.44 198.87C272.12 200.55 274.43 201.39 277.16 201.39Z" fill="#F67F00"/>
<path d="M125.33 353.01C127.85 353.01 130.37 353.85 132.05 355.53L136.04 359.31L153.26 342.51C156.41 339.36 156.41 334.74 153.26 331.59L132.05 311.01C130.37 309.33 127.85 308.49 125.33 308.49C122.81 308.49 120.29 309.33 118.61 311.01L97.4001 331.8C94.2501 334.95 94.2501 339.57 97.4001 342.72L114.83 359.52L118.82 355.74C120.29 354.06 122.81 353.01 125.33 353.01Z" fill="#F69D00"/>
<path d="M125.33 365.82C127.85 365.82 130.37 364.98 132.05 363.3L136.04 359.52L132.05 355.74C130.37 354.06 127.85 353.22 125.33 353.22C122.81 353.22 120.29 354.06 118.61 355.74L114.62 359.52L118.61 363.3C120.29 364.98 122.81 365.82 125.33 365.82Z" fill="#F67F00"/>
<path d="M186.02 353.01C188.54 353.01 191.06 353.85 192.74 355.53L196.73 359.31L213.95 342.51C217.1 339.36 217.1 334.74 213.95 331.59L192.74 311.01C191.06 309.33 188.54 308.49 186.02 308.49C183.5 308.49 180.98 309.33 179.3 311.01L158.09 331.8C154.94 334.95 154.94 339.57 158.09 342.72L175.31 359.52L179.3 355.74C181.19 354.06 183.5 353.01 186.02 353.01Z" fill="#F69D00"/>
<path d="M186.02 365.82C188.54 365.82 191.06 364.98 192.74 363.3L196.73 359.52L192.74 355.74C191.06 354.06 188.54 353.22 186.02 353.22C183.5 353.22 180.98 354.06 179.3 355.74L175.31 359.52L179.3 363.3C181.19 364.98 183.5 365.82 186.02 365.82Z" fill="#F67F00"/>
<path d="M246.71 353.01C249.23 353.01 251.75 353.85 253.43 355.53L257.42 359.31L274.64 342.51C277.79 339.36 277.79 334.74 274.64 331.59L253.43 311.01C251.75 309.33 249.23 308.49 246.71 308.49C244.19 308.49 241.67 309.33 239.99 311.01L218.78 331.8C215.63 334.95 215.63 339.57 218.78 342.72L236 359.52L239.99 355.74C241.88 354.06 244.19 353.01 246.71 353.01Z" fill="#F69D00"/>
<path d="M246.71 365.82C249.23 365.82 251.75 364.98 253.43 363.3L257.42 359.52L253.43 355.74C251.75 354.06 249.23 353.22 246.71 353.22C244.19 353.22 241.67 354.06 239.99 355.74L236 359.52L239.99 363.3C241.88 364.98 244.19 365.82 246.71 365.82Z" fill="#F67F00"/>
<path d="M307.4 353.01C309.92 353.01 312.44 353.85 314.12 355.53L318.11 359.31L335.33 342.51C338.48 339.36 338.48 334.74 335.33 331.59L314.12 311.01C312.44 309.33 309.92 308.49 307.4 308.49C304.88 308.49 302.36 309.33 300.68 311.01L279.47 331.8C276.32 334.95 276.32 339.57 279.47 342.72L296.9 359.52L300.68 355.74C302.36 354.06 304.88 353.01 307.4 353.01Z" fill="#F69D00"/>
<path d="M307.4 365.82C309.92 365.82 312.44 364.98 314.12 363.3L318.11 359.52L314.12 355.74C312.44 354.06 309.92 353.22 307.4 353.22C304.88 353.22 302.36 354.06 300.68 355.74L296.9 359.52L300.68 363.3C302.36 364.98 304.88 365.82 307.4 365.82Z" fill="#F67F00"/>
<path d="M95.0901 298.2C97.6101 298.2 100.13 299.25 101.81 300.72L105.8 304.5L123.23 287.7C126.38 284.55 126.38 279.93 123.23 276.78L102.02 256.2C100.34 254.52 97.8201 253.68 95.3001 253.68C92.7801 253.68 90.2601 254.52 88.5801 256.2L67.3701 276.78C64.2201 279.93 64.2201 284.55 67.3701 287.7L84.8001 304.5L88.7901 300.72C90.0501 299.25 92.5701 298.2 95.0901 298.2Z" fill="#F69D00"/>
<path d="M155.78 298.2C158.3 298.2 160.82 299.25 162.5 300.72L166.49 304.5L183.71 287.7C186.86 284.55 186.86 279.93 183.71 276.78L162.5 256.41C160.82 254.73 158.3 253.89 155.78 253.89C153.26 253.89 150.74 254.73 149.06 256.41L127.85 276.99C124.7 280.14 124.7 284.76 127.85 287.91L145.07 304.71L149.06 300.93C150.74 299.25 153.26 298.2 155.78 298.2Z" fill="#F69D00"/>
<path d="M155.78 311.01C158.3 311.01 160.82 310.17 162.5 308.49L166.49 304.71L162.5 300.93C160.82 299.25 158.3 298.41 155.78 298.41C153.26 298.41 150.74 299.46 149.06 300.93L145.07 304.71L149.06 308.49C150.74 310.17 153.26 311.01 155.78 311.01Z" fill="#F67F00"/>
<path d="M216.47 298.2C218.99 298.2 221.51 299.25 223.19 300.72L227.18 304.5L244.4 287.7C247.76 284.55 247.76 279.93 244.4 276.78L223.19 256.2C221.51 254.52 218.99 253.68 216.47 253.68C213.95 253.68 211.43 254.52 209.75 256.2L188.54 276.78C185.39 279.93 185.39 284.55 188.54 287.7L205.76 304.5L209.75 300.72C211.43 299.25 213.74 298.2 216.47 298.2Z" fill="#F69D00"/>
<path d="M216.47 311.01C218.99 311.01 221.51 310.17 223.19 308.49L227.18 304.71L223.19 300.93C221.51 299.25 218.99 298.41 216.47 298.41C213.95 298.41 211.43 299.46 209.75 300.93L205.76 304.71L209.75 308.49C211.43 310.17 213.74 311.01 216.47 311.01Z" fill="#F67F00"/>
<path d="M277.16 298.2C279.68 298.2 281.99 299.25 283.88 300.72L287.87 304.5L305.3 287.7C308.45 284.55 308.45 279.93 305.3 276.78L284.09 256.2C282.41 254.52 279.89 253.68 277.37 253.68C274.85 253.68 272.33 254.52 270.65 256.2L249.44 276.78C246.29 279.93 246.29 284.55 249.44 287.7L266.66 304.5L270.65 300.72C272.12 299.25 274.43 298.2 277.16 298.2Z" fill="#F69D00"/>
<path d="M277.16 311.01C279.68 311.01 281.99 310.17 283.88 308.49L287.87 304.71L283.88 300.93C282.2 299.25 279.68 298.41 277.16 298.41C274.64 298.41 272.12 299.46 270.44 300.93L266.45 304.71L270.44 308.49C272.12 310.17 274.43 311.01 277.16 311.01Z" fill="#F67F00"/>
<path d="M155.78 407.82C158.3 407.82 160.82 408.87 162.5 410.34L166.49 414.12L183.71 397.32C186.86 394.17 186.86 389.55 183.71 386.4L162.5 366.03C160.82 364.35 158.3 363.51 155.78 363.51C153.26 363.51 150.74 364.56 149.06 366.03L127.85 386.61C124.7 389.76 124.7 394.38 127.85 397.53L145.07 414.33L149.06 410.55C150.74 408.87 153.26 407.82 155.78 407.82Z" fill="#F69D00"/>
<path d="M216.47 407.82C218.99 407.82 221.51 408.87 223.19 410.34L227.18 414.12L244.4 397.32C247.76 394.17 247.76 389.55 244.4 386.4L223.19 365.82C221.51 364.14 218.99 363.3 216.47 363.3C213.95 363.3 211.43 364.35 209.75 365.82L188.54 386.4C185.39 389.55 185.39 394.17 188.54 397.32L205.76 414.12L209.75 410.34C211.43 408.87 213.74 407.82 216.47 407.82Z" fill="#F69D00"/>
<path d="M216.47 420.63C218.99 420.63 221.51 419.79 223.19 418.11L227.18 414.33L223.19 410.55C221.51 408.87 218.99 408.03 216.47 408.03C213.95 408.03 211.43 409.08 209.75 410.55L205.76 414.33L209.75 418.11C211.43 419.58 213.74 420.63 216.47 420.63Z" fill="#F67F00"/>
<path d="M277.16 407.82C279.68 407.82 281.99 408.87 283.88 410.34L287.87 414.12L305.3 397.32C308.45 394.17 308.45 389.55 305.3 386.4L284.09 365.82C282.41 364.14 279.89 363.3 277.37 363.3C274.85 363.3 272.33 364.35 270.65 365.82L249.44 386.4C246.29 389.55 246.29 394.17 249.44 397.32L266.66 414.12L270.65 410.34C272.12 408.87 274.43 407.82 277.16 407.82Z" fill="#F69D00"/>
</g>
<g opacity="0.3">
<path d="M282.2 169.05C282.83 172.62 283.25 176.19 283.25 180.18V310.8C283.25 353.01 241.46 384.09 189.8 384.09C161.03 384.09 135.2 374.43 117.98 358.47C126.17 393.33 164.18 417.69 209.96 417.69C261.62 417.69 303.41 386.61 303.41 344.19V213.36C303.41 195.3 295.43 180.18 282.2 169.05Z" fill="#E97500"/>
</g>
</svg>
