<?xml version="1.0" encoding="utf-8"?>
<!-- Generator: Adobe Illustrator 16.0.0, SVG Export Plug-In . SVG Version: 6.00 Build 0)  -->
<!DOCTYPE svg PUBLIC "-//W3C//DTD SVG 1.1//EN" "http://www.w3.org/Graphics/SVG/1.1/DTD/svg11.dtd">
<svg version="1.1" id="레이어_1" xmlns="http://www.w3.org/2000/svg" xmlns:xlink="http://www.w3.org/1999/xlink" x="0px"
	 y="0px" width="115px" height="200px" viewBox="0 0 115 200" style="enable-background:new 0 0 115 200;" xml:space="preserve">
<style type="text/css">
<![CDATA[
	.st0{fill:#E97500;}
	.st1{fill:#258900;}
	.st2{fill:#269300;}
	.st3{fill:#F67F00;}
	.st4{fill:#F69D00;}
	.st5{fill:#F8C020;}
	.st6{clip-path:url(#SVGID_2_);}
	.st7{fill:#2CAE00;}
	.st8{opacity:0.3;}
	.st9{fill:none;}
	.st10{fill:#3AC018;}
]]>
</style>
<path class="st10" d="M56.8,1.5c1.4,0,2.7,2.5,3.5,3.9c7.7,13,17.6,43.2-0.5,64.5c-0.8,1-1.9,1.5-3.1,1.5c-1.1,0-2.2-0.5-3.1-1.5
	c-18-21.3-8.2-51.5-0.5-64.5C54.1,4,55.4,1.5,56.8,1.5z"/>
<g>
	<path class="st7" d="M60.4,5.4c-0.8-1.4-2.1-3.9-3.5-3.9c-1.4,0-2.7,2.5-3.5,3.9c-7.7,13-17.5,43.2,0.5,64.5c0.8,1,1.9,1.5,3.1,1.5
		c1.1,0,2.2-0.5,3.1-1.5C77.9,48.6,68.1,18.4,60.4,5.4z M58.8,54.4c-0.5,0.6-1.3,1-2,1c-0.7,0-1.5-0.4-2-1
		c-11.8-14-5.4-33.8-0.3-42.3c0.5-0.9,1.4-2.5,2.3-2.5c1,0,1.8,1.6,2.3,2.5C64.2,20.6,70.7,40.4,58.8,54.4z"/>
</g>
<path class="st2" d="M90,8.4c-1.3-0.6-3.5,1.1-4.8,2C72.6,18.9,51,42.2,58.3,69.1c0.3,1.2,1.1,2.2,2.1,2.6c1,0.5,2.2,0.5,3.4,0
	C89.2,60,93.1,28.5,91.5,13.4C91.4,11.8,91.3,9,90,8.4z"/>
<g>
	<path class="st1" d="M91.5,13.4c-0.1-1.6-0.3-4.4-1.6-5c-1-0.5-2.6,0.5-3.9,1.3c0.1,0.8,0.2,1.7,0.3,2.3c1.5,15-2.3,46.5-27.6,58.2
		c0.4,0.6,0.9,1.2,1.6,1.5c1,0.5,2.2,0.5,3.4,0C89.2,60,93.1,28.5,91.5,13.4z"/>
</g>
<path class="st10" d="M113.7,27.1c-1-1.1-3.7-0.5-5.3-0.2c-14.9,2.4-44.4,14.3-49.1,41.8c-0.2,1.2,0.1,2.4,0.8,3.3
	c0.7,0.9,1.9,1.4,3.1,1.4C91.2,73.5,108,46.6,113,32.3C113.5,30.8,114.6,28.2,113.7,27.1z"/>
<g>
	<path class="st7" d="M113.7,27.1c-0.7-0.9-2.6-0.6-4.2-0.4c-0.1,0.3-0.2,0.5-0.3,0.7c-5,14.3-21.8,41.2-49.7,41.1
		c-0.1,0-0.1,0-0.2,0c0,0.1,0,0.2,0,0.2c-0.2,1.2,0.1,2.4,0.8,3.3c0.7,0.9,1.9,1.4,3.1,1.4C91.2,73.5,108,46.6,113,32.3
		C113.5,30.8,114.6,28.2,113.7,27.1z"/>
</g>
<path class="st2" d="M25.2,8.4c1.3-0.6,3.5,1.1,4.9,2c12.5,8.5,34.2,31.8,26.8,58.7c-0.3,1.2-1.1,2.2-2.1,2.6c-1,0.5-2.3,0.5-3.4,0
	C25.9,60,22.1,28.5,23.6,13.4C23.7,11.8,23.9,9,25.2,8.4z"/>
<g>
	<path class="st1" d="M23.6,13.4c0.2-1.6,0.3-4.4,1.6-5c1-0.5,2.6,0.5,3.9,1.3c-0.1,0.8-0.2,1.7-0.3,2.3c-1.5,15,2.3,46.5,27.6,58.2
		c-0.4,0.6-1,1.2-1.6,1.5c-1,0.5-2.3,0.5-3.4,0C25.9,60,22.1,28.5,23.6,13.4z"/>
</g>
<path class="st10" d="M1.4,27.1c0.9-1.1,3.7-0.5,5.3-0.2c14.9,2.4,44.4,14.3,49.1,41.8C56,70,55.7,71.1,55,72
	c-0.8,0.9-1.9,1.4-3.1,1.4C23.9,73.5,7.1,46.6,2.1,32.3C1.6,30.8,0.5,28.2,1.4,27.1z"/>
<g>
	<path class="st7" d="M1.4,27.1c0.7-0.9,2.6-0.6,4.2-0.4c0.1,0.3,0.2,0.5,0.3,0.7c5,14.3,21.8,41.2,49.7,41.1c0.1,0,0.1,0,0.2,0
		c0,0.1,0,0.2,0,0.2C56,70,55.7,71.1,55,72c-0.8,0.9-1.9,1.4-3.1,1.4C23.9,73.5,7.1,46.6,2.1,32.3C1.6,30.8,0.5,28.2,1.4,27.1z"/>
</g>
<g>
	<path class="st5" d="M102.1,164c0,20.1-19.9,35-44.5,35l0,0C33,199,13,184.2,13,164v-62.3c0-20.1,20-31.9,44.5-31.9l0,0
		c24.6,0,44.5,11.8,44.5,31.9V164z"/>
	<g>
		<defs>
			<path id="SVGID_1_" d="M102.1,164c0,20.1-19.9,35-44.5,35l0,0C33,199,13,184.2,13,164v-62.3c0-20.1,20-31.9,44.5-31.9l0,0
				c24.6,0,44.5,11.8,44.5,31.9V164z"/>
		</defs>
		<clipPath id="SVGID_2_">
			<use xlink:href="#SVGID_1_"  style="overflow:visible;"/>
		</clipPath>
		<g class="st6">
			<g>
				<path class="st9" d="M17.3,122c-1.2,0-2.4-0.4-3.2-1.2L4,111c-1.5-1.5-1.5-3.7,0-5.2L14.1,96c0.8-0.8,2-1.2,3.2-1.2
					c1.2,0,2.4,0.5,3.2,1.2l10.1,9.8c1.5,1.5,1.5,3.7,0,5.2l-10.1,9.8C19.7,121.6,18.5,122,17.3,122L17.3,122z"/>
				<g>
					<path class="st4" d="M17.3,116c1.2,0,2.4,0.5,3.2,1.2l1.9,1.8l8.2-8c1.5-1.5,1.5-3.7,0-5.2L20.5,96c-0.8-0.8-2-1.2-3.2-1.2
						c-1.2,0-2.4,0.5-3.2,1.2L4,105.8c-1.5,1.5-1.5,3.7,0,5.2l8.3,8l1.9-1.8C14.9,116.4,16.1,116,17.3,116z"/>
					<path class="st3" d="M17.3,122c1.2,0,2.4-0.4,3.2-1.2l1.9-1.8l-1.9-1.8c-0.8-0.8-2-1.2-3.2-1.2c-1.2,0-2.4,0.5-3.2,1.2
						l-1.9,1.8l1.9,1.8C14.9,121.6,16.1,122,17.3,122z"/>
				</g>
				<path class="st9" d="M46.2,122c-1.2,0-2.4-0.4-3.2-1.2L32.9,111c-1.5-1.5-1.5-3.7,0-5.2L43,96c0.8-0.8,2-1.2,3.2-1.2
					c1.2,0,2.4,0.5,3.2,1.2l10.1,9.8c1.5,1.5,1.5,3.7,0,5.2l-10.1,9.8C48.6,121.6,47.4,122,46.2,122L46.2,122z"/>
				<g>
					<path class="st4" d="M46.2,116c1.2,0,2.4,0.5,3.2,1.2l1.9,1.8l8.2-8c1.5-1.5,1.5-3.7,0-5.2L49.4,96c-0.8-0.8-2-1.2-3.2-1.2
						c-1.2,0-2.4,0.5-3.2,1.2l-10.1,9.8c-1.5,1.5-1.5,3.7,0,5.2l8.2,8l1.9-1.8C43.9,116.4,45,116,46.2,116z"/>
					<path class="st3" d="M46.2,122c1.2,0,2.4-0.4,3.2-1.2l1.9-1.8l-1.9-1.8c-0.8-0.8-2-1.2-3.2-1.2c-1.2,0-2.4,0.5-3.2,1.2
						l-1.9,1.8l1.9,1.8C43.9,121.6,45,122,46.2,122z"/>
				</g>
				<path class="st9" d="M75.1,122c-1.2,0-2.4-0.4-3.2-1.2L61.8,111c-1.5-1.5-1.5-3.7,0-5.2L71.9,96c0.8-0.8,2-1.2,3.2-1.2
					c1.2,0,2.4,0.5,3.2,1.2l10.1,9.8c1.5,1.5,1.5,3.7,0,5.2l-10.1,9.8C77.5,121.6,76.3,122,75.1,122L75.1,122z"/>
				<g>
					<path class="st4" d="M75.1,116c1.2,0,2.4,0.5,3.2,1.2l1.9,1.8l8.2-8c1.5-1.5,1.5-3.7,0-5.2L78.3,96c-0.8-0.8-2-1.2-3.2-1.2
						c-1.2,0-2.4,0.5-3.2,1.2l-10.1,9.8c-1.5,1.5-1.5,3.7,0,5.2l8.2,8l1.9-1.8C72.8,116.4,73.9,116,75.1,116z"/>
					<path class="st3" d="M75.1,122c1.2,0,2.4-0.4,3.2-1.2l1.9-1.8l-1.9-1.8c-0.8-0.8-2-1.2-3.2-1.2c-1.2,0-2.4,0.5-3.2,1.2
						l-1.9,1.8l1.9,1.8C72.8,121.6,73.9,122,75.1,122z"/>
				</g>
				<path class="st9" d="M104,122c-1.2,0-2.4-0.4-3.2-1.2L90.7,111c-1.5-1.5-1.5-3.7,0-5.2l10.1-9.8c0.8-0.8,2-1.2,3.2-1.2
					c1.2,0,2.4,0.5,3.2,1.2l10.1,9.8c1.5,1.5,1.5,3.7,0,5.2l-10.1,9.8C106.4,121.6,105.2,122,104,122L104,122z"/>
				<g>
					<path class="st4" d="M104,116c1.2,0,2.4,0.5,3.2,1.2l1.9,1.8l8.2-8c1.5-1.5,1.5-3.7,0-5.2L107.2,96c-0.8-0.8-2-1.2-3.2-1.2
						c-1.2,0-2.4,0.5-3.2,1.2l-10.1,9.8c-1.5,1.5-1.5,3.7,0,5.2l8.3,8l1.8-1.8C101.6,116.4,102.8,116,104,116z"/>
					<path class="st3" d="M104,122c1.2,0,2.4-0.4,3.2-1.2l1.9-1.8l-1.9-1.8c-0.8-0.8-2-1.2-3.2-1.2c-1.2,0-2.4,0.5-3.2,1.2L99,119
						l1.8,1.8C101.6,121.6,102.8,122,104,122z"/>
				</g>
			</g>
			<g>
				<path class="st9" d="M2.9,95.9c-1.2,0-2.4-0.4-3.2-1.2l-10.1-9.8c-1.5-1.5-1.5-3.7,0-5.2L-0.3,70c0.8-0.8,2-1.2,3.2-1.2
					c1.2,0,2.4,0.4,3.2,1.2l10.1,9.8c1.5,1.5,1.5,3.7,0,5.2L6.1,94.7C5.2,95.5,4.1,95.9,2.9,95.9L2.9,95.9z"/>
				<g>
					<path class="st9" d="M2.9,89.9c1.2,0,2.4,0.4,3.2,1.2l1.9,1.8l8.3-8c1.5-1.5,1.5-3.7,0-5.2L6.1,70c-0.8-0.8-2-1.2-3.2-1.2
						c-1.2,0-2.4,0.4-3.2,1.2l-10.1,9.8c-1.5,1.5-1.5,3.7,0,5.2l8.3,8l1.9-1.8C0.5,90.3,1.7,89.9,2.9,89.9z"/>
					<path class="st9" d="M2.9,95.9c1.2,0,2.4-0.4,3.2-1.2l1.9-1.8l-1.9-1.8c-0.8-0.8-2-1.2-3.2-1.2c-1.2,0-2.4,0.4-3.2,1.2
						l-1.9,1.8l1.9,1.8C0.5,95.5,1.7,95.9,2.9,95.9z"/>
				</g>
				<path class="st9" d="M31.8,95.9c-1.2,0-2.4-0.4-3.2-1.2l-10.1-9.8c-1.5-1.5-1.5-3.7,0-5.2L28.6,70c0.8-0.8,2-1.2,3.2-1.2
					c1.2,0,2.4,0.4,3.2,1.2l10.1,9.8c1.5,1.5,1.5,3.7,0,5.2L35,94.7C34.1,95.5,33,95.9,31.8,95.9L31.8,95.9z"/>
				<g>
					<path class="st4" d="M31.8,89.9c1.2,0,2.4,0.4,3.2,1.2l1.9,1.8l8.2-8c1.5-1.5,1.5-3.7,0-5.2L35,70c-0.8-0.8-2-1.2-3.2-1.2
						c-1.2,0-2.4,0.4-3.2,1.2l-10.1,9.8c-1.5,1.5-1.5,3.7,0,5.2l8.2,8l1.9-1.8C29.4,90.3,30.6,89.9,31.8,89.9z"/>
					<path class="st3" d="M31.8,95.9c1.2,0,2.4-0.4,3.2-1.2l1.9-1.8L35,91.1c-0.8-0.8-2-1.2-3.2-1.2c-1.2,0-2.4,0.4-3.2,1.2
						l-1.9,1.8l1.9,1.8C29.4,95.5,30.6,95.9,31.8,95.9z"/>
				</g>
				<path class="st9" d="M60.7,95.9c-1.2,0-2.4-0.4-3.2-1.2l-10.1-9.8c-1.5-1.5-1.5-3.7,0-5.2L57.5,70c0.8-0.8,2-1.2,3.2-1.2
					c1.2,0,2.4,0.4,3.2,1.2L74,79.7c1.6,1.5,1.6,3.7,0,5.2l-10.1,9.8C63,95.5,61.9,95.9,60.7,95.9L60.7,95.9z"/>
				<g>
					<path class="st4" d="M60.7,89.9c1.2,0,2.4,0.4,3.2,1.2l1.9,1.8l8.2-8c1.6-1.5,1.6-3.7,0-5.2L63.8,70c-0.8-0.8-2-1.2-3.2-1.2
						c-1.2,0-2.4,0.4-3.2,1.2l-10.1,9.8c-1.5,1.5-1.5,3.7,0,5.2l8.2,8l1.9-1.8C58.3,90.3,59.4,89.9,60.7,89.9z"/>
					<path class="st3" d="M60.7,95.9c1.2,0,2.4-0.4,3.2-1.2l1.9-1.8l-1.9-1.8c-0.8-0.8-2-1.2-3.2-1.2c-1.2,0-2.4,0.4-3.2,1.2
						l-1.9,1.8l1.9,1.8C58.3,95.5,59.4,95.9,60.7,95.9z"/>
				</g>
				<path class="st9" d="M89.6,95.9c-1.2,0-2.4-0.4-3.2-1.2l-10.1-9.8c-1.5-1.5-1.5-3.7,0-5.2L86.4,70c0.8-0.8,1.9-1.2,3.2-1.2
					c1.2,0,2.3,0.4,3.2,1.2l10.1,9.8c1.5,1.5,1.5,3.7,0,5.2l-10.1,9.8C91.9,95.5,90.8,95.9,89.6,95.9L89.6,95.9z"/>
				<g>
					<path class="st4" d="M89.6,89.9c1.2,0,2.3,0.4,3.2,1.2l1.9,1.8l8.3-8c1.5-1.5,1.5-3.7,0-5.2L92.7,70c-0.8-0.8-2-1.2-3.2-1.2
						c-1.2,0-2.4,0.4-3.2,1.2l-10.1,9.8c-1.5,1.5-1.5,3.7,0,5.2l8.2,8l1.9-1.8C87.2,90.3,88.3,89.9,89.6,89.9z"/>
					<path class="st3" d="M89.6,95.9c1.2,0,2.3-0.4,3.2-1.2l1.9-1.8l-1.9-1.8c-0.8-0.8-2-1.2-3.2-1.2c-1.2,0-2.4,0.4-3.2,1.2
						l-1.9,1.8l1.9,1.8C87.2,95.5,88.3,95.9,89.6,95.9z"/>
				</g>
			</g>
			<g>
				<path class="st9" d="M17.3,174.2c-1.2,0-2.4-0.4-3.2-1.2L4,163.2c-1.5-1.5-1.5-3.7,0-5.2l10.1-9.8c0.8-0.8,2-1.2,3.2-1.2
					c1.2,0,2.4,0.4,3.2,1.2l10.1,9.8c1.5,1.5,1.5,3.7,0,5.2L20.5,173C19.7,173.8,18.5,174.2,17.3,174.2L17.3,174.2z"/>
				<g>
					<path class="st4" d="M17.3,168.1c1.2,0,2.4,0.4,3.2,1.2l1.9,1.8l8.2-8c1.5-1.5,1.5-3.7,0-5.2l-10.1-9.8c-0.8-0.8-2-1.2-3.2-1.2
						c-1.2,0-2.4,0.4-3.2,1.2L4,158c-1.5,1.5-1.5,3.7,0,5.2l8.3,8l1.9-1.8C14.9,168.6,16.1,168.1,17.3,168.1z"/>
					<path class="st3" d="M17.3,174.2c1.2,0,2.4-0.4,3.2-1.2l1.9-1.8l-1.9-1.8c-0.8-0.8-2-1.2-3.2-1.2c-1.2,0-2.4,0.4-3.2,1.2
						l-1.9,1.8l1.9,1.8C14.9,173.8,16.1,174.2,17.3,174.2z"/>
				</g>
				<path class="st9" d="M46.2,174.2c-1.2,0-2.4-0.4-3.2-1.2l-10.1-9.8c-1.5-1.5-1.5-3.7,0-5.2l10.1-9.8c0.8-0.8,2-1.2,3.2-1.2
					c1.2,0,2.4,0.4,3.2,1.2l10.1,9.8c1.5,1.5,1.5,3.7,0,5.2L49.4,173C48.6,173.8,47.4,174.2,46.2,174.2L46.2,174.2z"/>
				<g>
					<path class="st4" d="M46.2,168.1c1.2,0,2.4,0.4,3.2,1.2l1.9,1.8l8.2-8c1.5-1.5,1.5-3.7,0-5.2l-10.1-9.8c-0.8-0.8-2-1.2-3.2-1.2
						c-1.2,0-2.4,0.4-3.2,1.2L32.9,158c-1.5,1.5-1.5,3.7,0,5.2l8.2,8l1.9-1.8C43.9,168.6,45,168.1,46.2,168.1z"/>
					<path class="st3" d="M46.2,174.2c1.2,0,2.4-0.4,3.2-1.2l1.9-1.8l-1.9-1.8c-0.8-0.8-2-1.2-3.2-1.2c-1.2,0-2.4,0.4-3.2,1.2
						l-1.9,1.8L43,173C43.9,173.8,45,174.2,46.2,174.2z"/>
				</g>
				<path class="st9" d="M75.1,174.2c-1.2,0-2.4-0.4-3.2-1.2l-10.1-9.8c-1.5-1.5-1.5-3.7,0-5.2l10.1-9.8c0.8-0.8,2-1.2,3.2-1.2
					c1.2,0,2.4,0.4,3.2,1.2l10.1,9.8c1.5,1.5,1.5,3.7,0,5.2L78.3,173C77.5,173.8,76.3,174.2,75.1,174.2L75.1,174.2z"/>
				<g>
					<path class="st4" d="M75.1,168.1c1.2,0,2.4,0.4,3.2,1.2l1.9,1.8l8.2-8c1.5-1.5,1.5-3.7,0-5.2l-10.1-9.8c-0.8-0.8-2-1.2-3.2-1.2
						c-1.2,0-2.4,0.4-3.2,1.2L61.8,158c-1.5,1.5-1.5,3.7,0,5.2l8.2,8l1.9-1.8C72.8,168.6,73.9,168.1,75.1,168.1z"/>
					<path class="st3" d="M75.1,174.2c1.2,0,2.4-0.4,3.2-1.2l1.9-1.8l-1.9-1.8c-0.8-0.8-2-1.2-3.2-1.2c-1.2,0-2.4,0.4-3.2,1.2
						l-1.9,1.8l1.9,1.8C72.8,173.8,73.9,174.2,75.1,174.2z"/>
				</g>
				<path class="st9" d="M104,174.2c-1.2,0-2.4-0.4-3.2-1.2l-10.1-9.8c-1.5-1.5-1.5-3.7,0-5.2l10.1-9.8c0.8-0.8,2-1.2,3.2-1.2
					c1.2,0,2.4,0.4,3.2,1.2l10.1,9.8c1.5,1.5,1.5,3.7,0,5.2l-10.1,9.8C106.4,173.8,105.2,174.2,104,174.2L104,174.2z"/>
				<g>
					<path class="st4" d="M104,168.1c1.2,0,2.4,0.4,3.2,1.2l1.9,1.8l8.2-8c1.5-1.5,1.5-3.7,0-5.2l-10.1-9.8c-0.8-0.8-2-1.2-3.2-1.2
						c-1.2,0-2.4,0.4-3.2,1.2L90.7,158c-1.5,1.5-1.5,3.7,0,5.2l8.3,8l1.8-1.8C101.6,168.6,102.8,168.1,104,168.1z"/>
					<path class="st3" d="M104,174.2c1.2,0,2.4-0.4,3.2-1.2l1.9-1.8l-1.9-1.8c-0.8-0.8-2-1.2-3.2-1.2c-1.2,0-2.4,0.4-3.2,1.2
						l-1.8,1.8l1.8,1.8C101.6,173.8,102.8,174.2,104,174.2z"/>
				</g>
			</g>
			<g>
				<path class="st9" d="M2.9,148.1c-1.2,0-2.4-0.4-3.2-1.2l-10.1-9.8c-1.5-1.5-1.5-3.7,0-5.2l10.1-9.8c0.8-0.8,2-1.2,3.2-1.2
					c1.2,0,2.4,0.4,3.2,1.2l10.1,9.8c1.5,1.5,1.5,3.7,0,5.2l-10.1,9.8C5.2,147.7,4.1,148.1,2.9,148.1L2.9,148.1z"/>
				<g>
					<path class="st4" d="M2.9,142c1.2,0,2.4,0.5,3.2,1.2l1.9,1.8l8.3-8c1.5-1.5,1.5-3.7,0-5.2l-10.1-9.8c-0.8-0.8-2-1.2-3.2-1.2
						c-1.2,0-2.4,0.4-3.2,1.2l-10.1,9.8c-1.5,1.5-1.5,3.7,0,5.2l8.3,8l1.9-1.8C0.5,142.5,1.7,142,2.9,142z"/>
					<path class="st9" d="M2.9,148.1c1.2,0,2.4-0.4,3.2-1.2l1.9-1.8l-1.9-1.8c-0.8-0.8-2-1.2-3.2-1.2c-1.2,0-2.4,0.5-3.2,1.2
						l-1.9,1.8l1.9,1.8C0.5,147.7,1.7,148.1,2.9,148.1z"/>
				</g>
				<path class="st9" d="M31.8,148.1c-1.2,0-2.4-0.4-3.2-1.2l-10.1-9.8c-1.5-1.5-1.5-3.7,0-5.2l10.1-9.8c0.8-0.8,2-1.2,3.2-1.2
					c1.2,0,2.4,0.4,3.2,1.2l10.1,9.8c1.5,1.5,1.5,3.7,0,5.2L35,146.9C34.1,147.7,33,148.1,31.8,148.1L31.8,148.1z"/>
				<g>
					<path class="st4" d="M31.8,142c1.2,0,2.4,0.5,3.2,1.2l1.9,1.8l8.2-8c1.5-1.5,1.5-3.7,0-5.2L35,122.1c-0.8-0.8-2-1.2-3.2-1.2
						c-1.2,0-2.4,0.4-3.2,1.2l-10.1,9.8c-1.5,1.5-1.5,3.7,0,5.2l8.2,8l1.9-1.8C29.4,142.5,30.6,142,31.8,142z"/>
					<path class="st3" d="M31.8,148.1c1.2,0,2.4-0.4,3.2-1.2l1.9-1.8l-1.9-1.8c-0.8-0.8-2-1.2-3.2-1.2c-1.2,0-2.4,0.5-3.2,1.2
						l-1.9,1.8l1.9,1.8C29.4,147.7,30.6,148.1,31.8,148.1z"/>
				</g>
				<path class="st9" d="M60.7,148.1c-1.2,0-2.4-0.4-3.2-1.2l-10.1-9.8c-1.5-1.5-1.5-3.7,0-5.2l10.1-9.8c0.8-0.8,2-1.2,3.2-1.2
					c1.2,0,2.4,0.4,3.2,1.2l10.1,9.8c1.6,1.5,1.6,3.7,0,5.2l-10.1,9.8C63,147.7,61.9,148.1,60.7,148.1L60.7,148.1z"/>
				<g>
					<path class="st4" d="M60.7,142c1.2,0,2.4,0.5,3.2,1.2l1.9,1.8l8.2-8c1.6-1.5,1.6-3.7,0-5.2l-10.1-9.8c-0.8-0.8-2-1.2-3.2-1.2
						c-1.2,0-2.4,0.4-3.2,1.2l-10.1,9.8c-1.5,1.5-1.5,3.7,0,5.2l8.2,8l1.9-1.8C58.3,142.5,59.4,142,60.7,142z"/>
					<path class="st3" d="M60.7,148.1c1.2,0,2.4-0.4,3.2-1.2l1.9-1.8l-1.9-1.8c-0.8-0.8-2-1.2-3.2-1.2c-1.2,0-2.4,0.5-3.2,1.2
						l-1.9,1.8l1.9,1.8C58.3,147.7,59.4,148.1,60.7,148.1z"/>
				</g>
				<path class="st9" d="M89.6,148.1c-1.2,0-2.4-0.4-3.2-1.2l-10.1-9.8c-1.5-1.5-1.5-3.7,0-5.2l10.1-9.8c0.8-0.8,1.9-1.2,3.2-1.2
					c1.2,0,2.3,0.4,3.2,1.2l10.1,9.8c1.5,1.5,1.5,3.7,0,5.2l-10.1,9.8C91.9,147.7,90.8,148.1,89.6,148.1L89.6,148.1z"/>
				<g>
					<path class="st4" d="M89.6,142c1.2,0,2.3,0.5,3.2,1.2l1.9,1.8l8.3-8c1.5-1.5,1.5-3.7,0-5.2l-10.1-9.8c-0.8-0.8-2-1.2-3.2-1.2
						c-1.2,0-2.4,0.4-3.2,1.2l-10.1,9.8c-1.5,1.5-1.5,3.7,0,5.2l8.2,8l1.9-1.8C87.2,142.5,88.3,142,89.6,142z"/>
					<path class="st3" d="M89.6,148.1c1.2,0,2.3-0.4,3.2-1.2l1.9-1.8l-1.9-1.8c-0.8-0.8-2-1.2-3.2-1.2c-1.2,0-2.4,0.5-3.2,1.2
						l-1.9,1.8l1.9,1.8C87.2,147.7,88.3,148.1,89.6,148.1z"/>
				</g>
			</g>
			<g>
				<path class="st9" d="M2.9,200.3c-1.2,0-2.4-0.4-3.2-1.2l-10.1-9.8c-1.5-1.5-1.5-3.7,0-5.2l10.1-9.8c0.8-0.8,2-1.2,3.2-1.2
					c1.2,0,2.4,0.5,3.2,1.2l10.1,9.8c1.5,1.5,1.5,3.7,0,5.2L6.1,199C5.2,199.8,4.1,200.3,2.9,200.3L2.9,200.3z"/>
				<g>
					<path class="st9" d="M2.9,194.2c1.2,0,2.4,0.5,3.2,1.2l1.9,1.8l8.3-8c1.5-1.5,1.5-3.7,0-5.2l-10.1-9.8c-0.8-0.8-2-1.2-3.2-1.2
						c-1.2,0-2.4,0.5-3.2,1.2l-10.1,9.8c-1.5,1.5-1.5,3.7,0,5.2l8.3,8l1.9-1.8C0.5,194.7,1.7,194.2,2.9,194.2z"/>
					<path class="st9" d="M2.9,200.3c1.2,0,2.4-0.4,3.2-1.2l1.9-1.8l-1.9-1.8c-0.8-0.8-2-1.2-3.2-1.2c-1.2,0-2.4,0.5-3.2,1.2
						l-1.9,1.8l1.9,1.8C0.5,199.8,1.7,200.3,2.9,200.3z"/>
				</g>
				<path class="st9" d="M31.8,200.3c-1.2,0-2.4-0.4-3.2-1.2l-10.1-9.8c-1.5-1.5-1.5-3.7,0-5.2l10.1-9.8c0.8-0.8,2-1.2,3.2-1.2
					c1.2,0,2.4,0.5,3.2,1.2l10.1,9.8c1.5,1.5,1.5,3.7,0,5.2L35,199C34.1,199.8,33,200.3,31.8,200.3L31.8,200.3z"/>
				<g>
					<path class="st4" d="M31.8,194.2c1.2,0,2.4,0.5,3.2,1.2l1.9,1.8l8.2-8c1.5-1.5,1.5-3.7,0-5.2L35,174.3c-0.8-0.8-2-1.2-3.2-1.2
						c-1.2,0-2.4,0.5-3.2,1.2l-10.1,9.8c-1.5,1.5-1.5,3.7,0,5.2l8.2,8l1.9-1.8C29.4,194.7,30.6,194.2,31.8,194.2z"/>
					<path class="st9" d="M31.8,200.3c1.2,0,2.4-0.4,3.2-1.2l1.9-1.8l-1.9-1.8c-0.8-0.8-2-1.2-3.2-1.2c-1.2,0-2.4,0.5-3.2,1.2
						l-1.9,1.8l1.9,1.8C29.4,199.8,30.6,200.3,31.8,200.3z"/>
				</g>
				<path class="st9" d="M60.7,200.3c-1.2,0-2.4-0.4-3.2-1.2l-10.1-9.8c-1.5-1.5-1.5-3.7,0-5.2l10.1-9.8c0.8-0.8,2-1.2,3.2-1.2
					c1.2,0,2.4,0.5,3.2,1.2l10.1,9.8c1.6,1.5,1.6,3.7,0,5.2L63.8,199C63,199.8,61.9,200.3,60.7,200.3L60.7,200.3z"/>
				<g>
					<path class="st4" d="M60.7,194.2c1.2,0,2.4,0.5,3.2,1.2l1.9,1.8l8.2-8c1.6-1.5,1.6-3.7,0-5.2l-10.1-9.8c-0.8-0.8-2-1.2-3.2-1.2
						c-1.2,0-2.4,0.5-3.2,1.2l-10.1,9.8c-1.5,1.5-1.5,3.7,0,5.2l8.2,8l1.9-1.8C58.3,194.7,59.4,194.2,60.7,194.2z"/>
					<path class="st3" d="M60.7,200.3c1.2,0,2.4-0.4,3.2-1.2l1.9-1.8l-1.9-1.8c-0.8-0.8-2-1.2-3.2-1.2c-1.2,0-2.4,0.5-3.2,1.2
						l-1.9,1.8l1.9,1.8C58.3,199.8,59.4,200.3,60.7,200.3z"/>
				</g>
				<path class="st9" d="M89.6,200.3c-1.2,0-2.4-0.4-3.2-1.2l-10.1-9.8c-1.5-1.5-1.5-3.7,0-5.2l10.1-9.8c0.8-0.8,1.9-1.2,3.2-1.2
					c1.2,0,2.3,0.5,3.2,1.2l10.1,9.8c1.5,1.5,1.5,3.7,0,5.2L92.7,199C91.9,199.8,90.8,200.3,89.6,200.3L89.6,200.3z"/>
				<g>
					<path class="st4" d="M89.6,194.2c1.2,0,2.3,0.5,3.2,1.2l1.9,1.8l8.3-8c1.5-1.5,1.5-3.7,0-5.2l-10.1-9.8c-0.8-0.8-2-1.2-3.2-1.2
						c-1.2,0-2.4,0.5-3.2,1.2l-10.1,9.8c-1.5,1.5-1.5,3.7,0,5.2l8.2,8l1.9-1.8C87.2,194.7,88.3,194.2,89.6,194.2z"/>
					<path class="st9" d="M89.6,200.3c1.2,0,2.3-0.4,3.2-1.2l1.9-1.8l-1.9-1.8c-0.8-0.8-2-1.2-3.2-1.2c-1.2,0-2.4,0.5-3.2,1.2
						l-1.9,1.8l1.9,1.8C87.2,199.8,88.3,200.3,89.6,200.3z"/>
				</g>
			</g>
		</g>
	</g>
	<g class="st8">
		<path class="st0" d="M92,80.5c0.3,1.7,0.5,3.4,0.5,5.3V148c0,20.1-19.9,34.9-44.5,34.9c-13.7,0-26-4.6-34.2-12.2
			c3.9,16.6,22,28.2,43.8,28.2c24.6,0,44.5-14.8,44.5-35v-62.3C102.1,93,98.3,85.8,92,80.5z"/>
	</g>
</g>
</svg>
