<svg width="420" height="420" viewBox="0 0 420 420" fill="none" xmlns="http://www.w3.org/2000/svg">
<rect width="420" height="420" fill="white"/>
<path d="M168.42 123.12C168.42 122.28 162.96 75.0299 200.97 68.9399C200.97 68.9399 215.67 66.6299 220.29 73.5599C220.29 73.5599 228.06 80.4899 239.61 78.1799C239.61 78.1799 261.24 72.7199 269.01 81.3299C269.01 81.3299 285.18 97.4999 287.49 103.8C287.49 103.8 291.27 107.58 297.57 107.58C297.57 107.58 319.2 103.8 331.59 110.73C331.59 110.73 357.21 125.43 364.14 131.73C364.14 131.73 369.6 135.51 373.38 135.51C373.38 135.51 416.01 154.83 415.17 175.83C415.17 175.83 413.7 192 409.71 192C409.71 192 418.95 211.32 409.71 232.32C409.71 232.32 399.63 247.02 397.32 257.94C397.32 257.94 391.02 281.25 370.23 280.41C370.23 280.41 305.97 290.49 295.89 295.95C295.89 295.95 284.34 299.1 270.27 299.1C270.27 299.1 254.1 302.25 248.64 306.03C248.64 306.03 210.63 317.58 186.69 317.58C186.69 317.58 178.92 317.58 168.84 323.04C168.84 323.04 150.99 329.13 123.9 333.12C123.9 333.12 89.88 340.89 75.18 346.98C75.18 346.98 17.85 354.75 7.14002 344.67L2.52002 318.42C2.52002 318.42 45.15 266.55 49.77 257.31C49.77 257.31 57.54 247.23 73.71 231.69C73.71 231.69 96.18 210.06 99.33 197.67C99.33 197.67 102.48 193.05 113.19 186.12C113.61 185.91 165.48 134.04 168.42 123.12Z" fill="#F6DF7C" stroke="#040000" stroke-width="1.9721" stroke-miterlimit="10" stroke-linecap="round" stroke-linejoin="round"/>
<path d="M414.75 183.6C415.59 180.03 404.88 172.26 395.43 167.64C385.98 163.02 366.87 167.85 366.87 167.85C336.42 170.58 331.59 195.36 334.74 205.86C337.89 216.36 336.84 222.24 336.84 222.24C336.84 222.24 292.11 238.41 287.49 243.03C287.49 243.03 203.07 269.28 185.22 279.36C185.22 279.36 146.58 297.21 108.57 297.21C108.57 297.21 86.9401 300.36 80.0101 303.3C80.0101 303.3 70.7701 307.71 62.1601 311.91C56.2801 314.85 50.4001 318 48.3001 319.47C48.3001 319.47 15.7501 324.09 7.98011 319.47L4.20011 318H3.36011L7.98011 344.25C7.98011 344.25 14.4901 347.4 26.2501 349.08C41.7901 350.13 62.1601 348.24 71.4001 347.19C74.3401 346.56 77.0701 345.93 80.2201 345.09C96.3901 339.21 124.95 332.7 124.95 332.7C127.68 332.28 130.2 331.86 132.72 331.44C153.51 326.4 168 323.25 168 323.25C168 323.25 171.57 321.36 176.19 319.89C182.91 317.37 187.74 317.37 187.74 317.37C196.77 316.95 234.78 309.81 234.99 309.81C234.99 309.81 254.31 302.04 264.39 300.36C268.38 299.31 271.32 298.89 271.32 298.89C278.25 298.89 284.76 298.05 289.38 297.42C292.53 296.58 295.89 295.74 299.46 294.9C306.39 292.38 321.72 289.23 336.42 286.5C349.44 284.19 361.83 282.09 367.71 281.04C369.81 280.62 371.28 280.41 371.28 280.41C371.91 280.41 372.54 280.41 373.17 280.41C392.49 279.78 398.37 257.94 398.37 257.94C400.68 247.02 410.76 232.32 410.76 232.32C417.9 216.15 414.12 201.03 411.81 194.94C410.97 192 413.91 187.17 414.75 183.6Z" fill="#EDC35E" stroke="#040000" stroke-width="1.9721" stroke-miterlimit="10" stroke-linecap="round" stroke-linejoin="round"/>
<path d="M168.42 123.12C168.42 123.12 194.04 164.91 248.22 160.29C248.22 160.29 256.83 155.67 262.92 159.45C262.92 159.45 269.85 166.38 288.54 168.69C288.54 168.69 295.47 183.39 300.93 183.39C300.93 183.39 326.55 194.94 334.32 205.86L338.94 221.4C338.94 221.4 291.69 238.41 287.07 243.03C287.07 243.03 202.65 269.28 184.8 279.36C184.8 279.36 146.16 297.21 108.15 297.21C108.15 297.21 86.5199 300.36 79.5899 303.3C79.5899 303.3 53.3399 315.69 47.8799 319.47C47.8799 319.47 15.3299 324.09 7.55994 319.47L2.93994 318L51.0299 256.05C51.0299 256.05 93.6599 215.73 99.1199 197.25L112.98 185.7L167.16 123.75" fill="#F29A5A"/>
<path d="M168.42 123.12C168.42 123.12 194.04 164.91 248.22 160.29C248.22 160.29 256.83 155.67 262.92 159.45C262.92 159.45 269.85 166.38 288.54 168.69C288.54 168.69 295.47 183.39 300.93 183.39C300.93 183.39 326.55 194.94 334.32 205.86L338.94 221.4C338.94 221.4 291.69 238.41 287.07 243.03C287.07 243.03 202.65 269.28 184.8 279.36C184.8 279.36 146.16 297.21 108.15 297.21C108.15 297.21 86.5199 300.36 79.5899 303.3C79.5899 303.3 53.3399 315.69 47.8799 319.47C47.8799 319.47 15.3299 324.09 7.55994 319.47L2.93994 318L51.0299 256.05C51.0299 256.05 93.6599 215.73 99.1199 197.25L112.98 185.7L167.16 123.75" stroke="#040000" stroke-width="1.9721" stroke-miterlimit="10" stroke-linecap="round" stroke-linejoin="round"/>
<path d="M331.17 203.55C331.17 203.55 331.17 170.16 367.5 167.22C367.5 167.22 400.89 157.14 413.91 185.7" stroke="#040000" stroke-width="1.9721" stroke-miterlimit="10" stroke-linecap="round" stroke-linejoin="round"/>
<path d="M413.28 200.19C413.28 200.19 409.92 182.76 376.74 181.92C376.74 181.92 341.04 185.07 345.87 222.87H335.79" stroke="#040000" stroke-width="1.9721" stroke-miterlimit="10" stroke-linecap="round" stroke-linejoin="round"/>
<path d="M217.98 210.69C215.67 210.69 227.22 201.45 228.9 195.99C228.9 195.99 241.29 188.22 248.22 195.99C248.22 195.99 263.76 213 217.98 210.69Z" fill="#86BC43" stroke="#040000" stroke-width="1.9721" stroke-miterlimit="10" stroke-linecap="round" stroke-linejoin="round"/>
<path d="M301.56 260.88C301.56 260.88 304.71 249.96 313.11 253.95C313.32 254.79 317.1 264.87 301.56 260.88Z" stroke="#040000" stroke-width="1.9721" stroke-miterlimit="10" stroke-linecap="round" stroke-linejoin="round"/>
<path d="M379.05 222.24C379.05 222.24 381.36 212.16 387.66 214.47" stroke="#040000" stroke-width="1.9721" stroke-miterlimit="10" stroke-linecap="round" stroke-linejoin="round"/>
<path d="M228.9 283.35C231.21 283.35 235.83 282.51 239.82 279.57" stroke="#040000" stroke-width="1.9721" stroke-miterlimit="10" stroke-linecap="round" stroke-linejoin="round"/>
<path d="M179.34 296.58C179.34 296.58 186.27 292.8 192.57 296.58" stroke="#040000" stroke-width="1.9721" stroke-miterlimit="10" stroke-linecap="round" stroke-linejoin="round"/>
<path d="M81.6899 335.22L70.1399 346.77" stroke="#040000" stroke-width="1.9721" stroke-miterlimit="10" stroke-linecap="round" stroke-linejoin="round"/>
<path d="M170.1 152.52C179.13 152.52 186.27 158.4 186.27 165.75C186.27 173.1 178.92 178.98 170.1 178.98C161.07 178.98 153.93 173.1 153.93 165.75C153.72 158.4 161.07 152.52 170.1 152.52Z" fill="#E45827"/>
<path d="M73.2899 283.35C77.9099 283.35 81.8999 286.5 81.8999 290.28C81.8999 294.06 78.1199 297.21 73.2899 297.21C68.6699 297.21 64.6799 294.06 64.6799 290.28C64.6799 286.5 68.4599 283.35 73.2899 283.35Z" fill="#E45827"/>
<path d="M182.49 232.32C193.62 232.32 202.65 240.3 202.65 250.17C202.65 260.04 193.62 268.02 182.49 268.02C171.36 268.02 162.33 260.04 162.33 250.17C162.33 240.3 171.36 232.32 182.49 232.32Z" fill="#E45827"/>
<path d="M270.69 237.78C281.824 237.78 290.85 229.788 290.85 219.93C290.85 210.072 281.824 202.08 270.69 202.08C259.556 202.08 250.53 210.072 250.53 219.93C250.53 229.788 259.556 237.78 270.69 237.78Z" fill="#E45827"/>
<path d="M135.24 204.39C146.37 204.39 155.4 212.37 155.4 222.24C155.4 232.11 146.37 240.09 135.24 240.09C124.11 240.09 115.08 232.11 115.08 222.24C115.08 212.37 124.11 204.39 135.24 204.39Z" fill="#E45827"/>
<path d="M170.1 165.75C170.1 165.75 182.49 174.36 187.11 169.53C187.95 168.69 190.89 155.67 170.1 165.75Z" fill="#86BC43" stroke="#040000" stroke-width="1.9721" stroke-miterlimit="10" stroke-linecap="round" stroke-linejoin="round"/>
<path d="M202.65 236.94C200.34 236.94 182.49 243.24 189.42 250.8L211.05 264.66L253.68 250.8C253.68 250.17 223.44 232.95 202.65 236.94Z" fill="#86BC43" stroke="#040000" stroke-width="1.9721" stroke-miterlimit="10" stroke-linecap="round" stroke-linejoin="round"/>
<path d="M104.16 192.84C104.16 192.84 156.03 183.6 160.65 222.24C160.65 222.24 163.8 260.25 101.85 274.11C101.85 274.11 64.6801 280.2 54.6001 256.26L60.6901 247.02C60.6901 247.02 71.6101 274.95 111.09 259.41C111.09 259.41 156.03 233.79 137.34 203.76C137.34 203.76 128.1 195.15 105.63 196.83L104.16 192.84Z" fill="white" stroke="#040000" stroke-width="1.9721" stroke-miterlimit="10" stroke-linecap="round" stroke-linejoin="round"/>
<path d="M55.44 290.28C55.44 290.28 29.19 292.59 45.36 304.98L55.44 312.75L79.38 301.2C79.38 301.2 83.3701 291.12 55.44 290.28Z" fill="#86BC43" stroke="#040000" stroke-width="1.9721" stroke-miterlimit="10" stroke-linecap="round" stroke-linejoin="round"/>
<path d="M300.09 184.23C300.09 184.23 256.83 206.7 278.46 243.87L335.79 222.87L334.32 209.64C334.11 209.85 308.7 181.92 300.09 184.23Z" fill="#F4BCD4" stroke="#040000" stroke-width="1.9721" stroke-miterlimit="10" stroke-linecap="round" stroke-linejoin="round"/>
</svg>
