<?xml version="1.0" encoding="utf-8"?>
<!-- Generator: Adobe Illustrator 16.0.0, SVG Export Plug-In . SVG Version: 6.00 Build 0)  -->
<!DOCTYPE svg PUBLIC "-//W3C//DTD SVG 1.1//EN" "http://www.w3.org/Graphics/SVG/1.1/DTD/svg11.dtd">
<svg version="1.1" id="Layer_1" xmlns="http://www.w3.org/2000/svg" xmlns:xlink="http://www.w3.org/1999/xlink" x="0px" y="0px"
	 width="200px" height="179px" viewBox="0 0 200 179" style="enable-background:new 0 0 200 179;" xml:space="preserve">
<style type="text/css">
<![CDATA[
	.st0{fill:none;stroke:#000000;stroke-width:2;stroke-linecap:round;stroke-linejoin:round;stroke-miterlimit:10;}
	.st1{fill:#00A24F;stroke:#000000;stroke-width:2;stroke-linecap:round;stroke-linejoin:round;stroke-miterlimit:10;}
	.st2{fill:#F04A32;stroke:#000000;stroke-width:2;stroke-linecap:round;stroke-linejoin:round;stroke-miterlimit:10;}
]]>
</style>
<g>
	<path class="st2" d="M58.2,37.1C57.4,37.2,22,33.4,7.8,73.6s-3.1,92.4,78.5,102.5c81.3,10,110.3-39.9,110.9-77.8
		C197.7,60.5,185.6,26.3,58.2,37.1z"/>
	<path class="st1" d="M134.9,14.4c0,0-30.6,40.7-60.7,0.5c0,0-5.1,8.5-0.9,18.5c0,0-17.6,2.5-30.3,1.4c0,0,5.3,16.2,37.7,12.1
		c0,0-5.3,8.3-5.8,15.7c0,0,15.1,1.8,33.8-13.4c0,0,24.3,17.8,37.9,12.9c0,0-11.4-7.6-13.6-13.7c0,0,14.8-2.5,21.1-13
		c0,0-18.3,1.2-24.1-0.4C130,35,137.2,26.5,134.9,14.4z"/>
	<path class="st0" d="M69.3,47.6c0,0-30.7,15.5-31.3,47.8"/>
	<path class="st0" d="M135.2,51.8c0,0,42,10.5,26.8,63.8"/>
	<path d="M102.9,2.4c0,0-13.4,20.6-7,39.4c0,0,3.5,7.1,7.2-3.2c3.8-10.5,4.7-26.7,13.4-32.4c0,0,3.5-2.8,0.1-3.7
		C112.5,1.6,105.5-0.3,102.9,2.4z"/>
	<ellipse cx="37.8" cy="102.6" rx="1.3" ry="2.5"/>
</g>
</svg>
