<svg width="43" height="43" viewBox="0 0 43 43" fill="none" xmlns="http://www.w3.org/2000/svg">
<path d="M0.5 8.8V25.6C0.5 29.4 3.3 32.6 6.9 33V40.3C6.9 40.9 7.3 41.4 7.9 41.6C7.9 41.7 8.2 41.7 8.3 41.7C8.7 41.7 9 41.6 9.3 41.3L17.6 33H34.9C38.9 33 42.3 29.7 42.3 25.6V8.7C42.3 4.7 39 1.3 34.9 1.3H7.8C3.8 1.4 0.5 4.7 0.5 8.8Z" fill="#23C274"/>
<path d="M21.5 26.4C26.6363 26.4 30.8 22.2363 30.8 17.1C30.8 11.9638 26.6363 7.8 21.5 7.8C16.3638 7.8 12.2 11.9638 12.2 17.1C12.2 22.2363 16.3638 26.4 21.5 26.4Z" stroke="white" stroke-width="5" stroke-miterlimit="10" stroke-linecap="round"/>
</svg>
