<svg width="44" height="44" viewBox="0 0 44 44" fill="none" xmlns="http://www.w3.org/2000/svg">
<path d="M1.09998 9.3V26C1.09998 29.7 3.89998 32.8 7.49998 33.3V40.6C7.49998 41.2 7.79998 41.7 8.39998 41.9C8.59998 41.9 8.79998 42 8.99998 42C9.39998 42 9.69998 41.9 9.99998 41.6L18.2 33.4H35.5C39.5 33.4 42.8 30.1 42.8 26.1V9.3C42.8 5.3 39.5 2 35.5 2H8.39998C4.39998 1.9 1.09998 5.2 1.09998 9.3Z" fill="#F74E6D"/>
<path d="M14.9 10.1L30 25.2M30 10.1L14.9 25.2" stroke="white" stroke-width="5" stroke-miterlimit="10" stroke-linecap="round"/>
</svg>
