<svg id="eWyCYqgukTo1" xmlns="http://www.w3.org/2000/svg" xmlns:xlink="http://www.w3.org/1999/xlink" viewBox="0 0 316 274" shape-rendering="geometricPrecision" text-rendering="geometricPrecision">
<style><![CDATA[
#eWyCYqgukTo2_tr {animation: eWyCYqgukTo2_tr__tr 3000ms linear 1 normal forwards}@keyframes eWyCYqgukTo2_tr__tr { 0% {transform: translate(242.7px,66.854746px) rotate(0deg)} 33.333333% {transform: translate(242.7px,66.854746px) rotate(15.320634deg)} 100% {transform: translate(242.7px,66.854746px) rotate(15.320634deg)}} #eWyCYqgukTo5_tr {animation: eWyCYqgukTo5_tr__tr 3000ms linear 1 normal forwards}@keyframes eWyCYqgukTo5_tr__tr { 0% {transform: translate(73.3px,66.158343px) rotate(0deg)} 33.333333% {transform: translate(73.3px,66.158343px) rotate(-19.687563deg)} 100% {transform: translate(73.3px,66.158343px) rotate(-19.687563deg)}} #eWyCYqgukTo15 {animation: eWyCYqgukTo15_c_o 3000ms linear 1 normal forwards}@keyframes eWyCYqgukTo15_c_o { 0% {opacity: 0} 50% {opacity: 1} 100% {opacity: 1}} #eWyCYqgukTo18_to {animation: eWyCYqgukTo18_to__to 3000ms linear 1 normal forwards}@keyframes eWyCYqgukTo18_to__to { 0% {transform: translate(230.423653px,89.088294px)} 16.666667% {transform: translate(230.423653px,89.088294px)} 36.666667% {transform: translate(230.423653px,99.352725px)} 100% {transform: translate(230.423653px,99.352725px)}} #eWyCYqgukTo19_to {animation: eWyCYqgukTo19_to__to 3000ms linear 1 normal forwards}@keyframes eWyCYqgukTo19_to__to { 0% {transform: translate(205.623665px,76.939032px)} 6.666667% {transform: translate(205.623665px,76.939032px)} 33.333333% {transform: translate(205.623665px,86.552685px)} 100% {transform: translate(205.623665px,86.552685px)}} #eWyCYqgukTo20_to {animation: eWyCYqgukTo20_to__to 3000ms linear 1 normal forwards}@keyframes eWyCYqgukTo20_to__to { 0% {transform: translate(251.523659px,113.193302px)} 23.333333% {transform: translate(251.523659px,113.193302px)} 36.666667% {transform: translate(251.523659px,123.401218px)} 100% {transform: translate(251.523659px,123.401218px)}} #eWyCYqgukTo22_to {animation: eWyCYqgukTo22_to__to 3000ms linear 1 normal forwards}@keyframes eWyCYqgukTo22_to__to { 0% {transform: translate(81.676346px,73.176109px)} 16.666667% {transform: translate(81.676346px,73.176109px)} 33.333333% {transform: translate(81.676346px,84.052719px)} 100% {transform: translate(81.676346px,84.052719px)}} #eWyCYqgukTo23_to {animation: eWyCYqgukTo23_to__to 3000ms linear 1 normal forwards}@keyframes eWyCYqgukTo23_to__to { 0% {transform: translate(100.076347px,86.247706px)} 16.666667% {transform: translate(100.076347px,86.247706px)} 33.333333% {transform: translate(100.076347px,99.352722px)} 100% {transform: translate(100.076347px,99.352722px)}} #eWyCYqgukTo24_to {animation: eWyCYqgukTo24_to__to 3000ms linear 1 normal forwards}@keyframes eWyCYqgukTo24_to__to { 0% {transform: translate(65.37635px,104.105223px)} 6.666667% {transform: translate(65.37635px,104.105223px)} 26.666667% {transform: translate(65.37635px,114.952721px)} 100% {transform: translate(65.37635px,114.952721px)}} #eWyCYqgukTo25_ts {animation: eWyCYqgukTo25_ts__ts 3000ms linear 1 normal forwards}@keyframes eWyCYqgukTo25_ts__ts { 0% {transform: translate(158.029741px,158.4px) scale(1,0.652741)} 36.666667% {transform: translate(158.029741px,158.4px) scale(1,1)} 100% {transform: translate(158.029741px,158.4px) scale(1,1)}} #eWyCYqgukTo26_ts {animation: eWyCYqgukTo26_ts__ts 3000ms linear 1 normal forwards}@keyframes eWyCYqgukTo26_ts__ts { 0% {transform: translate(158px,165.139671px) scale(1,1)} 36.666667% {transform: translate(158px,165.139671px) scale(1,1)} 100% {transform: translate(158px,165.139671px) scale(1,1)}} #eWyCYqgukTo29 {animation: eWyCYqgukTo29_f_p 3000ms linear 1 normal forwards}@keyframes eWyCYqgukTo29_f_p { 0% {fill: #582d17} 16.666667% {fill: #fff} 100% {fill: #fff}} #eWyCYqgukTo30 {animation: eWyCYqgukTo30_f_p 3000ms linear 1 normal forwards}@keyframes eWyCYqgukTo30_f_p { 0% {fill: #582d17} 16.666667% {fill: #fff} 100% {fill: #fff}}
]]></style>
<g id="eWyCYqgukTo2_tr" transform="translate(242.7,66.854746) rotate(0)"><g transform="translate(-242.7,-66.854746)"><g><path d="M223.5,75.9c-4.6-4-8.9-14.3.8-20.4c4.3-2.7,9.4-3.6,13.7-6.3c4.4-2.8,8.7-6,12.9-9.1c8.3-6.2,21.2-8.3,27.8-.7c5.8,6.7,4.8,17.8.2,25.4-4.1,6.8-12.3,12.7-19.8,15.3-12.3,4.4-27.6,2.6-35.6-4.2v0Z" fill="#c68bf5" stroke="#a773ea" stroke-width="6" stroke-linecap="round" stroke-linejoin="round"/></g></g></g><g id="eWyCYqgukTo5_tr" transform="translate(73.3,66.158343) rotate(0)"><g transform="translate(-73.335854,-66.166206)"><path d="M92.5,75.9c4.6-4,8.9-14.3-.8-20.4-4.3-2.7-9.3-3.6-13.7-6.3-4.4-2.8-8.7-6-12.9-9.1-8.3-6.2-21.2-8.3-27.8-.7-5.8,6.7-4.8,17.8-.2,25.4c4.1,6.8,12.3,12.7,19.8,15.3c12.3,4.4,27.6,2.6,35.6-4.2v0Z" fill="#c68bf5" stroke="#a773ea" stroke-width="6" stroke-linecap="round" stroke-linejoin="round"/></g></g><g><g><path d="M265,200.7c-1-.8-3.1-3.2-1.6-6.7.5-1.3.9-2.6,1.1-3.2c14.1-43.7,8.3-84.8-11-112.8-22.4-32.4-58.3-47.5-92.5-49-.5,0-5.4,0-5.9,0-34.2,1.5-70.2,16.6-92.5,49-19.3,28-25.1,69-11,112.8.2.6.6,1.9,1.1,3.2c1.5,3.5-.6,5.9-1.6,6.7-8.7,6.7-12.8,17.4-8.9,24.5c6,10.9,37.8,4,45.1-3-1.8,9.5-.4,16.3,10.7,18c13.5,2,29.6-4,34.9-13.7.2,12.2,7.3,18.6,25.1,18.6s25-6.4,25.1-18.6c5.3,9.8,21.4,15.8,34.9,13.7c11.1-1.7,12.5-8.5,10.7-18c7.3,7,39.1,13.9,45.1,3c4-7.1-.1-17.8-8.8-24.5v0Z" fill="#cdaaf5" stroke="#a773ea" stroke-width="6" stroke-linecap="round" stroke-linejoin="round"/></g></g><g><g><g><circle r="17.9" transform="translate(224.8 159.8)" fill="#c68bf5"/><circle r="17.9" transform="translate(91.2 159.8)" fill="#c68bf5"/></g></g></g><g id="eWyCYqgukTo15" opacity="0"><g><g><g id="eWyCYqgukTo18_to" transform="translate(230.423653,89.088294)"><path d="M224.9,92.2c0,0-1.1,12.2,5.8,11.9s5.1-11.9,5.1-11.9" transform="translate(-230.423653,-98.152718)" fill="#fff" stroke="#e6e7e8" stroke-width="3" stroke-linecap="round" stroke-linejoin="round"/></g><g id="eWyCYqgukTo19_to" transform="translate(205.623665,76.939032)"><path d="M200.1,78.1c0,0-1.1,12.2,5.8,11.9s5.1-11.9,5.1-11.9" transform="translate(-205.623665,-84.052719)" fill="#fff" stroke="#e6e7e8" stroke-width="3" stroke-linecap="round" stroke-linejoin="round"/></g><g id="eWyCYqgukTo20_to" transform="translate(251.523659,113.193302)"><path d="M246,117.4c0,0-1.1,12.2,5.8,12s5.1-11.9,5.1-11.9" transform="translate(-251.523659,-123.401218)" fill="#fff" stroke="#e6e7e8" stroke-width="3" stroke-linecap="round" stroke-linejoin="round"/></g></g><g><g id="eWyCYqgukTo22_to" transform="translate(81.676346,73.176109)"><path d="M87.2,78.1c0,0,1.1,12.2-5.8,11.9s-5.1-11.9-5.1-11.9" transform="translate(-81.676346,-84.052719)" fill="#fff" stroke="#e6e7e8" stroke-width="3" stroke-linecap="round" stroke-linejoin="round"/></g><g id="eWyCYqgukTo23_to" transform="translate(100.076347,86.247706)"><path d="M105.6,93.4c0,0,1.1,12.2-5.8,11.9s-5.1-11.9-5.1-11.9" transform="translate(-100.076347,-99.352722)" fill="#fff" stroke="#e6e7e8" stroke-width="3" stroke-linecap="round" stroke-linejoin="round"/></g><g id="eWyCYqgukTo24_to" transform="translate(65.37635,104.105223)"><path d="M70.9,109c0,0,1.1,12.2-5.8,11.9s-5.1-11.9-5.1-11.9" transform="translate(-65.37635,-114.952721)" fill="#fff" stroke="#e6e7e8" stroke-width="3" stroke-linecap="round" stroke-linejoin="round"/></g></g></g></g><g id="eWyCYqgukTo25_ts" transform="translate(158.029741,158.4) scale(1,0.652741)"><g transform="translate(-158.029741,-158.399996)"><g id="eWyCYqgukTo26_ts" transform="translate(158,165.139671) scale(1,1)"><path d="M171.9,167.7c0,5.1-6.170259,0-13.870259,0s-13.929741,5.1-13.929741,0s6.2-9.3,13.9-9.3s13.9,4.1,13.9,9.3Z" transform="translate(-158,-165.139671)" fill="#582d17" stroke="#582d17" stroke-width="9" stroke-linecap="round" stroke-linejoin="round"/></g></g></g><g><g><path id="eWyCYqgukTo29" d="M123.4,141.9c1.9,4.6-2.3,8.5-8.6,11.4s-11.8,3.8-14.2-1c-2-4.1,2.3-8.5,8.6-11.4s12.2-3.9,14.2,1Z" fill="#582d17" stroke="#582d17" stroke-width="6" stroke-linecap="round" stroke-linejoin="round"/><path id="eWyCYqgukTo30" d="M192.6,141.9c-1.9,4.6,2.3,8.5,8.6,11.4s11.9,3.8,14.2-1c2-4.1-2.3-8.5-8.6-11.4s-12.2-3.9-14.2,1Z" fill="#582d17" stroke="#582d17" stroke-width="6" stroke-linecap="round" stroke-linejoin="round"/></g></g></svg>
