<svg width="102" height="47" viewBox="0 0 102 47" fill="none" xmlns="http://www.w3.org/2000/svg">
<mask id="path-1-outside-1_502_613" maskUnits="userSpaceOnUse" x="1" y="3" width="34" height="38" fill="black">
<rect fill="white" x="1" y="3" width="34" height="38"/>
<path d="M12.0569 25.96C12.6702 25.96 12.9769 25.6533 12.9769 25.04V19.68H7.05688V25.04C7.05688 25.6533 7.36354 25.96 7.97688 25.96H12.0569ZM17.6969 26.92C17.6969 28.1733 17.4435 29.04 16.9369 29.52C16.4569 30 15.5769 30.24 14.2969 30.24H5.73688C4.45688 30.24 3.56354 30 3.05688 29.52C2.57688 29.04 2.33688 28.1733 2.33688 26.92V9.28C2.33688 8.58667 2.57688 8.08 3.05688 7.76C3.53688 7.44 4.08354 7.28 4.69688 7.28C5.31021 7.28 5.85688 7.44 6.33688 7.76C6.81688 8.08 7.05688 8.58667 7.05688 9.28V15.4H12.9769V9.28C12.9769 8.58667 13.2169 8.08 13.6969 7.76C14.1769 7.44 14.7235 7.28 15.3369 7.28C15.9502 7.28 16.4969 7.44 16.9769 7.76C17.4569 8.08 17.6969 8.58667 17.6969 9.28V26.92ZM25.4569 16.72H28.6569V6.68C28.6569 5.98666 28.8969 5.48 29.3769 5.16C29.8569 4.84 30.4035 4.68 31.0169 4.68C31.6302 4.68 32.1769 4.84 32.6569 5.16C33.1369 5.48 33.3769 5.98666 33.3769 6.68V37.64C33.3769 38.3333 33.1369 38.84 32.6569 39.16C32.1769 39.48 31.6302 39.64 31.0169 39.64C30.4035 39.64 29.8569 39.48 29.3769 39.16C28.8969 38.84 28.6569 38.3333 28.6569 37.64V21.04H25.4569V35.96C25.4569 36.6533 25.2169 37.16 24.7369 37.48C24.2569 37.8 23.7102 37.96 23.0969 37.96C22.5102 37.96 21.9769 37.8 21.4969 37.48C21.0169 37.16 20.7769 36.6533 20.7769 35.96V7.08C20.7769 6.38667 21.0169 5.88 21.4969 5.56C21.9769 5.24 22.5102 5.08 23.0969 5.08C23.7102 5.08 24.2569 5.24 24.7369 5.56C25.2169 5.88 25.4569 6.38667 25.4569 7.08V16.72Z"/>
</mask>
<path d="M12.0569 25.96C12.6702 25.96 12.9769 25.6533 12.9769 25.04V19.68H7.05688V25.04C7.05688 25.6533 7.36354 25.96 7.97688 25.96H12.0569ZM17.6969 26.92C17.6969 28.1733 17.4435 29.04 16.9369 29.52C16.4569 30 15.5769 30.24 14.2969 30.24H5.73688C4.45688 30.24 3.56354 30 3.05688 29.52C2.57688 29.04 2.33688 28.1733 2.33688 26.92V9.28C2.33688 8.58667 2.57688 8.08 3.05688 7.76C3.53688 7.44 4.08354 7.28 4.69688 7.28C5.31021 7.28 5.85688 7.44 6.33688 7.76C6.81688 8.08 7.05688 8.58667 7.05688 9.28V15.4H12.9769V9.28C12.9769 8.58667 13.2169 8.08 13.6969 7.76C14.1769 7.44 14.7235 7.28 15.3369 7.28C15.9502 7.28 16.4969 7.44 16.9769 7.76C17.4569 8.08 17.6969 8.58667 17.6969 9.28V26.92ZM25.4569 16.72H28.6569V6.68C28.6569 5.98666 28.8969 5.48 29.3769 5.16C29.8569 4.84 30.4035 4.68 31.0169 4.68C31.6302 4.68 32.1769 4.84 32.6569 5.16C33.1369 5.48 33.3769 5.98666 33.3769 6.68V37.64C33.3769 38.3333 33.1369 38.84 32.6569 39.16C32.1769 39.48 31.6302 39.64 31.0169 39.64C30.4035 39.64 29.8569 39.48 29.3769 39.16C28.8969 38.84 28.6569 38.3333 28.6569 37.64V21.04H25.4569V35.96C25.4569 36.6533 25.2169 37.16 24.7369 37.48C24.2569 37.8 23.7102 37.96 23.0969 37.96C22.5102 37.96 21.9769 37.8 21.4969 37.48C21.0169 37.16 20.7769 36.6533 20.7769 35.96V7.08C20.7769 6.38667 21.0169 5.88 21.4969 5.56C21.9769 5.24 22.5102 5.08 23.0969 5.08C23.7102 5.08 24.2569 5.24 24.7369 5.56C25.2169 5.88 25.4569 6.38667 25.4569 7.08V16.72Z" fill="black"/>
<path d="M12.9769 19.68H13.9769V18.68H12.9769V19.68ZM7.05688 19.68V18.68H6.05688V19.68H7.05688ZM16.9369 29.52L16.2491 28.794L16.2393 28.8033L16.2298 28.8129L16.9369 29.52ZM3.05688 29.52L2.34977 30.2271L2.35932 30.2367L2.36913 30.246L3.05688 29.52ZM3.05688 7.76L3.61158 8.59205L3.61158 8.59205L3.05688 7.76ZM7.05688 15.4H6.05688V16.4H7.05688V15.4ZM12.9769 15.4V16.4H13.9769V15.4H12.9769ZM25.4569 16.72H24.4569V17.72H25.4569V16.72ZM28.6569 16.72V17.72H29.6569V16.72H28.6569ZM29.3769 5.16L29.9316 5.99205L29.9316 5.99205L29.3769 5.16ZM32.6569 5.16L32.1022 5.99205L32.1022 5.99205L32.6569 5.16ZM28.6569 21.04H29.6569V20.04H28.6569V21.04ZM25.4569 21.04V20.04H24.4569V21.04H25.4569ZM24.7369 37.48L24.1822 36.6479L24.1822 36.648L24.7369 37.48ZM21.4969 37.48L22.0516 36.6479L22.0516 36.6479L21.4969 37.48ZM24.7369 5.56L24.1822 6.39205L24.1822 6.39205L24.7369 5.56ZM12.0569 26.96C12.5177 26.96 13.047 26.8441 13.454 26.4371C13.861 26.0301 13.9769 25.5008 13.9769 25.04H11.9769C11.9769 25.113 11.9674 25.1361 11.9707 25.1263C11.9727 25.1203 11.9782 25.1058 11.99 25.0861C12.002 25.0661 12.0185 25.0441 12.0398 25.0229C12.061 25.0017 12.083 24.9851 12.103 24.9731C12.1227 24.9613 12.1372 24.9558 12.1431 24.9538C12.153 24.9505 12.1299 24.96 12.0569 24.96V26.96ZM13.9769 25.04V19.68H11.9769V25.04H13.9769ZM12.9769 18.68H7.05688V20.68H12.9769V18.68ZM6.05688 19.68V25.04H8.05688V19.68H6.05688ZM6.05688 25.04C6.05688 25.5008 6.17276 26.0301 6.57977 26.4371C6.98678 26.8441 7.51606 26.96 7.97688 26.96V24.96C7.90389 24.96 7.88074 24.9505 7.8906 24.9538C7.89653 24.9558 7.91108 24.9613 7.93075 24.9731C7.95077 24.9851 7.97274 25.0017 7.99398 25.0229C8.01522 25.0441 8.03173 25.0661 8.04374 25.0861C8.05555 25.1058 8.06108 25.1203 8.06306 25.1263C8.06635 25.1361 8.05688 25.113 8.05688 25.04H6.05688ZM7.97688 26.96H12.0569V24.96H7.97688V26.96ZM16.6969 26.92C16.6969 28.1001 16.4466 28.607 16.2491 28.794L17.6246 30.246C18.4405 29.473 18.6969 28.2465 18.6969 26.92H16.6969ZM16.2298 28.8129C16.0463 28.9963 15.5215 29.24 14.2969 29.24V31.24C15.6323 31.24 16.8674 31.0037 17.644 30.2271L16.2298 28.8129ZM14.2969 29.24H5.73688V31.24H14.2969V29.24ZM5.73688 29.24C4.52107 29.24 3.96198 29 3.74462 28.794L2.36913 30.246C3.1651 31 4.39268 31.24 5.73688 31.24V29.24ZM3.76398 28.8129C3.57779 28.6267 3.33688 28.1107 3.33688 26.92H1.33688C1.33688 28.236 1.57596 29.4533 2.34977 30.2271L3.76398 28.8129ZM3.33688 26.92V9.28H1.33688V26.92H3.33688ZM3.33688 9.28C3.33688 8.84352 3.46861 8.68736 3.61158 8.59205L2.50217 6.92795C1.68514 7.47264 1.33688 8.32981 1.33688 9.28H3.33688ZM3.61158 8.59205C3.91673 8.38861 4.26785 8.28 4.69688 8.28V6.28C3.89923 6.28 3.15702 6.49138 2.50217 6.92795L3.61158 8.59205ZM4.69688 8.28C5.1259 8.28 5.47702 8.38861 5.78217 8.59205L6.89158 6.92795C6.23673 6.49138 5.49452 6.28 4.69688 6.28V8.28ZM5.78217 8.59205C5.92514 8.68736 6.05688 8.84352 6.05688 9.28H8.05688C8.05688 8.32981 7.70861 7.47264 6.89158 6.92795L5.78217 8.59205ZM6.05688 9.28V15.4H8.05688V9.28H6.05688ZM7.05688 16.4H12.9769V14.4H7.05688V16.4ZM13.9769 15.4V9.28H11.9769V15.4H13.9769ZM13.9769 9.28C13.9769 8.84352 14.1086 8.68736 14.2516 8.59205L13.1422 6.92795C12.3251 7.47264 11.9769 8.32981 11.9769 9.28H13.9769ZM14.2516 8.59205C14.5567 8.38861 14.9079 8.28 15.3369 8.28V6.28C14.5392 6.28 13.797 6.49138 13.1422 6.92795L14.2516 8.59205ZM15.3369 8.28C15.7659 8.28 16.117 8.38861 16.4222 8.59205L17.5316 6.92795C16.8767 6.49138 16.1345 6.28 15.3369 6.28V8.28ZM16.4222 8.59205C16.5651 8.68736 16.6969 8.84352 16.6969 9.28H18.6969C18.6969 8.32981 18.3486 7.47264 17.5316 6.92795L16.4222 8.59205ZM16.6969 9.28V26.92H18.6969V9.28H16.6969ZM25.4569 17.72H28.6569V15.72H25.4569V17.72ZM29.6569 16.72V6.68H27.6569V16.72H29.6569ZM29.6569 6.68C29.6569 6.24352 29.7886 6.08736 29.9316 5.99205L28.8222 4.32795C28.0051 4.87264 27.6569 5.72981 27.6569 6.68H29.6569ZM29.9316 5.99205C30.2367 5.78861 30.5879 5.68 31.0169 5.68V3.68C30.2192 3.68 29.477 3.89138 28.8222 4.32795L29.9316 5.99205ZM31.0169 5.68C31.4459 5.68 31.797 5.78861 32.1022 5.99205L33.2116 4.32795C32.5567 3.89138 31.8145 3.68 31.0169 3.68V5.68ZM32.1022 5.99205C32.2451 6.08736 32.3769 6.24352 32.3769 6.68H34.3769C34.3769 5.72981 34.0286 4.87264 33.2116 4.32795L32.1022 5.99205ZM32.3769 6.68V37.64H34.3769V6.68H32.3769ZM32.3769 37.64C32.3769 38.0765 32.2451 38.2326 32.1022 38.3279L33.2116 39.9921C34.0286 39.4474 34.3769 38.5902 34.3769 37.64H32.3769ZM32.1022 38.3279C31.797 38.5314 31.4459 38.64 31.0169 38.64V40.64C31.8145 40.64 32.5567 40.4286 33.2116 39.9921L32.1022 38.3279ZM31.0169 38.64C30.5879 38.64 30.2367 38.5314 29.9316 38.3279L28.8222 39.9921C29.477 40.4286 30.2192 40.64 31.0169 40.64V38.64ZM29.9316 38.3279C29.7886 38.2326 29.6569 38.0765 29.6569 37.64H27.6569C27.6569 38.5902 28.0051 39.4474 28.8222 39.9921L29.9316 38.3279ZM29.6569 37.64V21.04H27.6569V37.64H29.6569ZM28.6569 20.04H25.4569V22.04H28.6569V20.04ZM24.4569 21.04V35.96H26.4569V21.04H24.4569ZM24.4569 35.96C24.4569 36.3965 24.3251 36.5526 24.1822 36.6479L25.2916 38.3121C26.1086 37.7674 26.4569 36.9102 26.4569 35.96H24.4569ZM24.1822 36.648C23.877 36.8514 23.5259 36.96 23.0969 36.96V38.96C23.8945 38.96 24.6367 38.7486 25.2916 38.312L24.1822 36.648ZM23.0969 36.96C22.7041 36.96 22.3644 36.8565 22.0516 36.6479L20.9422 38.3121C21.5894 38.7435 22.3163 38.96 23.0969 38.96V36.96ZM22.0516 36.6479C21.9086 36.5526 21.7769 36.3965 21.7769 35.96H19.7769C19.7769 36.9102 20.1251 37.7674 20.9422 38.3121L22.0516 36.6479ZM21.7769 35.96V7.08H19.7769V35.96H21.7769ZM21.7769 7.08C21.7769 6.64352 21.9086 6.48736 22.0516 6.39205L20.9422 4.72795C20.1251 5.27264 19.7769 6.12981 19.7769 7.08H21.7769ZM22.0516 6.39205C22.3644 6.18352 22.7041 6.08 23.0969 6.08V4.08C22.3163 4.08 21.5894 4.29648 20.9422 4.72795L22.0516 6.39205ZM23.0969 6.08C23.5259 6.08 23.877 6.18861 24.1822 6.39205L25.2916 4.72795C24.6367 4.29138 23.8945 4.08 23.0969 4.08V6.08ZM24.1822 6.39205C24.3251 6.48736 24.4569 6.64352 24.4569 7.08H26.4569C26.4569 6.12981 26.1086 5.27264 25.2916 4.72795L24.1822 6.39205ZM24.4569 7.08V16.72H26.4569V7.08H24.4569Z" fill="black" mask="url(#path-1-outside-1_502_613)"/>
<mask id="path-3-outside-2_502_613" maskUnits="userSpaceOnUse" x="3" y="1" width="34" height="38" fill="black">
<rect fill="white" x="3" y="1" width="34" height="38"/>
<path d="M14.0569 23.96C14.6702 23.96 14.9769 23.6533 14.9769 23.04V17.68H9.05688V23.04C9.05688 23.6533 9.36354 23.96 9.97688 23.96H14.0569ZM19.6969 24.92C19.6969 26.1733 19.4435 27.04 18.9369 27.52C18.4569 28 17.5769 28.24 16.2969 28.24H7.73688C6.45688 28.24 5.56354 28 5.05688 27.52C4.57688 27.04 4.33688 26.1733 4.33688 24.92V7.28C4.33688 6.58667 4.57688 6.08 5.05688 5.76C5.53688 5.44 6.08354 5.28 6.69688 5.28C7.31021 5.28 7.85688 5.44 8.33688 5.76C8.81688 6.08 9.05688 6.58667 9.05688 7.28V13.4H14.9769V7.28C14.9769 6.58667 15.2169 6.08 15.6969 5.76C16.1769 5.44 16.7235 5.28 17.3369 5.28C17.9502 5.28 18.4969 5.44 18.9769 5.76C19.4569 6.08 19.6969 6.58667 19.6969 7.28V24.92ZM27.4569 14.72H30.6569V4.68C30.6569 3.98666 30.8969 3.48 31.3769 3.16C31.8569 2.84 32.4035 2.68 33.0169 2.68C33.6302 2.68 34.1769 2.84 34.6569 3.16C35.1369 3.48 35.3769 3.98666 35.3769 4.68V35.64C35.3769 36.3333 35.1369 36.84 34.6569 37.16C34.1769 37.48 33.6302 37.64 33.0169 37.64C32.4035 37.64 31.8569 37.48 31.3769 37.16C30.8969 36.84 30.6569 36.3333 30.6569 35.64V19.04H27.4569V33.96C27.4569 34.6533 27.2169 35.16 26.7369 35.48C26.2569 35.8 25.7102 35.96 25.0969 35.96C24.5102 35.96 23.9769 35.8 23.4969 35.48C23.0169 35.16 22.7769 34.6533 22.7769 33.96V5.08C22.7769 4.38667 23.0169 3.88 23.4969 3.56C23.9769 3.24 24.5102 3.08 25.0969 3.08C25.7102 3.08 26.2569 3.24 26.7369 3.56C27.2169 3.88 27.4569 4.38667 27.4569 5.08V14.72Z"/>
</mask>
<path d="M14.0569 23.96C14.6702 23.96 14.9769 23.6533 14.9769 23.04V17.68H9.05688V23.04C9.05688 23.6533 9.36354 23.96 9.97688 23.96H14.0569ZM19.6969 24.92C19.6969 26.1733 19.4435 27.04 18.9369 27.52C18.4569 28 17.5769 28.24 16.2969 28.24H7.73688C6.45688 28.24 5.56354 28 5.05688 27.52C4.57688 27.04 4.33688 26.1733 4.33688 24.92V7.28C4.33688 6.58667 4.57688 6.08 5.05688 5.76C5.53688 5.44 6.08354 5.28 6.69688 5.28C7.31021 5.28 7.85688 5.44 8.33688 5.76C8.81688 6.08 9.05688 6.58667 9.05688 7.28V13.4H14.9769V7.28C14.9769 6.58667 15.2169 6.08 15.6969 5.76C16.1769 5.44 16.7235 5.28 17.3369 5.28C17.9502 5.28 18.4969 5.44 18.9769 5.76C19.4569 6.08 19.6969 6.58667 19.6969 7.28V24.92ZM27.4569 14.72H30.6569V4.68C30.6569 3.98666 30.8969 3.48 31.3769 3.16C31.8569 2.84 32.4035 2.68 33.0169 2.68C33.6302 2.68 34.1769 2.84 34.6569 3.16C35.1369 3.48 35.3769 3.98666 35.3769 4.68V35.64C35.3769 36.3333 35.1369 36.84 34.6569 37.16C34.1769 37.48 33.6302 37.64 33.0169 37.64C32.4035 37.64 31.8569 37.48 31.3769 37.16C30.8969 36.84 30.6569 36.3333 30.6569 35.64V19.04H27.4569V33.96C27.4569 34.6533 27.2169 35.16 26.7369 35.48C26.2569 35.8 25.7102 35.96 25.0969 35.96C24.5102 35.96 23.9769 35.8 23.4969 35.48C23.0169 35.16 22.7769 34.6533 22.7769 33.96V5.08C22.7769 4.38667 23.0169 3.88 23.4969 3.56C23.9769 3.24 24.5102 3.08 25.0969 3.08C25.7102 3.08 26.2569 3.24 26.7369 3.56C27.2169 3.88 27.4569 4.38667 27.4569 5.08V14.72Z" fill="white"/>
<path d="M14.9769 17.68H15.9769V16.68H14.9769V17.68ZM9.05688 17.68V16.68H8.05688V17.68H9.05688ZM18.9369 27.52L18.2491 26.794L18.2393 26.8033L18.2298 26.8129L18.9369 27.52ZM5.05688 27.52L4.34977 28.2271L4.35932 28.2367L4.36913 28.246L5.05688 27.52ZM5.05688 5.76L5.61158 6.59205L5.61158 6.59205L5.05688 5.76ZM9.05688 13.4H8.05688V14.4H9.05688V13.4ZM14.9769 13.4V14.4H15.9769V13.4H14.9769ZM27.4569 14.72H26.4569V15.72H27.4569V14.72ZM30.6569 14.72V15.72H31.6569V14.72H30.6569ZM31.3769 3.16L31.9316 3.99205L31.9316 3.99205L31.3769 3.16ZM34.6569 3.16L34.1022 3.99205L34.1022 3.99205L34.6569 3.16ZM30.6569 19.04H31.6569V18.04H30.6569V19.04ZM27.4569 19.04V18.04H26.4569V19.04H27.4569ZM26.7369 35.48L26.1822 34.6479L26.1822 34.648L26.7369 35.48ZM23.4969 35.48L24.0516 34.6479L24.0516 34.6479L23.4969 35.48ZM26.7369 3.56L26.1822 4.39205L26.1822 4.39205L26.7369 3.56ZM14.0569 24.96C14.5177 24.96 15.047 24.8441 15.454 24.4371C15.861 24.0301 15.9769 23.5008 15.9769 23.04H13.9769C13.9769 23.113 13.9674 23.1361 13.9707 23.1263C13.9727 23.1203 13.9782 23.1058 13.99 23.0861C14.002 23.0661 14.0185 23.0441 14.0398 23.0229C14.061 23.0017 14.083 22.9851 14.103 22.9731C14.1227 22.9613 14.1372 22.9558 14.1431 22.9538C14.153 22.9505 14.1299 22.96 14.0569 22.96V24.96ZM15.9769 23.04V17.68H13.9769V23.04H15.9769ZM14.9769 16.68H9.05688V18.68H14.9769V16.68ZM8.05688 17.68V23.04H10.0569V17.68H8.05688ZM8.05688 23.04C8.05688 23.5008 8.17276 24.0301 8.57977 24.4371C8.98678 24.8441 9.51606 24.96 9.97688 24.96V22.96C9.90389 22.96 9.88074 22.9505 9.8906 22.9538C9.89653 22.9558 9.91108 22.9613 9.93075 22.9731C9.95077 22.9851 9.97274 23.0017 9.99398 23.0229C10.0152 23.0441 10.0317 23.0661 10.0437 23.0861C10.0555 23.1058 10.0611 23.1203 10.0631 23.1263C10.0663 23.1361 10.0569 23.113 10.0569 23.04H8.05688ZM9.97688 24.96H14.0569V22.96H9.97688V24.96ZM18.6969 24.92C18.6969 26.1001 18.4466 26.607 18.2491 26.794L19.6246 28.246C20.4405 27.473 20.6969 26.2465 20.6969 24.92H18.6969ZM18.2298 26.8129C18.0463 26.9963 17.5215 27.24 16.2969 27.24V29.24C17.6323 29.24 18.8674 29.0037 19.644 28.2271L18.2298 26.8129ZM16.2969 27.24H7.73688V29.24H16.2969V27.24ZM7.73688 27.24C6.52107 27.24 5.96198 27 5.74462 26.794L4.36913 28.246C5.1651 29 6.39268 29.24 7.73688 29.24V27.24ZM5.76398 26.8129C5.57779 26.6267 5.33688 26.1107 5.33688 24.92H3.33688C3.33688 26.236 3.57596 27.4533 4.34977 28.2271L5.76398 26.8129ZM5.33688 24.92V7.28H3.33688V24.92H5.33688ZM5.33688 7.28C5.33688 6.84352 5.46861 6.68736 5.61158 6.59205L4.50217 4.92795C3.68514 5.47264 3.33688 6.32981 3.33688 7.28H5.33688ZM5.61158 6.59205C5.91673 6.38861 6.26785 6.28 6.69688 6.28V4.28C5.89923 4.28 5.15702 4.49138 4.50217 4.92795L5.61158 6.59205ZM6.69688 6.28C7.1259 6.28 7.47702 6.38861 7.78217 6.59205L8.89158 4.92795C8.23673 4.49138 7.49452 4.28 6.69688 4.28V6.28ZM7.78217 6.59205C7.92514 6.68736 8.05688 6.84352 8.05688 7.28H10.0569C10.0569 6.32981 9.70861 5.47264 8.89158 4.92795L7.78217 6.59205ZM8.05688 7.28V13.4H10.0569V7.28H8.05688ZM9.05688 14.4H14.9769V12.4H9.05688V14.4ZM15.9769 13.4V7.28H13.9769V13.4H15.9769ZM15.9769 7.28C15.9769 6.84352 16.1086 6.68736 16.2516 6.59205L15.1422 4.92795C14.3251 5.47264 13.9769 6.32981 13.9769 7.28H15.9769ZM16.2516 6.59205C16.5567 6.38861 16.9079 6.28 17.3369 6.28V4.28C16.5392 4.28 15.797 4.49138 15.1422 4.92795L16.2516 6.59205ZM17.3369 6.28C17.7659 6.28 18.117 6.38861 18.4222 6.59205L19.5316 4.92795C18.8767 4.49138 18.1345 4.28 17.3369 4.28V6.28ZM18.4222 6.59205C18.5651 6.68736 18.6969 6.84352 18.6969 7.28H20.6969C20.6969 6.32981 20.3486 5.47264 19.5316 4.92795L18.4222 6.59205ZM18.6969 7.28V24.92H20.6969V7.28H18.6969ZM27.4569 15.72H30.6569V13.72H27.4569V15.72ZM31.6569 14.72V4.68H29.6569V14.72H31.6569ZM31.6569 4.68C31.6569 4.24352 31.7886 4.08736 31.9316 3.99205L30.8222 2.32795C30.0051 2.87264 29.6569 3.72981 29.6569 4.68H31.6569ZM31.9316 3.99205C32.2367 3.78861 32.5879 3.68 33.0169 3.68V1.68C32.2192 1.68 31.477 1.89138 30.8222 2.32795L31.9316 3.99205ZM33.0169 3.68C33.4459 3.68 33.797 3.78861 34.1022 3.99205L35.2116 2.32795C34.5567 1.89138 33.8145 1.68 33.0169 1.68V3.68ZM34.1022 3.99205C34.2451 4.08736 34.3769 4.24352 34.3769 4.68H36.3769C36.3769 3.72981 36.0286 2.87264 35.2116 2.32795L34.1022 3.99205ZM34.3769 4.68V35.64H36.3769V4.68H34.3769ZM34.3769 35.64C34.3769 36.0765 34.2451 36.2326 34.1022 36.3279L35.2116 37.9921C36.0286 37.4474 36.3769 36.5902 36.3769 35.64H34.3769ZM34.1022 36.3279C33.797 36.5314 33.4459 36.64 33.0169 36.64V38.64C33.8145 38.64 34.5567 38.4286 35.2116 37.9921L34.1022 36.3279ZM33.0169 36.64C32.5879 36.64 32.2367 36.5314 31.9316 36.3279L30.8222 37.9921C31.477 38.4286 32.2192 38.64 33.0169 38.64V36.64ZM31.9316 36.3279C31.7886 36.2326 31.6569 36.0765 31.6569 35.64H29.6569C29.6569 36.5902 30.0051 37.4474 30.8222 37.9921L31.9316 36.3279ZM31.6569 35.64V19.04H29.6569V35.64H31.6569ZM30.6569 18.04H27.4569V20.04H30.6569V18.04ZM26.4569 19.04V33.96H28.4569V19.04H26.4569ZM26.4569 33.96C26.4569 34.3965 26.3251 34.5526 26.1822 34.6479L27.2916 36.3121C28.1086 35.7674 28.4569 34.9102 28.4569 33.96H26.4569ZM26.1822 34.648C25.877 34.8514 25.5259 34.96 25.0969 34.96V36.96C25.8945 36.96 26.6367 36.7486 27.2916 36.312L26.1822 34.648ZM25.0969 34.96C24.7041 34.96 24.3644 34.8565 24.0516 34.6479L22.9422 36.3121C23.5894 36.7435 24.3163 36.96 25.0969 36.96V34.96ZM24.0516 34.6479C23.9086 34.5526 23.7769 34.3965 23.7769 33.96H21.7769C21.7769 34.9102 22.1251 35.7674 22.9422 36.3121L24.0516 34.6479ZM23.7769 33.96V5.08H21.7769V33.96H23.7769ZM23.7769 5.08C23.7769 4.64352 23.9086 4.48736 24.0516 4.39205L22.9422 2.72795C22.1251 3.27264 21.7769 4.12981 21.7769 5.08H23.7769ZM24.0516 4.39205C24.3644 4.18352 24.7041 4.08 25.0969 4.08V2.08C24.3163 2.08 23.5894 2.29648 22.9422 2.72795L24.0516 4.39205ZM25.0969 4.08C25.5259 4.08 25.877 4.18861 26.1822 4.39205L27.2916 2.72795C26.6367 2.29138 25.8945 2.08 25.0969 2.08V4.08ZM26.1822 4.39205C26.3251 4.48736 26.4569 4.64352 26.4569 5.08H28.4569C28.4569 4.12981 28.1086 3.27264 27.2916 2.72795L26.1822 4.39205ZM26.4569 5.08V14.72H28.4569V5.08H26.4569Z" fill="black" mask="url(#path-3-outside-2_502_613)"/>
<mask id="path-5-outside-3_502_613" maskUnits="userSpaceOnUse" x="41" y="18" width="18" height="7" fill="black">
<rect fill="white" x="41" y="18" width="18" height="7"/>
<path d="M55.3253 19.6C55.912 19.6 56.3386 19.8133 56.6053 20.24C56.8986 20.64 57.0453 21.1333 57.0453 21.72C57.0453 22.3067 56.8986 22.8133 56.6053 23.24C56.3386 23.64 55.912 23.84 55.3253 23.84H44.6853C44.0986 23.84 43.6586 23.64 43.3653 23.24C43.0986 22.8133 42.9653 22.3067 42.9653 21.72C42.9653 21.1333 43.0986 20.64 43.3653 20.24C43.6586 19.8133 44.0986 19.6 44.6853 19.6H55.3253Z"/>
</mask>
<path d="M55.3253 19.6C55.912 19.6 56.3386 19.8133 56.6053 20.24C56.8986 20.64 57.0453 21.1333 57.0453 21.72C57.0453 22.3067 56.8986 22.8133 56.6053 23.24C56.3386 23.64 55.912 23.84 55.3253 23.84H44.6853C44.0986 23.84 43.6586 23.64 43.3653 23.24C43.0986 22.8133 42.9653 22.3067 42.9653 21.72C42.9653 21.1333 43.0986 20.64 43.3653 20.24C43.6586 19.8133 44.0986 19.6 44.6853 19.6H55.3253Z" fill="black"/>
<path d="M56.6053 20.24L55.7573 20.77L55.777 20.8015L55.7989 20.8314L56.6053 20.24ZM56.6053 23.24L55.7813 22.6735L55.7772 22.6794L55.7733 22.6853L56.6053 23.24ZM43.3653 23.24L42.5173 23.77L42.537 23.8015L42.5589 23.8314L43.3653 23.24ZM43.3653 20.24L42.5413 19.6735L42.5372 19.6794L42.5333 19.6853L43.3653 20.24ZM55.3253 20.6C55.6344 20.6 55.7064 20.6885 55.7573 20.77L57.4533 19.71C56.9709 18.9382 56.1896 18.6 55.3253 18.6V20.6ZM55.7989 20.8314C55.9447 21.0301 56.0453 21.306 56.0453 21.72H58.0453C58.0453 20.9607 57.8526 20.2498 57.4117 19.6486L55.7989 20.8314ZM56.0453 21.72C56.0453 22.1323 55.9452 22.4351 55.7813 22.6735L57.4294 23.8065C57.8521 23.1916 58.0453 22.4811 58.0453 21.72H56.0453ZM55.7733 22.6853C55.7343 22.7437 55.6618 22.84 55.3253 22.84V24.84C56.1622 24.84 56.9429 24.5363 57.4374 23.7947L55.7733 22.6853ZM55.3253 22.84H44.6853V24.84H55.3253V22.84ZM44.6853 22.84C44.3512 22.84 44.2408 22.7428 44.1717 22.6486L42.5589 23.8314C43.0765 24.5372 43.8461 24.84 44.6853 24.84V22.84ZM44.2133 22.71C44.0615 22.4671 43.9653 22.1509 43.9653 21.72H41.9653C41.9653 22.4624 42.1358 23.1595 42.5173 23.77L44.2133 22.71ZM43.9653 21.72C43.9653 21.2868 44.0623 20.9973 44.1974 20.7947L42.5333 19.6853C42.135 20.2827 41.9653 20.9798 41.9653 21.72H43.9653ZM44.1894 20.8065C44.269 20.6907 44.377 20.6 44.6853 20.6V18.6C43.8203 18.6 43.0483 18.936 42.5413 19.6735L44.1894 20.8065ZM44.6853 20.6H55.3253V18.6H44.6853V20.6Z" fill="black" mask="url(#path-5-outside-3_502_613)"/>
<mask id="path-7-outside-4_502_613" maskUnits="userSpaceOnUse" x="43" y="16" width="18" height="7" fill="black">
<rect fill="white" x="43" y="16" width="18" height="7"/>
<path d="M57.3253 17.6C57.912 17.6 58.3386 17.8133 58.6053 18.24C58.8986 18.64 59.0453 19.1333 59.0453 19.72C59.0453 20.3067 58.8986 20.8133 58.6053 21.24C58.3386 21.64 57.912 21.84 57.3253 21.84H46.6853C46.0986 21.84 45.6586 21.64 45.3653 21.24C45.0986 20.8133 44.9653 20.3067 44.9653 19.72C44.9653 19.1333 45.0986 18.64 45.3653 18.24C45.6586 17.8133 46.0986 17.6 46.6853 17.6H57.3253Z"/>
</mask>
<path d="M57.3253 17.6C57.912 17.6 58.3386 17.8133 58.6053 18.24C58.8986 18.64 59.0453 19.1333 59.0453 19.72C59.0453 20.3067 58.8986 20.8133 58.6053 21.24C58.3386 21.64 57.912 21.84 57.3253 21.84H46.6853C46.0986 21.84 45.6586 21.64 45.3653 21.24C45.0986 20.8133 44.9653 20.3067 44.9653 19.72C44.9653 19.1333 45.0986 18.64 45.3653 18.24C45.6586 17.8133 46.0986 17.6 46.6853 17.6H57.3253Z" fill="white"/>
<path d="M58.6053 18.24L57.7573 18.77L57.777 18.8015L57.7989 18.8314L58.6053 18.24ZM58.6053 21.24L57.7813 20.6735L57.7772 20.6794L57.7733 20.6853L58.6053 21.24ZM45.3653 21.24L44.5173 21.77L44.537 21.8015L44.5589 21.8314L45.3653 21.24ZM45.3653 18.24L44.5413 17.6735L44.5372 17.6794L44.5333 17.6853L45.3653 18.24ZM57.3253 18.6C57.6344 18.6 57.7064 18.6885 57.7573 18.77L59.4533 17.71C58.9709 16.9382 58.1896 16.6 57.3253 16.6V18.6ZM57.7989 18.8314C57.9447 19.0301 58.0453 19.306 58.0453 19.72H60.0453C60.0453 18.9607 59.8526 18.2498 59.4117 17.6486L57.7989 18.8314ZM58.0453 19.72C58.0453 20.1323 57.9452 20.4351 57.7813 20.6735L59.4294 21.8065C59.8521 21.1916 60.0453 20.4811 60.0453 19.72H58.0453ZM57.7733 20.6853C57.7343 20.7437 57.6618 20.84 57.3253 20.84V22.84C58.1622 22.84 58.9429 22.5363 59.4374 21.7947L57.7733 20.6853ZM57.3253 20.84H46.6853V22.84H57.3253V20.84ZM46.6853 20.84C46.3512 20.84 46.2408 20.7428 46.1717 20.6486L44.5589 21.8314C45.0765 22.5372 45.8461 22.84 46.6853 22.84V20.84ZM46.2133 20.71C46.0615 20.4671 45.9653 20.1509 45.9653 19.72H43.9653C43.9653 20.4624 44.1358 21.1595 44.5173 21.77L46.2133 20.71ZM45.9653 19.72C45.9653 19.2868 46.0623 18.9973 46.1974 18.7947L44.5333 17.6853C44.135 18.2827 43.9653 18.9798 43.9653 19.72H45.9653ZM46.1894 18.8065C46.269 18.6907 46.377 18.6 46.6853 18.6V16.6C45.8203 16.6 45.0483 16.936 44.5413 17.6735L46.1894 18.8065ZM46.6853 18.6H57.3253V16.6H46.6853V18.6Z" fill="black" mask="url(#path-7-outside-4_502_613)"/>
<mask id="path-9-outside-5_502_613" maskUnits="userSpaceOnUse" x="63" y="5" width="37" height="39" fill="black">
<rect fill="white" x="63" y="5" width="37" height="39"/>
<path d="M70.3369 10.96C69.7235 10.96 69.2702 10.7467 68.9769 10.32C68.6835 9.89333 68.5369 9.37333 68.5369 8.76C68.5369 8.14666 68.6835 7.62666 68.9769 7.2C69.2702 6.77333 69.7235 6.56 70.3369 6.56H90.3369C91.6169 6.56 92.4969 6.8 92.9769 7.28C93.4835 7.76 93.7369 8.62666 93.7369 9.88V12.6C93.7369 14.8933 93.5902 17.12 93.2969 19.28C93.0035 21.4133 92.5502 23.3067 91.9369 24.96L87.2569 24.16C87.7635 22.2933 88.1235 20.4267 88.3369 18.56C88.5502 16.6667 88.6569 14.7467 88.6569 12.8V11.88C88.6569 11.2667 88.3502 10.96 87.7369 10.96H70.3369ZM66.3769 27.04C65.7635 27.04 65.3102 26.8267 65.0169 26.4C64.7235 25.9733 64.5769 25.4667 64.5769 24.88C64.5769 24.2933 64.7235 23.7867 65.0169 23.36C65.3102 22.9333 65.7635 22.72 66.3769 22.72H96.6169C97.2302 22.72 97.6835 22.9333 97.9769 23.36C98.2702 23.7867 98.4169 24.2933 98.4169 24.88C98.4169 25.4667 98.2702 25.9733 97.9769 26.4C97.6835 26.8267 97.2302 27.04 96.6169 27.04H84.0569V40.28C84.0569 41.0267 83.7902 41.5733 83.2569 41.92C82.7502 42.2667 82.1635 42.44 81.4969 42.44C80.8302 42.44 80.2302 42.2667 79.6969 41.92C79.1902 41.5733 78.9369 41.0267 78.9369 40.28V27.04H66.3769Z"/>
</mask>
<path d="M70.3369 10.96C69.7235 10.96 69.2702 10.7467 68.9769 10.32C68.6835 9.89333 68.5369 9.37333 68.5369 8.76C68.5369 8.14666 68.6835 7.62666 68.9769 7.2C69.2702 6.77333 69.7235 6.56 70.3369 6.56H90.3369C91.6169 6.56 92.4969 6.8 92.9769 7.28C93.4835 7.76 93.7369 8.62666 93.7369 9.88V12.6C93.7369 14.8933 93.5902 17.12 93.2969 19.28C93.0035 21.4133 92.5502 23.3067 91.9369 24.96L87.2569 24.16C87.7635 22.2933 88.1235 20.4267 88.3369 18.56C88.5502 16.6667 88.6569 14.7467 88.6569 12.8V11.88C88.6569 11.2667 88.3502 10.96 87.7369 10.96H70.3369ZM66.3769 27.04C65.7635 27.04 65.3102 26.8267 65.0169 26.4C64.7235 25.9733 64.5769 25.4667 64.5769 24.88C64.5769 24.2933 64.7235 23.7867 65.0169 23.36C65.3102 22.9333 65.7635 22.72 66.3769 22.72H96.6169C97.2302 22.72 97.6835 22.9333 97.9769 23.36C98.2702 23.7867 98.4169 24.2933 98.4169 24.88C98.4169 25.4667 98.2702 25.9733 97.9769 26.4C97.6835 26.8267 97.2302 27.04 96.6169 27.04H84.0569V40.28C84.0569 41.0267 83.7902 41.5733 83.2569 41.92C82.7502 42.2667 82.1635 42.44 81.4969 42.44C80.8302 42.44 80.2302 42.2667 79.6969 41.92C79.1902 41.5733 78.9369 41.0267 78.9369 40.28V27.04H66.3769Z" fill="black"/>
<path d="M68.9769 10.32L68.1528 10.8865L68.1528 10.8865L68.9769 10.32ZM68.9769 7.2L69.8009 7.76653L69.8009 7.76653L68.9769 7.2ZM92.9769 7.28L92.2698 7.9871L92.2793 7.99666L92.2891 8.00595L92.9769 7.28ZM93.2969 19.28L94.2876 19.4162L94.2878 19.4146L93.2969 19.28ZM91.9369 24.96L91.7684 25.9457L92.586 26.0855L92.8744 25.3078L91.9369 24.96ZM87.2569 24.16L86.2918 23.898L86.0035 24.9602L87.0884 25.1457L87.2569 24.16ZM88.3369 18.56L89.3304 18.6735L89.3306 18.672L88.3369 18.56ZM84.0569 27.04V26.04H83.0569V27.04H84.0569ZM83.2569 41.92L82.7119 41.0816L82.702 41.088L82.6922 41.0947L83.2569 41.92ZM79.6969 41.92L79.1322 42.7453L79.142 42.752L79.1519 42.7584L79.6969 41.92ZM78.9369 27.04H79.9369V26.04H78.9369V27.04ZM70.3369 9.96C69.9831 9.96 69.8714 9.85599 69.8009 9.75347L68.1528 10.8865C68.669 11.6373 69.464 11.96 70.3369 11.96V9.96ZM69.8009 9.75347C69.6421 9.52241 69.5369 9.20921 69.5369 8.76H67.5369C67.5369 9.53746 67.725 10.2643 68.1528 10.8865L69.8009 9.75347ZM69.5369 8.76C69.5369 8.31079 69.6421 7.99759 69.8009 7.76653L68.1528 6.63347C67.725 7.25574 67.5369 7.98254 67.5369 8.76H69.5369ZM69.8009 7.76653C69.8714 7.664 69.9831 7.56 70.3369 7.56V5.56C69.464 5.56 68.669 5.88266 68.1528 6.63347L69.8009 7.76653ZM70.3369 7.56H90.3369V5.56H70.3369V7.56ZM90.3369 7.56C91.5615 7.56 92.0863 7.80367 92.2698 7.9871L93.684 6.57289C92.9074 5.79633 91.6723 5.56 90.3369 5.56V7.56ZM92.2891 8.00595C92.4866 8.19299 92.7369 8.69986 92.7369 9.88H94.7369C94.7369 8.55347 94.4805 7.327 93.6646 6.55405L92.2891 8.00595ZM92.7369 9.88V12.6H94.7369V9.88H92.7369ZM92.7369 12.6C92.7369 14.8506 92.5929 17.0323 92.306 19.1454L94.2878 19.4146C94.5875 17.2077 94.7369 14.936 94.7369 12.6H92.7369ZM92.3062 19.1438C92.0207 21.2201 91.5824 23.0403 90.9993 24.6122L92.8744 25.3078C93.518 23.573 93.9864 21.6066 94.2876 19.4162L92.3062 19.1438ZM92.1054 23.9743L87.4254 23.1743L87.0884 25.1457L91.7684 25.9457L92.1054 23.9743ZM88.222 24.422C88.7414 22.508 89.1112 20.5918 89.3304 18.6735L87.3433 18.4465C87.1359 20.2616 86.7856 22.0786 86.2918 23.898L88.222 24.422ZM89.3306 18.672C89.5482 16.7407 89.6569 14.7833 89.6569 12.8H87.6569C87.6569 14.7101 87.5522 16.5927 87.3432 18.448L89.3306 18.672ZM89.6569 12.8V11.88H87.6569V12.8H89.6569ZM89.6569 11.88C89.6569 11.4192 89.541 10.8899 89.134 10.4829C88.727 10.0759 88.1977 9.96 87.7369 9.96V11.96C87.8099 11.96 87.833 11.9695 87.8231 11.9662C87.8172 11.9642 87.8027 11.9587 87.783 11.9469C87.763 11.9348 87.741 11.9183 87.7198 11.8971C87.6985 11.8759 87.682 11.8539 87.67 11.8339C87.6582 11.8142 87.6527 11.7997 87.6507 11.7937C87.6474 11.7839 87.6569 11.807 87.6569 11.88H89.6569ZM87.7369 9.96H70.3369V11.96H87.7369V9.96ZM66.3769 26.04C66.0231 26.04 65.9114 25.936 65.8409 25.8335L64.1928 26.9665C64.709 27.7173 65.504 28.04 66.3769 28.04V26.04ZM65.8409 25.8335C65.677 25.5951 65.5769 25.2923 65.5769 24.88H63.5769C63.5769 25.6411 63.7701 26.3516 64.1928 26.9665L65.8409 25.8335ZM65.5769 24.88C65.5769 24.4677 65.677 24.1649 65.8409 23.9265L64.1928 22.7935C63.7701 23.4084 63.5769 24.1189 63.5769 24.88H65.5769ZM65.8409 23.9265C65.9114 23.824 66.0231 23.72 66.3769 23.72V21.72C65.504 21.72 64.709 22.0427 64.1928 22.7935L65.8409 23.9265ZM66.3769 23.72H96.6169V21.72H66.3769V23.72ZM96.6169 23.72C96.9706 23.72 97.0824 23.824 97.1528 23.9265L98.8009 22.7935C98.2847 22.0427 97.4898 21.72 96.6169 21.72V23.72ZM97.1528 23.9265C97.3167 24.1649 97.4169 24.4677 97.4169 24.88H99.4169C99.4169 24.1189 99.2237 23.4084 98.8009 22.7935L97.1528 23.9265ZM97.4169 24.88C97.4169 25.2923 97.3167 25.5951 97.1528 25.8335L98.8009 26.9665C99.2237 26.3516 99.4169 25.6411 99.4169 24.88H97.4169ZM97.1528 25.8335C97.0824 25.936 96.9706 26.04 96.6169 26.04V28.04C97.4898 28.04 98.2847 27.7173 98.8009 26.9665L97.1528 25.8335ZM96.6169 26.04H84.0569V28.04H96.6169V26.04ZM83.0569 27.04V40.28H85.0569V27.04H83.0569ZM83.0569 40.28C83.0569 40.7566 82.9085 40.9538 82.7119 41.0816L83.8019 42.7584C84.6719 42.1929 85.0569 41.2967 85.0569 40.28H83.0569ZM82.6922 41.0947C82.3662 41.3177 81.9802 41.44 81.4969 41.44V43.44C82.3469 43.44 83.1342 43.2156 83.8216 42.7453L82.6922 41.0947ZM81.4969 41.44C81.0139 41.44 80.605 41.3176 80.2419 41.0816L79.1519 42.7584C79.8554 43.2158 80.6465 43.44 81.4969 43.44V41.44ZM80.2616 41.0947C80.0881 40.976 79.9369 40.7778 79.9369 40.28H77.9369C77.9369 41.2755 78.2923 42.1706 79.1322 42.7453L80.2616 41.0947ZM79.9369 40.28V27.04H77.9369V40.28H79.9369ZM78.9369 26.04H66.3769V28.04H78.9369V26.04Z" fill="black" mask="url(#path-9-outside-5_502_613)"/>
<mask id="path-11-outside-6_502_613" maskUnits="userSpaceOnUse" x="65" y="3" width="37" height="39" fill="black">
<rect fill="white" x="65" y="3" width="37" height="39"/>
<path d="M72.3369 8.96C71.7235 8.96 71.2702 8.74667 70.9769 8.32C70.6835 7.89333 70.5369 7.37333 70.5369 6.76C70.5369 6.14666 70.6835 5.62666 70.9769 5.2C71.2702 4.77333 71.7235 4.56 72.3369 4.56H92.3369C93.6169 4.56 94.4969 4.8 94.9769 5.28C95.4835 5.76 95.7369 6.62666 95.7369 7.88V10.6C95.7369 12.8933 95.5902 15.12 95.2969 17.28C95.0035 19.4133 94.5502 21.3067 93.9369 22.96L89.2569 22.16C89.7635 20.2933 90.1235 18.4267 90.3369 16.56C90.5502 14.6667 90.6569 12.7467 90.6569 10.8V9.88C90.6569 9.26666 90.3502 8.96 89.7369 8.96H72.3369ZM68.3769 25.04C67.7635 25.04 67.3102 24.8267 67.0169 24.4C66.7235 23.9733 66.5769 23.4667 66.5769 22.88C66.5769 22.2933 66.7235 21.7867 67.0169 21.36C67.3102 20.9333 67.7635 20.72 68.3769 20.72H98.6169C99.2302 20.72 99.6835 20.9333 99.9769 21.36C100.27 21.7867 100.417 22.2933 100.417 22.88C100.417 23.4667 100.27 23.9733 99.9769 24.4C99.6835 24.8267 99.2302 25.04 98.6169 25.04H86.0569V38.28C86.0569 39.0267 85.7902 39.5733 85.2569 39.92C84.7502 40.2667 84.1635 40.44 83.4969 40.44C82.8302 40.44 82.2302 40.2667 81.6969 39.92C81.1902 39.5733 80.9369 39.0267 80.9369 38.28V25.04H68.3769Z"/>
</mask>
<path d="M72.3369 8.96C71.7235 8.96 71.2702 8.74667 70.9769 8.32C70.6835 7.89333 70.5369 7.37333 70.5369 6.76C70.5369 6.14666 70.6835 5.62666 70.9769 5.2C71.2702 4.77333 71.7235 4.56 72.3369 4.56H92.3369C93.6169 4.56 94.4969 4.8 94.9769 5.28C95.4835 5.76 95.7369 6.62666 95.7369 7.88V10.6C95.7369 12.8933 95.5902 15.12 95.2969 17.28C95.0035 19.4133 94.5502 21.3067 93.9369 22.96L89.2569 22.16C89.7635 20.2933 90.1235 18.4267 90.3369 16.56C90.5502 14.6667 90.6569 12.7467 90.6569 10.8V9.88C90.6569 9.26666 90.3502 8.96 89.7369 8.96H72.3369ZM68.3769 25.04C67.7635 25.04 67.3102 24.8267 67.0169 24.4C66.7235 23.9733 66.5769 23.4667 66.5769 22.88C66.5769 22.2933 66.7235 21.7867 67.0169 21.36C67.3102 20.9333 67.7635 20.72 68.3769 20.72H98.6169C99.2302 20.72 99.6835 20.9333 99.9769 21.36C100.27 21.7867 100.417 22.2933 100.417 22.88C100.417 23.4667 100.27 23.9733 99.9769 24.4C99.6835 24.8267 99.2302 25.04 98.6169 25.04H86.0569V38.28C86.0569 39.0267 85.7902 39.5733 85.2569 39.92C84.7502 40.2667 84.1635 40.44 83.4969 40.44C82.8302 40.44 82.2302 40.2667 81.6969 39.92C81.1902 39.5733 80.9369 39.0267 80.9369 38.28V25.04H68.3769Z" fill="white"/>
<path d="M70.9769 8.32L70.1528 8.88653L70.1528 8.88653L70.9769 8.32ZM70.9769 5.2L71.8009 5.76653L71.8009 5.76653L70.9769 5.2ZM94.9769 5.28L94.2698 5.9871L94.2793 5.99666L94.2891 6.00595L94.9769 5.28ZM95.2969 17.28L96.2876 17.4162L96.2878 17.4146L95.2969 17.28ZM93.9369 22.96L93.7684 23.9457L94.586 24.0855L94.8744 23.3078L93.9369 22.96ZM89.2569 22.16L88.2918 21.898L88.0035 22.9602L89.0884 23.1457L89.2569 22.16ZM90.3369 16.56L91.3304 16.6735L91.3306 16.672L90.3369 16.56ZM86.0569 25.04V24.04H85.0569V25.04H86.0569ZM85.2569 39.92L84.7119 39.0816L84.702 39.088L84.6922 39.0947L85.2569 39.92ZM81.6969 39.92L81.1322 40.7453L81.142 40.752L81.1519 40.7584L81.6969 39.92ZM80.9369 25.04H81.9369V24.04H80.9369V25.04ZM72.3369 7.96C71.9831 7.96 71.8714 7.85599 71.8009 7.75347L70.1528 8.88653C70.669 9.63734 71.464 9.96 72.3369 9.96V7.96ZM71.8009 7.75347C71.6421 7.52241 71.5369 7.20921 71.5369 6.76H69.5369C69.5369 7.53746 69.725 8.26426 70.1528 8.88653L71.8009 7.75347ZM71.5369 6.76C71.5369 6.31079 71.6421 5.99759 71.8009 5.76653L70.1528 4.63347C69.725 5.25574 69.5369 5.98254 69.5369 6.76H71.5369ZM71.8009 5.76653C71.8714 5.664 71.9831 5.56 72.3369 5.56V3.56C71.464 3.56 70.669 3.88266 70.1528 4.63347L71.8009 5.76653ZM72.3369 5.56H92.3369V3.56H72.3369V5.56ZM92.3369 5.56C93.5615 5.56 94.0863 5.80367 94.2698 5.9871L95.684 4.57289C94.9074 3.79633 93.6723 3.56 92.3369 3.56V5.56ZM94.2891 6.00595C94.4866 6.19299 94.7369 6.69986 94.7369 7.88H96.7369C96.7369 6.55347 96.4805 5.327 95.6646 4.55405L94.2891 6.00595ZM94.7369 7.88V10.6H96.7369V7.88H94.7369ZM94.7369 10.6C94.7369 12.8506 94.5929 15.0323 94.306 17.1454L96.2878 17.4146C96.5875 15.2077 96.7369 12.936 96.7369 10.6H94.7369ZM94.3062 17.1438C94.0207 19.2201 93.5824 21.0403 92.9993 22.6122L94.8744 23.3078C95.518 21.573 95.9864 19.6066 96.2876 17.4162L94.3062 17.1438ZM94.1054 21.9743L89.4254 21.1743L89.0884 23.1457L93.7684 23.9457L94.1054 21.9743ZM90.222 22.422C90.7414 20.508 91.1112 18.5918 91.3304 16.6735L89.3433 16.4465C89.1359 18.2616 88.7856 20.0786 88.2918 21.898L90.222 22.422ZM91.3306 16.672C91.5482 14.7407 91.6569 12.7833 91.6569 10.8H89.6569C89.6569 12.7101 89.5522 14.5927 89.3432 16.448L91.3306 16.672ZM91.6569 10.8V9.88H89.6569V10.8H91.6569ZM91.6569 9.88C91.6569 9.41919 91.541 8.8899 91.134 8.48289C90.727 8.07588 90.1977 7.96 89.7369 7.96V9.96C89.8099 9.96 89.833 9.96947 89.8231 9.96618C89.8172 9.9642 89.8027 9.95867 89.783 9.94687C89.763 9.93485 89.741 9.91834 89.7198 9.8971C89.6985 9.87587 89.682 9.8539 89.67 9.83387C89.6582 9.8142 89.6527 9.79966 89.6507 9.79373C89.6474 9.78386 89.6569 9.80701 89.6569 9.88H91.6569ZM89.7369 7.96H72.3369V9.96H89.7369V7.96ZM68.3769 24.04C68.0231 24.04 67.9114 23.936 67.8409 23.8335L66.1928 24.9665C66.709 25.7173 67.504 26.04 68.3769 26.04V24.04ZM67.8409 23.8335C67.677 23.5951 67.5769 23.2923 67.5769 22.88H65.5769C65.5769 23.6411 65.7701 24.3516 66.1928 24.9665L67.8409 23.8335ZM67.5769 22.88C67.5769 22.4677 67.677 22.1649 67.8409 21.9265L66.1928 20.7935C65.7701 21.4084 65.5769 22.1189 65.5769 22.88H67.5769ZM67.8409 21.9265C67.9114 21.824 68.0231 21.72 68.3769 21.72V19.72C67.504 19.72 66.709 20.0427 66.1928 20.7935L67.8409 21.9265ZM68.3769 21.72H98.6169V19.72H68.3769V21.72ZM98.6169 21.72C98.9706 21.72 99.0824 21.824 99.1528 21.9265L100.801 20.7935C100.285 20.0427 99.4898 19.72 98.6169 19.72V21.72ZM99.1528 21.9265C99.3167 22.1649 99.4169 22.4677 99.4169 22.88H101.417C101.417 22.1189 101.224 21.4084 100.801 20.7935L99.1528 21.9265ZM99.4169 22.88C99.4169 23.2923 99.3167 23.5951 99.1528 23.8335L100.801 24.9665C101.224 24.3516 101.417 23.6411 101.417 22.88H99.4169ZM99.1528 23.8335C99.0824 23.936 98.9706 24.04 98.6169 24.04V26.04C99.4898 26.04 100.285 25.7173 100.801 24.9665L99.1528 23.8335ZM98.6169 24.04H86.0569V26.04H98.6169V24.04ZM85.0569 25.04V38.28H87.0569V25.04H85.0569ZM85.0569 38.28C85.0569 38.7566 84.9085 38.9538 84.7119 39.0816L85.8019 40.7584C86.6719 40.1929 87.0569 39.2967 87.0569 38.28H85.0569ZM84.6922 39.0947C84.3662 39.3177 83.9802 39.44 83.4969 39.44V41.44C84.3469 41.44 85.1342 41.2156 85.8216 40.7453L84.6922 39.0947ZM83.4969 39.44C83.0139 39.44 82.605 39.3176 82.2419 39.0816L81.1519 40.7584C81.8554 41.2158 82.6465 41.44 83.4969 41.44V39.44ZM82.2616 39.0947C82.0881 38.976 81.9369 38.7778 81.9369 38.28H79.9369C79.9369 39.2755 80.2923 40.1706 81.1322 40.7453L82.2616 39.0947ZM81.9369 38.28V25.04H79.9369V38.28H81.9369ZM80.9369 24.04H68.3769V26.04H80.9369V24.04Z" fill="black" mask="url(#path-11-outside-6_502_613)"/>
</svg>
